<svg width="273" height="72" viewBox="0 0 273 72" fill="none" xmlns="http://www.w3.org/2000/svg">
<path d="M118.099 36.784C118.099 34.072 118.099 31.768 118.147 29.44H120.427C123.187 29.44 124.435 30.736 124.435 32.992C124.435 35.176 123.043 36.784 120.235 36.784H118.099ZM126.763 44.896L125.539 40.768C124.939 38.752 124.051 37.816 122.395 37.456C125.395 36.928 126.907 35.08 126.907 33.016C126.907 30.112 124.555 28.408 120.571 28.408H113.203V29.32L115.651 29.584C115.699 31.888 115.699 34.216 115.699 36.568V37.864C115.699 40.216 115.699 42.52 115.651 44.824L113.203 45.088V46H120.595V45.088L118.147 44.8C118.099 42.544 118.099 40.24 118.099 37.792H119.491C121.675 37.792 122.539 38.272 123.067 40.408L124.147 44.584C124.435 45.808 125.179 46.264 126.811 46.264C127.627 46.264 128.299 46.168 128.803 46V45.088L126.763 44.896ZM137.183 38.656C137.447 35.536 139.151 34.192 140.759 34.192C142.463 34.192 143.663 35.608 143.663 37.24C143.663 38.104 143.399 38.704 142.247 38.704L137.183 38.656ZM145.607 39.664C145.727 39.304 145.799 38.8 145.799 38.2C145.799 35.104 143.711 33.184 140.879 33.184C137.639 33.184 134.855 35.8 134.855 39.856C134.855 43.96 137.255 46.336 140.783 46.336C143.111 46.336 144.791 45.184 145.751 43.336L145.223 42.976C144.287 44.104 143.255 44.872 141.527 44.872C138.959 44.872 137.207 43.12 137.159 39.64L145.607 39.664ZM162.015 43.504C161.007 44.632 160.167 44.992 159.015 44.992C156.879 44.992 155.295 43.456 155.295 39.808C155.295 36.04 157.023 34.504 159.039 34.504C159.927 34.504 160.839 34.84 162.015 35.896V43.504ZM164.175 44.944V30.496L164.247 26.752L163.911 26.56L159.855 27.664V28.456L162.063 28.648V34.888C160.959 33.592 159.831 33.184 158.607 33.184C155.367 33.184 152.991 35.8 152.991 39.88C152.991 43.72 155.175 46.336 158.391 46.336C159.999 46.336 161.151 45.64 162.087 44.464L162.231 46.264L166.311 46V45.184L164.175 44.944ZM181.768 43.504C180.76 44.632 179.92 44.992 178.768 44.992C176.632 44.992 175.048 43.456 175.048 39.808C175.048 36.04 176.776 34.504 178.792 34.504C179.68 34.504 180.592 34.84 181.768 35.896V43.504ZM183.928 44.944V30.496L184 26.752L183.664 26.56L179.608 27.664V28.456L181.816 28.648V34.888C180.712 33.592 179.584 33.184 178.36 33.184C175.12 33.184 172.744 35.8 172.744 39.88C172.744 43.72 174.928 46.336 178.144 46.336C179.752 46.336 180.904 45.64 181.84 44.464L181.984 46.264L186.064 46V45.184L183.928 44.944ZM198.521 46.336C201.593 46.336 204.569 44.152 204.569 39.808C204.569 35.44 201.569 33.184 198.521 33.184C195.449 33.184 192.497 35.464 192.497 39.808C192.497 44.128 195.425 46.336 198.521 46.336ZM198.521 45.328C196.217 45.328 194.897 43.432 194.897 39.808C194.897 36.16 196.217 34.192 198.521 34.192C200.801 34.192 202.145 36.16 202.145 39.808C202.145 43.432 200.801 45.328 198.521 45.328ZM218.316 44.392C217.62 44.896 217.14 45.136 216.516 45.136C215.58 45.136 215.004 44.56 215.004 43.168V34.696H218.556V33.544H215.028L215.172 29.92H213.66L212.964 33.472L210.612 33.76V34.696H212.844V41.08C212.844 42.064 212.82 42.64 212.82 43.264C212.82 45.376 213.924 46.336 215.796 46.336C217.14 46.336 218.172 45.832 218.844 44.992L218.316 44.392Z" fill="black" fill-opacity="0.6"/>
<path d="M85.8809 27.6668C85.8818 28.7238 85.6735 29.7706 85.2681 30.7467C84.8626 31.7228 84.2681 32.6088 83.5187 33.3536L79.1494 37.727C77.644 39.2321 75.6032 40.0776 73.4755 40.0776C71.3477 40.0776 69.3069 39.2321 67.8015 37.727C67.6775 37.6145 67.5777 37.478 67.508 37.3258C67.4383 37.1735 67.4002 37.0087 67.3961 36.8412C67.392 36.6738 67.4219 36.5073 67.484 36.3518C67.5461 36.1963 67.6392 36.0551 67.7575 35.9366C67.8758 35.8182 68.0169 35.7251 68.1723 35.6629C68.3276 35.6007 68.494 35.5708 68.6613 35.5749C68.8285 35.579 68.9932 35.6171 69.1453 35.6869C69.2974 35.7566 69.4338 35.8566 69.5462 35.9807C70.5904 37.0197 72.003 37.6029 73.4755 37.6029C74.9479 37.6029 76.3605 37.0197 77.4047 35.9807L81.7741 31.6074C82.3084 31.0951 82.7351 30.4811 83.0292 29.8015C83.3233 29.1219 83.4789 28.3904 83.4868 27.6498C83.4947 26.9093 83.3548 26.1746 83.0754 25.4888C82.7959 24.8031 82.3824 24.1801 81.8592 23.6564C81.336 23.1327 80.7136 22.7189 80.0284 22.4391C79.3433 22.1594 78.6093 22.0194 77.8694 22.0273C77.1295 22.0352 76.3987 22.191 75.7197 22.4853C75.0408 22.7797 74.4274 23.2068 73.9155 23.7416L70.8585 26.8014C70.6235 27.0145 70.3157 27.129 69.9988 27.1211C69.6818 27.1133 69.38 26.9838 69.1558 26.7594C68.9316 26.535 68.8022 26.2329 68.7944 25.9157C68.7866 25.5984 68.901 25.2903 69.1139 25.0551L72.1708 21.9954C73.2956 20.8781 74.725 20.1182 76.2797 19.8111C77.8344 19.5039 79.445 19.6633 80.9095 20.2691C82.3741 20.8749 83.6272 21.9002 84.5116 23.2163C85.3961 24.5324 85.8724 26.0807 85.8809 27.6668ZM70.8585 42.533L67.8015 45.5927C66.752 46.5992 65.3503 47.1541 63.8969 47.1385C62.4435 47.1229 61.054 46.5381 60.0262 45.5094C58.9985 44.4807 58.4142 43.0899 58.3986 41.6352C58.383 40.1804 58.9374 38.7775 59.9429 37.727L64.3122 33.3536C65.3565 32.3146 66.7691 31.7315 68.2415 31.7315C69.714 31.7315 71.1266 32.3146 72.1708 33.3536C72.4058 33.5667 72.7136 33.6812 73.0306 33.6734C73.3475 33.6656 73.6494 33.5361 73.8736 33.3117C74.0977 33.0873 74.2271 32.7852 74.2349 32.4679C74.2427 32.1507 74.1284 31.8426 73.9155 31.6074C72.4101 30.1022 70.3693 29.2568 68.2415 29.2568C66.1137 29.2568 64.073 30.1022 62.5676 31.6074L58.1983 35.9807C57.4128 36.7173 56.7833 37.6044 56.3472 38.5893C55.9111 39.5743 55.6773 40.6369 55.6598 41.7141C55.6422 42.7913 55.8412 43.861 56.245 44.8597C56.6488 45.8583 57.2491 46.7655 58.0102 47.5273C58.7713 48.2891 59.6776 48.8899 60.6753 49.2941C61.6731 49.6982 62.7418 49.8974 63.818 49.8798C64.8942 49.8623 65.9559 49.6283 66.9399 49.1918C67.924 48.7553 68.8103 48.1252 69.5462 47.339L72.6031 44.2792C72.816 44.044 72.9304 43.7359 72.9226 43.4187C72.9148 43.1014 72.7854 42.7993 72.5612 42.5749C72.337 42.3505 72.0352 42.221 71.7182 42.2132C71.4013 42.2054 71.0935 42.3199 70.8585 42.533Z" fill="black" fill-opacity="0.6"/>
<rect x="1" y="1" width="271" height="70" rx="35" stroke="black" stroke-opacity="0.5" stroke-width="2"/>
</svg>
