<svg width="194" height="27" viewBox="0 0 194 27" fill="none" xmlns="http://www.w3.org/2000/svg">
<path d="M39.9275 10.724L39.7475 10.604L37.8995 11.324V11.72L38.9435 11.828C38.9675 12.356 38.9795 12.812 38.9795 13.556V14.24C38.9795 14.852 38.9675 15.788 38.9555 16.448L37.9955 16.592V17H41.1875V16.592L40.0955 16.436C40.0835 15.764 40.0715 14.852 40.0715 14.24V13.208C40.3235 12.404 40.6715 11.864 41.2115 11.468L41.3675 11.612C41.6195 11.84 41.8715 11.984 42.1835 11.984C42.7115 11.984 42.9275 11.636 42.9275 11.084C42.7715 10.772 42.3875 10.592 41.9795 10.592C41.2475 10.592 40.4915 11.228 40.0595 12.308L39.9275 10.724ZM47.0098 13.328C47.1418 11.768 47.9938 11.096 48.7978 11.096C49.6498 11.096 50.2498 11.804 50.2498 12.62C50.2498 13.052 50.1178 13.352 49.5418 13.352L47.0098 13.328ZM51.2218 13.832C51.2818 13.652 51.3178 13.4 51.3178 13.1C51.3178 11.552 50.2738 10.592 48.8578 10.592C47.2378 10.592 45.8458 11.9 45.8458 13.928C45.8458 15.98 47.0458 17.168 48.8098 17.168C49.9738 17.168 50.8138 16.592 51.2938 15.668L51.0298 15.488C50.5618 16.052 50.0458 16.436 49.1818 16.436C47.8978 16.436 47.0218 15.56 46.9978 13.82L51.2218 13.832ZM59.4258 15.752C58.9218 16.316 58.5018 16.496 57.9258 16.496C56.8578 16.496 56.0658 15.728 56.0658 13.904C56.0658 12.02 56.9298 11.252 57.9378 11.252C58.3818 11.252 58.8378 11.42 59.4258 11.948V15.752ZM60.5058 16.472V9.248L60.5418 7.376L60.3738 7.28L58.3458 7.832V8.228L59.4498 8.324V11.444C58.8978 10.796 58.3338 10.592 57.7218 10.592C56.1018 10.592 54.9138 11.9 54.9138 13.94C54.9138 15.86 56.0058 17.168 57.6138 17.168C58.4178 17.168 58.9938 16.82 59.4618 16.232L59.5338 17.132L61.5738 17V16.592L60.5058 16.472ZM69.3023 15.752C68.7983 16.316 68.3783 16.496 67.8023 16.496C66.7343 16.496 65.9423 15.728 65.9423 13.904C65.9423 12.02 66.8063 11.252 67.8143 11.252C68.2583 11.252 68.7143 11.42 69.3023 11.948V15.752ZM70.3823 16.472V9.248L70.4183 7.376L70.2503 7.28L68.2223 7.832V8.228L69.3263 8.324V11.444C68.7743 10.796 68.2103 10.592 67.5983 10.592C65.9783 10.592 64.7903 11.9 64.7903 13.94C64.7903 15.86 65.8823 17.168 67.4903 17.168C68.2943 17.168 68.8703 16.82 69.3383 16.232L69.4103 17.132L71.4503 17V16.592L70.3823 16.472ZM77.6789 17.168C79.2149 17.168 80.7029 16.076 80.7029 13.904C80.7029 11.72 79.2029 10.592 77.6789 10.592C76.1429 10.592 74.6669 11.732 74.6669 13.904C74.6669 16.064 76.1309 17.168 77.6789 17.168ZM77.6789 16.664C76.5269 16.664 75.8669 15.716 75.8669 13.904C75.8669 12.08 76.5269 11.096 77.6789 11.096C78.8189 11.096 79.4909 12.08 79.4909 13.904C79.4909 15.716 78.8189 16.664 77.6789 16.664ZM87.5762 16.196C87.2282 16.448 86.9882 16.568 86.6762 16.568C86.2082 16.568 85.9202 16.28 85.9202 15.584V11.348H87.6962V10.772H85.9322L86.0042 8.96H85.2482L84.9002 10.736L83.7242 10.88V11.348H84.8402V14.54C84.8402 15.032 84.8282 15.32 84.8282 15.632C84.8282 16.688 85.3802 17.168 86.3162 17.168C86.9882 17.168 87.5042 16.916 87.8402 16.496L87.5762 16.196ZM93.2447 13.232C92.3567 12.908 92.0207 12.656 92.0207 12.068C92.0207 11.492 92.4647 11.108 93.3047 11.108C93.6287 11.108 93.9407 11.192 94.2527 11.348L94.5047 12.464H95.0927L95.1407 11.132C94.5647 10.784 94.0127 10.592 93.3047 10.592C91.8287 10.592 91.0127 11.456 91.0127 12.428C91.0127 13.328 91.6487 13.844 92.6207 14.204L93.2327 14.408C94.0967 14.732 94.4567 15.032 94.4567 15.608C94.4567 16.232 93.9767 16.664 92.9447 16.664C92.5247 16.664 92.1767 16.592 91.8647 16.448L91.5767 15.236H90.9527L90.9767 16.676C91.6247 17 92.2007 17.168 92.9567 17.168C94.6247 17.168 95.5007 16.304 95.5007 15.296C95.5007 14.468 94.9967 13.856 93.7007 13.4L93.2447 13.232ZM102 17.168C103.536 17.168 105.024 16.076 105.024 13.904C105.024 11.72 103.524 10.592 102 10.592C100.464 10.592 98.988 11.732 98.988 13.904C98.988 16.064 100.452 17.168 102 17.168ZM102 16.664C100.848 16.664 100.188 15.716 100.188 13.904C100.188 12.08 100.848 11.096 102 11.096C103.14 11.096 103.812 12.08 103.812 13.904C103.812 15.716 103.14 16.664 102 16.664ZM110.445 16.448C110.433 15.728 110.421 14.96 110.421 14.24V9.248L110.481 7.376L110.301 7.28L108.273 7.832V8.228L109.341 8.324V14.24C109.341 14.96 109.329 15.728 109.317 16.448L108.273 16.592V17H111.501V16.592L110.445 16.448ZM120.505 16.46V12.668L120.541 10.808L120.421 10.676L118.525 10.88V11.276L119.461 11.456L119.425 15.452C118.849 16.028 118.225 16.316 117.589 16.316C116.869 16.316 116.497 15.908 116.497 14.732V12.668L116.557 10.808L116.425 10.676L114.493 10.868V11.252L115.441 11.444L115.405 14.792C115.393 16.544 116.053 17.168 117.121 17.168C117.949 17.168 118.789 16.748 119.461 15.92L119.581 17.108L121.405 17V16.604L120.505 16.46ZM128.252 16.196C127.904 16.448 127.664 16.568 127.352 16.568C126.884 16.568 126.596 16.28 126.596 15.584V11.348H128.372V10.772H126.608L126.68 8.96H125.924L125.576 10.736L124.4 10.88V11.348H125.516V14.54C125.516 15.032 125.504 15.32 125.504 15.632C125.504 16.688 126.056 17.168 126.992 17.168C127.664 17.168 128.18 16.916 128.516 16.496L128.252 16.196ZM132.996 9.092C133.452 9.092 133.836 8.744 133.836 8.276C133.836 7.796 133.452 7.472 132.996 7.472C132.516 7.472 132.144 7.796 132.144 8.276C132.144 8.744 132.516 9.092 132.996 9.092ZM133.572 16.448C133.56 15.776 133.548 14.852 133.548 14.24V12.476L133.572 10.724L133.392 10.604L131.376 11.312V11.708L132.444 11.804C132.468 12.38 132.48 12.812 132.48 13.544V14.24C132.48 14.852 132.468 15.776 132.456 16.448L131.448 16.592V17H134.472V16.592L133.572 16.448ZM140.93 17.168C142.466 17.168 143.954 16.076 143.954 13.904C143.954 11.72 142.454 10.592 140.93 10.592C139.394 10.592 137.918 11.732 137.918 13.904C137.918 16.064 139.382 17.168 140.93 17.168ZM140.93 16.664C139.778 16.664 139.118 15.716 139.118 13.904C139.118 12.08 139.778 11.096 140.93 11.096C142.07 11.096 142.742 12.08 142.742 13.904C142.742 15.716 142.07 16.664 140.93 16.664ZM153.585 16.448C153.573 15.788 153.561 14.876 153.561 14.24V12.98C153.561 11.288 152.997 10.592 151.881 10.592C151.065 10.592 150.189 11.06 149.517 11.804L149.409 10.724L149.229 10.604L147.381 11.324V11.72L148.425 11.828C148.449 12.356 148.461 12.812 148.461 13.556V14.24C148.461 14.852 148.449 15.776 148.437 16.448L147.465 16.592V17H150.489V16.592L149.577 16.448C149.565 15.776 149.553 14.852 149.553 14.24V12.296C150.237 11.672 150.801 11.42 151.389 11.42C152.157 11.42 152.481 11.828 152.481 13.016V14.24C152.481 14.876 152.469 15.788 152.457 16.448L151.485 16.592V17H154.509V16.592L153.585 16.448ZM159.273 17.168C159.777 17.168 160.173 16.76 160.173 16.292C160.173 15.788 159.777 15.38 159.273 15.38C158.781 15.38 158.385 15.788 158.385 16.292C158.385 16.76 158.781 17.168 159.273 17.168ZM168.968 15.44C168.548 16.064 167.888 16.436 167.132 16.436C165.872 16.436 164.96 15.476 164.96 13.784C164.96 12.08 165.776 11.096 166.976 11.096C167.18 11.096 167.432 11.132 167.684 11.216L167.936 12.14C168.008 12.512 168.212 12.752 168.632 12.752C168.944 12.752 169.136 12.596 169.208 12.272C169.028 11.3 168.068 10.592 166.904 10.592C165.308 10.592 163.832 11.828 163.832 13.904C163.832 15.908 165.02 17.168 166.796 17.168C168.02 17.168 168.848 16.58 169.232 15.56L168.968 15.44ZM175.702 17.168C177.238 17.168 178.726 16.076 178.726 13.904C178.726 11.72 177.226 10.592 175.702 10.592C174.166 10.592 172.69 11.732 172.69 13.904C172.69 16.064 174.154 17.168 175.702 17.168ZM175.702 16.664C174.55 16.664 173.89 15.716 173.89 13.904C173.89 12.08 174.55 11.096 175.702 11.096C176.842 11.096 177.514 12.08 177.514 13.904C177.514 15.716 176.842 16.664 175.702 16.664ZM192.221 16.448C192.209 15.788 192.197 14.876 192.197 14.24V12.872C192.197 11.252 191.585 10.592 190.517 10.592C189.677 10.592 188.837 10.988 188.141 11.828C187.913 10.964 187.397 10.592 186.581 10.592C185.777 10.592 184.937 11.06 184.289 11.792L184.181 10.724L184.001 10.604L182.153 11.324V11.72L183.197 11.828C183.233 12.356 183.233 12.812 183.233 13.556V14.24C183.233 14.852 183.221 15.776 183.209 16.448L182.237 16.592V17H185.261V16.592L184.349 16.448C184.337 15.776 184.325 14.852 184.325 14.24V12.296C184.997 11.684 185.513 11.432 186.113 11.432C186.857 11.432 187.193 11.828 187.193 13.028V14.24C187.193 14.876 187.181 15.788 187.169 16.448L186.173 16.592V17H189.197V16.592L188.297 16.448C188.273 15.788 188.261 14.876 188.261 14.24V12.98C188.261 12.728 188.249 12.512 188.225 12.308C188.921 11.672 189.473 11.432 190.025 11.432C190.781 11.432 191.129 11.78 191.129 13.004V14.24C191.129 14.876 191.117 15.788 191.105 16.448L190.133 16.592V17H193.145V16.592L192.221 16.448Z" fill="black" fill-opacity="0.6"/>
<a href="http://www.reddotsolution.com/home/index-1.html">
<rect fill="black" fill-opacity="0" x="0.455467" y="-0.122001" width="156.085" height="17.244"/>
</a>
<path d="M23.7626 8.72231C23.7632 9.44375 23.6209 10.1582 23.344 10.8243C23.067 11.4905 22.6608 12.0952 22.1489 12.6036L19.1641 15.5883C18.1358 16.6156 16.7417 17.1926 15.2882 17.1926C13.8346 17.1926 12.4405 16.6156 11.4122 15.5883C11.3275 15.5116 11.2593 15.4184 11.2117 15.3145C11.1641 15.2106 11.1381 15.0981 11.1352 14.9838C11.1324 14.8696 11.1529 14.7559 11.1953 14.6498C11.2377 14.5437 11.3013 14.4473 11.3821 14.3664C11.4629 14.2856 11.5593 14.2221 11.6655 14.1796C11.7716 14.1372 11.8852 14.1168 11.9995 14.1196C12.1138 14.1224 12.2263 14.1484 12.3302 14.196C12.4341 14.2436 12.5272 14.3118 12.604 14.3965C13.3174 15.1056 14.2823 15.5036 15.2882 15.5036C16.294 15.5036 17.259 15.1056 17.9723 14.3965L20.9571 11.4118C21.3221 11.0621 21.6136 10.6431 21.8145 10.1792C22.0154 9.71543 22.1217 9.21617 22.1271 8.71073C22.1325 8.2053 22.037 7.70388 21.8461 7.23587C21.6551 6.76785 21.3727 6.34267 21.0153 5.98526C20.6578 5.62785 20.2327 5.34539 19.7647 5.15447C19.2966 4.96354 18.7952 4.86798 18.2898 4.8734C17.7844 4.87881 17.2851 4.98509 16.8213 5.186C16.3575 5.38691 15.9384 5.67841 15.5888 6.0434L13.5005 8.13168C13.34 8.27711 13.1297 8.35525 12.9132 8.34992C12.6966 8.34459 12.4905 8.2562 12.3373 8.10304C12.1842 7.94989 12.0958 7.74371 12.0904 7.52719C12.0851 7.31067 12.1632 7.10039 12.3087 6.93989L14.397 4.8516C15.1653 4.08905 16.1418 3.57043 17.2038 3.36083C18.2658 3.15122 19.3661 3.25998 20.3665 3.67345C21.367 4.08693 22.223 4.78669 22.8272 5.68491C23.4314 6.58314 23.7568 7.63981 23.7626 8.72231ZM13.5005 18.8684L11.4122 20.9567C10.6952 21.6436 9.73771 22.0223 8.74486 22.0116C7.75201 22.001 6.80283 21.6019 6.10075 20.8998C5.39866 20.1977 4.99952 19.2485 4.98888 18.2557C4.97825 17.2628 5.35695 16.3053 6.04384 15.5883L9.0286 12.6036C9.74196 11.8945 10.7069 11.4964 11.7128 11.4964C12.7186 11.4964 13.6836 11.8945 14.397 12.6036C14.5575 12.749 14.7677 12.8271 14.9843 12.8218C15.2008 12.8165 15.407 12.7281 15.5601 12.5749C15.7133 12.4218 15.8017 12.2156 15.807 11.9991C15.8123 11.7825 15.7342 11.5723 15.5888 11.4118C14.5604 10.3845 13.1663 9.80749 11.7128 9.80749C10.2592 9.80749 8.86516 10.3845 7.8368 11.4118L4.85204 14.3965C4.31545 14.8992 3.88541 15.5047 3.58751 16.1769C3.2896 16.8491 3.12991 17.5744 3.11792 18.3095C3.10593 19.0447 3.24189 19.7748 3.51772 20.4564C3.79355 21.1379 4.20361 21.7571 4.72352 22.277C5.24344 22.7969 5.86259 23.207 6.54416 23.4828C7.22574 23.7586 7.95582 23.8946 8.69099 23.8826C9.42616 23.8706 10.1514 23.7109 10.8236 23.413C11.4959 23.1151 12.1013 22.6851 12.604 22.1485L14.6923 20.0602C14.8377 19.8997 14.9158 19.6894 14.9105 19.4729C14.9052 19.2564 14.8168 19.0502 14.6636 18.897C14.5105 18.7439 14.3043 18.6555 14.0878 18.6502C13.8713 18.6448 13.661 18.723 13.5005 18.8684Z" fill="black" fill-opacity="0.6"/>
</svg>
