<svg width="73" height="88" viewBox="0 0 73 88" fill="none" xmlns="http://www.w3.org/2000/svg">
<path d="M37.0067 0C39.6395 0.989541 42.2652 1.99337 44.9016 2.96862C53.6824 6.21589 62.4668 9.45601 71.2477 12.6997C72.6873 13.232 72.9767 13.6357 72.9767 15.1611C72.9767 25.2422 73.0481 35.3234 72.9409 45.4046C72.8195 56.9826 68.279 66.6637 59.8983 74.5478C53.5038 80.5672 46.0161 84.7398 37.7033 87.4762C37.4639 87.5548 37.2389 87.6691 37.0031 87.7655H35.9778C33.2628 86.6795 30.4871 85.7221 27.8436 84.479C20.5631 81.0531 14.1186 76.459 8.99585 70.1753C2.94786 62.7555 0.0078125 54.2069 0.0078125 44.633C0.0078125 34.7518 0.0078125 24.8707 0.0078125 14.9896C0.0078125 13.6571 0.329324 13.2248 1.65824 12.7354C12.8433 8.60937 24.0283 4.47973 35.2133 0.35009C35.4741 0.253637 35.7242 0.117888 35.9778 0C36.3208 0 36.6637 0 37.0031 0H37.0067ZM3.64447 31.626H3.65161C3.65161 36.2522 3.58016 40.882 3.6659 45.5082C3.81594 53.6674 6.28801 61.0551 11.3679 67.4746C17.7553 75.5445 26.186 80.5958 35.8171 83.8074C36.2815 83.961 36.8923 83.9145 37.3675 83.7574C42.8475 81.9676 47.9631 79.4348 52.6286 76.0375C63.2492 68.3034 69.2543 58.065 69.3293 44.6973C69.3793 35.3591 69.3329 26.0174 69.3543 16.6793C69.3543 16.097 69.19 15.8291 68.6434 15.629C58.1193 11.7602 47.6023 7.86989 37.0745 4.00461C36.7387 3.87957 36.2815 3.876 35.9457 3.99746C25.418 7.86275 14.9045 11.753 4.3768 15.6147C3.78736 15.8291 3.61946 16.1113 3.62303 16.7186C3.64804 21.6877 3.63732 26.6569 3.63732 31.626H3.64447Z" fill="#56B87E"/>
<path d="M32.409 49.8346C32.409 49.7774 32.4019 49.7202 32.409 49.6631C32.5769 48.0055 32.2126 46.7838 30.7836 45.5227C27.2291 42.3826 27.5114 36.8455 31.0766 33.6411C34.531 30.5367 39.9253 30.9797 42.901 34.6092C45.8732 38.2387 45.1802 43.658 41.3471 46.398C40.7862 46.7981 40.6005 47.2017 40.6219 47.8555C40.6648 49.2487 40.6505 50.6491 40.6326 52.0423C40.6005 54.3857 38.8036 56.2005 36.5315 56.2041C34.256 56.2076 32.4483 54.3965 32.4126 52.0601C32.4019 51.3207 32.4126 50.5776 32.4126 49.8381L32.409 49.8346ZM35.1526 49.0808C35.1526 49.9917 35.1455 50.9063 35.1526 51.8172C35.1633 52.8318 35.6742 53.4462 36.4958 53.4605C37.3496 53.4748 37.8855 52.8425 37.889 51.7779C37.8962 50.1239 37.9426 48.4699 37.8747 46.8195C37.8283 45.7228 38.1713 45.0512 39.1929 44.5118C41.7293 43.1757 42.6867 40.0999 41.5043 37.5171C40.3039 34.895 37.3032 33.6197 34.6168 34.6556C32.4805 35.4809 31.2373 37.0884 31.0658 39.3604C30.8908 41.711 31.9304 43.5115 34.0238 44.6154C34.8382 45.0476 35.2098 45.5978 35.1562 46.5087C35.1097 47.3625 35.1455 48.2199 35.1455 49.0736L35.1526 49.0808Z" fill="#56B87E"/>
</svg>
