<svg width="91" height="90" viewBox="0 0 91 90" fill="none" xmlns="http://www.w3.org/2000/svg">
<path d="M82.5121 67.7639C78.6679 66.6292 75.127 67.3922 72.2024 69.593C69.6103 67.0009 67.1258 64.5262 64.6315 62.0417C72.8675 52.8765 73.3566 38.2336 64.5435 28.4032C67.0573 25.8795 69.5711 23.3657 72.0948 20.8323C78.1691 25.2242 84.8498 23.0136 87.9995 19.1205C91.5208 14.7678 91.3937 8.54673 87.6278 4.31134C83.9108 0.124863 77.6898 -0.716345 72.9555 2.34526C70.6765 3.82227 69.0919 5.88616 68.3191 8.47826C67.1845 12.3224 67.9572 15.8633 70.2167 18.8858C67.6051 21.4876 65.101 24.0015 62.5774 26.5251C57.8236 22.3778 52.2188 20.1182 45.763 20.1182C39.317 20.1182 33.7122 22.3875 29.0268 26.4664C26.4347 23.8841 23.9209 21.3703 21.3973 18.8466C25.4468 13.4081 23.9992 6.87409 20.1452 3.41145C15.8805 -0.403338 9.60079 -0.569623 5.25781 3.02997C0.885482 6.64912 -0.229609 12.7723 2.62659 17.6044C4.05469 20.0106 6.08924 21.7028 8.7498 22.5832C12.7015 23.8743 16.3305 23.082 19.5486 20.7149C22.1309 23.2972 24.6252 25.7915 27.1195 28.2858C19.0497 36.9718 17.8466 52.0255 27.0216 62.2374C26.8064 62.4721 26.601 62.7166 26.3761 62.9416C24.1263 65.2109 21.8668 67.4802 19.6268 69.73C13.2493 65.1425 6.56853 67.5096 3.47758 71.3928C-0.0241971 75.8043 0.190996 82.0449 4.05469 86.2803C7.77165 90.3494 14.0905 91.1221 18.6682 88.0409C20.9865 86.4857 22.5613 84.3631 23.2949 81.6536C24.3219 77.8877 23.4807 74.474 21.3875 71.6276C23.9405 69.0257 26.4054 66.5217 28.8997 63.9785C33.6437 68.2139 39.2974 70.4636 45.7239 70.4734C52.1894 70.4832 57.8627 68.2236 62.6067 64.0176C65.1695 66.5706 67.6637 69.0453 70.158 71.5396C65.8835 77.3693 67.7713 84.0501 71.7818 87.3758C76.0954 90.946 82.3164 90.8776 86.591 87.141C90.8068 83.4632 91.7165 77.2324 88.7038 72.4884C87.2267 70.1604 85.1433 68.5464 82.5023 67.7639H82.5121ZM73.65 19.0423C73.6402 18.9445 73.6402 18.8466 73.65 18.739C73.9826 16.6067 75.1173 15.1003 77.1322 14.2787C77.2203 14.2396 77.3377 14.2396 77.4061 14.1809C77.5528 14.0635 77.7778 13.9266 77.7876 13.7896C77.7876 13.6233 77.6507 13.3886 77.4942 13.2908C76.6921 12.7723 76.1345 12.0876 75.9193 11.1584C75.6063 9.78898 75.9682 8.6152 77.0442 7.7153C78.1006 6.82519 79.3331 6.66868 80.5851 7.21645C81.8469 7.77399 82.5414 8.78149 82.6099 10.1705C82.6784 11.5203 82.0817 12.5376 80.9568 13.2712C80.7807 13.3886 80.5655 13.6233 80.5753 13.7896C80.5851 13.9559 80.8394 14.1711 81.0253 14.2493C83.0403 15.071 84.1847 16.5676 84.5466 18.6901C84.5857 18.9445 84.5662 19.1499 84.4488 19.3357C82.9327 20.4117 81.0742 21.0181 79.0494 20.9888C77.0344 20.9497 75.1564 20.2258 73.6403 19.0521L73.65 19.0423ZM70.0896 11.7257C70.2069 6.56109 74.276 2.72674 79.5385 2.83434C84.3608 2.93215 88.3712 7.16754 88.2636 12.0485C88.2049 14.6797 87.0898 16.9979 85.3389 18.6217C85.3683 18.5923 85.3976 18.563 85.4367 18.5239C85.065 16.3524 83.9206 14.7384 81.9545 13.6722C83.0598 12.6843 83.6272 11.4714 83.5196 10.014C83.4413 8.86952 82.9522 7.88159 82.0817 7.11863C80.3503 5.58294 77.768 5.68075 76.1541 7.32404C74.6086 8.88908 74.3543 11.6475 76.4084 13.6135C74.413 14.621 73.2392 16.1959 72.8284 18.3282C71.1068 16.6262 70.0407 14.2689 70.0993 11.7355L70.0896 11.7257ZM12.0266 20.891C10.0703 20.754 8.35854 20.1182 6.98914 19.1205C6.95979 19.0031 6.95979 18.8858 6.98914 18.739C7.32171 16.6067 8.45636 15.1003 10.4713 14.2787C10.5594 14.2396 10.6768 14.2396 10.7452 14.1809C10.892 14.0635 11.1169 13.9266 11.1267 13.7896C11.1267 13.6233 10.9898 13.3886 10.8333 13.2908C10.0312 12.7723 9.47363 12.0876 9.25844 11.1584C8.94543 9.78898 9.30735 8.6152 10.3833 7.7153C11.4397 6.82519 12.6722 6.66868 13.9242 7.21645C15.186 7.77399 15.8805 8.78149 15.949 10.1705C16.0175 11.5203 15.4208 12.5376 14.2959 13.2712C14.1198 13.3886 13.9047 13.6233 13.9144 13.7896C13.9242 13.9559 14.1785 14.1711 14.3644 14.2493C16.3794 15.071 17.5238 16.5676 17.8857 18.6901C17.9053 18.8173 17.9053 18.9347 17.8857 19.0423C16.2326 20.3139 14.159 21.0377 12.0266 20.8812V20.891ZM18.7171 18.3282C18.3063 16.2545 17.1815 14.6993 15.2741 13.6722C16.3794 12.6843 16.9467 11.4714 16.8391 10.014C16.7608 8.86952 16.2718 7.88159 15.4012 7.11863C13.6699 5.58294 11.0876 5.68075 9.47363 7.32404C7.92816 8.88908 7.66406 11.6475 9.72795 13.6135C7.70318 14.6406 6.5294 16.2448 6.12836 18.426C4.25032 16.636 3.21348 14.0244 3.39933 11.0117C3.68299 6.33611 8.15313 2.44308 12.858 2.7463C18.0618 3.08866 21.8374 7.24579 21.5342 12.3126C21.3973 14.6504 20.3213 16.773 18.7171 18.3282ZM6.96957 85.8303C6.96957 85.7423 6.96957 85.6543 6.96957 85.5467C7.30214 83.4143 8.4368 81.9079 10.4518 81.0863C10.5398 81.0472 10.6572 81.0472 10.7257 80.9885C10.8724 80.8711 11.0974 80.7342 11.1071 80.5972C11.1071 80.4309 10.9702 80.1962 10.8137 80.0984C10.0116 79.5799 9.45407 78.8952 9.23888 77.966C8.92587 76.5966 9.28779 75.4228 10.3638 74.5229C11.4202 73.6328 12.6526 73.4763 13.9047 74.0241C15.1665 74.5816 15.861 75.5891 15.9294 76.9781C15.9979 78.3279 15.4012 79.3452 14.2763 80.0788C14.1003 80.1962 13.8851 80.4309 13.8949 80.5972C13.9047 80.7635 14.159 80.9787 14.3448 81.057C16.3598 81.8786 17.5042 83.3752 17.8662 85.4977C17.8857 85.6053 17.8857 85.6934 17.8759 85.7814C16.3402 86.9356 14.4231 87.6203 12.3494 87.6106C10.3246 87.6008 8.46614 86.9356 6.95979 85.8303H6.96957ZM21.4657 78.5822C21.4853 81.1352 20.4191 83.4436 18.7074 85.0869C18.2868 83.0328 17.1717 81.4971 15.2741 80.4701C16.3794 79.4821 16.9467 78.2692 16.8391 76.8118C16.7608 75.6674 16.2718 74.6794 15.4012 73.9165C13.6699 72.3808 11.0876 72.4786 9.47363 74.1219C7.92816 75.6869 7.66406 78.4453 9.72795 80.4114C7.73253 81.4189 6.55875 83.0035 6.14793 85.1456C4.38726 83.4925 3.29173 81.145 3.28195 78.5236C3.26239 73.5056 7.34127 69.4365 12.369 69.4561C17.338 69.4854 21.4364 73.5937 21.4657 78.592V78.5822ZM58.6159 64.2523C54.7033 66.7955 50.4581 68.1454 45.9977 68.1845C41.0776 68.1649 36.8031 66.7858 32.871 64.1937C31.9319 63.5774 31.6483 62.8829 31.8146 61.8559C32.6656 56.388 35.5804 52.5243 40.7353 50.4213C40.97 50.3235 41.2635 50.3137 41.4493 50.1572C41.821 49.854 42.3981 49.5018 42.4177 49.1497C42.4373 48.7291 42.0558 48.1227 41.6743 47.8781C39.6202 46.5576 38.1823 44.8067 37.6346 42.42C36.8325 38.9281 37.7715 35.9056 40.5201 33.6069C43.2394 31.3278 46.3792 30.917 49.6071 32.3353C52.8448 33.7536 54.6152 36.336 54.7913 39.8964C54.9576 43.3689 53.4415 45.9609 50.5559 47.8488C50.106 48.1422 49.5484 48.7585 49.5778 49.1888C49.6071 49.6094 50.2429 50.167 50.732 50.3626C55.8868 52.4754 58.8408 56.2902 59.7603 61.7483C59.9461 62.8536 59.6723 63.597 58.6452 64.2621L58.6159 64.2523ZM62.0003 61.3081C61.0417 55.7327 58.1072 51.6049 53.0698 48.8758C55.9064 46.3424 57.3443 43.2417 57.0802 39.4954C56.865 36.5511 55.6325 34.0373 53.4023 32.0712C48.9713 28.1488 42.3492 28.3836 38.2117 32.5896C34.2599 36.6098 33.585 43.6623 38.8475 48.6998C33.6046 51.3506 30.5625 55.5272 29.5746 61.2201C24.8893 57.3173 21.5342 48.6606 23.3731 40.5518C25.6131 30.7018 33.8296 23.307 43.3665 22.5147C53.8229 21.6539 63.1643 27.2881 66.9888 36.6979C70.696 45.8142 67.8594 55.7914 61.9807 61.3179L62.0003 61.3081ZM79.0592 87.7182C77.0442 87.7182 75.1662 87.053 73.6598 85.9184C73.6402 85.8108 73.6402 85.6836 73.6598 85.5467C73.9924 83.4143 75.127 81.9079 77.142 81.0863C77.23 81.0472 77.3474 81.0472 77.4159 80.9885C77.5626 80.8711 77.7876 80.7342 77.7974 80.5972C77.7974 80.4309 77.6604 80.1962 77.5039 80.0984C76.7019 79.5799 76.1443 78.8952 75.9291 77.966C75.6161 76.5966 75.978 75.4228 77.054 74.5229C78.1104 73.6328 79.3429 73.4763 80.5949 74.0241C81.8567 74.5816 82.5512 75.5891 82.6197 76.9781C82.6881 78.3279 82.0915 79.3452 80.9666 80.0788C80.7905 80.1962 80.5753 80.4309 80.5851 80.5972C80.5949 80.7635 80.8492 80.9787 81.0351 81.057C83.05 81.8786 84.1945 83.3752 84.5564 85.4977C84.576 85.6347 84.5857 85.7618 84.5564 85.8792C83.0305 87.0334 81.1231 87.7182 79.0592 87.7182ZM85.3976 85.1554C84.9966 83.0719 83.8619 81.5167 81.9545 80.4799C83.0598 79.4919 83.6272 78.279 83.5196 76.8216C83.4413 75.6771 82.9522 74.6892 82.0817 73.9262C80.3503 72.3905 77.768 72.4884 76.1541 74.1317C74.6086 75.6967 74.3543 78.4551 76.4084 80.4212C74.3934 81.4384 73.2099 83.0426 72.8088 85.2141C71.0971 83.5708 70.0211 81.2721 70.0211 78.7192C70.0211 73.6817 74.1489 69.5344 79.1766 69.5441C84.1749 69.5441 88.1755 73.5546 88.1853 78.5627C88.1853 81.1646 87.1191 83.5023 85.4074 85.175L85.3976 85.1554Z" fill="#56B87E"/>
<path d="M85.7701 18.1816C85.6625 18.299 85.5451 18.4066 85.4375 18.5142C85.5549 18.4066 85.6625 18.299 85.7701 18.1816Z" fill="#56B87E"/>
</svg>
