<svg width="113" height="43" viewBox="0 0 113 43" fill="none" xmlns="http://www.w3.org/2000/svg">
<path d="M112.124 24.2422C112.14 22.8755 111.619 21.7567 110.667 20.7982C108.569 18.6816 106.156 17.0096 103.462 15.7578C97.4052 12.9427 90.9829 12.0205 84.3702 12.2049C83.2877 12.2352 82.4169 12.0084 81.5491 11.3432C76.3847 7.38218 70.6911 4.38875 64.55 2.23287C60.8279 0.923624 57.0695 0.0255944 53.0449 0.210038C48.8965 0.40053 44.7299 0.210038 40.5723 0.279583C39.2691 0.300748 37.8752 0.394482 36.6869 0.869198C32.0667 2.71666 27.4919 4.67902 22.9443 6.69883C20.74 7.6785 18.7444 9.31431 16.4616 9.86462C14.1364 10.424 11.5783 10.0098 9.12311 10.037C6.08432 10.0672 4.20662 11.9479 4.15522 15.0109C4.13708 16.1811 4.11893 17.3542 4.16127 18.5244C4.19453 19.492 3.82261 20.1663 3.00925 20.6924C1.40368 21.7325 0.720329 23.2504 0.898725 25.1493C1.03177 26.5795 1.19202 28.0036 1.33413 29.4338C1.5337 31.4294 2.82178 32.9715 4.77507 33.4432C5.38888 33.5914 6.04501 33.6216 6.67998 33.6276C9.04752 33.6488 11.4181 33.6367 13.7554 33.6367C14.9527 40.1134 19.9569 42.7228 23.6186 42.9708C26.1554 43.1401 28.4958 42.5807 30.6063 41.1415C33.2369 39.3454 34.7215 36.8025 35.2809 33.7153H80.6511C81.927 39.4754 86.0362 42.995 91.4123 42.995C96.7884 42.995 100.858 39.5026 102.186 33.6397C103.9 33.6397 105.557 33.6397 107.217 33.6397C110.189 33.6397 112.013 31.889 112.106 28.8956C112.155 27.3475 112.106 25.7963 112.124 24.2482V24.2422ZM52.5491 3.16416C55.9114 2.91925 59.1437 3.47863 62.3397 4.55203C67.489 6.28459 72.3481 8.57654 76.8775 11.57C77.0287 11.6698 77.1678 11.7937 77.5488 12.0961C70.422 12.0961 63.5855 12.1021 56.7459 12.0749C56.4496 12.0749 56.0172 11.833 55.8842 11.579C54.463 8.8789 53.0873 6.15457 51.6329 3.30628C52.0139 3.2458 52.28 3.18231 52.5521 3.16416H52.5491ZM37.7089 3.58748C39.2449 3.10671 40.9865 3.23371 42.6405 3.17324C44.2642 3.11276 45.8909 3.13997 47.5146 3.17928C47.8442 3.18835 48.3401 3.33047 48.4671 3.56934C49.9275 6.32995 51.3305 9.12079 52.8151 12.0296C52.3949 12.0598 52.1137 12.0961 51.8355 12.0961C46.3203 12.0991 40.8021 12.1112 35.2869 12.0749C34.7729 12.0719 34.1772 11.8663 33.766 11.5579C31.9911 10.2305 30.2707 8.8275 28.2176 7.20681C31.592 5.89454 34.5975 4.5611 37.7149 3.58445L37.7089 3.58748ZM24.4047 40.0983C20.0265 40.0318 16.519 36.4276 16.5765 32.0553C16.6369 27.7043 20.3016 24.1515 24.6436 24.2391C29.0521 24.3299 32.5021 27.8857 32.4537 32.2912C32.4054 36.6604 28.7921 40.1648 24.4078 40.1013L24.4047 40.0983ZM91.2127 40.0983C86.7679 39.9834 83.3724 36.3701 83.4842 31.8679C83.587 27.6045 87.3303 24.088 91.6058 24.2452C96.0294 24.4054 99.4643 28.0097 99.3555 32.3728C99.2466 36.736 95.5819 40.2162 91.2127 40.1013V40.0983ZM109.261 25.0011C109.188 26.2438 109.279 27.4987 109.213 28.7414C109.128 30.2895 108.626 30.7219 107.108 30.7249C105.487 30.7249 103.864 30.7249 102.177 30.7249C101.62 27.6045 100.157 25.0888 97.5836 23.2927C95.4942 21.8353 93.16 21.2548 90.614 21.3878C85.752 21.6418 81.8938 25.1795 80.6359 30.6765H35.2809C34.7396 27.6226 33.3004 25.1342 30.7726 23.3441C28.7286 21.8958 26.4427 21.279 23.9361 21.3818C18.9349 21.5874 15.0949 25.0495 13.7493 30.7007C11.0583 30.7007 8.33998 30.7703 5.63379 30.6372C5.14698 30.613 4.41223 29.8057 4.29733 29.2524C3.97985 27.7466 3.84076 26.1834 3.82261 24.6413C3.81657 24.1122 4.24593 23.3865 4.69948 23.0811C6.40785 21.9291 7.15772 20.39 7.06701 18.3672C7.02468 17.3875 7.05794 16.4018 7.06097 15.4191C7.06701 13.4749 7.58406 12.9669 9.56759 12.9639C11.5723 12.9609 13.583 13.0637 15.5756 12.9246C16.7035 12.8429 17.8676 12.5043 18.9047 12.0356C20.8973 11.1315 22.7931 10.0218 24.7676 9.07544C25.0941 8.91821 25.7231 9.0059 26.0224 9.22965C28.1632 10.8473 30.2162 12.5799 32.3812 14.1643C33.0282 14.636 33.9384 14.9837 34.7306 14.9867C50.1936 15.0351 65.6597 14.9958 81.1227 15.0381C85.6885 15.0502 90.2693 14.9716 94.7807 15.9513C99.7334 17.0247 104.302 18.8479 108.1 22.3312C108.913 23.0781 109.331 23.8884 109.264 25.0072L109.261 25.0011Z" fill="#56B87E"/>
<path d="M91.4831 27.1268C88.7134 27.0936 86.4214 29.3523 86.4063 32.134C86.3912 34.9339 88.6348 37.2138 91.4045 37.2138C94.1772 37.2138 96.4358 34.943 96.4358 32.1522C96.4358 29.4309 94.1983 27.1601 91.4831 27.1268ZM91.347 34.308C90.2192 34.2718 89.297 33.3042 89.303 32.1612C89.309 30.9729 90.3099 29.9963 91.48 30.0386C92.623 30.0779 93.524 31.0274 93.518 32.1794C93.5119 33.3798 92.5232 34.3443 91.347 34.308Z" fill="#56B87E"/>
<path d="M24.5694 27.127C21.8421 27.1179 19.5562 29.3373 19.5048 32.0465C19.4534 34.8434 21.6425 37.1444 24.4243 37.217C27.1728 37.2895 29.492 35.0309 29.5343 32.243C29.5736 29.4522 27.327 27.1391 24.5694 27.127ZM24.5271 34.3082C23.3932 34.3142 22.4498 33.389 22.4196 32.237C22.3894 31.0336 23.3328 30.0448 24.515 30.0418C25.6489 30.0388 26.6044 30.9731 26.6346 32.11C26.6648 33.3013 25.7063 34.3022 24.5271 34.3082Z" fill="#56B87E"/>
</svg>
