<svg width="72" height="82" viewBox="0 0 72 82" fill="none" xmlns="http://www.w3.org/2000/svg">
<g clip-path="url(#clip0_1616_5265)">
<path d="M37.8815 0C39.7315 0.35 41.6015 0.6 43.4115 1.09C48.2815 2.39 52.4315 4.95 55.9315 8.56C59.6716 12.42 62.1016 17 63.2015 22.25C63.5915 24.09 63.6915 25.98 63.9415 27.95C64.5715 28.13 65.3515 28.29 66.0915 28.56C69.2415 29.71 70.9816 32.01 71.4416 35.29C71.5715 36.21 71.6015 37.15 71.6015 38.07C71.6215 42.6 71.6615 47.13 71.5715 51.66C71.5415 53.07 71.3215 54.54 70.8415 55.86C69.8115 58.74 67.5116 60.25 64.6015 60.84C63.9115 60.98 63.7915 61.24 63.7515 61.87C63.6015 64.62 63.1215 67.31 61.9215 69.82C60.1415 73.53 57.1216 75.76 53.2015 76.69C50.5215 77.32 47.7616 77.61 44.9016 78.08C44.9016 78.23 44.9115 78.56 44.9016 78.9C44.8316 80.51 43.5215 81.83 41.9115 81.84C38.5515 81.86 35.2015 81.86 31.8415 81.84C30.3715 81.83 29.0415 80.72 28.9515 79.27C28.8215 77.36 28.7915 75.44 28.9015 73.53C29.0015 71.72 30.2316 70.59 32.0415 70.56C35.2616 70.51 38.4915 70.5 41.7115 70.56C43.6315 70.59 44.8615 71.93 44.9016 73.84C44.9016 74.08 44.9016 74.32 44.9016 74.68C45.8316 74.62 46.7215 74.57 47.6115 74.5C49.8715 74.32 52.0915 73.93 54.1915 73.04C57.2515 71.74 59.1215 69.38 59.9215 66.21C60.3315 64.58 60.5015 62.88 60.8015 61.08C59.7315 61.08 58.8815 61.08 58.0415 61.08C56.8015 61.07 56.1615 60.52 56.1615 59.32C56.1415 49.44 56.1415 39.55 56.1615 29.67C56.1615 28.48 56.8115 27.92 58.0515 27.88C58.8715 27.85 59.6915 27.88 60.6715 27.88C60.4515 19.72 57.2615 13.12 50.8515 8.16C42.7515 1.89 31.9415 1.49 23.7415 6.2C15.4715 10.95 11.3215 18.26 10.9015 27.87C11.8415 27.87 12.6315 27.87 13.4215 27.87C14.8615 27.89 15.4615 28.48 15.4615 29.92C15.4615 39.64 15.4615 49.37 15.4615 59.09C15.4615 60.42 14.9415 61.12 13.7615 61.13C11.3215 61.15 8.87155 61.32 6.45155 60.75C3.09155 59.96 0.521547 57.17 0.171547 53.73C0.051547 52.52 0.011547 51.29 0.011547 50.07C-0.00845299 45.78 0.00154701 41.49 0.011547 37.2C0.011547 35.51 0.291547 33.86 1.08155 32.34C2.32155 29.98 4.36155 28.72 6.89155 28.14C7.17155 28.08 7.46155 28.02 7.67155 27.97C7.88155 26.23 8.02155 24.54 8.30155 22.86C8.96155 18.89 10.5215 15.27 12.8315 11.99C16.4115 6.93 21.1315 3.33 27.0515 1.44C28.9315 0.84 30.9315 0.58 32.8715 0.16C33.1515 0.1 33.4416 0.05 33.7215 0C35.1115 0 36.4916 0 37.8815 0V0ZM12.2715 30.83C10.5415 30.95 8.81155 30.9 7.17155 31.23C5.12155 31.65 3.75155 33.01 3.32155 35.13C3.16155 35.96 3.07155 36.82 3.07155 37.66C3.05155 41.97 3.05155 46.29 3.07155 50.6C3.07155 51.42 3.10155 52.25 3.19155 53.07C3.43155 55.14 4.47155 56.65 6.44155 57.43C8.33155 58.18 10.3015 57.9 12.2715 57.93V30.83ZM59.3415 58.1C60.9315 58.01 62.4815 58.03 63.9815 57.78C64.8615 57.64 65.7416 57.17 66.4816 56.64C67.9315 55.59 68.3915 53.99 68.4215 52.29C68.4915 47.53 68.5116 42.76 68.5415 38C68.5415 37.26 68.5216 36.51 68.4116 35.77C68.1516 34.02 67.3315 32.63 65.7015 31.79C63.6815 30.75 61.5215 31.06 59.3415 31.02V58.1ZM32.0415 73.73V78.65H41.7015V73.73H32.0415Z" fill="#56B87E"/>
</g>
<defs>
<clipPath id="clip0_1616_5265">
<rect width="71.62" height="81.85" fill="white"/>
</clipPath>
</defs>
</svg>
