<?xml version="1.0" encoding="UTF-8"?>
<svg id="_圖層_2" data-name="圖層 2" xmlns="http://www.w3.org/2000/svg" viewBox="0 0 508.92 508.47">
  <defs>
    <style>
      .cls-1 {
        fill: #3e3a39;
      }
    </style>
  </defs>
  <g id="_圖層_1-2" data-name="圖層 1">
    <g>
      <path class="cls-1" d="M10.11,260.42c-4.94,1.64-8.89,4.07-8.44,10.61,.37,5.39,4.56,7.55,8.8,7.26,5.53-.38,7.55-3.62,10.47-9.45,2.86-5.68,6.02-12.25,13.77-12.78,7.54-.52,13.8,5.4,14.37,13.81,.28,4.02-.67,8.13-1.38,10.34-1.91,.56-8.16,2.08-9.51,2.31l-.28-.99c4.3-1.52,10.11-5.17,9.6-12.57-.42-6.11-5.41-8.36-10.22-8.03-5.53,.38-8.29,4.32-11.04,9.56-2.94,5.61-5.98,11.74-13.23,12.24-6.75,.46-12.38-4.71-12.93-12.83-.3-4.38,.37-7.17,.55-8.77,2.49-.46,5.85-1.05,9.19-1.79l.29,1.06Z"/>
      <path class="cls-1" d="M7.63,193.75c.11,5.18,1.21,5.63,4.88,6.39,1.7,.32,3.95,.87,10.43,1.82l9.54,1.4c6.62,.97,12.08,2.5,15.67,7.25,2.73,3.68,3.29,8.34,2.58,13.11-.63,4.27-2.32,8.39-4.86,10.78-4.3,4.03-8.99,4.72-17.32,3.49l-19.23-2.83c-6.2-.91-6.76-.56-8.46,4.58l-.85-.13,2.42-16.45,.85,.13c.22,5.42,.58,5.98,6.77,6.89l18.38,2.7c10.97,1.61,18.18-1.4,19.7-11.73,1.63-11.11-5.15-14-15.97-15.59l-9.62-1.41c-6.41-.94-8.49-1.17-10.64-1.35-3.66-.32-4.89,.08-6.46,5.82l-.85-.12,2.19-14.89,.85,.13Z"/>
      <path class="cls-1" d="M32.74,129.9c-1.01,5.14-.39,5.89,4.03,7.99,1.68,.82,2.81,1.48,8.54,4l27.8,12.25-.46,1.05-49.47,13.53,18.91,8.33c6.33,2.79,8.43,3.56,10.56,4.42,3.88,1.55,5.2,.88,8.32-3.89l.79,.35-6.56,14.89-.79-.35c1.03-5.37,.9-6.68-2.93-8.53-1.68-.82-4.06-2.03-10.32-4.79l-19.5-8.59c-1.19-.52-2.09-.61-3.17-.3-2.67,.71-4.07,2.45-5.61,4.69l-.79-.35,4.06-9.22,46.97-13.21-18.71-8.25c-5.73-2.53-6.68-2.87-8.98-3.72-4.33-1.59-5.9-1.26-8.97,3.92l-.79-.35,6.27-14.23,.79,.35Z"/>
      <path class="cls-1" d="M108.1,79.2c-2.4,3.59-2.14,4.25,.85,7.17l4.28,4.17c1.91,1.86,3.66,3.47,5.35,4.31-2.35,3.75-5.63,9.49-9.3,13.26-10.86,11.14-24.5,11.62-35.22,1.16-11.76-11.46-8.63-26.21,1.07-36.17,4.83-4.95,9.22-7.4,10.48-8.59,1.8,1.56,5.82,4.97,8.39,6.77l-.5,.92c-4.82-2.69-8.4-3.66-13-1.01-1.62,.94-3.53,2.39-5.49,4.4-8.24,8.46-7.14,18.98,2.76,28.63,8.09,7.89,20.63,12.67,30.98,2.05,1.71-1.75,3.41-4.02,3.85-5.7,.49-1.84,.32-3.11-2.36-5.72l-4.38-4.27c-3.66-3.57-4.27-3.66-9.21,.37l-.72-.7,11.46-11.76,.72,.7Z"/>
      <path class="cls-1" d="M152.86,60.61c.78,1.9,2.91,7.96,3.63,10.57l-26.94,17.08-.46-.73c4.95-4.16,4.94-4.84,1.78-9.83l-16.39-25.84c-3.16-4.99-3.98-5.07-9.11-2.67l-.46-.73,14.53-9.21,.46,.73c-4,3.64-4.27,4.16-1.11,9.14l16.93,26.69c2.74,4.32,3.58,4.04,7.66,1.45,1.16-.73,3-1.99,4.04-2.64,3.59-2.28,5.01-3.26,5.12-6.58,.07-2.17-.08-4.3-.7-7.15l1.01-.3Z"/>
      <path class="cls-1" d="M173.7,12.47c11.47-3.85,24.66,1.98,29.13,15.29,4.81,14.34-1.91,27.14-14.13,31.24-12.02,4.03-24.94-2.57-29.19-15.27-4.14-12.36,.48-26.66,14.2-31.26Zm-.79,1.94c-7.92,2.66-12.64,12.13-8.2,25.38,4.49,13.38,14.65,20.6,24.96,17.15,8.06-2.7,12.41-11.91,7.99-25.08-4.94-14.75-14.93-20.74-24.76-17.44Z"/>
      <path class="cls-1" d="M262.62,46.39c-.58,.04-2.3,.17-2.81,.14-6.06,.09-7.55-.52-10.71-4.19-2.62-3.13-6.49-8.62-9.32-12.74-2.1-3.02-2.92-3.39-6.59-3.12l-3.02,.22,1.01,13.64c.41,5.53,1.04,6.28,6.85,6.64l.06,.86-17.66,1.31-.06-.86c5.54-1.28,6.14-1.9,5.72-7.57l-2.3-30.88c-.41-5.53-.96-6.07-6.77-6.5l-.06-.86,17.16-1.28c4.88-.36,8.82,.14,11.54,1.81,2.71,1.53,4.75,4.63,5.04,8.51,.44,5.89-3.21,10.27-8.28,12.96,1.55,2.34,5.25,7.55,7.65,10.62,2.72,3.55,4.79,6.14,6.57,7.81,1.94,1.81,3.2,2.29,6.11,2.58l-.15,.88Zm-28.17-21.44c3.59-.27,5.59-.56,7.49-2.15,2.72-2.22,3.44-5.24,3.12-9.55-.58-7.83-5.15-11.03-11.26-10.57-2.66,.2-3.93,.58-4.48,.98-.61,.48-.78,1.14-.61,3.44l1.35,18.17,4.38-.33Z"/>
      <path class="cls-1" d="M309.61,6.41c-5.02,.05-5.62,1.28-7.9,4.17-4.5,5.86-8.06,10.76-13.02,17.93-.45,.67-.78,1.49-.91,2.42l-1.5,10.62c-.82,5.56-.33,6.2,5.61,7.95l-.12,.86-17.98-2.42,.12-.86c6.05-.13,6.49-.72,7.23-6.22l1.38-10.27c.14-1.07,.03-1.81-.44-3.18-.6-2.04-5.02-14.48-6.86-19.16-2.15-5.59-2.65-6.24-6.85-7.39l.12-.86,15.62,2.1-.12,.86c-4.94-.01-4.86,1.02-4.19,3.07,2.47,7.02,6.35,17.56,7.61,21.15,2.79-3.98,9.27-13.28,11.77-17.23,1.92-2.94,1.82-3.82-3.48-5.41l.12-.86,13.91,1.87-.12,.86Z"/>
      <path class="cls-1" d="M348.15,69.49l.37-.78c3.89,1.03,5.11,.97,5.43-1.74,.47-3.2,1.07-8.72,1.66-15.05l-13.1-6.15c-3.39,3.5-6.19,6.24-8.64,8.91-3.51,3.76-2.75,4.67,1.74,7.98l-.37,.78-13.62-6.4,.37-.78c3.96,1.06,5.28,1.13,10.57-3.87l30.05-28.76,.97,.3c-1.53,13.76-2.9,27.67-4.22,41.85-.64,6.62,.14,6.99,3.82,9.83l-.37,.78-14.66-6.89Zm9.77-39.08c-4.69,4.56-9.31,9.31-13.87,13.77l11.86,5.57,2-19.34Z"/>
      <path class="cls-1" d="M400.71,106.36c-.45-.36-1.81-1.42-2.16-1.79-4.53-4.02-5.22-5.48-5.08-10.31,.18-4.07,1.02-10.74,1.71-15.69,.49-3.65,.13-4.48-2.76-6.75l-2.38-1.87-8.45,10.76c-3.43,4.36-3.46,5.34,.58,9.52l-.53,.68-13.93-10.95,.53-.68c4.95,2.79,5.81,2.74,9.33-1.73l19.13-24.34c3.43-4.36,3.39-5.12-.61-9.36l.53-.68,13.53,10.63c3.85,3.03,6.42,6.05,7.3,9.12,.97,2.96,.38,6.62-2.02,9.68-3.65,4.64-9.3,5.42-14.85,3.99-.44,2.77-1.21,9.12-1.52,13-.39,4.46-.61,7.76-.42,10.2,.21,2.64,.82,3.85,2.77,6.03l-.7,.55Zm-6.33-34.83c2.83,2.22,4.5,3.36,6.98,3.47,3.51,.19,6.07-1.55,8.74-4.94,4.85-6.17,3.63-11.61-1.18-15.4-2.09-1.65-3.29-2.22-3.97-2.29-.78-.06-1.35,.31-2.77,2.13l-11.26,14.32,3.45,2.71Z"/>
      <path class="cls-1" d="M438.7,136.05c-2.27,.96-8.37,3.11-10.45,3.37-1.55-1.16-5.67-4.52-8.7-8.37-10.96-13.92-6.71-27.71,3.08-35.42,11.82-9.31,26.02-6.65,36.09,6.13,3.56,4.53,5.32,8.73,6.52,10.72-2.38,2.33-5.31,5.01-7.36,7.18l-.88-.77c2.65-3.74,4.47-6.54,3.16-10.65-.75-2.34-2.42-5.06-4.07-7.15-7.89-10.01-19.66-8.44-28.6-1.4-11.26,8.87-14.38,20.49-6.45,30.56,4.99,6.34,10.62,6.03,17.24,4.66l.43,1.13Z"/>
      <path class="cls-1" d="M496.66,177.32c-2.95-5.08-3.94-5.21-9.77-2.72l-27.03,11.52c-6.09,2.6-6.17,3.33-4.67,8.88l-.79,.34-6.94-16.29,.79-.34c3.02,5.05,4.05,5.08,9.61,2.71l14.51-6.18-9.96-23.38-14.51,6.18c-5.7,2.43-6.17,3.33-4.67,8.88l-.79,.34-6.94-16.29,.79-.34c2.92,5.02,3.91,5.14,9.61,2.71l27.03-11.52c6.29-2.68,6.32-3.16,4.83-8.87l.79-.34,6.94,16.29-.79,.34c-3.01-5.05-3.74-5.29-9.77-2.72l-10.66,4.54,9.96,23.38,10.66-4.54c5.96-2.54,6.58-3.12,4.83-8.87l.79-.34,6.94,16.29-.79,.34Z"/>
      <path class="cls-1" d="M496.68,221.89c4.74-2.16,8.4-5,7.26-11.45-.94-5.32-5.34-7.02-9.52-6.28-5.46,.97-7.12,4.41-9.4,10.51-2.23,5.95-4.67,12.82-12.33,14.18-7.44,1.32-14.29-3.9-15.76-12.19-.7-3.97-.2-8.15,.27-10.43,1.84-.76,7.89-2.93,9.21-3.32l.39,.96c-4.11,1.97-9.5,6.22-8.21,13.52,1.07,6.03,6.27,7.74,11.02,6.89,5.46-.97,7.78-5.18,9.95-10.69,2.32-5.9,4.69-12.31,11.85-13.58,6.66-1.18,12.81,3.36,14.23,11.37,.77,4.32,.39,7.17,.39,8.78-2.43,.72-5.7,1.67-8.94,2.76l-.4-1.03Z"/>
      <path class="cls-1" d="M506.23,287.94c-.66-5.14-1.8-5.47-5.54-5.84-1.72-.14-4.02-.45-10.56-.7l-9.64-.38c-6.69-.26-12.27-1.2-16.36-5.54-3.11-3.36-4.16-7.95-3.97-12.77,.17-4.32,1.42-8.59,3.68-11.24,3.85-4.46,8.44-5.65,16.85-5.32l19.42,.76c6.26,.25,6.78-.17,7.92-5.45l.86,.03-.65,16.62-.86-.03c-.8-5.36-1.21-5.88-7.47-6.13l-18.56-.73c-11.08-.43-17.93,3.33-18.34,13.76-.44,11.22,6.61,13.37,17.54,13.8l9.71,.38c6.48,.25,8.56,.26,10.73,.21,3.68-.07,4.85-.6,5.8-6.47l.86,.03-.59,15.04-.86-.03Z"/>
      <path class="cls-1" d="M488.17,354.05c.45-5.22-.25-5.89-4.87-7.51-1.76-.63-2.95-1.16-8.93-3.06l-28.96-9.18,.35-1.1,47.72-18.78-19.7-6.25c-6.59-2.09-8.76-2.63-10.98-3.25-4.02-1.12-5.26-.31-7.85,4.76l-.82-.26,4.92-15.51,.82,.26c-.44,5.45-.17,6.74,3.83,8.16,1.76,.63,4.26,1.58,10.78,3.64l20.32,6.44c1.24,.39,2.15,.38,3.19-.05,2.58-1,3.78-2.88,5.07-5.27l.82,.26-3.05,9.61-45.27,18.2,19.49,6.18c5.97,1.89,6.95,2.13,9.33,2.73,4.48,1.12,6,.62,8.49-4.86l.82,.26-4.7,14.82-.82-.26Z"/>
      <path class="cls-1" d="M418.66,412.54c2-3.83,1.67-4.46-1.62-7.04l-4.7-3.69c-2.1-1.65-4.01-3.06-5.78-3.72,1.93-3.98,4.59-10.04,7.84-14.17,9.61-12.23,23.12-14.16,34.9-4.91,12.91,10.14,11.38,25.15,2.79,36.07-4.27,5.44-8.38,8.34-9.51,9.65-1.96-1.35-6.31-4.32-9.06-5.83l.4-.97c5.08,2.16,8.74,2.74,13.03-.39,1.51-1.1,3.26-2.75,4.99-4.96,7.29-9.29,5.08-19.64-5.79-28.18-8.89-6.98-21.86-10.4-31.03,1.27-1.51,1.92-2.96,4.36-3.22,6.08-.29,1.88,.02,3.13,2.96,5.44l4.81,3.78c4.02,3.16,4.64,3.19,9.12-1.35l.79,.62-10.14,12.91-.79-.62Z"/>
      <path class="cls-1" d="M376.14,435.81c-.97-1.8-3.75-7.6-4.74-10.12l24.96-19.86,.54,.68c-4.48,4.67-4.4,5.34-.72,9.96l19.05,23.94c3.68,4.62,4.5,4.61,9.34,1.68l.54,.68-13.46,10.71-.54-.68c3.59-4.05,3.8-4.59,.12-9.21l-19.68-24.73c-3.18-4-3.99-3.63-7.77-.63-1.07,.85-2.77,2.3-3.73,3.06-3.32,2.64-4.63,3.78-4.39,7.08,.16,2.17,.54,4.26,1.46,7.03l-.97,.4Z"/>
      <path class="cls-1" d="M360.59,485.9c-10.99,5.06-24.73,.68-30.6-12.07-6.32-13.73-1.02-27.19,10.68-32.58,11.51-5.3,25.07-.13,30.67,12.04,5.45,11.84,2.4,26.56-10.75,32.61Zm.58-2.01c7.59-3.49,11.26-13.42,5.42-26.11-5.9-12.82-16.79-18.9-26.66-14.36-7.72,3.55-11.05,13.17-5.24,25.79,6.5,14.13,17.07,19.01,26.49,14.67Z"/>
      <path class="cls-1" d="M268.55,461.76c.57-.1,2.27-.42,2.77-.44,6.01-.74,7.56-.29,11.09,3.01,2.93,2.83,7.37,7.87,10.63,11.66,2.41,2.78,3.27,3.06,6.88,2.4l2.97-.55-2.47-13.46c-1-5.45-1.71-6.13-7.52-5.87l-.16-.85,17.42-3.2,.16,.85c-5.37,1.86-5.9,2.55-4.87,8.14l5.59,30.45c1,5.45,1.6,5.93,7.42,5.74l.16,.85-16.92,3.11c-4.82,.88-8.78,.81-11.67-.57-2.86-1.23-5.22-4.09-5.92-7.92-1.07-5.81,2.09-10.56,6.84-13.77-1.79-2.16-6.03-6.94-8.74-9.74-3.08-3.24-5.42-5.59-7.37-7.07-2.12-1.59-3.43-1.93-6.35-1.91l.06-.89Zm30.3,18.3c-3.54,.65-5.5,1.16-7.22,2.94-2.47,2.5-2.86,5.58-2.08,9.82,1.42,7.72,6.3,10.41,12.32,9.3,2.62-.48,3.84-1,4.34-1.46,.56-.54,.66-1.22,.24-3.48l-3.29-17.92-4.32,.79Z"/>
      <path class="cls-1" d="M226.12,506.48c4.99-.58,5.45-1.87,7.41-4.99,3.84-6.31,6.87-11.55,11.04-19.22,.38-.71,.62-1.57,.64-2.5l.36-10.72c.22-5.61-.34-6.2-6.43-7.31l.02-.86,18.14,.49-.02,.86c-6,.77-6.38,1.41-6.53,6.95l-.28,10.36c-.03,1.08,.17,1.81,.78,3.12,.81,1.97,6.54,13.86,8.87,18.32,2.74,5.33,3.3,5.92,7.6,6.62l-.02,.86-15.76-.43,.02-.86c4.91-.52,4.72-1.53,3.84-3.5-3.2-6.71-8.19-16.79-9.82-20.22-2.35,4.26-7.8,14.19-9.86,18.39-1.6,3.13-1.41,4,4.04,5.01l-.02,.86-14.04-.38,.02-.86Z"/>
      <path class="cls-1" d="M181.03,447.94l-.28,.82c-3.98-.61-5.19-.41-5.21,2.32-.12,3.23-.13,8.79-.02,15.14l13.69,4.7c3-3.84,5.48-6.87,7.63-9.79,3.09-4.12,2.23-4.94-2.59-7.74l.28-.82,14.23,4.89-.28,.82c-4.05-.63-5.37-.55-10.09,4.99l-26.77,31.84-1-.19c.04-13.84-.11-27.83-.32-42.06-.08-6.65-.89-6.93-4.86-9.36l.28-.82,15.32,5.26Zm-5.49,39.91c4.17-5.04,8.25-10.26,12.3-15.19l-12.39-4.26,.1,19.45Z"/>
      <path class="cls-1" d="M124.81,416.92c.49,.31,1.95,1.22,2.34,1.55,4.94,3.51,5.77,4.89,6.15,9.71,.26,4.07,.13,10.78-.02,15.78-.09,3.68,.35,4.46,3.46,6.41l2.56,1.6,7.25-11.6c2.94-4.7,2.87-5.68-1.59-9.4l.46-.73,15.01,9.39-.46,.73c-5.22-2.25-6.07-2.1-9.09,2.72l-16.42,26.25c-2.94,4.7-2.82,5.46,1.61,9.24l-.46,.73-14.59-9.12c-4.15-2.6-7.03-5.33-8.23-8.29-1.28-2.84-1.09-6.54,.97-9.84,3.13-5,8.66-6.38,14.34-5.55,.14-2.8,.23-9.2,.12-13.09-.09-4.47-.23-7.78-.68-10.19-.5-2.6-1.23-3.74-3.4-5.69l.64-.62Zm10.02,33.95c-3.05-1.91-4.84-2.86-7.31-2.7-3.51,.18-5.87,2.19-8.16,5.85-4.16,6.65-2.37,11.93,2.82,15.18,2.26,1.41,3.51,1.86,4.19,1.86,.78-.02,1.3-.46,2.53-2.41l9.66-15.44-3.72-2.33Z"/>
      <path class="cls-1" d="M83.86,391.41c2.15-1.2,7.99-3.98,10.03-4.47,1.67,.99,6.12,3.89,9.54,7.39,12.38,12.67,9.62,26.84,.71,35.55-10.76,10.52-25.16,9.38-36.53-2.25-4.03-4.12-6.22-8.12-7.62-9.97,2.12-2.57,4.75-5.55,6.56-7.92l.96,.67c-2.24,4-3.75,6.98-2.01,10.92,.99,2.25,2.95,4.77,4.81,6.67,8.91,9.12,20.45,6.3,28.58-1.66,10.25-10.01,12.12-21.91,3.16-31.07-5.64-5.77-11.2-4.87-17.64-2.8l-.55-1.08Z"/>
      <path class="cls-1" d="M21.84,356.65c3.48,4.74,4.48,4.75,10.01,1.66l25.63-14.36c5.78-3.24,5.78-3.98,3.69-9.33l.75-.42,8.66,15.45-.75,.42c-3.54-4.7-4.57-4.62-9.85-1.67l-13.76,7.71,12.42,22.18,13.76-7.71c5.4-3.03,5.78-3.98,3.69-9.33l.75-.42,8.66,15.45-.75,.42c-3.44-4.67-4.44-4.69-9.85-1.67l-25.63,14.36c-5.97,3.34-5.95,3.83-3.85,9.34l-.75,.42-8.66-15.45,.75-.42c3.54,4.7,4.29,4.86,10.01,1.66l10.11-5.67-12.42-22.18-10.11,5.67c-5.65,3.17-6.2,3.8-3.85,9.34l-.75,.42-8.66-15.45,.75-.42Z"/>
    </g>
  </g>
</svg>