<?xml version="1.0" encoding="UTF-8"?>
<svg id="_圖層_2" data-name="圖層 2" xmlns="http://www.w3.org/2000/svg" xmlns:xlink="http://www.w3.org/1999/xlink" viewBox="0 0 418.42 450.32">
  <defs>
    <style>
      .cls-1 {
        fill: #fff;
      }

      .cls-2 {
        filter: url(#drop-shadow-4);
      }

      .cls-3 {
        filter: url(#drop-shadow-3);
      }

      .cls-4 {
        filter: url(#drop-shadow-1);
      }

      .cls-5 {
        filter: url(#drop-shadow-2);
      }
    </style>
    <filter id="drop-shadow-1" filterUnits="userSpaceOnUse">
      <feOffset dx="7" dy="7"/>
      <feGaussianBlur result="blur" stdDeviation="5"/>
      <feFlood flood-color="#000" flood-opacity=".75"/>
      <feComposite in2="blur" operator="in"/>
      <feComposite in="SourceGraphic"/>
    </filter>
    <filter id="drop-shadow-2" filterUnits="userSpaceOnUse">
      <feOffset dx="7" dy="7"/>
      <feGaussianBlur result="blur-2" stdDeviation="5"/>
      <feFlood flood-color="#000" flood-opacity=".75"/>
      <feComposite in2="blur-2" operator="in"/>
      <feComposite in="SourceGraphic"/>
    </filter>
    <filter id="drop-shadow-3" filterUnits="userSpaceOnUse">
      <feOffset dx="7" dy="7"/>
      <feGaussianBlur result="blur-3" stdDeviation="5"/>
      <feFlood flood-color="#000" flood-opacity=".75"/>
      <feComposite in2="blur-3" operator="in"/>
      <feComposite in="SourceGraphic"/>
    </filter>
    <filter id="drop-shadow-4" filterUnits="userSpaceOnUse">
      <feOffset dx="7" dy="7"/>
      <feGaussianBlur result="blur-4" stdDeviation="5"/>
      <feFlood flood-color="#000" flood-opacity=".75"/>
      <feComposite in2="blur-4" operator="in"/>
      <feComposite in="SourceGraphic"/>
    </filter>
  </defs>
  <g id="_圖層_1-2" data-name="圖層 1">
    <g>
      <g class="cls-4">
        <path class="cls-1" d="M125.36,161.96c-1.08-1.34-2.64-2.01-4.67-2.01-.09,0-.14-.14-.14-.42s.04-.42,.14-.42l3.18,.07c1.75,.09,3.14,.14,4.15,.14,.83,0,2.08-.05,3.74-.14l3.05-.07c.09,0,.14,.14,.14,.42s-.05,.42-.14,.42c-1.8,0-3.2,.67-4.19,2.01-.99,1.34-1.49,3.21-1.49,5.61v19.39c0,3.32-.7,6.22-2.11,8.69-1.41,2.47-3.39,4.37-5.95,5.71-2.56,1.34-5.53,2.01-8.9,2.01s-6.37-.66-9-1.97-4.67-3.21-6.13-5.68c-1.45-2.47-2.18-5.37-2.18-8.69v-22.29c0-1.38-.14-2.4-.42-3.05-.28-.65-.77-1.1-1.49-1.35-.72-.25-1.83-.38-3.36-.38-.14,0-.21-.14-.21-.42s.07-.42,.21-.42l3.6,.07c2.03,.09,3.67,.14,4.92,.14,1.38,0,3.09-.05,5.12-.14l3.46-.07c.14,0,.21,.14,.21,.42s-.07,.42-.21,.42c-1.52,0-2.66,.14-3.39,.42-.74,.28-1.24,.75-1.49,1.42-.25,.67-.38,1.7-.38,3.08v19.73c0,5.49,1.14,9.59,3.43,12.29,2.28,2.7,5.48,4.05,9.59,4.05s6.99-1.21,9.21-3.63c2.21-2.42,3.32-5.85,3.32-10.28v-19.45c0-2.4-.54-4.27-1.63-5.61Z"/>
        <path class="cls-1" d="M148.62,171c.85,1.32,1.92,2.46,3.18,3.43s2.99,2.12,5.16,3.46c2.35,1.48,4.21,2.75,5.57,3.81,1.36,1.06,2.51,2.37,3.46,3.91,.95,1.55,1.42,3.36,1.42,5.44,0,2.35-.61,4.45-1.83,6.3-1.22,1.85-2.95,3.29-5.19,4.33-2.24,1.04-4.79,1.56-7.65,1.56-1.94,0-3.93-.25-5.99-.76s-3.61-1.13-4.67-1.87c-.42-.28-.65-.71-.69-1.31l-.42-10.52v-.07c0-.18,.12-.29,.35-.31,.23-.02,.37,.06,.42,.24,1.52,3.83,3.26,6.97,5.23,9.42,1.96,2.45,4.46,3.67,7.51,3.67,1.98,0,3.65-.54,4.98-1.63,1.34-1.08,2.01-2.9,2.01-5.43,0-2.03-.45-3.81-1.35-5.33-.9-1.52-2.01-2.79-3.32-3.81-1.32-1.02-3.1-2.26-5.37-3.74-2.21-1.43-3.95-2.64-5.19-3.63-1.25-.99-2.31-2.22-3.18-3.67-.88-1.45-1.32-3.15-1.32-5.09,0-2.4,.67-4.43,2.01-6.09,1.34-1.66,3.08-2.9,5.23-3.7,2.15-.81,4.4-1.21,6.75-1.21,1.57,0,3.14,.15,4.71,.45,1.57,.3,2.88,.68,3.95,1.14,.69,.28,1.04,.72,1.04,1.32l.21,9.42c0,.14-.13,.23-.38,.28-.25,.05-.4,0-.45-.14-.92-2.81-2.16-5.37-3.7-7.65-1.55-2.28-3.87-3.43-6.96-3.43-2.08,0-3.73,.6-4.95,1.8-1.22,1.2-1.83,2.84-1.83,4.92,0,1.71,.43,3.22,1.28,4.53Z"/>
      </g>
      <g class="cls-5">
        <path class="cls-1" d="M127.61,88.47c.37,.19,.6,.36,.69,.52,.09,.16,.18,.52,.28,1.07l.83,9.14c0,.14-.12,.23-.35,.28-.23,.05-.39-.02-.48-.21-1.2-3.78-2.99-6.67-5.37-8.65-2.38-1.98-5.32-2.98-8.83-2.98s-6.38,.84-9.04,2.53c-2.65,1.69-4.72,4.11-6.2,7.27-1.48,3.16-2.22,6.84-2.22,11.04s.78,7.86,2.35,11.11c1.57,3.25,3.71,5.78,6.44,7.58,2.72,1.8,5.79,2.7,9.21,2.7s6.17-.89,8.41-2.67c2.24-1.78,4.21-4.6,5.92-8.48,.05-.14,.18-.18,.42-.14,.23,.05,.35,.12,.35,.21l-.9,8.31c-.05,.55-.13,.9-.24,1.04-.12,.14-.36,.3-.73,.48-4.15,1.71-8.56,2.56-13.22,2.56-4.94,0-9.35-.93-13.22-2.8s-6.9-4.5-9.07-7.89c-2.17-3.39-3.25-7.28-3.25-11.67s1.13-8.21,3.39-11.63c2.26-3.42,5.35-6.08,9.28-8,3.92-1.92,8.31-2.87,13.15-2.87,5.12,0,9.25,.72,12.39,2.15Z"/>
        <path class="cls-1" d="M147.86,128.18c-3.35-2.01-5.93-4.73-7.75-8.17-1.82-3.44-2.73-7.19-2.73-11.25,0-4.75,1.2-8.83,3.6-12.22,2.4-3.39,5.48-5.94,9.24-7.65,3.76-1.71,7.6-2.56,11.53-2.56,4.38,0,8.24,1.03,11.56,3.08,3.32,2.05,5.87,4.77,7.65,8.13,1.78,3.37,2.67,6.95,2.67,10.73,0,4.2-1.11,8.06-3.32,11.56-2.21,3.51-5.18,6.28-8.9,8.31-3.72,2.03-7.74,3.05-12.08,3.05s-8.11-1-11.46-3.01Zm21.25-.9c2.19-1.5,3.92-3.7,5.19-6.61,1.27-2.91,1.9-6.37,1.9-10.39,0-4.25-.71-8.05-2.11-11.42-1.41-3.37-3.42-6-6.02-7.89-2.61-1.89-5.67-2.84-9.17-2.84-4.48,0-7.95,1.6-10.42,4.81-2.47,3.21-3.7,7.65-3.7,13.33,0,4.39,.73,8.35,2.18,11.91,1.45,3.55,3.46,6.33,6.02,8.34,2.56,2.01,5.46,3.01,8.69,3.01,2.77,0,5.25-.75,7.44-2.25Z"/>
        <path class="cls-1" d="M237.48,87.5c0,.28-.05,.42-.14,.42-1.85,0-3.28,.66-4.29,1.97-1.02,1.32-1.52,3.2-1.52,5.64v35.79c0,.14-.12,.23-.35,.28-.23,.05-.39,.02-.49-.07l-32.47-37.73v28.18c0,2.45,.48,4.32,1.45,5.61,.97,1.29,2.38,1.94,4.22,1.94,.09,0,.14,.14,.14,.42s-.05,.42-.14,.42c-1.25,0-2.19-.02-2.84-.07l-3.67-.07-4.08,.07c-.74,.05-1.8,.07-3.18,.07-.14,0-.21-.14-.21-.42s.07-.42,.21-.42c1.98,0,3.52-.65,4.6-1.94,1.08-1.29,1.63-3.16,1.63-5.61v-30.32c-1.29-1.38-2.46-2.35-3.5-2.91-1.04-.55-2.11-.83-3.22-.83-.09,0-.14-.14-.14-.42s.05-.42,.14-.42l2.77,.07c.6,.05,1.45,.07,2.56,.07l4.43-.07c.55-.05,1.22-.07,2.01-.07,.37,0,.65,.09,.83,.28,.18,.19,.46,.55,.83,1.11l1.66,2.22,24.92,29.35v-24.51c0-2.45-.48-4.33-1.45-5.64-.97-1.32-2.35-1.97-4.15-1.97-.09,0-.14-.14-.14-.42s.04-.42,.14-.42l2.84,.07c1.48,.09,2.7,.14,3.67,.14s2.17-.05,3.74-.14l3.05-.07c.09,0,.14,.14,.14,.42Z"/>
        <path class="cls-1" d="M246.73,91.14c-1.82,1.73-3.22,4.35-4.19,7.86,0,.09-.13,.14-.38,.14s-.38-.07-.38-.21c.18-1.8,.39-4.12,.62-6.96,.23-2.84,.35-4.97,.35-6.4,0-.23,.13-.35,.38-.35s.38,.12,.38,.35c0,1.02,1.29,1.52,3.88,1.52,3.97,.14,8.61,.21,13.92,.21,2.72,0,5.61-.05,8.65-.14l4.71-.07c1.75,0,3.03-.11,3.84-.35,.81-.23,1.33-.69,1.56-1.38,.05-.18,.18-.28,.42-.28s.35,.09,.35,.28c-.14,1.43-.28,3.6-.42,6.51-.14,2.91-.21,5.26-.21,7.06,0,.14-.13,.21-.38,.21s-.4-.07-.45-.21c-.46-3.55-1.55-6.17-3.25-7.86-1.71-1.68-4.01-2.53-6.92-2.53-1.29,0-2.25,.12-2.87,.35-.62,.23-1.04,.63-1.25,1.21-.21,.58-.31,1.49-.31,2.73v31.92c0,1.43,.14,2.47,.42,3.12,.28,.65,.83,1.08,1.66,1.32,.83,.23,2.15,.35,3.95,.35,.14,0,.21,.14,.21,.42s-.07,.42-.21,.42c-1.62,0-2.89-.02-3.81-.07l-5.68-.07-5.4,.07c-.97,.05-2.31,.07-4.02,.07-.09,0-.14-.14-.14-.42s.04-.42,.14-.42c1.8,0,3.13-.11,3.98-.35,.85-.23,1.43-.68,1.73-1.35,.3-.67,.45-1.7,.45-3.08v-32.05c0-1.2-.12-2.08-.35-2.63-.23-.55-.65-.95-1.25-1.18-.6-.23-1.52-.35-2.77-.35-2.82,0-5.14,.87-6.96,2.6Z"/>
        <path class="cls-1" d="M328.8,129.94c0,.28-.12,.42-.35,.42-.88,0-2.29-.05-4.22-.14-1.94-.09-3.35-.14-4.22-.14-1.15,0-2.52,.05-4.08,.14-1.57,.09-2.79,.14-3.67,.14-.19,0-.28-.14-.28-.42s.09-.42,.28-.42c1.34,0,2.32-.15,2.94-.45,.62-.3,.93-.8,.93-1.49s-.39-1.87-1.18-3.53l-5.26-10.66h-16.75l-3.32,7.48c-.6,1.38-.9,2.63-.9,3.74,0,1.62,.58,2.84,1.73,3.67,1.15,.83,2.77,1.25,4.85,1.25,.23,0,.35,.14,.35,.42s-.12,.42-.35,.42c-.83,0-2.03-.05-3.6-.14-1.75-.09-3.28-.14-4.57-.14s-2.7,.05-4.36,.14c-1.48,.09-2.7,.14-3.67,.14-.23,0-.35-.14-.35-.42s.12-.42,.35-.42c1.29,0,2.38-.25,3.25-.76,.88-.51,1.73-1.42,2.56-2.73,.83-1.32,1.82-3.26,2.98-5.85l14.88-33.51c.09-.14,.3-.21,.62-.21s.51,.07,.55,.21l16.96,34.2c1.62,3.32,2.97,5.6,4.05,6.82,1.08,1.22,2.25,1.83,3.5,1.83,.23,0,.35,.14,.35,.42Zm-35.1-18.28h15.16l-7.96-16.13-7.2,16.13Z"/>
        <path class="cls-1" d="M369.93,88.47c.37,.19,.6,.36,.69,.52,.09,.16,.18,.52,.28,1.07l.83,9.14c0,.14-.12,.23-.35,.28-.23,.05-.39-.02-.48-.21-1.2-3.78-2.99-6.67-5.37-8.65-2.38-1.98-5.32-2.98-8.83-2.98s-6.38,.84-9.04,2.53c-2.65,1.69-4.72,4.11-6.2,7.27-1.48,3.16-2.22,6.84-2.22,11.04s.78,7.86,2.35,11.11c1.57,3.25,3.71,5.78,6.44,7.58,2.72,1.8,5.79,2.7,9.21,2.7s6.17-.89,8.41-2.67c2.24-1.78,4.21-4.6,5.92-8.48,.05-.14,.18-.18,.42-.14,.23,.05,.35,.12,.35,.21l-.9,8.31c-.05,.55-.13,.9-.24,1.04-.12,.14-.36,.3-.73,.48-4.15,1.71-8.56,2.56-13.22,2.56-4.94,0-9.35-.93-13.22-2.8s-6.9-4.5-9.07-7.89c-2.17-3.39-3.25-7.28-3.25-11.67s1.13-8.21,3.39-11.63c2.26-3.42,5.35-6.08,9.28-8,3.92-1.92,8.31-2.87,13.15-2.87,5.12,0,9.25,.72,12.39,2.15Z"/>
        <path class="cls-1" d="M383.95,91.14c-1.82,1.73-3.22,4.35-4.19,7.86,0,.09-.13,.14-.38,.14s-.38-.07-.38-.21c.18-1.8,.39-4.12,.62-6.96,.23-2.84,.35-4.97,.35-6.4,0-.23,.13-.35,.38-.35s.38,.12,.38,.35c0,1.02,1.29,1.52,3.88,1.52,3.97,.14,8.61,.21,13.92,.21,2.72,0,5.61-.05,8.65-.14l4.71-.07c1.75,0,3.03-.11,3.84-.35,.81-.23,1.33-.69,1.56-1.38,.05-.18,.18-.28,.42-.28s.35,.09,.35,.28c-.14,1.43-.28,3.6-.42,6.51-.14,2.91-.21,5.26-.21,7.06,0,.14-.13,.21-.38,.21s-.4-.07-.45-.21c-.46-3.55-1.55-6.17-3.25-7.86-1.71-1.68-4.01-2.53-6.92-2.53-1.29,0-2.25,.12-2.87,.35-.62,.23-1.04,.63-1.25,1.21-.21,.58-.31,1.49-.31,2.73v31.92c0,1.43,.14,2.47,.42,3.12,.28,.65,.83,1.08,1.66,1.32,.83,.23,2.15,.35,3.95,.35,.14,0,.21,.14,.21,.42s-.07,.42-.21,.42c-1.62,0-2.89-.02-3.81-.07l-5.68-.07-5.4,.07c-.97,.05-2.31,.07-4.02,.07-.09,0-.14-.14-.14-.42s.04-.42,.14-.42c1.8,0,3.13-.11,3.98-.35,.85-.23,1.43-.68,1.73-1.35,.3-.67,.45-1.7,.45-3.08v-32.05c0-1.2-.12-2.08-.35-2.63-.23-.55-.65-.95-1.25-1.18-.6-.23-1.52-.35-2.77-.35-2.82,0-5.14,.87-6.96,2.6Z"/>
      </g>
      <g class="cls-3">
        <path class="cls-1" d="M17.97,5.76V47.41c0,.26-1.35,1.25-3.48,1.25h-.67v-12.83c-2.6,1.51-5.97,3.43-10.02,5.5-.21,.62-.67,1.14-1.25,1.3L.47,37.02c.78-.1,1.87-.31,3.22-.57V5.76H.88l-.42-1.51H14.95l2.7-3.38s3.12,2.34,4.99,4.05c-.16,.57-.68,.83-1.4,.83h-3.27Zm-4.15,0H7.79V14.33h6.02V5.76Zm0,10.07H7.79v8.98h6.02V15.84Zm-6.02,19.73c1.87-.42,3.95-.88,6.02-1.4v-7.84H7.79v9.24Zm20.87-11.42l5.61,.57c-.16,.68-.52,1.14-1.77,1.3v6.96c-.1,6.02-2.08,12.25-12.31,15.79l-.57-.68c5.87-3.01,8.1-7.17,8.78-11.53h-3.53l-1.4,2.18-4.21-2.8c.36-.36,.93-.83,1.51-1.19v-9.5l5.82,.47c-.1,.62-.52,1.09-2.08,1.3v8.05h4.05c.1-.73,.1-1.51,.1-2.18v-8.72Zm14.64-9.04c8.57,4.78,4.99,10.9,2.03,8.2-.05-.78-.16-1.61-.42-2.44-2.34,.78-5.71,1.92-8.98,2.86-.26,.21-.47,.36-.73,.42l-1.19-3.58c.62,2.65-1.45,4.41-3.27,2.65,0-.73-.1-1.45-.26-2.23-2.29,.78-5.61,1.92-8.93,2.91-.21,.16-.42,.26-.62,.31l-1.3-4.21s.83-.16,1.19-.42c1.71-1.4,3.63-3.74,5.35-6.23-1.25,.42-2.7,.83-4.05,1.25-.26,.31-.52,.52-.83,.62l-1.77-4.15s.78-.21,1.09-.47c2.08-2.08,4.67-7.69,5.5-10.49l5.3,2.49c-.21,.42-.78,.88-1.82,.78-1.71,2.44-4.41,5.61-6.96,7.84,1.4,.05,3.17,.05,4.93,0,1.25-2.02,2.34-3.95,2.96-5.45l4.62,3.27c-.21,.42-.93,.73-1.92,.47-2.34,3.17-6.44,7.58-10.33,10.64,2.02-.05,4.62-.26,7.32-.42-.47-1.61-1.09-3.12-1.66-4.26l.68-.26c2.65,1.56,4.05,3.27,4.57,4.78,.16-.05,.93-.21,1.25-.47,1.56-1.4,3.43-3.84,5.04-6.39-1.35,.42-2.86,.88-4.36,1.3-.26,.36-.57,.62-.88,.73l-1.77-4.1s.73-.21,1.04-.42c2.08-2.13,4.46-7.79,5.19-10.64l5.35,2.44c-.21,.47-.78,.93-1.82,.83-1.56,2.39-4.21,5.5-6.54,7.79,1.4,.05,3.22,.05,5.04,0,1.14-1.97,2.08-3.84,2.65-5.3l4.67,3.22c-.26,.42-.93,.73-1.92,.52-2.13,3.12-5.97,7.48-9.55,10.59,1.97-.1,4.67-.26,7.37-.47-.52-1.61-1.25-3.12-1.92-4.26l.67-.26Zm5.56,11.11c-.16,.68-.57,1.09-1.77,1.3v10.64c0,.36-1.66,1.09-3.01,1.09h-.73v-2.7h-4.1v10.85c0,.42-1.77,1.19-3.27,1.19h-.78V24.09l5.97,.62c-.1,.73-.57,1.25-1.92,1.45v8.88h4.1v-9.4l5.5,.57Z"/>
        <path class="cls-1" d="M62.67,34.22c1.77,5.35,1.19,9.35-.26,11.27-1.04,1.25-3.38,1.51-4.26,.05-.62-1.3-.05-2.7,1.14-3.63,1.35-1.4,2.8-4.78,2.49-7.69h.88ZM103.95,8.46c-.36,.52-.88,.62-2.13,.73-1.77,3.79-4.1,7.27-7.22,10.38,3.48,2.18,7.58,3.79,12.46,4.93l-.16,.57c-1.92,.62-3.01,2.02-3.38,4.26-1.19-.42-2.34-.93-3.43-1.45l3.32,2.49c-.36,.47-.88,.73-1.97,.93v15.63c0,.31-1.61,1.19-3.95,1.19h-.83v-3.12h-11.11v2.39c0,.36-1.45,1.19-3.74,1.19h-.78V28.35c-1.04,.42-2.08,.78-3.17,1.09l-.42-.57c.1,2.49-1.92,3.89-3.79,2.13,0-.88-.16-1.82-.36-2.75-2.96,1.04-7.17,2.54-11.73,3.84-.42,.57-.88,.93-1.4,1.09l-1.97-5.5s1.19-.21,1.66-.57c2.54-1.97,5.56-5.71,8.1-9.5-1.77,.68-4,1.4-6.28,2.13-.36,.52-.78,.88-1.19,1.04l-2.29-5.5s1.04-.21,1.45-.52c2.75-2.86,6.23-10.28,7.37-14.23l6.08,3.06c-.26,.47-.83,.83-1.87,.73-2.18,3.38-6.08,8.1-9.55,11.22,2.13,0,4.88,0,7.68-.05,1.35-2.18,2.49-4.21,3.22-5.82l5.5,3.69c-.26,.47-.99,.78-2.02,.57-2.91,4.05-8.62,9.87-13.71,13.76,2.86-.16,6.7-.42,10.7-.73-.52-1.87-1.3-3.69-2.03-5.04l.62-.31c4.1,2.34,5.66,5.04,5.82,7.06,4.88-2.34,8.98-5.4,12.31-9.04-1.82-2.23-3.27-4.73-4.57-7.43-2.08,3.01-4.52,5.56-7.22,7.48l-.67-.47c3.32-4.47,6.39-11.48,8.05-18.69l6.49,2.18c-.21,.62-.78,.99-1.92,.99-.47,1.14-1.04,2.28-1.56,3.38h8.31l2.75-2.65,4.52,4.05Zm-36.82,24.87c7.53,6.7,2.6,13.71-.36,9.87,.57-3.17,.21-6.96-.36-9.66l.73-.21Zm5.14-.88c9.5,4.73,5.4,12.15,2.03,8.93,.05-2.86-1.3-6.39-2.65-8.67l.62-.26Zm26.27-5.45c-2.54-1.4-4.78-3.12-6.65-4.98-2.75,2.28-6.02,4.21-9.81,5.82l4.05,1.66h10.38l2.03-2.49Zm-1.87,16.51v-12.51h-11.11v12.51h11.11Zm-9.09-35c-.52,.88-1.04,1.77-1.61,2.65,1.51,2.28,3.38,4.41,5.66,6.28,2.18-2.8,3.89-5.76,5.09-8.93h-9.14Z"/>
        <path class="cls-1" d="M24.82,83.24c2.03,0,3.63,1.61,3.63,3.63s-1.61,3.63-3.63,3.63-3.63-1.61-3.63-3.63,1.61-3.63,3.63-3.63Z"/>
        <path class="cls-1" d="M47.51,167.41c1.71,2.44,1.92,3.58,1.3,4.36-1.76,1.97-5.45,.36-7.84-1.56-2.86-2.13-5.09-4.73-6.91-7.79-4.1,3.79-9.19,7.06-15.27,9.29l-.42-.68c5.61-3.06,10.28-7.27,14.02-11.89-2.08-4.57-3.32-9.87-4.05-15.73h-10.65v7.84c3.12-.67,6.39-1.35,9.71-2.02l.16,.78c-2.65,1.14-5.92,2.49-9.87,4v12.72c0,3.53-.83,6.08-6.85,6.59-.1-1.51-.47-2.8-1.19-3.58-.88-.78-2.08-1.35-4.83-1.77v-.73s5.61,.42,6.85,.42c.88,0,1.14-.36,1.14-1.09v-10.7c-2.6,.99-5.4,1.97-8.46,3.06-.21,.67-.78,1.14-1.3,1.3l-2.34-5.87c2.44-.31,6.8-1.09,12.1-2.18v-8.78H1.09l-.42-1.45H12.83v-8.62c-3.79,.78-7.79,1.4-11.58,1.77l-.21-.73c7.22-2.02,15.94-5.82,20.25-8.52l5.5,4.57c-.57,.52-1.56,.62-3.01,.05-1.76,.57-3.79,1.19-6.08,1.71v9.76h10.49c-.52-5.04-.73-10.49-.73-16.2l6.75,.73c-.05,.68-.52,1.3-1.82,1.45-.05,4.83,.05,9.55,.52,14.02h7.68l3.01-3.63s3.32,2.49,5.45,4.31c-.16,.52-.67,.78-1.4,.78h-14.59c.47,4.05,1.3,7.84,2.54,11.22,1.92-3.12,3.48-6.28,4.57-9.35l6.39,2.8c-.31,.57-.78,.88-2.08,.68-1.71,3.38-4,6.85-6.91,10.13,1.51,2.7,3.48,4.93,5.92,6.59,.88,.73,1.19,.68,1.71-.26,.73-1.3,1.87-3.95,2.65-6.18l.62,.16-.99,8.2Zm-11.79-39.26c12.88,2.86,8.98,11.79,4.52,8.52-.52-2.8-2.86-6.18-4.99-8.2l.47-.31Z"/>
        <path class="cls-1" d="M26.33,189.06l4.41,3.27c-.31,.42-1.04,.78-1.97,.99v16.98c-.05,.36-2.08,1.25-3.38,1.25h-.62v-3.12h-5.5v25.39c0,.68-1.71,1.82-3.79,1.82h-.88v-45.75c-.31,.42-.88,.68-1.82,.68-1.14,3.84-2.49,7.58-4.05,11.06l2.65,.99c-.16,.47-.67,.83-1.56,.99v30.69c-.05,.36-1.97,1.35-3.74,1.35h-.83v-27.57c-1.4,2.28-2.91,4.31-4.52,6.08l-.73-.42c3.32-6.65,6.49-16.72,8.1-26.33l6.49,2.02v-.36l4.88,2.13h4.83l2.03-2.13Zm-7.06,3.63v6.23h5.5v-6.23h-5.5Zm5.5,14.23v-6.49h-5.5v6.49h5.5Zm23.94-14.44c-.31,.42-1.14,.88-2.13,1.09v35.88c0,3.53-.73,5.61-6.8,6.18-.16-1.51-.42-2.75-1.19-3.43-.83-.83-2.08-1.4-4.62-1.77v-.78s5.5,.36,6.59,.36c.93,0,1.19-.31,1.19-1.09v-20.51h-5.71v1.56c0,.42-1.66,1.35-3.43,1.35h-.57v-21.91l4.26,1.77h4.93l2.34-2.7,5.14,4Zm-12.67,.21v6.23h5.71v-6.23h-5.71Zm5.71,14.23v-6.49h-5.71v6.49h5.71Z"/>
      </g>
      <g class="cls-2">
        <path class="cls-1" d="M84.25,356.06v.91c0,.16-.7,.65-1.77,.65h-.36v-8.03c-.52,.6-1.09,1.14-1.66,1.59l-.34-.26c1.12-1.66,2.24-4.29,2.89-6.89l2.78,.96c-.1,.29-.44,.49-.99,.44-.18,.39-.39,.78-.6,1.14l.39,.16h5.8l1.09-1.4s1.3,.99,2.11,1.74c-.08,.29-.31,.42-.68,.42h-3.85v2.03h1.09l1.01-1.3s1.22,.94,1.98,1.64c-.08,.29-.31,.42-.68,.42h-3.41v2.05h1.12l1.04-1.3s1.2,.94,1.95,1.64c-.05,.29-.31,.42-.65,.42h-3.46v2.24h1.51l1.17-1.46s1.35,1.01,2.21,1.79c-.08,.29-.34,.42-.7,.42h-9Zm-3.98-19.89h3.54v-2.5l2.94,.29c-.05,.31-.26,.52-.83,.6v3.67c0,.16-.94,.52-1.72,.52h-.39v-1.82h-3.33l-.21-.75Zm4.99,2.57l1.92,1.46c-.13,.16-.44,.31-.83,.39v3.2c-.03,.18-.94,.55-1.48,.55h-.29v-.83h-1.61v.57c0,.16-.57,.57-1.48,.57h-.29v-5.88l2.08,.88h1.09l.88-.91Zm-.68,4v-2.34h-1.61v2.34h1.61Zm-.34,4.73v2.03h2.7v-2.03h-2.7Zm2.7,2.78h-2.7v2.05h2.7v-2.05Zm0,2.81h-2.7v2.24h2.7v-2.24Zm-.23-9.2c.34,.05,.62,.13,.88,.23v-5.33l2.11,.88h1.17l.88-.94,1.98,1.48c-.13,.16-.47,.34-.86,.42v3.07c-.03,.18-.94,.55-1.51,.55h-.29v-.73h-1.69v.31c0,.1-.42,.44-1.12,.57,2.18,1.12,.49,3.09-.91,1.98-.08-.81-.52-1.77-.91-2.34l.26-.16Zm3.35-5.72c0,.16-.96,.52-1.74,.52h-.42v-5.02l2.96,.29c-.05,.31-.26,.55-.81,.62v1.61h1.43l1.04-1.38s1.2,.96,1.87,1.72c-.05,.29-.26,.42-.62,.42h-3.72v1.22Zm-.68,2.26v2.34h1.69v-2.34h-1.69Zm9.7,3.35c.44,5.49,1.69,9.28,5.15,11.57l-.03,.29c-1.14,.26-1.79,.96-2,2.31-2.13-2.08-3.02-5.95-3.43-10.63-.55,4.34-1.9,8.27-6.08,10.66l-.34-.36c4.29-3.54,4.5-9.93,4.58-16.46l3.17,.73c-.08,.31-.34,.55-.94,.55l-.08,1.35Zm-5.98,1.27c1.07-2.94,2.11-7.36,2.65-11.26l3.35,.88c-.08,.29-.39,.55-.96,.57-.36,1.33-.83,2.65-1.33,3.93h4.32l1.25-1.27,2.24,2.16c-.21,.21-.49,.26-1.01,.29-.6,1.33-1.66,3.35-2.57,4.63l-.31-.18c.23-1.35,.49-3.41,.65-4.86h-4.89c-.86,2-1.87,3.85-2.99,5.28l-.39-.16Z"/>
        <path class="cls-1" d="M118.12,346.73c-.18,.26-.44,.34-.99,.36-.62,1.85-1.85,3.85-3.51,5.43,.1,.05,.23,.13,.36,.23,2.16,1.95,5.17,2.31,10.53,2.31,3.02,0,5.56-.03,8.63-.18v.34c-1.04,.21-1.61,1.04-1.77,2.03h-7.67c-5.41,0-7.77-.94-10.06-3.67-.34-.42-.62-.36-.86,.05-.47,.78-1.38,2.24-2.03,3.46,.08,.21,0,.39-.18,.52l-1.79-2.44c1.12-.7,2.78-2,3.72-2.52,.99-1.66,1.77-3.85,2.13-5.75h-2.11l-.86,.78-2.03-1.59c.23-.16,.62-.34,1.01-.47,.91-1.22,2.05-3.02,2.81-4.34h-4.16l-.23-.75h4.5l1.17-1.2,2.34,2.13c-.26,.26-.75,.39-1.4,.42-.73,1.17-1.92,2.96-2.83,4.26h1.66l1.33-1.3,2.29,1.87Zm-7.88-12.61c6.6,.86,4.84,5.67,2.39,4.16-.34-1.4-1.56-3.02-2.63-3.98l.23-.18Zm7.12,14.66c.75-.39,.88-.6,.88-1.07v-11.57l1.92,.42c.96-.96,1.98-2.05,2.57-2.76l2.78,1.74c-.1,.21-.36,.31-.94,.18-.96,.49-2.65,1.2-4.16,1.77v10.22c.94-.42,1.95-.91,2.99-1.43l.16,.29c-.75,.81-2.26,2.42-3.98,4.06-.21,.55-.57,.88-.88,1.04l-1.35-2.89Zm9.18-11.54h2.57l1.04-1.27,2.5,1.87c-.18,.23-.57,.44-1.09,.55v10.01c0,1.66-.31,2.57-2.83,2.83-.05-.68-.16-1.25-.42-1.59-.29-.36-.75-.6-1.66-.75v-.39s1.79,.13,2.24,.13c.39,0,.49-.13,.49-.47v-10.17h-3.02v15.55c0,.16-.7,.73-1.85,.73h-.36v-18.02l2.39,.99Z"/>
        <path class="cls-1" d="M146.96,344.33c-.99,.6-2.21,1.35-3.72,2.18v8.4c0,1.77-.34,2.76-3.12,3.04-.05-.73-.16-1.33-.49-1.72-.34-.39-.86-.65-1.9-.81v-.39s2.16,.16,2.65,.16c.42,0,.52-.13,.52-.47v-6.92c-.68,.39-1.4,.78-2.18,1.17-.08,.34-.31,.62-.6,.7l-1.01-3.04c.78-.16,2.13-.49,3.8-.94v-5.1h-3.3l-.21-.75h3.51v-6.06l3.3,.34c-.05,.36-.31,.62-.96,.73v4.99h.49l1.2-1.77s1.4,1.22,2.18,2.11c-.08,.29-.31,.42-.68,.42h-3.2v4.45c1.17-.34,2.39-.7,3.61-1.07l.1,.34Zm7.8,10.71c.57,.05,1.2,.08,1.87,.08,1.17,0,3.93,0,5.28-.03v.34c-.75,.16-1.09,1.01-1.12,2h-4.29c-3.74,0-5.95-.99-7.23-4.97-1.09,2.65-2.78,4.39-5.04,5.51l-.31-.29c2.29-2.26,3.74-5.56,3.93-9.93l3.41,.62c-.1,.34-.36,.57-.96,.62-.18,.99-.44,1.9-.73,2.7,.7,1.48,1.61,2.34,2.83,2.83v-8.16h-6.03l-.21-.75h11.34l1.43-1.77s1.61,1.22,2.55,2.11c-.08,.29-.34,.42-.7,.42h-6.01v3.69h2.08l1.4-1.87s1.61,1.3,2.55,2.18c-.08,.29-.34,.42-.68,.42h-5.36v4.24Zm-4.5-11.23c0,.23-1.01,.78-2.03,.78h-.34v-10.11l2.5,1.04h6.34l1.17-1.3,2.55,1.92c-.16,.21-.55,.44-1.09,.55v6.81c-.03,.18-1.2,.7-2,.7h-.39v-1.25h-6.71v.86Zm0-7.54v2.63h6.71v-2.63h-6.71Zm6.71,5.95v-2.6h-6.71v2.6h6.71Z"/>
        <path class="cls-1" d="M172.49,341.94c-.1,.26-.34,.42-.81,.49v14.77c-.05,.21-1.04,.73-2.03,.73h-.44v-13.83c-.99,1.35-2.05,2.55-3.17,3.56l-.36-.23c2.13-3.33,4.37-8.55,5.56-13.62l3.59,1.12c-.1,.31-.44,.52-.99,.49-.81,2.13-1.77,4.16-2.83,5.95l1.48,.57Zm-.49,15.76c2.5-2,4.65-5.25,5.62-7.7l3.25,1.59c-.13,.26-.36,.42-.99,.34-1.59,2.16-4.34,4.65-7.64,6.06l-.23-.29Zm16.07-11.47s1.59,1.3,2.52,2.24c-.05,.29-.34,.42-.7,.42h-17.29l-.21-.75h3.87v-6.97h-2.99l-.21-.75h3.2v-6.27l3.38,.34c-.05,.39-.29,.65-.94,.75v5.17h4.21v-6.24l3.41,.31c-.05,.39-.29,.65-.94,.75v5.17h.86l1.38-1.85s1.53,1.27,2.44,2.18c-.08,.29-.34,.42-.7,.42h-3.98v6.97h1.3l1.38-1.9Zm-9.36,1.9h4.21v-6.97h-4.21v6.97Zm3.87,2.29c9.36,2.99,7.77,9,4.89,7.15-.86-2.31-3.22-5.15-5.15-6.94l.26-.21Z"/>
        <path class="cls-1" d="M201.33,339.47c-.08,.23-.36,.42-.81,.49v8.55c-.03,.18-1.04,.7-2,.7h-.47v-7.05c-.96,1.12-1.98,2.11-3.07,2.94l-.31-.23c1.87-2.63,3.9-6.89,5.02-11.08l3.51,1.22c-.13,.31-.44,.52-1.04,.49-.57,1.27-1.22,2.47-1.9,3.56l1.07,.39Zm-2.63,10.22c.99,3.17-.1,5.28-1.25,6.06-.75,.49-1.79,.47-2.16-.29-.26-.7,.16-1.33,.81-1.69,1.04-.62,2.18-2.24,2.18-4.08h.42Zm14.3,5.23c.78,.26,.99,.55,.99,.99,0,1.09-1.12,1.38-6.21,1.38h-3.51c-2.7,0-3.3-.42-3.3-2.13v-6.16l3.28,.29c-.05,.34-.31,.57-.81,.65v4.78c0,.42,.13,.49,1.22,.49h3.33c1.3,0,2.42,0,2.89-.03,.36-.03,.49-.1,.68-.36,.29-.42,.62-1.46,1.09-2.89h.29l.08,2.99Zm-11.36-12.38c1.46-2.11,2.86-5.41,3.54-8.81l3.48,1.12c-.1,.31-.42,.49-.99,.49-.26,.57-.52,1.14-.81,1.66h8.14l1.38-1.38,2.39,2.31c-.21,.21-.49,.26-1.01,.29-.81,.86-2.31,1.95-3.46,2.6l-.26-.18c.34-.75,.75-1.95,1.04-2.89h-8.63c-1.25,2.13-2.78,3.82-4.47,5.02l-.34-.23Zm7.05-.6c-.1,.29-.44,.49-1.01,.44-1.33,2.42-3.25,4.21-5.25,5.28l-.31-.26c1.38-1.53,2.7-4,3.46-6.66l3.12,1.2Zm-3.02,6.11c6.14,2.11,4,6.19,1.95,4.45-.18-1.43-1.27-3.15-2.24-4.26l.29-.18Zm5.93,.42c0,.18-1.01,.55-1.9,.55h-.44v-9.93l3.3,.34c-.05,.36-.29,.6-.96,.7v8.35Zm1.79-7.1c7.1,2.65,5.15,7.57,2.81,5.75-.34-1.85-1.82-4.11-3.07-5.56l.26-.18Zm.18,7.9c6.92,2.55,4.68,7.75,2.34,5.75-.1-1.9-1.35-4.13-2.63-5.59l.29-.16Z"/>
        <path class="cls-1" d="M234.68,339.26c-.18,.21-.57,.42-1.09,.55v15.68c-.03,.21-1.17,.73-1.98,.73h-.36v-2h-4.6v2c0,.26-.88,.83-1.87,.83h-.39v-19.5l2.39,1.09h.47c.23-1.38,.55-3.38,.73-4.81l3.59,.86c-.13,.42-.47,.6-1.04,.6-.62,.99-1.53,2.31-2.26,3.35h2.73l1.2-1.35,2.5,1.98Zm-8.03,.13v6.47h4.6v-6.47h-4.6Zm4.6,14.07v-6.84h-4.6v6.84h4.6Zm16.12-14.2c-.21,.23-.52,.39-1.12,.47-.18,10.09-.6,15.31-1.92,16.82-.83,.96-1.95,1.35-3.46,1.35,0-.81-.13-1.43-.55-1.79-.44-.42-1.48-.78-2.68-.99l.03-.42c1.22,.13,3.04,.26,3.67,.26,.52,0,.73-.08,1.01-.34,.96-.94,1.27-6.4,1.46-15.29h-5.46c-1.2,2.16-2.6,4.06-4.16,5.46l-.36-.23c1.53-2.63,3.04-6.76,3.82-10.74l3.46,1.01c-.1,.31-.42,.55-.99,.55-.39,1.12-.86,2.18-1.38,3.2h4.78l1.4-1.48,2.44,2.16Zm-11.13,4.65c7.02,2.47,4.73,7.51,2.37,5.54-.21-1.79-1.46-3.98-2.6-5.38l.23-.16Z"/>
        <path class="cls-1" d="M276.21,337.13c-.18,.18-.47,.26-.96,.29-.55,.42-1.51,.96-2.29,1.3l.26,.21c-.08,.29-.31,.42-.68,.42h-2.76v1.46h2.21l1.04-1.17s1.2,.86,1.98,1.51c-.05,.29-.31,.42-.65,.42h-4.58v2.44h1.98v-1.95l2.57,.26c-.05,.26-.21,.44-.68,.52v2.21c0,.18-.86,.55-1.53,.55h-.36v-.83h-1.25l2.26,1.72c-.1,.16-.42,.34-.86,.42v7.28c-.03,.16-.99,.57-1.72,.65,7.9,.99,4.55,4.21,2.44,2.81-1.38-.91-3.77-2-7.02-2.65l.1-.42c1.43,.03,2.7,.08,3.77,.18v-.52h-8.4l2.31,1.72c-.23,.23-.7,.31-1.38,.1-2.31,.99-6.14,1.77-9.7,1.92l-.13-.42c3.15-.68,6.55-2.08,8.4-3.33h-2.24v.26c0,.23-1.07,.75-2.05,.75h-.36v-10.14l-1.14,.29c-.13,.34-.36,.49-.62,.57l-1.2-2.29c.94-.05,2.5-.16,4.34-.31v-1.66h-2.57l-.21-.75h2.78v-1.53h-2.81v-.03c-.18,.23-.39,.42-.62,.55-.73,.36-1.72,.26-1.98-.52-.23-.75,.23-1.33,.86-1.64,.83-.39,1.61-1.53,1.48-2.7l.42-.03c.16,.44,.29,.83,.34,1.22h8.29c-.13-.08-.26-.16-.39-.26,.1-.81-.26-1.72-.73-2.18l.21-.16c3.54,.08,3.41,2,2.29,2.6h8.06l1.22-1.27,2.24,2.16Zm-8.5,2.21h-2.39c-.49,.44-1.07,.86-1.64,1.2l-.34-.21c.62-.83,1.22-2.29,1.51-3.33h-9.72c.03,.65-.05,1.17-.23,1.64h5.3l1.04-1.22s1.22,.86,2,1.56c-.08,.29-.31,.42-.68,.42h-3.07v1.53h.68l.94-1.07s1.01,.75,1.69,1.4c-.05,.29-.29,.42-.62,.42h-2.68v1.46c1.17-.1,2.37-.21,3.61-.34l.08,.42c-1.53,.47-3.74,1.07-6.71,1.79l2.08,.88h10.71l1.07-1.14h-4.76l-.73,.96-2.24-1.27c.21-.18,.55-.42,.86-.6v-1.85l2.52,.29c-.05,.23-.21,.42-.6,.49v1.22h2.31v-2.44h-4.78l-.21-.75h4.99v-1.46Zm1.79,9.07v-1.77h-11.13v1.77h11.13Zm-11.13,2.5h11.13v-1.74h-11.13v1.74Zm11.13,2.55v-1.79h-11.13v1.79h11.13Zm1.82-16.02s.65,.44,1.3,.96c.1-.39,.21-.91,.29-1.4h-7.85l2.44,.75c-.1,.21-.31,.31-.91,.23-.16,.18-.34,.39-.52,.6h4.26l.99-1.14Z"/>
        <path class="cls-1" d="M301.95,340.12s1.61,1.22,2.63,2.11c-.08,.29-.34,.42-.7,.42h-23.24l-.21-.75h10.79v-2h-4.45v.65c0,.21-1.07,.7-1.98,.7h-.34v-6.21l2.47,1.01h4.29v-2.24l3.33,.31c-.03,.36-.26,.62-.94,.7v1.22h4.42l1.14-1.22,2.47,1.85c-.16,.18-.55,.42-1.04,.49v3.07c-.03,.21-1.14,.73-1.92,.73h-.42v-1.07h-4.65v2h6.89l1.46-1.77Zm-21.09,17.47c3.2-.88,6.71-2.7,8.4-4.11l2.83,1.95c-.21,.26-.68,.36-1.4,.16-2.29,1.09-6.11,2.05-9.72,2.37l-.1-.36Zm16.93-3.51v-.88h-10.5v.55c0,.21-1.07,.78-2.08,.78h-.34v-11.41l2.6,1.09h10.09l1.2-1.27,2.47,1.9c-.16,.18-.49,.39-.96,.49v8.11c-.03,.18-1.25,.65-2.05,.65h-.42Zm-6.58-14.95v-2.34h-4.45v2.34h4.45Zm-3.93,5.82v1.92h10.5v-1.92h-10.5Zm10.5,2.68h-10.5v2h10.5v-2Zm0,4.81v-2.08h-10.5v2.08h10.5Zm-4.19-15.65v2.34h4.65v-2.34h-4.65Zm.42,17.42c13.73,.42,9.21,5.04,6.71,3.33-1.3-.94-3.69-2.13-6.81-2.94l.1-.39Z"/>
        <path class="cls-1" d="M313.02,351.09c.81,2.94-.36,4.91-1.59,5.56-.75,.44-1.79,.34-2.11-.42-.23-.7,.23-1.3,.91-1.64,1.04-.49,2.29-1.9,2.37-3.51h.42Zm17.29-12.17s1.64,1.22,2.68,2.13c-.08,.29-.34,.42-.7,.42h-22.7l-.23-.75h13.73c.42-1.07,.88-2.47,1.17-3.54h-12.9l-.21-.75h9.44c-.42-1.01-1.46-2.08-2.37-2.65l.21-.23c4.13-.18,4.71,2,3.85,2.89h4.84l1.48-1.82s1.66,1.25,2.68,2.16c-.08,.29-.34,.42-.7,.42h-5.75l2.83,.86c-.1,.31-.42,.52-.99,.47-.7,.62-1.77,1.51-2.76,2.21h4.91l1.48-1.79Zm-14.59,11.23c0,.23-1.09,.75-2.05,.75h-.36v-8.87l2.57,1.07h10.22l1.2-1.33,2.57,1.98c-.16,.21-.55,.42-1.09,.55v5.64c-.03,.18-1.22,.73-2.03,.73h-.39v-.91h-10.63v.39Zm11.41,4.84c.75,.23,.96,.52,.96,.96,0,1.01-1.04,1.38-6.08,1.38h-3.51c-2.63,0-3.15-.39-3.15-2v-4.34l3.09,.29c-.05,.34-.29,.57-.78,.62v2.96c0,.34,.08,.44,1.17,.44h3.35c1.35,0,2.5-.03,2.91-.05,.39-.03,.52-.08,.68-.34,.26-.42,.57-1.38,.96-2.7h.31l.08,2.78Zm-11.49-17.76c5.38,.75,3.22,4.68,1.2,3.12-.1-1.04-.81-2.24-1.43-2.96l.23-.16Zm.08,6.63v2.18h10.63v-2.18h-10.63Zm10.63,5.15v-2.21h-10.63v2.21h10.63Zm-6.6,1.25c5.72,1.04,4.03,5.23,2,3.77-.21-1.27-1.27-2.76-2.24-3.59l.23-.18Zm8.24,.78c6.63,1.85,4.78,6.58,2.55,4.91-.23-1.64-1.53-3.56-2.81-4.73l.26-.18Z"/>
        <path class="cls-1" d="M360.84,354.89c.73,.26,.88,.55,.88,1.01,0,1.04-.96,1.51-5.2,1.51h-2.81c-2.37,0-2.89-.47-2.89-2.18v-6.37h-2.37c-.68,5.28-3.69,7.9-10.66,9.05l-.1-.36c5.54-1.74,7.57-4.24,8.03-8.68h-1.3v.75c0,.29-1.04,.83-2.08,.83h-.36v-16.09l2.6,1.09h10.17l1.25-1.38,2.57,2c-.18,.23-.55,.44-1.09,.55v12.87c-.03,.18-1.2,.7-2.08,.7h-.39v-1.33h-1.74v5.82c0,.36,.08,.47,.96,.47h2.47c.96,0,1.79,0,2.16-.03,.34-.03,.44-.1,.6-.36,.26-.49,.6-1.87,1.01-3.51h.31l.05,3.64Zm-16.41-18.72v3.41h10.58v-3.41h-10.58Zm10.58,4.16h-10.58v3.48h10.58v-3.48Zm-10.58,7.77h10.58v-3.54h-10.58v3.54Z"/>
        <path class="cls-1" d="M369.62,348.57c1.53-.88,2.24-2,2.57-3.35-1.35-.6-2.21-1.25-2.21-2.37,0-.94,.65-1.74,1.79-1.74s1.98,.86,1.98,2.47c0,1.98-.94,4.5-3.69,5.82l-.44-.83Z"/>
        <path class="cls-1" d="M88.17,383.34s1.4,1.09,2.26,1.9c-.08,.29-.31,.42-.68,.42h-9.41l-.21-.75h6.81l1.22-1.56Zm-2.11,4.86l1.17-1.46s1.3,1.01,2.11,1.79c-.08,.29-.31,.42-.68,.42h-7.2l-.21-.75h4.81Zm1.17,1.9s1.3,1.01,2.11,1.79c-.08,.29-.31,.42-.68,.42h-7.2l-.21-.75h4.81l1.17-1.46Zm2.65,5.46c-.16,.18-.55,.39-1.04,.49v6.14c-.03,.18-1.09,.68-1.82,.68h-.36v-1.33h-2.86v1.51c0,.23-.96,.73-1.87,.73h-.31v-9.83l2.29,.99h2.5l1.12-1.2,2.37,1.82Zm-7.05-15.34c5.88,1.3,3.46,5.49,1.33,3.69-.1-1.2-.86-2.65-1.59-3.54l.26-.16Zm3.82,20.57v-5.1h-2.86v5.1h2.86Zm14.04-10.22l2.52,1.9c-.18,.21-.57,.42-1.09,.52v8.14c0,1.61-.34,2.57-2.99,2.81-.05-.7-.18-1.25-.49-1.59-.31-.36-.83-.62-1.85-.75v-.42s2.13,.16,2.6,.16c.39,0,.52-.16,.52-.49v-2.29h-6.08c-.29,2.11-1.2,4.24-4.19,5.69l-.26-.29c2.11-2,2.31-4.6,2.31-7.31v-5.85l2.63,1.01h5.33l1.04-1.25Zm1.43-2.99s1.48,1.17,2.37,2c-.05,.29-.31,.42-.68,.42h-13.86l-.21-.75h5.93v-2.42h-4.29l-.21-.75h4.5v-2.26h-5.36l-.21-.75h5.56v-3.15l3.15,.31c-.05,.34-.23,.57-.83,.68v2.16h2.26l1.27-1.66s1.48,1.14,2.37,2c-.08,.29-.31,.42-.68,.42h-5.23v2.26h1.74l1.22-1.48s1.35,1.04,2.18,1.82c-.08,.29-.31,.42-.68,.42h-4.47v2.42h2.86l1.27-1.66Zm-2.21,10.22v-2.24h-5.98v1.07c0,.36,0,.78-.03,1.17h6.01Zm-5.98-5.23v2.24h5.98v-2.24h-5.98Z"/>
        <path class="cls-1" d="M130.53,384.25c-.75,1.79-1.87,3.33-3.3,4.63,1.66,.81,3.72,1.38,6.21,1.74l-.05,.31c-.68,.31-1.09,1.17-1.22,2.31-2.86-.78-4.91-1.82-6.47-3.15-.78,.55-1.64,1.04-2.55,1.48l3.33,.31c-.05,.34-.26,.6-.88,.68-.08,.7-.18,1.4-.31,2.11h3.43l1.27-1.25,2.31,1.92c-.18,.21-.47,.34-1.01,.42-.26,4.21-.86,6.68-2,7.57-.73,.52-1.66,.78-2.89,.78,0-.65-.1-1.22-.47-1.56-.39-.36-1.33-.65-2.29-.83v-.39c.99,.08,2.7,.21,3.22,.21,.44,0,.68-.05,.88-.23,.52-.47,.96-2.57,1.2-5.88h-3.82c-.81,3.43-2.81,6.76-8.55,8.68l-.23-.39c4.08-1.95,5.72-5.04,6.37-8.29h-4.6l-.23-.75h4.97c.18-1.01,.26-2.05,.29-3.07-1.53,.73-3.28,1.33-5.17,1.79l-.18-.36c2.78-1.04,5.04-2.39,6.79-4.06-.96-1.07-1.72-2.29-2.39-3.67-.88,.91-1.85,1.64-2.83,2.21l1.85,1.77c-.21,.18-.47,.26-1.01,.29-.83,.96-2.37,2.21-3.56,2.94l-.29-.18c.44-.86,1.01-2.16,1.35-3.17h-1.79v11.75c0,1.72-.42,2.96-3.3,3.2-.03-.73-.18-1.35-.55-1.74-.39-.39-1.01-.68-2.26-.86v-.36s2.65,.18,3.2,.18c.44,0,.55-.16,.55-.49v-6.89c-1.22,2.03-2.76,3.85-4.6,5.38l-.34-.34c2.11-2.63,3.64-6.32,4.5-9.83h-3.95l-.23-.73h6.27c-.21-.03-.42-.08-.65-.21-.52-1.4-2-3.02-3.2-3.98l.23-.21c1.51,.21,2.63,.6,3.38,1.07,.6-.83,1.27-1.9,1.74-2.76h-7.12l-.23-.73h7.41l1.38-1.35,2.39,2.26c-.21,.21-.49,.26-1.07,.29-.96,.81-2.57,1.92-3.93,2.68,1.48,1.25,1.04,2.83-.08,2.94h2.21l1.27-1.33,.13,.13c1.46-1.69,2.81-4.39,3.61-7.25l3.17,1.17c-.1,.29-.44,.49-1.01,.44-.34,.68-.73,1.3-1.12,1.9h5.41l1.43-1.9s1.56,1.3,2.55,2.24c-.08,.29-.34,.42-.7,.42h-1.82Zm-7.44,0c-.16,.21-.34,.42-.52,.62,.81,1.2,1.79,2.21,2.99,3.04,.94-1.12,1.66-2.34,2.13-3.67h-4.6Z"/>
        <path class="cls-1" d="M156.74,400.13c.83,.29,1.07,.6,1.07,1.09,0,1.2-1.22,1.66-6.6,1.66h-3.46c-2.83,0-3.72-.55-3.72-2.65v-.16c-1.87,1.22-3.95,2.26-6.24,3.17l-.26-.34c2.39-1.25,4.58-2.76,6.5-4.39v-13.75l3.38,.36c-.03,.34-.26,.6-.88,.7v10.27c4.13-4.39,6.92-9.57,8.5-14.48l3.56,1.3c-.16,.31-.42,.47-1.14,.39-2.13,5.28-5.54,10.74-10.92,15v1.27c0,.65,.26,.88,1.53,.88h3.33c1.4,0,2.44-.03,2.94-.05,.42-.05,.62-.16,.83-.44,.29-.55,.7-2.11,1.2-4.08h.31l.08,4.24Zm-15.39-11.62c1.46,3.93,.65,6.68-.47,7.98-.75,.94-2.05,1.04-2.6,.23-.47-.73-.16-1.51,.52-2.05,1.09-.99,2.26-3.48,2.16-6.14l.39-.03Zm6.24-8.03c6.73,2.96,4.29,8.24,1.92,6.14,0-2.03-1.09-4.39-2.21-5.96l.29-.18Zm8.76,8.45c7.59,3.77,5.02,9.72,2.44,7.31-.05-2.39-1.38-5.17-2.73-7.12l.29-.18Z"/>
        <path class="cls-1" d="M189.7,382.58c-.18,.21-.49,.34-1.01,.44-.26,4.71-.86,7.05-1.98,7.96-.47,.34-.99,.55-1.59,.68l2.57,1.98c-.18,.21-.55,.44-1.09,.55v9.1c-.03,.18-1.25,.65-2.11,.65h-.39v-1.61h-12.06v.99c0,.26-1.12,.81-2.16,.81h-.39v-12.12c-.18,.26-.39,.42-.6,.52l-1.27-2.6c.62-.39,.73-.6,.73-1.07v-7.18l2.57,.26c1.61-.68,3.33-1.51,4.32-2.08l2.31,2.29c-.29,.23-.81,.23-1.48-.05-1.38,.29-3.51,.6-5.46,.75v6.5c1.22-.42,2.65-.94,4.19-1.51-.42-1.2-1.01-2.39-1.59-3.3l.31-.16c5.93,3.09,3.82,7.57,1.77,5.72-.03-.49-.13-1.04-.29-1.59-1.43,.94-3.33,2.13-5.43,3.38l2.68,1.09h11.6l1.2-1.33c-.36,.08-.7,.1-1.09,.1,0-.68-.08-1.27-.39-1.59-.34-.34-1.07-.6-1.87-.75v-.39c.75,.05,2.13,.16,2.63,.16,.39,0,.6-.05,.81-.23,.55-.47,.99-2.57,1.2-6.29h-3.33c-.29,3.85-1.27,7.44-7.33,9.91l-.31-.39c4.5-2.81,4.99-6.11,5.1-9.52h-2.52l-.23-.75h8.42l1.27-1.25,2.31,1.92Zm-17.65,11.15v3.48h4.89v-3.48h-4.89Zm0,7.83h4.89v-3.59h-4.89v3.59Zm7.28-7.83v3.48h4.79v-3.48h-4.79Zm4.79,7.83v-3.59h-4.79v3.59h4.79Z"/>
        <path class="cls-1" d="M215.83,380.27s1.9,1.46,3.07,2.47c-.08,.29-.34,.42-.75,.42h-10.74v4.94c11.36,2.44,10.53,8.71,7.31,7.31-1.48-2.31-4.68-5.02-7.31-6.73v14.64c0,.18-.86,.78-2.13,.78h-.47v-20.93h-9.98l-.23-.75h19.53l1.72-2.13Z"/>
        <path class="cls-1" d="M244.38,399.95s1.87,1.4,3.02,2.42c-.08,.29-.34,.42-.73,.42h-23.25l-.23-.75h3.87v-13.42l3.59,.34c-.08,.34-.29,.6-.96,.7v12.38h4.6v-18.8h-9.7l-.21-.75h17.42l1.61-2.05s1.87,1.38,2.99,2.39c-.08,.29-.31,.42-.7,.42h-8.76v8.35h3.9l1.61-2.03s1.77,1.38,2.89,2.37c-.08,.29-.36,.42-.75,.42h-7.64v9.7h5.77l1.66-2.08Z"/>
        <path class="cls-1" d="M261.57,390.88c-.18,.21-.55,.42-1.04,.52v9.78c-.03,.16-1.07,.62-1.79,.62h-.34v-1.66h-2.6v2.18c0,.16-.68,.68-1.74,.68h-.36v-9.23c-.55,.88-1.14,1.74-1.74,2.55l-.39-.26c1.77-3.56,2.91-8.4,3.51-12.79h-3.04l-.21-.75h6.4l1.35-1.72s1.56,1.2,2.5,2.05c-.05,.29-.31,.42-.68,.42h-3.85c-.42,2.39-1.09,4.68-1.98,6.79l.55,.23h2.03l1.09-1.2,2.34,1.79Zm-3.17,8.5v-8.35h-2.6v8.35h2.6Zm13.83-12.35c.21-.68,.52-1.82,.75-2.73h-5.07c-.68,1.56-1.48,3.22-2.5,4.78l.08,.03h6.58l1.17-1.46s1.38,1.01,2.24,1.79c-.08,.29-.31,.42-.68,.42h-4.32v3.35h1.33l1.12-1.51s1.3,1.09,2.08,1.85c-.05,.29-.31,.42-.68,.42h-3.85v3.35h1.48l1.12-1.53s1.3,1.09,2.11,1.87c-.05,.29-.31,.42-.68,.42h-4.03v3.61h2.05l1.25-1.66s1.46,1.17,2.29,2c-.08,.29-.31,.42-.68,.42h-10.22v.88c0,.18-.7,.7-1.77,.7h-.39v-11.73c-.65,.73-1.38,1.43-2.11,2.05l-.29-.23c2.18-2.73,3.82-6.4,4.94-9.83h-1.92c.05,1.4-.29,2.42-.83,2.96-.49,.52-1.56,.57-1.92-.13-.29-.62,.05-1.27,.65-1.66,.62-.52,1.38-1.87,1.35-3.02h.44c.1,.39,.18,.75,.23,1.09h2.21c.39-1.3,.68-2.52,.94-3.67l3.3,1.04c-.1,.31-.34,.49-1.01,.47-.23,.7-.49,1.4-.78,2.16h4.63l1.17-1.2,2.11,2.05c-.18,.21-.44,.26-.96,.29-.65,.7-1.82,1.87-2.57,2.52l-.36-.18Zm-7.05,2.83v3.35h3.17v-3.35h-3.17Zm3.17,4.11h-3.17v3.35h3.17v-3.35Zm0,4.11h-3.17v3.61h3.17v-3.61Zm-.36-12.82c4.52,1.69,2.39,4.94,.83,3.41,.03-1.09-.52-2.42-1.12-3.25l.29-.16Z"/>
        <path class="cls-1" d="M287.77,386.22s1.61,1.33,2.55,2.26c-.05,.29-.34,.42-.7,.42h-9.02l-.21-.75h5.95l1.43-1.92Zm-6.84,17.55c3.15-.96,6.58-2.83,8.24-4.34l2.83,2.03c-.23,.23-.68,.31-1.43,.1-2.24,1.14-5.95,2.18-9.52,2.6l-.13-.39Zm.52-20.46l-.21-.75h4.11l1.35-1.87s1.61,1.3,2.55,2.21c-.08,.29-.34,.42-.7,.42h-7.1Zm16.69,16.85v-.75h-11.36v.62c0,.21-.81,.65-2.11,.65h-.44v-10.71l2.83,1.09h10.97l1.27-1.46,2.47,1.92c-.16,.21-.42,.36-.99,.47v7.54c0,.13-.88,.62-2.21,.62h-.44Zm-11.36-8.35v1.82h11.36v-1.82h-11.36Zm11.36,2.57h-11.36v1.74h11.36v-1.74Zm0,4.26v-1.77h-11.36v1.77h11.36Zm-.1-14.4c-.05,.31-.31,.62-.86,.68-.08,.36-.16,.7-.29,1.07,1.17,1.09,3.48,1.95,7.54,2.44l-.03,.34c-1.12,.23-1.74,.62-1.79,1.9-3.38-.75-5.15-2.29-6.11-3.85-.83,1.51-2.81,2.86-7.83,3.85l-.23-.49c5.43-1.77,6.19-3.74,6.4-6.21l3.2,.29Zm-9.36,1.82c1.53-1.48,2.86-4.03,3.46-6.27l3.51,.62c-.08,.29-.26,.42-.88,.42-.34,.55-.75,1.12-1.2,1.69h7.07l1.3-1.3,2.29,2.21c-.21,.21-.49,.23-1.01,.29-.73,.75-2.08,1.85-3.07,2.5l-.31-.18c.29-.73,.65-1.85,.91-2.76h-7.83c-1.14,1.2-2.5,2.29-3.98,3.04l-.26-.26Zm5.36,13.99c12.97,.57,8.84,5.46,6.45,3.59-1.2-1.07-3.35-2.34-6.55-3.2l.1-.39Z"/>
        <path class="cls-1" d="M318.48,387.76s1.46,1.2,2.34,2.05c-.08,.29-.34,.42-.7,.42h-4.11v13.1c0,.26-1.01,.75-1.87,.75h-.49v-11.31h-.29c-1.22,2.5-2.7,5.28-4.11,7.23l-.42-.18c.7-2.18,1.69-5.75,2.42-8.63l2.39,.88v-1.85h-4.47l-.21-.75h4.68v-9.57l3.3,.36c-.08,.36-.26,.62-.94,.73v8.48h1.17l1.3-1.72Zm-8.71-5.8c5.15,3.72,3.07,7.83,1.22,5.93-.05-1.82-.86-4.16-1.56-5.8l.34-.13Zm6.76,9.67c5.59,3.43,3.41,7.85,1.38,5.9-.05-1.87-.91-4.19-1.72-5.77l.34-.13Zm-.08-3.54c.49-1.61,1.22-4.24,1.77-6.45l2.94,1.09c-.13,.29-.47,.49-1.01,.47-.99,1.72-2.16,3.72-3.28,5.1l-.42-.21Zm14.87,4.71s1.3,1.14,2.11,1.9c0,.29-.26,.49-.57,.55l-3.12,.55v7.46c0,.29-.99,.86-1.82,.86h-.44v-7.9l-6.58,1.22-.34-.68,6.92-1.27v-15.42l3.22,.34c-.08,.36-.26,.65-.96,.75v13.91l.44-.08,1.14-2.18Zm-10.4-3.95c6.92,1.25,4.91,6.06,2.57,4.34-.31-1.46-1.61-3.15-2.78-4.16l.21-.18Zm.81-6.4c6.63,1.27,4.73,5.82,2.42,4.26-.34-1.43-1.56-3.07-2.65-4.08l.23-.18Z"/>
        <path class="cls-1" d="M341.02,394.73c1.53-.88,2.24-2,2.57-3.35-1.35-.6-2.21-1.25-2.21-2.37,0-.94,.65-1.74,1.79-1.74s1.98,.86,1.98,2.47c0,1.98-.94,4.5-3.69,5.82l-.44-.83Z"/>
        <path class="cls-1" d="M103.64,447.3c.86,1.22,.96,1.79,.65,2.18-.88,.99-2.73,.18-3.93-.78-1.43-1.07-2.55-2.37-3.46-3.9-2.05,1.9-4.6,3.54-7.64,4.65l-.21-.34c2.81-1.53,5.15-3.64,7.02-5.96-1.04-2.29-1.66-4.94-2.03-7.88h-5.33v3.93c1.56-.34,3.2-.68,4.86-1.01l.08,.39c-1.33,.57-2.96,1.25-4.94,2v6.37c0,1.77-.42,3.04-3.43,3.3-.05-.75-.23-1.4-.6-1.79-.44-.39-1.04-.68-2.42-.88v-.36s2.81,.21,3.43,.21c.44,0,.57-.18,.57-.55v-5.36c-1.3,.49-2.7,.99-4.24,1.53-.1,.34-.39,.57-.65,.65l-1.17-2.94c1.22-.16,3.41-.55,6.06-1.09v-4.39h-5.88l-.21-.73h6.08v-4.32c-1.9,.39-3.9,.7-5.8,.88l-.1-.36c3.61-1.01,7.98-2.91,10.14-4.26l2.76,2.29c-.29,.26-.78,.31-1.51,.03-.88,.29-1.9,.6-3.04,.86v4.89h5.25c-.26-2.52-.36-5.25-.36-8.11l3.38,.36c-.03,.34-.26,.65-.91,.73-.03,2.42,.03,4.78,.26,7.02h3.85l1.51-1.82s1.66,1.25,2.73,2.16c-.08,.26-.34,.39-.7,.39h-7.31c.23,2.03,.65,3.93,1.27,5.62,.96-1.56,1.74-3.15,2.29-4.68l3.2,1.4c-.16,.29-.39,.44-1.04,.34-.86,1.69-2,3.43-3.46,5.07,.75,1.35,1.74,2.47,2.96,3.3,.44,.36,.6,.34,.86-.13,.36-.65,.94-1.98,1.33-3.09l.31,.08-.49,4.11Zm-5.9-19.66c6.45,1.43,4.5,5.9,2.26,4.26-.26-1.4-1.43-3.09-2.5-4.11l.23-.16Z"/>
        <path class="cls-1" d="M121.63,426.95l2.21,1.64c-.16,.21-.52,.39-.99,.49v8.5c-.03,.18-1.04,.62-1.69,.62h-.31v-1.56h-2.76v12.71c0,.34-.86,.91-1.9,.91h-.44v-22.91c-.16,.21-.44,.34-.91,.34-.57,1.92-1.25,3.8-2.03,5.54l1.33,.49c-.08,.23-.34,.42-.78,.49v15.37c-.03,.18-.99,.68-1.87,.68h-.42v-13.81c-.7,1.14-1.46,2.16-2.26,3.04l-.36-.21c1.66-3.33,3.25-8.37,4.06-13.18l3.25,1.01v-.18l2.44,1.07h2.42l1.01-1.07Zm-3.54,1.82v3.12h2.76v-3.12h-2.76Zm2.76,7.12v-3.25h-2.76v3.25h2.76Zm11.99-7.23c-.16,.21-.57,.44-1.07,.55v17.97c0,1.77-.36,2.81-3.41,3.09-.08-.75-.21-1.38-.6-1.72-.42-.42-1.04-.7-2.31-.88v-.39s2.76,.18,3.3,.18c.47,0,.6-.16,.6-.55v-10.27h-2.86v.78c0,.21-.83,.68-1.72,.68h-.29v-10.97l2.13,.88h2.47l1.17-1.35,2.57,2Zm-6.34,.1v3.12h2.86v-3.12h-2.86Zm2.86,7.12v-3.25h-2.86v3.25h2.86Z"/>
        <path class="cls-1" d="M146.67,426.56c-.08,.36-.26,.62-.96,.73v22.05c0,.29-1.01,.88-1.87,.88h-.47v-10.82h-1.77c-.13,4.16-.62,7.98-3.95,10.69l-.34-.39c1.95-2.91,2-6.53,2.03-10.3h-1.85l-.21-.75h6.08v-3.64h-2.44l-.7,.94-2.42-1.27c.18-.21,.47-.44,.75-.62v-6.79l3.22,.34c-.05,.29-.29,.49-1.04,.62v6.03h2.63v-8.03l3.3,.34Zm5.33,6.73c-.86,.62-2.24,1.53-4.03,2.63-.1,.36-.29,.57-.55,.65l-1.25-2.29c1.09-.21,3.48-.75,5.75-1.33l.08,.34Zm7.7,4.08s1.46,1.35,2.26,2.26c-.05,.29-.31,.42-.68,.42h-3.54v7.1c0,1.72-.39,2.78-3.56,3.07-.1-.75-.29-1.3-.7-1.66-.47-.39-1.2-.7-2.68-.88v-.36s3.3,.23,3.93,.23c.49,0,.65-.16,.65-.55v-6.94h-8.92l-.21-.75h9.13v-3.77l3.28,.31c-.05,.39-.31,.6-.91,.68v2.78h.7l1.25-1.92Zm-13.26-4.55c1.87-1.56,3.85-4.42,4.78-6.76l3.43,.94c-.1,.26-.31,.39-.99,.31-.34,.47-.75,.94-1.17,1.4h5.36l1.27-1.22,2.42,2.03c-.21,.21-.6,.31-1.22,.34-2.86,4.24-7.07,7.25-13.73,8.95l-.23-.39c3.04-1.22,5.59-2.73,7.7-4.63-.26,.08-.6,.05-.96-.13-.47-.99-1.64-2.13-2.73-2.91-1.17,.96-2.42,1.77-3.69,2.37l-.23-.29Zm1.98,8.06c6.24,1.66,4.26,6.14,2.11,4.47-.21-1.46-1.33-3.22-2.37-4.29l.26-.18Zm3.38-11.42c-.31,.29-.6,.57-.91,.83,3.28,.47,4.11,2.03,3.77,2.91,1.17-1.14,2.13-2.37,2.96-3.74h-5.82Z"/>
        <path class="cls-1" d="M166.17,432.64l-.21-.75h6.99l1.25-1.77s1.43,1.25,2.26,2.11c-.08,.29-.34,.42-.68,.42h-9.62Zm9.54,1.48c-.08,.34-.34,.62-.96,.65-.62,2.47-1.77,6.01-2.89,9.05,1.33-.34,2.78-.73,4.19-1.12l.08,.34c-1.85,1.12-4.5,2.57-8.22,4.34-.1,.31-.36,.57-.62,.68l-1.33-2.94c1.04-.18,2.94-.57,5.1-1.09,.52-3.33,1.09-7.49,1.38-10.5l3.28,.6Zm-8.22-.44c5.49,6.11,2.42,11.1,1.04,8.79,.03-2.05-.21-5.9-1.4-8.63l.36-.16Zm1.33-7.41c5.64,2.26,3.22,6.34,1.22,4.47-.08-1.43-.83-3.2-1.51-4.37l.29-.1Zm21.63,12.46c-.18,.23-.49,.36-1.04,.44-.16,6.5-.55,9.33-1.59,10.35-.7,.65-1.72,.81-2.91,.81,0-.55-.08-.94-.42-1.25-.36-.34-1.2-.57-2.08-.73v-.42c.88,.08,2.37,.18,2.89,.18,.39,0,.6-.05,.81-.26,.62-.57,.91-3.54,1.04-9.02h-5.43l2.55,.94c-.1,.29-.31,.44-.94,.42-.21,.42-.42,.86-.7,1.3,4.58,.96,3.22,4,1.51,2.94-.31-.78-1.09-1.77-1.82-2.44-.83,1.17-1.92,2.26-3.3,3.02l-.26-.34c1.51-1.46,2.39-3.9,2.73-5.82h-2.5c-.68,.7-1.43,1.35-2.21,1.98l2.63,.26c-.05,.31-.29,.55-.75,.62v3.54c0,.31,.08,.42,.83,.42h2.11c.83,0,1.64-.03,1.95-.03,.18-.03,.44-.03,.57-.05,.16,0,.42-.08,.6-.13h.23l.08,.05c.65,.21,.88,.39,.88,.75,0,.88-.86,1.12-4.52,1.12h-2.37c-2.05,0-2.39-.42-2.39-1.79v-4.65c-.6,.44-1.22,.86-1.85,1.2l-.23-.26c1.3-1.33,2.73-3.41,3.64-5.3-.21,.03-.42,.05-.65,.05h-.42v-9.91l2.52,1.01h6.29l1.14-1.3,2.24,1.74c-.16,.21-.42,.36-.96,.47v7.12c0,.13-.81,.55-1.92,.55h-.39v-.96h-6.68v.16l2.55,.83c-.13,.29-.34,.39-.99,.29-.36,.47-.78,.96-1.22,1.48h7.23l1.22-1.27,2.31,1.92Zm-11.1-10.27v2.78h6.68v-2.78h-6.68Zm6.68,6.11v-2.57h-6.68v2.57h6.68Z"/>
        <path class="cls-1" d="M201.87,429.73s1.27,1.01,2.05,1.77c-.08,.29-.34,.42-.68,.42h-8.5l-.21-.75h6.24l1.09-1.43Zm-1.85,4.73l1.04-1.3s1.14,.94,1.85,1.64c-.05,.29-.31,.42-.65,.42h-6.63l-.21-.75h4.6Zm-4.39,4.08l-.21-.75h4.55l1.01-1.3s1.14,.94,1.87,1.64c-.08,.29-.31,.42-.68,.42h-6.55Zm6.63,9.78c-.03,.18-1.01,.7-1.72,.7h-.34v-1.2h-2.52v1.56c0,.21-.91,.68-1.77,.68h-.31v-9.93l2.18,.94h2.16l1.07-1.12,2.21,1.69c-.16,.18-.52,.39-.96,.47v6.21Zm-5.64-21.71c5.9,.75,3.98,4.99,1.72,3.51-.29-1.14-1.2-2.52-1.95-3.35l.23-.16Zm3.59,20.46v-5.25h-2.52v5.25h2.52Zm18.07,.55c.68,1.27,.81,1.92,.44,2.26-.96,.83-2.6-.21-3.46-1.3-.83-.96-1.51-2.11-2.05-3.35-1.56,2.03-3.54,3.64-6.06,4.94l-.26-.44c2.42-1.69,4.24-3.74,5.62-6.27-.62-1.98-1.04-4.19-1.33-6.58-.16,.18-.47,.29-.91,.36-.1,5.36-.23,7.57-1.09,8.35-.47,.42-1.07,.6-1.74,.62,0-.39-.1-.91-.34-1.14-.21-.26-.68-.47-1.2-.6v-.42c.49,.05,1.25,.1,1.56,.1,.18,0,.26-.05,.34-.18,.36-.47,.49-2.42,.6-6.99h-2.16v.1c0,3.95-.23,9.44-3.98,13.16l-.36-.26c2.08-3.85,2.24-8.63,2.24-12.9v-6.47l2.47,1.01h4.21c-.05-1.72-.08-3.48-.08-5.3l3.22,.39c-.03,.34-.26,.65-.94,.73-.03,1.4-.03,2.81,0,4.19h2.08l1.25-1.56c-.1-.05-.18-.1-.26-.16-.23-.96-1.12-2.11-1.85-2.78l.23-.18c4.73,.47,3.95,3.43,2.31,3.25,.52,.39,1.43,1.17,2.08,1.77-.05,.29-.31,.42-.7,.42h-5.15c.1,2.86,.34,5.62,.86,8.01,.65-1.69,1.14-3.61,1.56-5.75l3.02,.88c-.1,.34-.36,.47-1.04,.47-.73,2.73-1.61,5.04-2.76,7.07,.47,1.3,1.12,2.44,1.92,3.35,.34,.42,.44,.42,.7-.1,.31-.65,.81-1.9,1.17-2.94l.29,.05-.47,4.19Zm-7.1-10.84c-.16-1.43-.26-2.89-.34-4.39h-4.6v3.85h1.9l1.07-1.09,1.98,1.64Z"/>
        <path class="cls-1" d="M247.68,441.25c-.21,.18-.52,.34-1.07,.39-.36,4.39-1.2,6.94-2.47,7.88-.75,.52-1.74,.78-2.91,.78,0-.62-.1-1.22-.44-1.56-.36-.36-1.17-.65-2.08-.81v-.42c.88,.1,2.47,.21,3.02,.21,.44,0,.68-.05,.91-.23,.65-.52,1.3-2.73,1.64-6.19h-15.76c-1.53,1.53-3.28,2.94-5.28,4.11l-.29-.29c4.13-3.25,7.1-7.85,9.07-12.51h-7.02l-.23-.75h7.57c.81-2,1.43-4,1.87-5.9l3.43,.99c-.13,.34-.36,.52-1.09,.49-.47,1.43-1.01,2.91-1.69,4.42h4.29l.99-1.04,2.18,1.72c-.18,.21-.42,.29-.88,.31l-.75,3.28h.88l.96-1.01,2.11,1.69c-.18,.21-.42,.29-.86,.34l-.6,3.41h.91l1.27-1.25,2.31,1.95Zm-19.5,1.82c1.12,3.22-.03,5.36-1.25,6.08-.83,.52-1.92,.42-2.24-.39-.29-.73,.18-1.38,.88-1.74,1.12-.57,2.26-2.08,2.21-3.93l.39-.03Zm-1.07-16.77c6.4,1.43,4.29,6.11,1.98,4.39-.23-1.48-1.25-3.17-2.24-4.24l.26-.16Zm4.99,10.58c-.86,1.27-1.79,2.5-2.86,3.67h11.75l.68-3.67h-9.57Zm-1.07,6.11c4.26,3.43,1.38,7.2-.26,4.99,.36-1.61,.23-3.51-.08-4.91l.34-.08Zm3.46-10.37c-.55,1.17-1.2,2.37-1.92,3.51h5.88l.78-3.51h-4.73Zm-.21,10.11c5.41,1.92,3.2,5.98,1.25,4.24-.05-1.35-.78-3.02-1.53-4.08l.29-.16Zm3.64-.42c5.56,.49,4.13,4.55,2.03,3.33-.29-1.12-1.33-2.44-2.26-3.17l.23-.16Z"/>
        <path class="cls-1" d="M258.52,431.78c-.08,.23-.36,.42-.81,.49v8.55c-.03,.18-1.04,.7-2,.7h-.47v-7.05c-.96,1.12-1.98,2.11-3.07,2.94l-.31-.23c1.87-2.63,3.9-6.89,5.02-11.08l3.51,1.22c-.13,.31-.44,.52-1.04,.49-.57,1.27-1.22,2.47-1.9,3.56l1.07,.39Zm-2.63,10.22c.99,3.17-.1,5.28-1.25,6.06-.75,.49-1.79,.47-2.16-.29-.26-.7,.16-1.33,.81-1.69,1.04-.62,2.18-2.24,2.18-4.08h.42Zm14.3,5.23c.78,.26,.99,.55,.99,.99,0,1.09-1.12,1.38-6.21,1.38h-3.51c-2.7,0-3.3-.42-3.3-2.13v-6.16l3.28,.29c-.05,.34-.31,.57-.81,.65v4.78c0,.42,.13,.49,1.22,.49h3.33c1.3,0,2.42,0,2.89-.03,.36-.03,.49-.1,.68-.36,.29-.42,.62-1.46,1.09-2.89h.29l.08,2.99Zm-11.36-12.38c1.46-2.11,2.86-5.41,3.54-8.81l3.48,1.12c-.1,.31-.42,.49-.99,.49-.26,.57-.52,1.14-.81,1.66h8.14l1.38-1.38,2.39,2.31c-.21,.21-.49,.26-1.01,.29-.81,.86-2.31,1.95-3.46,2.6l-.26-.18c.34-.75,.75-1.95,1.04-2.89h-8.63c-1.25,2.13-2.78,3.82-4.47,5.02l-.34-.23Zm7.05-.6c-.1,.29-.44,.49-1.01,.44-1.33,2.42-3.25,4.21-5.25,5.28l-.31-.26c1.38-1.53,2.7-4,3.46-6.66l3.12,1.2Zm-3.02,6.11c6.14,2.11,4,6.19,1.95,4.45-.18-1.43-1.27-3.15-2.24-4.26l.29-.18Zm5.93,.42c0,.18-1.01,.55-1.9,.55h-.44v-9.93l3.3,.34c-.05,.36-.29,.6-.96,.7v8.35Zm1.79-7.1c7.1,2.65,5.15,7.57,2.81,5.75-.34-1.85-1.82-4.11-3.07-5.56l.26-.18Zm.18,7.9c6.92,2.55,4.68,7.75,2.34,5.75-.1-1.9-1.35-4.13-2.63-5.59l.29-.16Z"/>
        <path class="cls-1" d="M288.27,426.43l2.44,1.9c-.16,.18-.52,.39-.99,.47v18.38c0,1.74-.34,2.76-3.07,2.99-.08-.73-.18-1.33-.49-1.66-.31-.39-.83-.68-1.85-.83v-.39s2.08,.16,2.52,.16,.55-.18,.55-.52v-6.37h-3.17c-.29,3.43-1.14,7-3.54,9.75l-.39-.21c1.79-4.34,1.82-9.85,1.82-14.77v-8.63l2.7,1.04h2.34l1.12-1.3Zm-.88,13.36v-5.38h-2.99v.91c0,1.38,0,2.91-.1,4.47h3.09Zm-2.99-11.34v5.2h2.99v-5.2h-2.99Zm20,8.55c-.18,.23-.44,.31-.99,.39-.57,2.57-1.53,5.1-3.09,7.33,1.38,1.27,2.99,2.24,4.78,2.99l-.08,.29c-1.07,.13-1.87,.88-2.31,2.05-1.51-1.01-2.78-2.16-3.8-3.59-1.2,1.25-2.63,2.37-4.37,3.3l-.23-.34c1.53-1.2,2.76-2.68,3.74-4.32-1.2-2.11-2-4.73-2.44-8.06h-1.43v12.45c0,.21-.75,.78-1.95,.78h-.39v-23.63l2.68,1.07h5.98l1.22-1.2,2.31,1.85c-.18,.18-.47,.34-.94,.42-.08,3.07-.29,4.65-1.17,5.3-.62,.44-1.51,.62-2.65,.62,0-.62-.08-1.09-.47-1.43-.36-.34-1.25-.57-2.16-.73v-.39c.91,.05,2.52,.18,2.96,.18,.36,0,.55-.05,.68-.18,.29-.26,.39-1.53,.44-3.72h-6.55v7.85h6.53l1.35-1.33,2.34,2.03Zm-8.29,.05c.57,2.55,1.56,4.6,2.89,6.24,.91-1.98,1.51-4.11,1.87-6.24h-4.76Z"/>
        <path class="cls-1" d="M330.73,430.4c-.75,1.79-1.87,3.33-3.3,4.63,1.66,.81,3.72,1.38,6.21,1.74l-.05,.31c-.68,.31-1.09,1.17-1.22,2.31-2.86-.78-4.91-1.82-6.47-3.15-.78,.55-1.64,1.04-2.55,1.48l3.33,.31c-.05,.34-.26,.6-.88,.68-.08,.7-.18,1.4-.31,2.11h3.43l1.27-1.25,2.31,1.92c-.18,.21-.47,.34-1.01,.42-.26,4.21-.86,6.68-2,7.57-.73,.52-1.66,.78-2.89,.78,0-.65-.1-1.22-.47-1.56-.39-.36-1.33-.65-2.29-.83v-.39c.99,.08,2.7,.21,3.22,.21,.44,0,.68-.05,.88-.23,.52-.47,.96-2.57,1.2-5.88h-3.82c-.81,3.43-2.81,6.76-8.55,8.68l-.23-.39c4.08-1.95,5.72-5.04,6.37-8.29h-4.6l-.23-.75h4.97c.18-1.01,.26-2.05,.29-3.07-1.53,.73-3.28,1.33-5.17,1.79l-.18-.36c2.78-1.04,5.04-2.39,6.79-4.06-.96-1.07-1.72-2.29-2.39-3.67-.88,.91-1.85,1.64-2.83,2.21l1.85,1.77c-.21,.18-.47,.26-1.01,.29-.83,.96-2.37,2.21-3.56,2.94l-.29-.18c.44-.86,1.01-2.16,1.35-3.17h-1.79v11.75c0,1.72-.42,2.96-3.3,3.2-.03-.73-.18-1.35-.55-1.74-.39-.39-1.01-.68-2.26-.86v-.36s2.65,.18,3.2,.18c.44,0,.55-.16,.55-.49v-6.89c-1.22,2.03-2.76,3.85-4.6,5.38l-.34-.34c2.11-2.63,3.64-6.32,4.5-9.83h-3.95l-.23-.73h6.27c-.21-.03-.42-.08-.65-.21-.52-1.4-2-3.02-3.2-3.98l.23-.21c1.51,.21,2.63,.6,3.38,1.07,.6-.83,1.27-1.9,1.74-2.76h-7.12l-.23-.73h7.41l1.38-1.35,2.39,2.26c-.21,.21-.49,.26-1.07,.29-.96,.81-2.57,1.92-3.93,2.68,1.48,1.25,1.04,2.83-.08,2.94h2.21l1.27-1.33,.13,.13c1.46-1.69,2.81-4.39,3.61-7.25l3.17,1.17c-.1,.29-.44,.49-1.01,.44-.34,.68-.73,1.3-1.12,1.9h5.41l1.43-1.9s1.56,1.3,2.55,2.24c-.08,.29-.34,.42-.7,.42h-1.82Zm-7.44,0c-.16,.21-.34,.42-.52,.62,.81,1.2,1.79,2.21,2.99,3.04,.94-1.12,1.66-2.34,2.13-3.67h-4.6Z"/>
        <path class="cls-1" d="M341.02,440.88c1.53-.88,2.24-2,2.57-3.35-1.35-.6-2.21-1.25-2.21-2.37,0-.94,.65-1.74,1.79-1.74s1.98,.86,1.98,2.47c0,1.98-.94,4.5-3.69,5.82l-.44-.83Z"/>
        <path class="cls-1" d="M359.64,429.73s1.27,1.01,2.05,1.77c-.05,.29-.31,.42-.65,.42h-7.83l-.21-.75h5.56l1.07-1.43Zm-1.69,4.73l1.01-1.33s1.14,.96,1.87,1.66c-.08,.29-.31,.42-.68,.42h-6.06l-.21-.75h4.06Zm-3.85,4.08l-.21-.75h4.06l1.01-1.3s1.14,.94,1.87,1.64c-.08,.29-.31,.42-.68,.42h-6.06Zm22.02-7.41s1.12,1.14,1.72,1.92c-.05,.29-.29,.42-.65,.42h-2.11v13.99c0,1.59-.31,2.44-2.78,2.7-.05-.6-.18-1.12-.47-1.43-.31-.31-.78-.55-1.74-.68v-.42s1.98,.16,2.39,.16,.52-.1,.52-.44v-6.55c-.18,1.2-1.07,1.69-1.85,.83,.08-1.2-.13-2.6-.39-3.88l-.21-.03c-.49,.94-1.12,1.95-1.82,2.94v6.76c0,1.53-.31,2.39-2.81,2.63-.05-.6-.16-1.12-.47-1.38-.31-.31-.78-.55-1.77-.68v-.42s2,.18,2.47,.18c.42,0,.52-.18,.52-.52v-3.98c-1.66,1.87-3.67,3.61-5.98,4.97l-.26-.31c2.44-1.92,4.6-4.55,6.24-7.2v-.03c-1.14,.47-2.57,1.07-4.32,1.72-.13,.34-.39,.52-.65,.57l-.52-1.27c-.18,.16-.49,.31-.91,.39v6.21c-.03,.21-1.01,.7-1.69,.7h-.34v-1.2h-2.26v1.56c0,.21-.86,.68-1.72,.68h-.29v-9.93l2.13,.94h1.9l1.04-1.12,2.08,1.59-.44-1.09c.29-.03,.65-.05,1.09-.08v-12.01l2.31,.96c.18-.99,.29-2.29,.34-3.22l3.07,.44c-.08,.34-.34,.6-.91,.65-.47,.68-1.17,1.46-1.85,2.16h1.66l.99-1.2,2.31,1.79c-.16,.18-.52,.39-.99,.47v6.24l.23-.6,1.56,.83c-.08-.31-.16-.6-.23-.88l.39-.1c1.48,1.43,2.16,2.83,2.31,3.93v-6.34h-3.69l-.21-.75h3.9v-6.21l3.04,.34c-.08,.36-.34,.62-.96,.7v5.17h.05l.99-1.59Zm-21.19-4.52c5.9,.75,3.95,4.99,1.69,3.51-.29-1.17-1.2-2.52-1.95-3.35l.26-.16Zm3.33,20.46v-5.25h-2.26v5.25h2.26Zm5.59-17v2.65h2.83v-2.65h-2.83Zm2.83,3.38h-2.83v2.7h2.83v-2.7Zm-2.83,6.71c.88-.08,1.85-.18,2.83-.31v-2.96h-2.83v3.28Z"/>
        <path class="cls-1" d="M388.24,429.73s1.27,1.01,2.05,1.77c-.05,.29-.31,.42-.65,.42h-7.83l-.21-.75h5.56l1.07-1.43Zm-1.69,4.73l1.01-1.33s1.14,.96,1.87,1.66c-.08,.29-.31,.42-.68,.42h-6.06l-.21-.75h4.06Zm-3.85,4.08l-.21-.75h4.06l1.01-1.3s1.14,.94,1.87,1.64c-.08,.29-.31,.42-.68,.42h-6.06Zm22.02-7.41s1.12,1.14,1.72,1.92c-.05,.29-.29,.42-.65,.42h-2.11v13.99c0,1.59-.31,2.44-2.78,2.7-.05-.6-.18-1.12-.47-1.43-.31-.31-.78-.55-1.74-.68v-.42s1.98,.16,2.39,.16,.52-.1,.52-.44v-6.55c-.18,1.2-1.07,1.69-1.85,.83,.08-1.2-.13-2.6-.39-3.88l-.21-.03c-.49,.94-1.12,1.95-1.82,2.94v6.76c0,1.53-.31,2.39-2.81,2.63-.05-.6-.16-1.12-.47-1.38-.31-.31-.78-.55-1.77-.68v-.42s2,.18,2.47,.18c.42,0,.52-.18,.52-.52v-3.98c-1.66,1.87-3.67,3.61-5.98,4.97l-.26-.31c2.44-1.92,4.6-4.55,6.24-7.2v-.03c-1.14,.47-2.57,1.07-4.32,1.72-.13,.34-.39,.52-.65,.57l-.52-1.27c-.18,.16-.49,.31-.91,.39v6.21c-.03,.21-1.01,.7-1.69,.7h-.34v-1.2h-2.26v1.56c0,.21-.86,.68-1.72,.68h-.29v-9.93l2.13,.94h1.9l1.04-1.12,2.08,1.59-.44-1.09c.29-.03,.65-.05,1.09-.08v-12.01l2.31,.96c.18-.99,.29-2.29,.34-3.22l3.07,.44c-.08,.34-.34,.6-.91,.65-.47,.68-1.17,1.46-1.85,2.16h1.66l.99-1.2,2.31,1.79c-.16,.18-.52,.39-.99,.47v6.24l.23-.6,1.56,.83c-.08-.31-.16-.6-.23-.88l.39-.1c1.48,1.43,2.16,2.83,2.31,3.93v-6.34h-3.69l-.21-.75h3.9v-6.21l3.04,.34c-.08,.36-.34,.62-.96,.7v5.17h.05l.99-1.59Zm-21.19-4.52c5.9,.75,3.95,4.99,1.69,3.51-.29-1.17-1.2-2.52-1.95-3.35l.26-.16Zm3.33,20.46v-5.25h-2.26v5.25h2.26Zm5.59-17v2.65h2.83v-2.65h-2.83Zm2.83,3.38h-2.83v2.7h2.83v-2.7Zm-2.83,6.71c.88-.08,1.85-.18,2.83-.31v-2.96h-2.83v3.28Z"/>
        <path class="cls-1" d="M414.63,446.52c0-1.01,.78-1.87,1.9-1.87s1.9,.86,1.9,1.87-.81,1.87-1.9,1.87-1.9-.83-1.9-1.87Zm3.67-16.33c0,1.38-.21,3.59-.88,8.27l-.42,3.8h-.94l-.42-3.8c-.68-4.71-.88-6.89-.88-8.27s.73-2.08,1.77-2.08,1.77,.65,1.77,2.08Z"/>
      </g>
    </g>
  </g>
</svg>