<svg width="24" height="24" viewBox="0 0 24 24" fill="currentColor" xmlns="http://www.w3.org/2000/svg">
    <path
        d="M21.75 3H20.25V1.80037C20.25 1.2225 19.8158 0.75 19.2863 0.75H14.4623C13.9343 0.75 13.5 1.2225 13.5 1.80037V3H4.47787L2.25 7.5H3.79688V10.5H3.54637L2.29688 12L3.54637 13.5H3.82013V14.3055C3.82013 14.5091 3.97725 14.6737 4.17188 14.6737C4.7535 14.6737 5.22675 15.1703 5.22675 15.7804C5.22675 16.3905 4.7535 16.887 4.17188 16.887C3.59025 16.887 3.117 16.3905 3.117 15.7804C3.117 15.5768 2.9595 15.4121 2.76525 15.4121C2.57063 15.4121 2.4135 15.5768 2.4135 15.7804C2.41425 16.7981 3.2025 17.625 4.17188 17.625C5.14088 17.625 5.92987 16.7981 5.92987 15.7808C5.92987 14.8901 5.325 14.1446 4.52362 13.974V13.5H4.797L6.04688 12L4.797 10.5H4.54688V7.5H13.5V10.1996C13.5 10.6976 13.8229 11.115 14.25 11.2222V23.25H15.2344V21L18.5156 22.125L15.2344 23.25H19.5V11.2219C19.9275 11.115 20.25 10.6976 20.25 10.1996V7.5H21.75V6.375H20.9708L21.75 4.89563V3ZM3.99112 6.375L4.86713 4.57538L5.81437 6.375H3.99112ZM5.64937 4.125H7.20675L6.42825 5.60437L5.64937 4.125ZM7.04212 6.375L7.821 4.89563L8.60025 6.375H7.04212ZM8.43525 4.125H9.99262L9.21375 5.60437L8.43525 4.125ZM9.82837 6.375L10.6069 4.89563L11.3854 6.375H9.82837ZM11.2211 4.125H12.7785L12 5.60437L11.2211 4.125ZM13.5 6.375H12.6139L13.3924 4.89563L13.5 5.1V6.375ZM18.5156 21L15.2344 19.875L18.5156 18.75V21ZM15.2344 18.75V16.5L18.5156 17.6257L15.2344 18.75ZM18.5156 16.5L15.2344 15.375L18.5156 14.25V16.5ZM15.2344 14.25V12.0007L18.5156 13.125L15.2344 14.25ZM18.5156 12.0007L16.3275 11.25H18.5156V12.0007ZM19.0781 5.718C19.0781 6.07912 18.8246 6.375 18.5156 6.375H15.1399C14.8309 6.375 14.5781 6.07912 14.5781 5.718V2.53425C14.5781 2.17087 14.8309 1.875 15.1399 1.875H18.5156C18.8246 1.875 19.0781 2.17087 19.0781 2.53425V5.718ZM20.3569 5.60437L20.25 5.40112V4.125H21.1354L20.3569 5.60437Z"
        fill="currentColor" fill-opacity="0.8" />
</svg>