<svg width="23" height="23" viewBox="0 0 23 23" fill="currentColor" xmlns="http://www.w3.org/2000/svg">
    <g clip-path="url(#clip0_413_1503)">
        <path fill-rule="evenodd" clip-rule="evenodd"
            d="M17.8125 0.112264C17.6403 0.0373942 17.4531 -4.06899e-05 17.2509 -4.06899e-05H5.75094C5.55627 -0.00752767 5.3691 0.0299072 5.18941 0.112264C5.00972 0.194621 4.85624 0.299438 4.72896 0.426717C4.60168 0.553996 4.50061 0.703735 4.42574 0.875936C4.35087 1.04814 4.31344 1.23531 4.31344 1.43746V21.5625C4.30595 21.7571 4.34338 21.9443 4.42574 22.124C4.5081 22.3037 4.61292 22.4572 4.74019 22.5844C4.86747 22.7117 5.01721 22.8128 5.18941 22.8877C5.36161 22.9625 5.54879 23 5.75094 23H17.2509C17.4456 23.0074 17.6328 22.97 17.8125 22.8877C17.9921 22.8053 18.1456 22.7005 18.2729 22.5732C18.4002 22.4459 18.5013 22.2962 18.5761 22.124C18.651 21.9518 18.6884 21.7646 18.6884 21.5625V18H17.2509V21.5625H5.75094V1.43746H17.2509V5.33329H18.6884V1.43746C18.6959 1.2428 18.6585 1.05562 18.5761 0.875936C18.4938 0.696248 18.389 0.542765 18.2617 0.415487C18.1344 0.288208 17.9847 0.187134 17.8125 0.112264ZM12.9384 18.6875H10.0634V20.125H12.9384V18.6875Z"
            fill="currentColor" fill-opacity="0.8" />
        <path
            d="M16.3 12.9L15.2125 11.8125C15.1208 11.7208 15.0063 11.6772 14.869 11.6815C14.7313 11.6855 14.6167 11.7333 14.525 11.825C14.4333 11.9167 14.3875 12.0333 14.3875 12.175C14.3875 12.3167 14.4333 12.4333 14.525 12.525L15.95 13.95C16.0417 14.0417 16.1583 14.0875 16.3 14.0875C16.4417 14.0875 16.5583 14.0417 16.65 13.95L19.4875 11.1125C19.5792 11.0208 19.623 10.9062 19.619 10.7685C19.6147 10.6312 19.5667 10.5167 19.475 10.425C19.3833 10.3333 19.2667 10.2875 19.125 10.2875C18.9833 10.2875 18.8667 10.3333 18.775 10.425L16.3 12.9ZM17 17C16.3083 17 15.6583 16.8687 15.05 16.606C14.4417 16.3437 13.9125 15.9875 13.4625 15.5375C13.0125 15.0875 12.6563 14.5583 12.394 13.95C12.1313 13.3417 12 12.6917 12 12C12 11.3083 12.1313 10.6583 12.394 10.05C12.6563 9.44167 13.0125 8.9125 13.4625 8.4625C13.9125 8.0125 14.4417 7.65617 15.05 7.3935C15.6583 7.13117 16.3083 7 17 7C17.6917 7 18.3417 7.13117 18.95 7.3935C19.5583 7.65617 20.0875 8.0125 20.5375 8.4625C20.9875 8.9125 21.3437 9.44167 21.606 10.05C21.8687 10.6583 22 11.3083 22 12C22 12.6917 21.8687 13.3417 21.606 13.95C21.3437 14.5583 20.9875 15.0875 20.5375 15.5375C20.0875 15.9875 19.5583 16.3437 18.95 16.606C18.3417 16.8687 17.6917 17 17 17ZM17 16C18.1083 16 19.0522 15.6105 19.8315 14.8315C20.6105 14.0522 21 13.1083 21 12C21 10.8917 20.6105 9.94783 19.8315 9.1685C19.0522 8.3895 18.1083 8 17 8C15.8917 8 14.948 8.3895 14.169 9.1685C13.3897 9.94783 13 10.8917 13 12C13 13.1083 13.3897 14.0522 14.169 14.8315C14.948 15.6105 15.8917 16 17 16Z"
            fill="currentColor" fill-opacity="0.8" />
    </g>
    <defs>
        <clipPath id="clip0_413_1503">
            <rect width="23" height="23" fill="white" />
        </clipPath>
    </defs>
</svg>