<svg width="24" height="24" viewBox="0 0 24 24" fill="none" xmlns="http://www.w3.org/2000/svg">
    <path
        d="M21.121 7.75309C21.1215 8.39438 20.9951 9.02942 20.7489 9.62156C20.5027 10.2137 20.1417 10.7512 19.6866 11.2031L17.0335 13.8562C16.1194 14.7693 14.8802 15.2822 13.5882 15.2822C12.2962 15.2822 11.057 14.7693 10.1429 13.8562C10.0676 13.788 10.0069 13.7052 9.96462 13.6128C9.9223 13.5205 9.89919 13.4205 9.89669 13.3189C9.89419 13.2173 9.91235 13.1163 9.95007 13.022C9.98779 12.9276 10.0443 12.8419 10.1161 12.7701C10.188 12.6983 10.2737 12.6418 10.368 12.604C10.4623 12.5663 10.5634 12.5482 10.6649 12.5507C10.7665 12.5532 10.8665 12.5763 10.9589 12.6186C11.0512 12.6609 11.134 12.7216 11.2022 12.7968C11.8363 13.4272 12.6941 13.7809 13.5882 13.7809C14.4823 13.7809 15.34 13.4272 15.9741 12.7968L18.6272 10.1437C18.9517 9.8329 19.2108 9.46043 19.3894 9.04815C19.568 8.63587 19.6624 8.19208 19.6672 7.74281C19.6721 7.29354 19.5871 6.84782 19.4174 6.43181C19.2477 6.0158 18.9966 5.63786 18.6789 5.32016C18.3612 5.00246 17.9833 4.75139 17.5673 4.58168C17.1513 4.41197 16.7056 4.32703 16.2563 4.33184C15.807 4.33666 15.3632 4.43113 14.9509 4.60971C14.5387 4.7883 14.1662 5.04741 13.8554 5.37184L11.9991 7.22809C11.8565 7.35736 11.6695 7.42682 11.4771 7.42208C11.2846 7.41734 11.1013 7.33877 10.9652 7.20264C10.8291 7.0665 10.7505 6.88323 10.7458 6.69077C10.741 6.4983 10.8105 6.31139 10.9397 6.16872L12.796 4.31247C13.479 3.63464 14.3469 3.17364 15.291 2.98733C16.235 2.80102 17.213 2.8977 18.1023 3.26523C18.9916 3.63275 19.7525 4.25476 20.2895 5.05319C20.8266 5.85161 21.1158 6.79087 21.121 7.75309ZM11.9991 16.7718L10.1429 18.6281C9.50556 19.2387 8.65444 19.5753 7.77191 19.5658C6.88938 19.5564 6.04566 19.2016 5.42158 18.5775C4.7975 17.9534 4.44272 17.1097 4.43326 16.2272C4.42381 15.3447 4.76043 14.4935 5.371 13.8562L8.02412 11.2031C8.65822 10.5728 9.51598 10.219 10.4101 10.219C11.3041 10.219 12.1619 10.5728 12.796 11.2031C12.9387 11.3324 13.1256 11.4018 13.318 11.3971C13.5105 11.3923 13.6938 11.3138 13.8299 11.1776C13.966 11.0415 14.0446 10.8582 14.0494 10.6658C14.0541 10.4733 13.9846 10.2864 13.8554 10.1437C12.9413 9.2306 11.7021 8.7177 10.4101 8.7177C9.11803 8.7177 7.87884 9.2306 6.96475 10.1437L4.31162 12.7968C3.83465 13.2437 3.4524 13.7819 3.18759 14.3794C2.92279 14.9769 2.78084 15.6216 2.77018 16.2751C2.75952 16.9286 2.88038 17.5775 3.12556 18.1834C3.37074 18.7892 3.73524 19.3396 4.19739 19.8017C4.65953 20.2639 5.20989 20.6284 5.81573 20.8735C6.42158 21.1187 7.07054 21.2396 7.72402 21.2289C8.37751 21.2183 9.02218 21.0763 9.61971 20.8115C10.2172 20.5467 10.7554 20.1644 11.2022 19.6875L13.0585 17.8312C13.1878 17.6885 13.2572 17.5016 13.2525 17.3092C13.2477 17.1167 13.1692 16.9334 13.033 16.7973C12.8969 16.6612 12.7136 16.5826 12.5212 16.5779C12.3287 16.5731 12.1418 16.6426 11.9991 16.7718Z"
        fill="currentColor" fill-opacity="0.8" />
</svg>