<?xml version="1.0" encoding="UTF-8"?>
<svg id="_圖層_2" data-name="圖層 2" xmlns="http://www.w3.org/2000/svg" viewBox="0 0 965.18 914.81">
  <defs>
    <style>
      .cls-1 {
        font-family: MinionVariableConcept-Roman, 'Minion Variable Concept';
        font-size: 140px;
        font-variation-settings: 'wght' 400, 'opsz' 11;
      }
    </style>
  </defs>
  <g id="_圖層_1-2" data-name="圖層 1">
    <text class="cls-1" transform="translate(49.68 456.48) rotate(82.28)" ><tspan x="0" y="0">S</tspan></text>
    <text class="cls-1" transform="translate(60.92 534.5) rotate(71.39)"><tspan x="0" y="0">u</tspan></text>
    <text class="cls-1" transform="translate(89.77 616.62) rotate(59.64)"><tspan x="0" y="0">n</tspan></text>
    <text class="cls-1" transform="translate(135.22 689.68) rotate(51.22)"><tspan x="0" y="0"> </tspan></text>
    <text class="cls-1" transform="translate(160.85 725.06) rotate(40.88)"><tspan x="0" y="0">G</tspan></text>
    <text class="cls-1" transform="translate(249.49 796.38) rotate(30.22)"><tspan x="0" y="0">l</tspan></text>
    <text class="cls-1" transform="translate(287.61 819.41) rotate(21.93)" fill="rgb(86,184,126)"><tspan x="0" y="0">o</tspan></text>
    <text class="cls-1" transform="translate(363.51 848.26) rotate(12.43)"><tspan x="0" y="0">r</tspan></text>
    <text class="cls-1" transform="translate(431.59 862.19) rotate(2.53)"><tspan x="0" y="0">y</tspan></text>
    <text class="cls-1" transform="translate(501.83 863.87) rotate(-4.68)"><tspan x="0" y="0"> </tspan></text>
    <text class="cls-1" transform="translate(543.98 861.77) rotate(-13.75)"><tspan x="0" y="0">A</tspan></text>
    <text class="cls-1" transform="translate(640.41 835.02) rotate(-24.9)"><tspan x="0" y="0">r</tspan></text>
    <text class="cls-1" transform="translate(694.33 809.7) rotate(-33.32)"><tspan x="0" y="0">c</tspan></text>
    <text class="cls-1" transform="translate(753.32 770.61) rotate(-43.7)" ><tspan x="0" y="0">h</tspan></text>
    <text class="cls-1" transform="translate(813.24 710.41) rotate(-52.39)"><tspan x="0" y="0">i</tspan></text>
    <text class="cls-1" transform="translate(839.48 675.71) rotate(-57.8)"><tspan x="0" y="0"> </tspan></text>
    <text class="cls-1" transform="translate(864.67 639.85) rotate(-68.24)"><tspan x="0" y="0">G</tspan></text>
    <text class="cls-1" transform="translate(903.44 532.42) rotate(-80.1)"><tspan x="0" y="0">r</tspan></text>
    <text class="cls-1" transform="translate(913.76 472.11) rotate(-89.07)" fill="rgb(86,184,126)"><tspan x="0" y="0">o</tspan></text>
    <text class="cls-1" transform="translate(913.87 388.89) rotate(-100.59)"><tspan x="0" y="0">u</tspan></text>
    <text class="cls-1" transform="translate(896.72 303.81) rotate(-112.14)" ><tspan x="0" y="0">p</tspan></text>
    <text class="cls-1" transform="translate(863.5 227.79) rotate(-120.4)"><tspan x="0" y="0">​</tspan></text>
  </g>
</svg>