<?xml version="1.0" encoding="UTF-8"?>
<svg id="_圖層_2" data-name="圖層 2" xmlns="http://www.w3.org/2000/svg" xmlns:xlink="http://www.w3.org/1999/xlink" viewBox="0 0 497.92 257">
  <defs>
    <style>
      .cls-1 {
        fill: #fff;
      }

      .cls-2 {
        filter: url(#drop-shadow-1);
      }

      .cls-3 {
        filter: url(#drop-shadow-5);
      }

      .cls-4 {
        filter: url(#drop-shadow-2);
      }

      .cls-5 {
        filter: url(#drop-shadow-4);
      }

      .cls-5, .cls-6, .cls-7 {
        fill: none;
        stroke: #fff;
        stroke-miterlimit: 10;
      }

      .cls-6 {
        filter: url(#drop-shadow-6);
      }

      .cls-7 {
        filter: url(#drop-shadow-3);
      }
    </style>
    <filter id="drop-shadow-1" filterUnits="userSpaceOnUse">
      <feOffset dx="7" dy="7"/>
      <feGaussianBlur result="blur" stdDeviation="5"/>
      <feFlood flood-color="#000" flood-opacity=".75"/>
      <feComposite in2="blur" operator="in"/>
      <feComposite in="SourceGraphic"/>
    </filter>
    <filter id="drop-shadow-2" filterUnits="userSpaceOnUse">
      <feOffset dx="7" dy="7"/>
      <feGaussianBlur result="blur-2" stdDeviation="5"/>
      <feFlood flood-color="#000" flood-opacity=".75"/>
      <feComposite in2="blur-2" operator="in"/>
      <feComposite in="SourceGraphic"/>
    </filter>
    <filter id="drop-shadow-3" filterUnits="userSpaceOnUse">
      <feOffset dx="7" dy="7"/>
      <feGaussianBlur result="blur-3" stdDeviation="5"/>
      <feFlood flood-color="#000" flood-opacity=".75"/>
      <feComposite in2="blur-3" operator="in"/>
      <feComposite in="SourceGraphic"/>
    </filter>
    <filter id="drop-shadow-4" filterUnits="userSpaceOnUse">
      <feOffset dx="7" dy="7"/>
      <feGaussianBlur result="blur-4" stdDeviation="5"/>
      <feFlood flood-color="#000" flood-opacity=".75"/>
      <feComposite in2="blur-4" operator="in"/>
      <feComposite in="SourceGraphic"/>
    </filter>
    <filter id="drop-shadow-5" filterUnits="userSpaceOnUse">
      <feOffset dx="7" dy="7"/>
      <feGaussianBlur result="blur-5" stdDeviation="5"/>
      <feFlood flood-color="#000" flood-opacity=".75"/>
      <feComposite in2="blur-5" operator="in"/>
      <feComposite in="SourceGraphic"/>
    </filter>
    <filter id="drop-shadow-6" filterUnits="userSpaceOnUse">
      <feOffset dx="7" dy="7"/>
      <feGaussianBlur result="blur-6" stdDeviation="5"/>
      <feFlood flood-color="#000" flood-opacity=".75"/>
      <feComposite in2="blur-6" operator="in"/>
      <feComposite in="SourceGraphic"/>
    </filter>
  </defs>
  <g id="_圖層_2-2" data-name="圖層 2">
    <g class="cls-2">
      <path class="cls-1" d="M160.86,198.68c0,.19-.08,.29-.24,.29-.61,0-1.58-.03-2.93-.1-1.34-.06-2.32-.1-2.93-.1-.8,0-1.74,.03-2.83,.1-1.09,.06-1.94,.1-2.54,.1-.13,0-.19-.1-.19-.29s.06-.29,.19-.29c.93,0,1.61-.1,2.04-.31,.43-.21,.65-.55,.65-1.03s-.27-1.3-.82-2.45l-3.65-7.39h-11.62l-2.3,5.18c-.42,.96-.62,1.82-.62,2.59,0,1.12,.4,1.97,1.2,2.54,.8,.58,1.92,.86,3.36,.86,.16,0,.24,.1,.24,.29s-.08,.29-.24,.29c-.58,0-1.41-.03-2.5-.1-1.22-.06-2.27-.1-3.17-.1s-1.87,.03-3.02,.1c-1.02,.06-1.87,.1-2.54,.1-.16,0-.24-.1-.24-.29s.08-.29,.24-.29c.9,0,1.65-.18,2.26-.53,.61-.35,1.2-.98,1.78-1.9s1.26-2.26,2.06-4.06l10.32-23.23c.06-.1,.21-.14,.43-.14s.35,.05,.38,.14l11.76,23.71c1.12,2.3,2.06,3.88,2.81,4.73,.75,.85,1.56,1.27,2.42,1.27,.16,0,.24,.1,.24,.29Zm-24.34-12.67h10.51l-5.52-11.18-4.99,11.18Z"/>
      <path class="cls-1" d="M194.8,198.68c0,.19-.05,.29-.14,.29h-7.73c-.74,0-2.1-1.28-4.1-3.84-2-2.56-4.42-6.14-7.27-10.75-.7,.06-1.25,.1-1.63,.1-.7,0-1.54-.03-2.5-.1v10.7c0,.99,.09,1.71,.26,2.16,.18,.45,.51,.75,1.01,.91,.5,.16,1.29,.24,2.38,.24,.06,0,.1,.1,.1,.29s-.03,.29-.1,.29c-1.06,0-1.87-.02-2.45-.05l-3.55-.05-3.46,.05c-.61,.03-1.44,.05-2.5,.05-.1,0-.14-.1-.14-.29s.05-.29,.14-.29c1.09,0,1.88-.08,2.38-.24,.5-.16,.84-.47,1.03-.94,.19-.46,.29-1.18,.29-2.14v-22.22c0-.96-.09-1.66-.26-2.11-.18-.45-.52-.76-1.03-.94-.51-.18-1.3-.26-2.35-.26-.06,0-.1-.1-.1-.29s.03-.29,.1-.29l2.5,.05c1.41,.06,2.54,.1,3.41,.1,1.06,0,2.21-.05,3.46-.14,.42-.03,.92-.06,1.51-.1,.59-.03,1.26-.05,1.99-.05,2.78,0,4.94,.54,6.46,1.63,1.52,1.09,2.28,2.61,2.28,4.56,0,1.76-.49,3.34-1.46,4.75-.98,1.41-2.28,2.53-3.91,3.36,2.62,3.87,4.82,6.9,6.58,9.07,1.76,2.18,3.32,3.75,4.68,4.73,1.36,.98,2.7,1.46,4.01,1.46,.1,0,.14,.1,.14,.29Zm-20.59-15.41c2.08,0,3.57-.52,4.46-1.56,.9-1.04,1.34-2.71,1.34-5.02,0-2.59-.44-4.4-1.32-5.42-.88-1.02-2.15-1.54-3.82-1.54-1.25,0-2.14,.23-2.66,.7-.53,.46-.79,1.3-.79,2.52v10.13c.77,.13,1.7,.19,2.78,.19Z"/>
      <path class="cls-1" d="M221.3,169.93c.26,.13,.42,.25,.48,.36,.06,.11,.13,.36,.19,.74l.58,6.34c0,.1-.08,.16-.24,.19-.16,.03-.27-.02-.34-.14-.83-2.62-2.07-4.62-3.72-6-1.65-1.38-3.69-2.06-6.12-2.06s-4.42,.58-6.26,1.75c-1.84,1.17-3.27,2.85-4.3,5.04-1.02,2.19-1.54,4.74-1.54,7.66s.54,5.45,1.63,7.7c1.09,2.26,2.58,4.01,4.46,5.26,1.89,1.25,4.02,1.87,6.38,1.87s4.28-.62,5.83-1.85c1.55-1.23,2.92-3.19,4.1-5.88,.03-.1,.13-.13,.29-.1,.16,.03,.24,.08,.24,.14l-.62,5.76c-.03,.38-.09,.62-.17,.72-.08,.1-.25,.21-.5,.34-2.88,1.18-5.94,1.78-9.17,1.78-3.42,0-6.48-.65-9.17-1.94-2.69-1.3-4.78-3.12-6.29-5.47-1.5-2.35-2.26-5.05-2.26-8.09s.78-5.7,2.35-8.06c1.57-2.37,3.71-4.22,6.43-5.54,2.72-1.33,5.76-1.99,9.12-1.99,3.55,0,6.42,.5,8.59,1.49Z"/>
      <path class="cls-1" d="M260.85,198.68c0,.19-.05,.29-.14,.29-1.09,0-1.97-.02-2.64-.05l-3.5-.05-4.08,.05c-.58,.03-1.34,.05-2.3,.05-.1,0-.14-.1-.14-.29s.05-.29,.14-.29c1.22,0,2.1-.08,2.64-.24,.54-.16,.91-.46,1.1-.91,.19-.45,.29-1.17,.29-2.16v-11.09h-16.46v11.09c0,.96,.1,1.67,.29,2.14,.19,.46,.57,.78,1.13,.94,.56,.16,1.45,.24,2.66,.24,.06,0,.1,.1,.1,.29s-.03,.29-.1,.29c-1.09,0-1.94-.02-2.54-.05l-3.98-.05-3.5,.05c-.61,.03-1.46,.05-2.54,.05-.06,0-.1-.1-.1-.29s.03-.29,.1-.29c1.15,0,2-.08,2.54-.24,.54-.16,.91-.47,1.1-.94,.19-.46,.29-1.18,.29-2.14v-22.22c0-.96-.1-1.66-.29-2.11-.19-.45-.56-.76-1.1-.94-.54-.18-1.38-.26-2.5-.26-.06,0-.1-.1-.1-.29s.03-.29,.1-.29l2.54,.05c1.47,.06,2.62,.1,3.46,.1,1.12,0,2.45-.03,3.98-.1l2.54-.05c.06,0,.1,.1,.1,.29s-.03,.29-.1,.29c-1.18,0-2.06,.1-2.62,.29-.56,.19-.94,.52-1.15,.98-.21,.46-.31,1.18-.31,2.14v9.79h16.46v-9.79c0-.96-.1-1.67-.29-2.14s-.57-.79-1.13-.98c-.56-.19-1.43-.29-2.62-.29-.1,0-.14-.1-.14-.29s.05-.29,.14-.29l2.3,.05c1.54,.06,2.9,.1,4.08,.1,.86,0,2.03-.03,3.5-.1l2.64-.05c.1,0,.14,.1,.14,.29s-.05,.29-.14,.29c-1.15,0-1.99,.09-2.52,.26-.53,.18-.89,.49-1.08,.94-.19,.45-.29,1.15-.29,2.11v22.22c0,.96,.1,1.67,.29,2.14,.19,.46,.55,.78,1.08,.94,.53,.16,1.37,.24,2.52,.24,.1,0,.14,.1,.14,.29Z"/>
      <path class="cls-1" d="M273.47,197.24c.16,.45,.49,.75,.98,.91,.5,.16,1.29,.24,2.38,.24,.1,0,.14,.1,.14,.29s-.05,.29-.14,.29c-1.02,0-1.84-.02-2.45-.05l-3.55-.05-3.46,.05c-.61,.03-1.44,.05-2.5,.05-.1,0-.14-.1-.14-.29s.05-.29,.14-.29c1.09,0,1.88-.08,2.38-.24,.5-.16,.84-.47,1.03-.94,.19-.46,.29-1.18,.29-2.14v-22.22c0-.96-.1-1.66-.29-2.11-.19-.45-.54-.76-1.03-.94-.5-.18-1.29-.26-2.38-.26-.1,0-.14-.1-.14-.29s.05-.29,.14-.29l2.5,.05c1.41,.06,2.56,.1,3.46,.1,.99,0,2.19-.03,3.6-.1l2.4-.05c.1,0,.14,.1,.14,.29s-.05,.29-.14,.29c-1.06,0-1.83,.1-2.33,.29-.5,.19-.83,.52-1.01,.98-.18,.46-.26,1.18-.26,2.14v22.13c0,.99,.08,1.71,.24,2.16Z"/>
      <path class="cls-1" d="M284.82,171.78c-1.26,1.2-2.23,3.02-2.9,5.45,0,.06-.09,.1-.26,.1s-.26-.05-.26-.14c.13-1.25,.27-2.86,.43-4.82,.16-1.97,.24-3.45,.24-4.44,0-.16,.09-.24,.26-.24s.26,.08,.26,.24c0,.7,.9,1.06,2.69,1.06,2.75,.1,5.97,.14,9.65,.14,1.89,0,3.89-.03,6-.1l3.26-.05c1.22,0,2.1-.08,2.66-.24,.56-.16,.92-.48,1.08-.96,.03-.13,.13-.19,.29-.19s.24,.06,.24,.19c-.1,.99-.19,2.5-.29,4.51-.1,2.02-.14,3.65-.14,4.9,0,.1-.09,.14-.26,.14s-.28-.05-.31-.14c-.32-2.46-1.07-4.28-2.26-5.45-1.18-1.17-2.78-1.75-4.8-1.75-.9,0-1.56,.08-1.99,.24-.43,.16-.72,.44-.86,.84-.14,.4-.22,1.03-.22,1.9v22.13c0,.99,.1,1.71,.29,2.16,.19,.45,.58,.75,1.15,.91,.58,.16,1.49,.24,2.74,.24,.1,0,.14,.1,.14,.29s-.05,.29-.14,.29c-1.12,0-2-.02-2.64-.05l-3.94-.05-3.74,.05c-.67,.03-1.6,.05-2.78,.05-.06,0-.1-.1-.1-.29s.03-.29,.1-.29c1.25,0,2.17-.08,2.76-.24,.59-.16,.99-.47,1.2-.94,.21-.46,.31-1.18,.31-2.14v-22.22c0-.83-.08-1.44-.24-1.82-.16-.38-.45-.66-.86-.82-.42-.16-1.06-.24-1.92-.24-1.95,0-3.56,.6-4.82,1.8Z"/>
      <path class="cls-1" d="M334.38,191.38c.1,0,.18,.02,.26,.07,.08,.05,.12,.09,.12,.12-.32,2.43-.48,4.66-.48,6.67,0,.26-.05,.44-.14,.55-.1,.11-.29,.17-.58,.17h-20.83c-.1,0-.14-.1-.14-.29s.05-.29,.14-.29c1.09,0,1.88-.08,2.38-.24,.5-.16,.83-.47,1.01-.94,.18-.46,.26-1.18,.26-2.14v-22.22c0-.96-.09-1.66-.26-2.11-.18-.45-.52-.76-1.03-.94-.51-.18-1.3-.26-2.35-.26-.1,0-.14-.1-.14-.29s.05-.29,.14-.29h19.97c.32,0,.48,.14,.48,.43l.1,6.24c0,.06-.09,.11-.26,.14-.18,.03-.28,0-.31-.1-.77-3.65-2.99-5.47-6.67-5.47h-1.92c-1.15,0-1.97,.21-2.45,.62-.48,.42-.72,1.12-.72,2.11v9.79h4.61c3.52,0,5.28-1.18,5.28-3.55,0-.1,.09-.14,.26-.14s.26,.05,.26,.14l-.05,4.18,.05,2.26c.06,1.02,.1,1.86,.1,2.5,0,.06-.1,.1-.29,.1s-.29-.03-.29-.1c0-2.75-1.79-4.13-5.38-4.13h-4.56v10.9c0,1.06,.2,1.79,.6,2.21,.4,.42,1.11,.62,2.14,.62h2.35c4.29,0,7.01-2.08,8.16-6.24,0-.06,.06-.1,.19-.1Z"/>
      <path class="cls-1" d="M366.3,169.93c.26,.13,.42,.25,.48,.36,.06,.11,.13,.36,.19,.74l.58,6.34c0,.1-.08,.16-.24,.19-.16,.03-.27-.02-.34-.14-.83-2.62-2.07-4.62-3.72-6-1.65-1.38-3.69-2.06-6.12-2.06s-4.42,.58-6.26,1.75c-1.84,1.17-3.27,2.85-4.3,5.04-1.02,2.19-1.54,4.74-1.54,7.66s.54,5.45,1.63,7.7c1.09,2.26,2.58,4.01,4.46,5.26,1.89,1.25,4.02,1.87,6.38,1.87s4.28-.62,5.83-1.85c1.55-1.23,2.92-3.19,4.1-5.88,.03-.1,.13-.13,.29-.1,.16,.03,.24,.08,.24,.14l-.62,5.76c-.03,.38-.09,.62-.17,.72-.08,.1-.25,.21-.5,.34-2.88,1.18-5.94,1.78-9.17,1.78-3.42,0-6.48-.65-9.17-1.94-2.69-1.3-4.78-3.12-6.29-5.47-1.5-2.35-2.26-5.05-2.26-8.09s.78-5.7,2.35-8.06c1.57-2.37,3.71-4.22,6.43-5.54,2.72-1.33,5.76-1.99,9.12-1.99,3.55,0,6.42,.5,8.59,1.49Z"/>
      <path class="cls-1" d="M376.02,171.78c-1.26,1.2-2.23,3.02-2.9,5.45,0,.06-.09,.1-.26,.1s-.26-.05-.26-.14c.13-1.25,.27-2.86,.43-4.82,.16-1.97,.24-3.45,.24-4.44,0-.16,.09-.24,.26-.24s.26,.08,.26,.24c0,.7,.9,1.06,2.69,1.06,2.75,.1,5.97,.14,9.65,.14,1.89,0,3.89-.03,6-.1l3.26-.05c1.22,0,2.1-.08,2.66-.24,.56-.16,.92-.48,1.08-.96,.03-.13,.13-.19,.29-.19s.24,.06,.24,.19c-.1,.99-.19,2.5-.29,4.51-.1,2.02-.14,3.65-.14,4.9,0,.1-.09,.14-.26,.14s-.28-.05-.31-.14c-.32-2.46-1.07-4.28-2.26-5.45-1.18-1.17-2.78-1.75-4.8-1.75-.9,0-1.56,.08-1.99,.24-.43,.16-.72,.44-.86,.84-.14,.4-.22,1.03-.22,1.9v22.13c0,.99,.1,1.71,.29,2.16,.19,.45,.58,.75,1.15,.91,.58,.16,1.49,.24,2.74,.24,.1,0,.14,.1,.14,.29s-.05,.29-.14,.29c-1.12,0-2-.02-2.64-.05l-3.94-.05-3.74,.05c-.67,.03-1.6,.05-2.78,.05-.06,0-.1-.1-.1-.29s.03-.29,.1-.29c1.25,0,2.17-.08,2.76-.24,.59-.16,.99-.47,1.2-.94,.21-.46,.31-1.18,.31-2.14v-22.22c0-.83-.08-1.44-.24-1.82-.16-.38-.45-.66-.86-.82-.42-.16-1.06-.24-1.92-.24-1.95,0-3.56,.6-4.82,1.8Z"/>
      <path class="cls-1" d="M428.2,170.94c-.75-.93-1.83-1.39-3.24-1.39-.06,0-.1-.1-.1-.29s.03-.29,.1-.29l2.21,.05c1.22,.06,2.18,.1,2.88,.1,.58,0,1.44-.03,2.59-.1l2.11-.05c.06,0,.1,.1,.1,.29s-.03,.29-.1,.29c-1.25,0-2.22,.46-2.9,1.39-.69,.93-1.03,2.22-1.03,3.89v13.44c0,2.3-.49,4.31-1.46,6.02-.98,1.71-2.35,3.03-4.13,3.96-1.78,.93-3.83,1.39-6.17,1.39s-4.42-.46-6.24-1.37c-1.82-.91-3.24-2.22-4.25-3.94-1.01-1.71-1.51-3.72-1.51-6.02v-15.46c0-.96-.1-1.66-.29-2.11-.19-.45-.54-.76-1.03-.94-.5-.18-1.27-.26-2.33-.26-.1,0-.14-.1-.14-.29s.05-.29,.14-.29l2.5,.05c1.41,.06,2.54,.1,3.41,.1,.96,0,2.14-.03,3.55-.1l2.4-.05c.1,0,.14,.1,.14,.29s-.05,.29-.14,.29c-1.06,0-1.84,.1-2.35,.29-.51,.19-.86,.52-1.03,.98-.18,.46-.26,1.18-.26,2.14v13.68c0,3.81,.79,6.65,2.38,8.52s3.8,2.81,6.65,2.81,4.85-.84,6.38-2.52c1.54-1.68,2.3-4.06,2.3-7.13v-13.49c0-1.66-.38-2.96-1.13-3.89Z"/>
      <path class="cls-1" d="M469.74,198.68c0,.19-.05,.29-.14,.29h-7.73c-.74,0-2.1-1.28-4.1-3.84-2-2.56-4.42-6.14-7.27-10.75-.7,.06-1.25,.1-1.63,.1-.7,0-1.54-.03-2.5-.1v10.7c0,.99,.09,1.71,.26,2.16,.18,.45,.51,.75,1.01,.91,.5,.16,1.29,.24,2.38,.24,.06,0,.1,.1,.1,.29s-.03,.29-.1,.29c-1.06,0-1.87-.02-2.45-.05l-3.55-.05-3.46,.05c-.61,.03-1.44,.05-2.5,.05-.1,0-.14-.1-.14-.29s.05-.29,.14-.29c1.09,0,1.88-.08,2.38-.24,.5-.16,.84-.47,1.03-.94,.19-.46,.29-1.18,.29-2.14v-22.22c0-.96-.09-1.66-.26-2.11-.18-.45-.52-.76-1.03-.94-.51-.18-1.3-.26-2.35-.26-.06,0-.1-.1-.1-.29s.03-.29,.1-.29l2.5,.05c1.41,.06,2.54,.1,3.41,.1,1.06,0,2.21-.05,3.46-.14,.42-.03,.92-.06,1.51-.1,.59-.03,1.26-.05,1.99-.05,2.78,0,4.94,.54,6.46,1.63,1.52,1.09,2.28,2.61,2.28,4.56,0,1.76-.49,3.34-1.46,4.75-.98,1.41-2.28,2.53-3.91,3.36,2.62,3.87,4.82,6.9,6.58,9.07,1.76,2.18,3.32,3.75,4.68,4.73,1.36,.98,2.7,1.46,4.01,1.46,.1,0,.14,.1,.14,.29Zm-20.59-15.41c2.08,0,3.57-.52,4.46-1.56,.9-1.04,1.34-2.71,1.34-5.02,0-2.59-.44-4.4-1.32-5.42-.88-1.02-2.15-1.54-3.82-1.54-1.25,0-2.14,.23-2.66,.7-.53,.46-.79,1.3-.79,2.52v10.13c.77,.13,1.7,.19,2.78,.19Z"/>
      <path class="cls-1" d="M493.31,191.38c.1,0,.18,.02,.26,.07,.08,.05,.12,.09,.12,.12-.32,2.43-.48,4.66-.48,6.67,0,.26-.05,.44-.14,.55-.1,.11-.29,.17-.58,.17h-20.83c-.1,0-.14-.1-.14-.29s.05-.29,.14-.29c1.09,0,1.88-.08,2.38-.24,.5-.16,.83-.47,1.01-.94,.18-.46,.26-1.18,.26-2.14v-22.22c0-.96-.09-1.66-.26-2.11-.18-.45-.52-.76-1.03-.94-.51-.18-1.3-.26-2.35-.26-.1,0-.14-.1-.14-.29s.05-.29,.14-.29h19.97c.32,0,.48,.14,.48,.43l.1,6.24c0,.06-.09,.11-.26,.14-.18,.03-.28,0-.31-.1-.77-3.65-2.99-5.47-6.67-5.47h-1.92c-1.15,0-1.97,.21-2.45,.62-.48,.42-.72,1.12-.72,2.11v9.79h4.61c3.52,0,5.28-1.18,5.28-3.55,0-.1,.09-.14,.26-.14s.26,.05,.26,.14l-.05,4.18,.05,2.26c.06,1.02,.1,1.86,.1,2.5,0,.06-.1,.1-.29,.1s-.29-.03-.29-.1c0-2.75-1.79-4.13-5.38-4.13h-4.56v10.9c0,1.06,.2,1.79,.6,2.21,.4,.42,1.11,.62,2.14,.62h2.35c4.29,0,7.01-2.08,8.16-6.24,0-.06,.06-.1,.19-.1Z"/>
    </g>
    <g class="cls-4">
      <path class="cls-1" d="M67.67,54.02l2.66-3.64s3.02,2.52,4.86,4.25c-.11,.43-.54,.58-1.12,.58h-31.86l-.36-1.19h25.81Z"/>
      <path class="cls-1" d="M106.48,59.1c2.02,3.38,5.54,6.16,8.85,7.52l-.07,.36c-1.33,.25-2.27,1.33-2.74,3.06-3.06-2.38-5.44-6.12-6.84-10.94h-.04v12.06c0,.4-1.4,1.19-2.59,1.19h-.65v-9.5c-2.56,3.1-6.08,5.62-10.29,7.52l-.36-.54c4.14-2.74,7.38-6.62,9.29-10.73h-2.7v.54c0,.25-.94,.97-2.56,.97h-.54v-12.2c-.18,.18-.47,.29-.79,.29h-4.43v3.53c7.81,2.88,5.04,8.1,2.41,5.9-.29-1.58-1.4-3.64-2.41-5.11v18.32c0,.4-1.4,1.04-2.63,1.04h-.68v-15.66c-1.44,2.7-3.24,5.15-5.47,7.31l-.47-.43c2.7-4.1,4.54-9.58,5.47-14.9h-4.36l-.29-1.04h5.11v-8.6l4.64,.47c-.11,.54-.36,.9-1.33,1.04v7.09h.68l1.69-2.48s1.76,1.58,2.84,2.81v-1.19l3.56,1.44h3.6v-3.42h-7.92l-.29-1.04h8.21v-4.79l4.54,.5c-.07,.5-.36,.86-1.3,1.01v3.28h4l1.87-2.52s2.09,1.76,3.35,2.99c-.11,.4-.47,.58-.97,.58h-8.24v3.42h3.74l1.66-1.76,3.46,2.66c-.22,.25-.76,.58-1.44,.72v9.43c-.07,.22-1.69,.86-2.77,.86h-.54v-1.04h-3.28Zm-8.13-9.83v3.89h4.07v-3.89h-4.07Zm4.07,8.78v-3.85h-4.07v3.85h4.07Zm3.24-8.78v3.89h4.1v-3.89h-4.1Zm4.1,8.78v-3.85h-4.1v3.85h4.1Z"/>
      <path class="cls-1" d="M133.51,53.95c-.25,.32-.58,.47-1.37,.54-.5,3.82-1.44,7.45-3.35,10.65,3.89,2.48,9.29,3.02,16.88,3.02,1.98,0,6.37,0,8.68-.04v.47c-1.4,.25-2.05,1.44-2.16,2.81h-6.8c-8.28,0-13.86-.9-17.78-4.54-1.62,2.16-3.82,4.03-6.77,5.51l-.29-.5c2.48-1.84,4.28-4.07,5.54-6.62-1.66-2.12-2.99-5-4.03-8.71l.47-.25c1.12,3.2,2.56,5.54,4.28,7.27,1.19-2.92,1.8-6.16,2.12-9.5h-2.95l-1.19,1.12-2.99-2.05c.32-.25,.83-.5,1.3-.68,1.37-2.41,3.24-6.33,4.25-8.89h-6.19l-.32-1.04h6.48l1.62-1.66,3.2,2.92c-.29,.32-.9,.5-1.66,.58-1.01,2.3-2.88,6.16-4.21,8.67h2.38l1.73-1.76,3.13,2.7Zm18.5-8.78s1.84,1.73,2.88,2.88c-.11,.4-.47,.58-.97,.58h-3.96v5.08c-.04,.25-1.62,.9-2.66,.9h-.5v-1.22h-4.1v3.71h4.1l1.76-2.38s2.12,1.66,3.38,2.84c-.11,.4-.47,.58-.97,.58h-8.28v3.78h5.29l1.98-2.56s2.34,1.73,3.74,3.02c-.11,.4-.5,.58-1.01,.58h-10.01v3.56c0,.32-1.37,.97-2.59,.97h-.68v-4.54h-7.96l-.29-1.04h8.24v-3.78h-6.19l-.29-1.04h6.48v-3.71h-5.76l-.32-1.04h6.08v-3.71h-8.53l-.29-1.04h8.82v-3.64h-5.98l-.32-1.04h6.3v-3.92l4.61,.47c-.11,.5-.36,.86-1.33,1.01v2.45h3.74l1.58-1.73,3.42,2.63c-.25,.25-.79,.58-1.48,.72v3.06h.47l1.58-2.41Zm-9.32,2.41h4.1v-3.64h-4.1v3.64Zm4.1,1.04h-4.1v3.71h4.1v-3.71Z"/>
      <path class="cls-1" d="M168.07,43.19c-2.16,2.45-4.75,4.21-7.38,5.36l-.4-.43c2.45-2.05,4.93-5.51,6.41-9.47l4.46,1.84c-.18,.4-.65,.68-1.48,.58-.25,.36-.5,.72-.76,1.08h4.72l1.69-2.16s1.84,1.51,2.95,2.63c-.11,.4-.43,.58-.94,.58h-9.29Zm-7.34,28c3.64-1.91,7.34-5.22,9.11-7.78l4.03,2.45c-.22,.32-.58,.47-1.37,.29-2.56,2.2-6.98,4.39-11.45,5.51l-.32-.47Zm8.85-21.13v5.98c1.73-.25,3.56-.5,5.44-.79l.07,.5c-2.52,1.01-6.16,2.34-11.19,4-.18,.47-.54,.76-.9,.83l-1.62-3.53c1.12-.11,2.88-.29,5.08-.58v-6.41h-4.1l-.29-1.04h8.17l1.37-1.73c-.22-.04-.43-.11-.65-.22-.25-1.08-1.33-2.38-2.27-3.02l.32-.29c5.22-.11,4.97,3.06,3.31,3.53,.65,.5,1.8,1.44,2.63,2.2-.11,.4-.47,.58-.97,.58h-4.39Zm20.05,8.96s2.38,1.87,3.82,3.24c-.11,.4-.47,.58-1.01,.58h-13.5v8.57c0,.29-1.55,.94-2.95,.94h-.65v-9.5h-13.43l-.29-1.04h13.71v-2.95l4.93,.47c-.07,.47-.36,.83-1.33,.97v1.51h8.57l2.12-2.77Zm2.95-3.28c.72,.32,.86,.65,.86,1.15,0,1.04-1.01,1.66-3.67,1.66h-1.4c-1.98,0-2.27-.65-2.27-2.3v-6.41h-4.5v1.33c0,.68-.07,1.48-.36,2.23,3.89,1.62,3.46,4.54,1.26,4.1-.58-.61-1.48-1.3-2.48-1.98-1.26,1.44-3.49,2.77-7.42,3.71l-.29-.47c3.24-1.37,4.82-2.92,5.58-4.5-1.04-.58-2.12-1.04-3.06-1.37l.29-.47c1.22,0,2.38,.11,3.35,.25,.11-.5,.14-1.01,.14-1.51v-1.33h-2.77l-.32-1.04h10.26l1.48-1.51,2.7,2.38c-.18,.22-.54,.4-1.19,.5v5.36c0,.36,.07,.47,.47,.47h1.48c.18-.04,.32-.04,.43-.25,.22-.32,.58-1.51,.9-2.7l.43,.04,.11,2.66Zm-1.98-15.95s2.02,1.62,3.31,2.81c-.11,.4-.47,.58-.97,.58h-11.05c-1.58,1.94-3.46,3.46-5.36,4.5l-.43-.36c1.66-2.02,3.31-5.29,4.28-8.64l4.43,1.76c-.18,.4-.65,.68-1.4,.58-.22,.4-.47,.76-.72,1.12h6.08l1.84-2.34Zm-9.5,24.41c13.21,.94,12.78,8.46,8.78,7.27-1.84-2.38-5.98-5.4-9.03-6.91l.25-.36Zm1.98-20.34c6.52,.14,4.03,4.79,1.55,3.09-.18-1.01-1.04-2.23-1.84-2.84l.29-.25Z"/>
      <path class="cls-1" d="M233.92,47c-.29,.29-.79,.54-1.58,.65-.47,12.89-1.58,20.52-3.71,22.71-1.26,1.3-2.81,1.84-5,1.84,0-1.04-.18-1.94-.76-2.45-.65-.58-2.2-1.08-3.89-1.37l.04-.58c1.8,.18,4.57,.4,5.47,.4,.76,0,1.12-.11,1.58-.54,1.55-1.33,2.48-9.18,2.99-20.55h-1.19c-1.62,9.5-5.87,17.89-14.65,23.18l-.36-.4c6.91-5.9,10.4-14.15,11.45-22.79h-1.66c-1.8,6.44-5.65,12.35-11.27,16.2l-.36-.43c4.21-4.17,7.16-10.08,8.28-15.77h-2.02c-1.66,2.77-3.74,5-6.12,6.62l-.47-.36c1.12-1.37,2.16-3.09,3.1-5h-4.39v7.63c1.58-.47,3.2-.97,4.86-1.48l.14,.47c-1.33,.79-2.99,1.76-5,2.88v13.5c0,.36-1.33,1.01-2.59,1.01h-.61v-12.74c-1.15,.65-2.41,1.3-3.74,1.98-.14,.43-.47,.79-.83,.94l-1.62-4c1.22-.25,3.49-.86,6.19-1.62v-8.57h-2.63c-.83,2.27-1.84,4.32-3.02,5.94l-.58-.29c1.12-3.42,1.84-8.21,2.02-12.67l4.21,.76v-3.17l4.54,.5c-.11,.5-.36,.86-1.33,1.01v6.88h.54l1.73-2.56s1.48,1.4,2.59,2.56c1.08-2.52,1.98-5.4,2.52-8.39l4.68,1.4c-.14,.47-.58,.76-1.4,.76-.61,1.8-1.33,3.49-2.2,5h10.8l1.91-2.02,3.35,2.92Zm-27.72,.32v-4.9c-.18,.32-.54,.54-1.15,.58-.32,1.48-.68,2.95-1.12,4.32h2.27Z"/>
      <path class="cls-1" d="M57.59,89.73c-.25,.29-.79,.58-1.51,.76v21.71c-.04,.29-1.62,1.01-2.74,1.01h-.5v-2.77h-6.37v2.77c0,.36-1.22,1.15-2.59,1.15h-.54v-27l3.31,1.51h.65c.32-1.91,.76-4.68,1.01-6.66l4.97,1.19c-.18,.58-.65,.83-1.44,.83-.86,1.37-2.12,3.2-3.13,4.64h3.78l1.66-1.87,3.46,2.74Zm-11.12,.18v8.96h6.37v-8.96h-6.37Zm6.37,19.47v-9.47h-6.37v9.47h6.37Zm22.32-19.65c-.29,.32-.72,.54-1.55,.65-.25,13.97-.83,21.2-2.66,23.29-1.15,1.33-2.7,1.87-4.79,1.87,0-1.12-.18-1.98-.76-2.48-.61-.58-2.05-1.08-3.71-1.37l.04-.58c1.69,.18,4.21,.36,5.08,.36,.72,0,1.01-.11,1.4-.47,1.33-1.3,1.76-8.85,2.02-21.17h-7.56c-1.66,2.99-3.6,5.62-5.76,7.56l-.5-.32c2.12-3.63,4.21-9.36,5.29-14.87l4.79,1.4c-.14,.43-.58,.76-1.37,.76-.54,1.55-1.19,3.02-1.91,4.43h6.62l1.94-2.05,3.38,2.99Zm-15.41,6.44c9.72,3.42,6.55,10.4,3.28,7.67-.29-2.48-2.02-5.51-3.6-7.45l.32-.22Z"/>
      <path class="cls-1" d="M58.42,139.56c1.4,0,2.52,1.12,2.52,2.52s-1.12,2.52-2.52,2.52-2.52-1.12-2.52-2.52,1.12-2.52,2.52-2.52Z"/>
      <path class="cls-1" d="M54.17,173.25s1.94,1.51,3.1,2.63c-.07,.4-.43,.58-.9,.58h-14.47l-.29-1.04h10.91l1.66-2.16Zm7.34,.68c0,3.02-.65,7.74-6.52,10.58,.25,.18,.47,.4,.65,.58-.11,.4-.43,.58-.94,.58h-11.27l-.29-1.04h7.95l1.62-2.05s1.15,.94,2.23,1.87l-.29-.36c3.31-3.1,3.74-6.91,3.74-10.15v-4.32l3.64,1.4h3.92l1.66-1.73,3.1,2.59c-.22,.25-.68,.43-1.33,.54v6.59c0,.4,.11,.54,.61,.54h1.15c.43,0,.86,0,1.08-.04h.65c.22-.04,.5-.11,.76-.14h.32l.14,.04c.83,.32,1.12,.61,1.12,1.22,0,1.22-1.08,1.87-4.43,1.87h-1.8c-2.34,0-2.66-.68-2.66-2.63v-7.81h-4.82v1.87Zm-10.4,6.05l1.62-2.02s1.8,1.4,2.92,2.48c-.11,.4-.43,.58-.94,.58h-11.27l-.29-1.04h7.95Zm3.49,19.37c-.04,.25-1.51,.94-2.52,.94h-.5v-1.84h-4.9v2.09c0,.32-1.33,1.01-2.59,1.01h-.43v-13.61l3.17,1.37h4.39l1.55-1.66,3.28,2.52c-.22,.25-.76,.54-1.44,.68v8.49Zm-8.89-30.42c8.39,1.15,5.58,7.34,2.38,5.15-.32-1.69-1.58-3.74-2.7-4.93l.32-.22Zm5.87,28.47v-7.05h-4.9v7.05h4.9Zm21.49-11.23c-.29,.36-.65,.47-1.48,.5-1.3,3.06-3.06,5.79-5.44,8.1,2.7,1.69,5.87,2.81,9.43,3.56l-.04,.4c-1.44,.22-2.45,1.26-2.92,2.88-3.46-1.22-6.3-2.77-8.64-4.97-2.99,2.3-6.8,4.1-11.59,5.29l-.29-.54c4.21-1.58,7.63-3.74,10.33-6.44-1.87-2.3-3.28-5.18-4.18-8.82h-1.91l-.32-1.04h11.81l2.02-1.87,3.2,2.95Zm-14.11-.04c1.12,2.92,2.84,5.26,5.04,7.13,1.73-2.16,3.06-4.57,3.96-7.13h-9Z"/>
      <path class="cls-1" d="M95.21,172.89s2.12,1.62,3.42,2.84c-.07,.4-.47,.58-.97,.58h-17.06l-.25-1.04h13.03l1.84-2.38Zm-3.53,6.98l1.8-2.27s2.02,1.55,3.24,2.74c-.11,.4-.47,.58-.94,.58h-13.32l-.29-1.04h9.5Zm1.8,2.38s2.02,1.55,3.24,2.74c-.11,.4-.47,.58-.94,.58h-13.32l-.29-1.04h9.5l1.8-2.27Zm.07,5.4l3.38,2.56c-.22,.29-.76,.58-1.48,.72v8.39c-.04,.25-1.55,.94-2.63,.94h-.5v-1.98h-6.34v2.16c0,.29-1.37,1.01-2.66,1.01h-.43v-13.46l3.24,1.37h5.83l1.58-1.69Zm-7.63-19.01c8.46,1.19,5.47,7.7,2.23,5.4-.18-1.84-1.4-3.96-2.56-5.22l.32-.18Zm6.41,28.62v-6.88h-6.34v6.88h6.34Zm18.43-18.11s2.2,1.76,3.46,2.99c-.11,.4-.43,.58-.94,.58h-7.13v17.89c0,.4-1.48,1.26-2.7,1.26h-.68v-19.15h-6.16l-.29-1.04h6.44v-12.99l4.68,.47c-.07,.5-.36,.9-1.3,1.04v11.48h2.66l1.94-2.52Z"/>
    </g>
    <polyline class="cls-7" points="206 9 271 9 271 125.97"/>
    <polyline class="cls-5" points="74 233.97 9 233.97 9 117"/>
    <g class="cls-3">
      <path class="cls-1" d="M330.21,153.74c0,.19-.03,.29-.1,.29-1.06,0-1.9-.02-2.54-.05l-3.46-.05-3.36,.05c-.58,.03-1.39,.05-2.45,.05-.06,0-.1-.1-.1-.29s.03-.29,.1-.29c1.41,0,2.35-.16,2.83-.48s.72-.99,.72-2.02l-.05-.82-.96-20.35-10.22,23.9c-.06,.13-.19,.19-.38,.19-.16,0-.3-.06-.43-.19l-12-23.71-.43,18.24c-.03,1.7,.3,2.99,.98,3.89,.69,.9,1.72,1.34,3.1,1.34,.1,0,.14,.1,.14,.29s-.05,.29-.14,.29c-.86,0-1.54-.02-2.02-.05l-2.64-.05-2.83,.05c-.48,.03-1.15,.05-2.02,.05-.1,0-.14-.1-.14-.29s.05-.29,.14-.29c1.31,0,2.33-.45,3.05-1.34,.72-.9,1.1-2.19,1.13-3.89l.43-20.64c-.58-1.02-1.21-1.78-1.9-2.26-.69-.48-1.48-.72-2.38-.72-.1,0-.14-.1-.14-.29s.05-.29,.14-.29l2.06,.05c.42,.03,.96,.05,1.63,.05l2.26-.05c.26-.03,.58-.05,.96-.05,.42,0,.75,.15,1.01,.46,.26,.3,.66,.98,1.2,2.04l10.56,20.59,9.55-21.89c.19-.45,.4-.76,.62-.94,.22-.17,.5-.26,.82-.26,.22,0,.51,.02,.86,.05,.35,.03,.78,.05,1.3,.05l2.59-.05c.42-.03,1.04-.05,1.87-.05,.06,0,.1,.1,.1,.29s-.03,.29-.1,.29c-1.54,0-2.65,.28-3.34,.84-.69,.56-1,1.48-.94,2.76l1.06,21.94c.06,.99,.19,1.71,.38,2.16s.53,.75,1.01,.91c.48,.16,1.26,.24,2.35,.24,.06,0,.1,.1,.1,.29Z"/>
      <path class="cls-1" d="M341.37,152.51c-2.32-1.39-4.11-3.28-5.38-5.66-1.26-2.38-1.9-4.98-1.9-7.8,0-3.3,.83-6.12,2.5-8.47,1.66-2.35,3.8-4.12,6.41-5.3,2.61-1.18,5.27-1.78,7.99-1.78,3.04,0,5.71,.71,8.02,2.14,2.3,1.42,4.07,3.3,5.3,5.64,1.23,2.34,1.85,4.82,1.85,7.44,0,2.91-.77,5.58-2.3,8.02-1.54,2.43-3.59,4.35-6.17,5.76-2.58,1.41-5.37,2.11-8.38,2.11s-5.62-.7-7.94-2.09Zm14.74-.62c1.52-1.04,2.72-2.57,3.6-4.58,.88-2.02,1.32-4.42,1.32-7.2,0-2.94-.49-5.58-1.46-7.92-.98-2.34-2.37-4.16-4.18-5.47-1.81-1.31-3.93-1.97-6.36-1.97-3.1,0-5.51,1.11-7.22,3.34-1.71,2.22-2.57,5.3-2.57,9.24,0,3.04,.5,5.79,1.51,8.26,1.01,2.46,2.4,4.39,4.18,5.78,1.78,1.39,3.78,2.09,6.02,2.09,1.92,0,3.64-.52,5.16-1.56Z"/>
      <path class="cls-1" d="M380.8,154.07c-.48-.03-1.09-.06-1.82-.1-.74-.03-1.57-.05-2.5-.05l-3.41,.05c-.61,.03-1.46,.05-2.54,.05-.06,0-.1-.1-.1-.29s.03-.29,.1-.29c1.09,0,1.88-.08,2.38-.24,.5-.16,.84-.47,1.03-.94,.19-.46,.29-1.18,.29-2.14v-22.22c0-.96-.09-1.66-.26-2.11s-.52-.76-1.03-.94c-.51-.18-1.3-.26-2.35-.26-.06,0-.1-.1-.1-.29s.03-.29,.1-.29l2.54,.05c1.41,.06,2.53,.1,3.36,.1,1.28,0,2.58-.05,3.89-.14,1.6-.06,2.67-.1,3.22-.1,3.26,0,6.16,.64,8.69,1.92,2.53,1.28,4.49,3.02,5.88,5.23,1.39,2.21,2.09,4.69,2.09,7.44,0,3.1-.72,5.85-2.16,8.23-1.44,2.38-3.38,4.22-5.81,5.52-2.43,1.3-5.1,1.94-8.02,1.94-.99,0-2.14-.05-3.46-.14Zm8.86-2.4c1.71-1.06,3.05-2.62,4.01-4.68,.96-2.06,1.44-4.54,1.44-7.42s-.46-5.24-1.37-7.46c-.91-2.22-2.2-3.98-3.86-5.28-1.66-1.3-3.6-1.94-5.81-1.94-1.34,0-2.38,.08-3.12,.24-.74,.16-1.27,.46-1.61,.89-.34,.43-.5,1.1-.5,1.99v21.6c0,1.31,.34,2.25,1.01,2.81,.67,.56,1.98,.84,3.94,.84,2.21,0,4.17-.53,5.88-1.58Z"/>
      <path class="cls-1" d="M426.73,146.44c.1,0,.18,.02,.26,.07,.08,.05,.12,.09,.12,.12-.32,2.43-.48,4.66-.48,6.67,0,.26-.05,.44-.14,.55-.1,.11-.29,.17-.58,.17h-20.83c-.1,0-.14-.1-.14-.29s.05-.29,.14-.29c1.09,0,1.88-.08,2.38-.24,.5-.16,.83-.47,1.01-.94,.18-.46,.26-1.18,.26-2.14v-22.22c0-.96-.09-1.66-.26-2.11-.18-.45-.52-.76-1.03-.94-.51-.18-1.3-.26-2.35-.26-.1,0-.14-.1-.14-.29s.05-.29,.14-.29h19.97c.32,0,.48,.14,.48,.43l.1,6.24c0,.06-.09,.11-.26,.14-.18,.03-.28,0-.31-.1-.77-3.65-2.99-5.47-6.67-5.47h-1.92c-1.15,0-1.97,.21-2.45,.62s-.72,1.12-.72,2.11v9.79h4.61c3.52,0,5.28-1.18,5.28-3.55,0-.1,.09-.14,.26-.14s.26,.05,.26,.14l-.05,4.18,.05,2.26c.06,1.02,.1,1.86,.1,2.5,0,.06-.1,.1-.29,.1s-.29-.03-.29-.1c0-2.75-1.79-4.13-5.38-4.13h-4.56v10.9c0,1.06,.2,1.79,.6,2.21,.4,.42,1.11,.62,2.14,.62h2.35c4.29,0,7.01-2.08,8.16-6.24,0-.06,.06-.1,.19-.1Z"/>
      <path class="cls-1" d="M463.5,153.74c0,.19-.05,.29-.14,.29h-7.73c-.74,0-2.1-1.28-4.1-3.84-2-2.56-4.42-6.14-7.27-10.75-.7,.06-1.25,.1-1.63,.1-.7,0-1.54-.03-2.5-.1v10.7c0,.99,.09,1.71,.26,2.16,.18,.45,.51,.75,1.01,.91,.5,.16,1.29,.24,2.38,.24,.06,0,.1,.1,.1,.29s-.03,.29-.1,.29c-1.06,0-1.87-.02-2.45-.05l-3.55-.05-3.46,.05c-.61,.03-1.44,.05-2.5,.05-.1,0-.14-.1-.14-.29s.05-.29,.14-.29c1.09,0,1.88-.08,2.38-.24,.5-.16,.84-.47,1.03-.94,.19-.46,.29-1.18,.29-2.14v-22.22c0-.96-.09-1.66-.26-2.11-.18-.45-.52-.76-1.03-.94-.51-.18-1.3-.26-2.35-.26-.06,0-.1-.1-.1-.29s.03-.29,.1-.29l2.5,.05c1.41,.06,2.54,.1,3.41,.1,1.06,0,2.21-.05,3.46-.14,.42-.03,.92-.06,1.51-.1,.59-.03,1.26-.05,1.99-.05,2.78,0,4.94,.54,6.46,1.63,1.52,1.09,2.28,2.61,2.28,4.56,0,1.76-.49,3.34-1.46,4.75-.98,1.41-2.28,2.53-3.91,3.36,2.62,3.87,4.82,6.9,6.58,9.07,1.76,2.18,3.32,3.75,4.68,4.73,1.36,.98,2.7,1.46,4.01,1.46,.1,0,.14,.1,.14,.29Zm-20.59-15.41c2.08,0,3.57-.52,4.46-1.56,.9-1.04,1.34-2.71,1.34-5.02,0-2.59-.44-4.4-1.32-5.42-.88-1.02-2.15-1.54-3.82-1.54-1.25,0-2.14,.23-2.66,.7-.53,.46-.79,1.3-.79,2.52v10.13c.77,.13,1.7,.19,2.78,.19Z"/>
      <path class="cls-1" d="M497.92,124.31c0,.19-.03,.29-.1,.29-1.28,0-2.27,.46-2.98,1.37-.7,.91-1.06,2.22-1.06,3.91v24.82c0,.1-.08,.16-.24,.19-.16,.03-.27,.02-.34-.05l-22.51-26.16v19.54c0,1.7,.34,2.99,1.01,3.89,.67,.9,1.65,1.34,2.93,1.34,.06,0,.1,.1,.1,.29s-.03,.29-.1,.29c-.86,0-1.52-.02-1.97-.05l-2.54-.05-2.83,.05c-.51,.03-1.25,.05-2.21,.05-.1,0-.14-.1-.14-.29s.05-.29,.14-.29c1.38,0,2.44-.45,3.19-1.34,.75-.9,1.13-2.19,1.13-3.89v-21.02c-.9-.96-1.7-1.63-2.42-2.02-.72-.38-1.46-.58-2.23-.58-.06,0-.1-.1-.1-.29s.03-.29,.1-.29l1.92,.05c.42,.03,1.01,.05,1.78,.05l3.07-.05c.38-.03,.85-.05,1.39-.05,.26,0,.45,.06,.58,.19,.13,.13,.32,.38,.58,.77l1.15,1.54,17.28,20.35v-16.99c0-1.7-.34-3-1.01-3.91s-1.63-1.37-2.88-1.37c-.06,0-.1-.1-.1-.29s.03-.29,.1-.29l1.97,.05c1.02,.06,1.87,.1,2.54,.1s1.5-.03,2.59-.1l2.11-.05c.06,0,.1,.1,.1,.29Z"/>
    </g>
    <line class="cls-6" x1="131" y1="94" x2="221" y2="148"/>
  </g>
</svg>