<svg width="148" height="183" viewBox="0 0 148 183" fill="none" xmlns="http://www.w3.org/2000/svg">
<path d="M29.4244 134.483C29.3537 134.483 29.3184 134.526 29.3184 134.612V134.878C29.3184 134.964 29.3396 135.029 29.3961 135.065C30.378 135.732 31.3387 136.408 32.2641 137.075C32.469 137.233 32.5891 137.442 32.6244 137.693C32.6597 137.952 32.5961 138.174 32.4407 138.368L32.1299 138.792C31.9745 138.986 31.7767 139.086 31.5294 139.094C31.2893 139.101 31.0773 139.015 30.9078 138.842C30.5829 138.526 30.0742 138.045 29.382 137.413C29.3678 137.399 29.3466 137.391 29.3325 137.399C29.3113 137.406 29.3043 137.42 29.3043 137.435L29.2901 142.103C29.2901 142.369 29.1983 142.591 29.0146 142.771C28.831 142.957 28.612 143.044 28.3506 143.044H27.8844C27.623 143.044 27.4111 142.95 27.2345 142.764C27.0579 142.577 26.9802 142.354 26.9802 142.088L26.9943 136.846C26.9943 136.846 26.9872 136.817 26.966 136.81C26.9449 136.803 26.9307 136.81 26.9166 136.824C25.8923 138.648 24.755 140.077 23.5047 141.112C23.328 141.248 23.1303 141.284 22.9042 141.212C22.6782 141.14 22.5157 140.997 22.4097 140.789C22.3249 140.595 22.2261 140.393 22.1272 140.178C22.0424 140.02 22 139.855 22 139.675C22 139.603 22.0071 139.524 22.0283 139.438C22.0989 139.173 22.2402 138.964 22.445 138.806C23.8155 137.7 24.981 136.293 25.9559 134.576C26.0124 134.504 25.9912 134.468 25.9064 134.468H23.2362C22.9748 134.461 22.7559 134.368 22.5793 134.181C22.3956 133.994 22.3108 133.779 22.3108 133.535V133.19C22.3108 132.924 22.4027 132.702 22.5863 132.522C22.77 132.335 22.989 132.242 23.2503 132.249L26.8813 132.264C26.9661 132.264 27.0084 132.228 27.0084 132.156V130.152C27.0155 129.886 27.1003 129.671 27.2769 129.491C27.4464 129.319 27.6654 129.233 27.9268 129.233H28.393C28.6544 129.233 28.8734 129.326 29.05 129.499C29.2336 129.678 29.3184 129.894 29.3184 130.159V132.163C29.3184 132.235 29.3466 132.271 29.4173 132.271H32.0593C32.3206 132.278 32.5396 132.371 32.7162 132.558C32.8999 132.745 32.9847 132.967 32.9847 133.233V133.578C32.9847 133.822 32.8928 134.038 32.7092 134.224C32.5255 134.411 32.3065 134.504 32.0451 134.497H29.4032L29.4244 134.483ZM33.7405 130.088C33.5003 130.088 33.2884 130.001 33.1047 129.822C32.9281 129.642 32.8363 129.427 32.8363 129.161L32.8504 124.155C32.8504 124.155 32.8434 124.127 32.8222 124.127H32.7727C31.7484 125.283 30.5758 126.331 29.2478 127.279C27.9268 128.227 26.5351 129.003 25.0799 129.614C24.8327 129.7 24.5855 129.707 24.3241 129.628C24.0627 129.549 23.8579 129.391 23.7024 129.161C23.5612 129.003 23.434 128.845 23.3139 128.687C23.1726 128.529 23.1303 128.342 23.1868 128.134C23.2362 127.926 23.3634 127.782 23.547 127.717C26.302 126.705 28.612 125.283 30.484 123.444C30.4981 123.43 30.5052 123.408 30.4981 123.38C30.491 123.351 30.4769 123.337 30.4628 123.337L24.7055 123.315C24.4442 123.315 24.2322 123.229 24.0556 123.049C23.879 122.87 23.8013 122.654 23.8013 122.389V122.044C23.8013 121.778 23.8932 121.555 24.0627 121.369C24.2393 121.182 24.4512 121.096 24.7126 121.096L32.7233 121.125C32.808 121.125 32.8504 121.089 32.8504 121.017V119.157C32.8575 118.913 32.9493 118.697 33.133 118.51C33.3167 118.331 33.5286 118.237 33.7688 118.237H34.4187C34.6588 118.237 34.8708 118.331 35.0544 118.518C35.2381 118.704 35.3299 118.92 35.3229 119.164V121.038C35.3229 121.11 35.3582 121.146 35.4429 121.146L43.8139 121.175C44.0753 121.175 44.2942 121.268 44.4779 121.455C44.6616 121.642 44.7463 121.864 44.7463 122.13V122.475C44.7463 122.74 44.6545 122.956 44.4708 123.135C44.2872 123.315 44.0682 123.401 43.8068 123.394L37.6893 123.372C37.654 123.372 37.6399 123.401 37.6399 123.451C39.639 125.268 42.0691 126.647 44.9371 127.588C45.1419 127.66 45.2762 127.796 45.3256 127.998C45.3751 128.199 45.3327 128.378 45.1914 128.536C45.0572 128.709 44.9018 128.91 44.7463 129.14C44.5909 129.369 44.3861 129.52 44.1247 129.599C43.8633 129.678 43.6161 129.671 43.3759 129.585C41.8571 128.967 40.4019 128.177 39.0103 127.222C37.6187 126.267 36.4107 125.218 35.3794 124.076C35.3652 124.062 35.3441 124.055 35.3299 124.062C35.3158 124.069 35.3017 124.083 35.3017 124.098L35.2875 129.183C35.2875 129.448 35.1957 129.664 35.012 129.843C34.8284 130.016 34.6165 130.102 34.3763 130.102H33.7264L33.7405 130.088ZM46.1238 133.607C46.1238 133.851 46.032 134.066 45.8483 134.253C45.6647 134.44 45.4457 134.526 45.1843 134.526H41.9984C41.9278 134.512 41.9136 134.547 41.949 134.619C43.1357 136.558 44.5062 138.146 46.0532 139.381C46.2439 139.539 46.3358 139.747 46.3358 140.013C46.3358 140.221 46.2651 140.408 46.1238 140.566C45.9331 140.76 45.7494 140.961 45.5799 141.169C45.4245 141.363 45.2267 141.471 44.9795 141.5C44.7393 141.528 44.5274 141.449 44.3578 141.277C43.0298 139.934 41.8289 138.246 40.741 136.206C40.741 136.192 40.7339 136.178 40.7128 136.178C40.6916 136.178 40.6845 136.185 40.6845 136.206L40.6633 142.139C40.6633 142.404 40.5715 142.627 40.3878 142.807C40.2041 142.993 39.9852 143.08 39.7238 143.08H39.2293C38.9891 143.08 38.7772 142.986 38.5935 142.799C38.4099 142.613 38.3251 142.39 38.3251 142.124L38.3463 136.329C38.3463 136.329 38.3392 136.3 38.318 136.3C38.2968 136.3 38.2898 136.307 38.2898 136.329C37.0889 138.483 35.7114 140.178 34.1502 141.406C33.9454 141.564 33.7193 141.622 33.4791 141.579C33.239 141.535 33.027 141.406 32.8575 141.191C32.7515 141.047 32.6385 140.911 32.5184 140.767C32.3842 140.623 32.3136 140.458 32.3136 140.264C32.3136 139.984 32.4266 139.761 32.6526 139.603C34.348 138.411 35.7891 136.752 36.9688 134.612C37.0182 134.54 37.0041 134.504 36.9193 134.504H34.8708C34.6306 134.504 34.4187 134.404 34.235 134.217C34.0513 134.03 33.9666 133.815 33.9666 133.571V133.226C33.9666 132.96 34.0584 132.738 34.2421 132.558C34.4257 132.371 34.6376 132.285 34.8778 132.285L38.2191 132.3C38.3039 132.3 38.3463 132.264 38.3463 132.192V130.188C38.3534 129.922 38.4452 129.707 38.6289 129.527C38.8125 129.355 39.0244 129.262 39.2646 129.269H39.7591C40.0205 129.269 40.2395 129.362 40.4161 129.535C40.5997 129.714 40.6845 129.93 40.6845 130.195V132.199C40.6845 132.271 40.7128 132.307 40.7834 132.307L45.1631 132.321C45.4245 132.321 45.6435 132.414 45.8201 132.601C46.0038 132.788 46.0885 133.011 46.0885 133.276V133.621L46.1238 133.607Z" fill="#3C3C3C"/>
<path d="M63.5079 139.733C63.5079 139.819 63.5432 139.862 63.6138 139.862L72.013 139.891C72.2532 139.891 72.4651 139.984 72.6488 140.171C72.8324 140.358 72.9172 140.573 72.9172 140.817V141.341C72.9172 141.586 72.8254 141.801 72.6417 141.988C72.458 142.175 72.2461 142.261 72.0059 142.261L60.103 142.225C59.8416 142.225 59.6297 142.131 59.4601 141.945C59.2835 141.758 59.2058 141.543 59.2058 141.298V140.401C59.2058 140.314 59.1634 140.279 59.0787 140.293C58.0544 140.516 56.5285 140.853 54.487 141.291C52.4455 141.729 50.9762 142.06 50.079 142.268C50.0084 142.282 49.9378 142.297 49.8742 142.297C49.6976 142.297 49.5351 142.246 49.3797 142.139C49.1748 141.995 49.0406 141.801 48.9912 141.557L48.864 141.054C48.8146 140.81 48.8569 140.573 48.9982 140.358C49.1395 140.135 49.3302 140.013 49.5704 139.977C51.0892 139.704 52.3183 139.467 53.2508 139.273C53.3214 139.259 53.3568 139.208 53.3568 139.144L53.378 131.897C53.378 131.825 53.3426 131.79 53.272 131.79H49.9519C49.6905 131.775 49.4715 131.682 49.2949 131.502C49.1113 131.316 49.0265 131.093 49.0265 130.827V130.482C49.0265 130.238 49.1183 130.023 49.302 129.836C49.4857 129.649 49.7046 129.563 49.966 129.563H53.2861C53.3568 129.578 53.3921 129.527 53.3921 129.441V127.229C53.3921 127.157 53.3638 127.121 53.2932 127.121H51.4C51.1598 127.121 50.962 127.028 50.8066 126.863C50.6512 126.698 50.5735 126.497 50.5735 126.267C50.5735 126.252 50.5594 126.238 50.5382 126.231C50.5099 126.224 50.5029 126.231 50.5029 126.245C50.4534 126.295 50.3969 126.353 50.3475 126.403C50.1709 126.561 49.9589 126.633 49.7117 126.611C49.4645 126.59 49.2596 126.489 49.1042 126.295C48.9982 126.188 48.8993 126.087 48.7934 125.979C48.6238 125.807 48.5391 125.599 48.5391 125.369C48.5391 125.125 48.6309 124.924 48.8004 124.766C50.4464 123.222 51.8309 121.369 52.94 119.193C53.2155 118.632 53.6605 118.352 54.261 118.352H54.5718C55.1934 118.352 55.7303 118.568 56.1753 118.991C57.6023 120.363 58.789 121.678 59.7144 122.927C59.8699 123.135 59.9405 123.38 59.9193 123.653C59.8981 123.925 59.7992 124.155 59.6085 124.349L58.7467 125.218C58.6972 125.268 58.669 125.34 58.669 125.426V126.188C58.669 126.453 58.5771 126.676 58.3935 126.863C58.2098 127.05 57.9979 127.136 57.7577 127.136H55.7374C55.6526 127.136 55.6102 127.164 55.6102 127.236V129.448C55.6031 129.534 55.6455 129.578 55.7303 129.578H58.6336C58.895 129.585 59.114 129.678 59.2906 129.865C59.4743 130.052 59.559 130.267 59.559 130.511V130.856C59.559 131.122 59.4672 131.344 59.2835 131.524C59.0999 131.711 58.8809 131.797 58.6195 131.797H55.7162C55.6314 131.79 55.589 131.825 55.589 131.89L55.5678 138.691C55.5678 138.763 55.6102 138.785 55.695 138.77C56.5568 138.598 57.5528 138.39 58.676 138.146C58.9162 138.095 59.1352 138.146 59.34 138.296C59.5378 138.447 59.6438 138.648 59.665 138.892L59.7639 139.711C59.7639 139.797 59.8063 139.84 59.891 139.84H60.9295C61.0001 139.84 61.0354 139.797 61.0354 139.711L61.0919 122.209C61.0919 122.123 61.0566 122.08 60.986 122.08H60.5692C60.329 122.08 60.1171 121.986 59.9334 121.8C59.7498 121.613 59.665 121.397 59.665 121.153V120.65C59.665 120.385 59.7568 120.162 59.9405 119.983C60.1242 119.796 60.3361 119.702 60.5763 119.71L71.6739 119.746C71.9353 119.746 72.1543 119.839 72.338 120.026C72.5146 120.212 72.6064 120.435 72.6064 120.701V121.203C72.6064 121.448 72.5146 121.663 72.3309 121.85C72.1472 122.037 71.9282 122.123 71.6669 122.123L63.6774 122.094C63.6068 122.094 63.5714 122.137 63.5714 122.223L63.5573 125.728C63.5573 125.814 63.5926 125.857 63.6633 125.857L70.5861 125.879C70.8474 125.879 71.0664 125.965 71.243 126.145C71.4267 126.324 71.5115 126.54 71.5115 126.805L71.4903 134.82C71.4903 135.086 71.3984 135.302 71.2148 135.481C71.0311 135.653 70.8121 135.74 70.5507 135.74L63.6279 135.718C63.5573 135.718 63.522 135.761 63.522 135.847L63.5079 139.726V139.733ZM49.8106 134.339C49.7965 134.253 49.7823 134.174 49.7823 134.102C49.7823 133.944 49.8177 133.793 49.8883 133.657C50.0084 133.449 50.1921 133.312 50.4322 133.262C50.6724 133.212 50.8985 133.24 51.1175 133.355C51.3294 133.47 51.4777 133.65 51.5413 133.894C51.8521 134.878 52.0782 135.855 52.2336 136.824C52.283 137.09 52.2336 137.334 52.0923 137.564C51.9439 137.794 51.7391 137.937 51.4777 138.009H51.4495C51.3788 138.023 51.3082 138.038 51.2375 138.038C51.0821 138.038 50.9338 137.995 50.7996 137.901C50.6088 137.758 50.4888 137.564 50.4393 137.32C50.3051 136.494 50.0932 135.503 49.8035 134.339H49.8106ZM51.7603 124.881C51.7603 124.881 51.7391 124.917 51.7462 124.945C51.7532 124.974 51.7674 124.981 51.7815 124.981L58.0261 125.003C58.1109 125.003 58.1321 124.967 58.0756 124.902C57.129 123.459 56.027 122.094 54.7696 120.808C54.7201 120.758 54.6636 120.765 54.6142 120.837C53.7594 122.295 52.8058 123.645 51.7462 124.888L51.7603 124.881ZM58.2804 136.925C58.1886 137.154 58.0332 137.327 57.8142 137.449C57.6729 137.521 57.5246 137.549 57.3762 137.549C57.2915 137.549 57.1996 137.535 57.1149 137.499C56.8888 137.449 56.7193 137.312 56.5992 137.104C56.5285 136.982 56.4932 136.853 56.4932 136.709C56.4932 136.623 56.5144 136.537 56.5427 136.443C56.8606 135.46 57.1078 134.562 57.3056 133.757C57.355 133.492 57.4893 133.298 57.6941 133.176C57.8495 133.089 58.0049 133.046 58.1603 133.046C58.231 133.046 58.3016 133.054 58.3652 133.075L58.6266 133.133C58.8526 133.204 59.0222 133.341 59.1423 133.556C59.2129 133.7 59.2482 133.836 59.2482 133.98C59.2482 134.066 59.2341 134.167 59.1988 134.267C58.6902 135.74 58.3864 136.63 58.2804 136.925ZM69.1167 128.314C69.1167 128.242 69.0744 128.206 68.9896 128.206L63.6491 128.191C63.5785 128.191 63.5432 128.227 63.5432 128.299L63.529 133.334C63.529 133.405 63.5644 133.441 63.635 133.441L68.9755 133.456C69.0602 133.456 69.1026 133.42 69.1026 133.348L69.1167 128.314Z" fill="#3C3C3C"/>
<path d="M81.3037 127.638C81.5439 127.588 81.777 127.588 82.0031 127.638L82.3916 127.746C82.5965 127.782 82.766 127.89 82.8931 128.077C83.0203 128.263 83.0697 128.457 83.0344 128.673C82.6812 132.084 82.0243 134.942 81.0636 137.262C81.0282 137.334 81.0494 137.391 81.113 137.449C82.2856 138.469 83.6843 139.173 85.302 139.56C86.9267 139.948 88.8835 140.149 91.1864 140.171C94.7255 140.185 97.2332 140.185 98.7026 140.171C98.8933 140.171 99.0416 140.257 99.1405 140.437C99.2112 140.523 99.2465 140.623 99.2465 140.724C99.2465 140.81 99.2253 140.896 99.19 140.99C99.084 141.198 98.9922 141.428 98.9004 141.672C98.8156 141.938 98.6602 142.153 98.4412 142.318C98.2222 142.483 97.9891 142.57 97.7277 142.57L91.1157 142.548C88.608 142.541 86.4676 142.325 84.6874 141.894C82.9073 141.464 81.3673 140.709 80.0534 139.611C79.9827 139.56 79.9333 139.56 79.898 139.611C79.1845 140.853 78.3721 141.88 77.4538 142.684C77.2772 142.821 77.0794 142.893 76.8534 142.893H76.7756C76.5143 142.871 76.2953 142.771 76.1046 142.577C75.928 142.419 75.7584 142.261 75.5889 142.103C75.4123 141.945 75.3346 141.751 75.3346 141.521C75.3346 141.291 75.4193 141.112 75.5959 140.968C76.6344 140.113 77.5103 139.043 78.2238 137.758C78.2591 137.686 78.252 137.614 78.2026 137.549C77.3549 136.372 76.6556 134.95 76.0904 133.298C76.0057 133.054 76.0198 132.809 76.1328 132.572C76.2458 132.335 76.4224 132.17 76.6626 132.084L76.8675 132.034C77.1077 131.948 77.3408 131.962 77.5668 132.077C77.7929 132.192 77.9483 132.364 78.0331 132.594C78.3721 133.578 78.7748 134.461 79.241 135.237C79.2551 135.258 79.2763 135.266 79.3046 135.266C79.3328 135.266 79.347 135.258 79.347 135.237C79.905 133.657 80.3077 131.89 80.5549 129.944C80.5691 129.872 80.5408 129.836 80.449 129.836H78.139C78.0684 129.829 78.0189 129.865 77.9836 129.937C77.8635 130.181 77.6799 130.36 77.4397 130.475C77.1995 130.59 76.9452 130.605 76.6838 130.511L76.2176 130.403C75.9915 130.332 75.8361 130.188 75.7372 129.965C75.6454 129.743 75.6454 129.527 75.7514 129.319C76.7403 127.351 77.8423 125.031 79.0432 122.345C79.0785 122.274 79.0503 122.238 78.9655 122.238H76.0904C75.8291 122.23 75.6101 122.137 75.4335 121.95C75.2498 121.764 75.165 121.548 75.165 121.304V120.988C75.165 120.722 75.2569 120.5 75.4405 120.313C75.6242 120.126 75.8432 120.04 76.1046 120.04L80.2017 120.054H80.2794C80.3995 120.018 80.5125 120.004 80.6185 120.004C80.7386 120.004 80.8516 120.026 80.9576 120.062L81.4733 120.198C81.6993 120.248 81.8618 120.385 81.9678 120.607C82.0737 120.83 82.0808 121.045 81.9889 121.254C81.3108 122.87 80.3713 124.967 79.1704 127.545C79.1351 127.617 79.1492 127.653 79.2198 127.653H81.219C81.219 127.653 81.2825 127.653 81.2967 127.653L81.3037 127.638ZM89.265 127.509C89.3497 127.509 89.3921 127.466 89.3921 127.38V126.008C89.3921 125.922 89.3568 125.879 89.265 125.879L83.3311 125.857C83.0697 125.857 82.8578 125.771 82.6812 125.592C82.5117 125.412 82.4269 125.197 82.4269 124.931V124.823C82.4269 124.579 82.5187 124.363 82.6883 124.177C82.8649 123.99 83.0768 123.904 83.3382 123.904L89.272 123.925C89.3568 123.925 89.4062 123.882 89.4062 123.796V122.503C89.4062 122.417 89.3709 122.374 89.2791 122.374L85.1819 122.36C84.9205 122.36 84.7016 122.266 84.5179 122.094C84.3342 121.914 84.2494 121.699 84.2494 121.433V121.326C84.2494 121.06 84.3413 120.844 84.5249 120.665C84.7086 120.492 84.9276 120.399 85.189 120.406L89.2861 120.421C89.3709 120.421 89.4133 120.378 89.4133 120.291V119.631C89.4133 119.365 89.5051 119.142 89.6888 118.963C89.8725 118.776 90.0844 118.69 90.3246 118.69H90.9179C91.1581 118.69 91.37 118.783 91.5537 118.97C91.7374 119.157 91.8221 119.379 91.8221 119.645V120.306C91.8221 120.392 91.8645 120.435 91.9493 120.435L96.5621 120.449C96.8023 120.449 97.0142 120.543 97.1979 120.715C97.3745 120.895 97.4663 121.11 97.4663 121.376V123.825C97.4593 123.911 97.5017 123.954 97.5864 123.961H98.5189C98.7803 123.961 98.9993 124.055 99.1829 124.241C99.3666 124.428 99.4514 124.644 99.4514 124.888V124.996C99.4514 125.261 99.3595 125.477 99.1759 125.656C98.9922 125.829 98.7732 125.915 98.5118 125.915H97.5794C97.4946 125.915 97.4522 125.958 97.4522 126.044V128.572C97.4452 128.838 97.3533 129.06 97.1697 129.24C96.986 129.427 96.7741 129.513 96.5339 129.513L91.921 129.499C91.8363 129.499 91.7939 129.534 91.7939 129.606V131C91.7939 131.071 91.8292 131.107 91.921 131.107L96.767 131.122C97.0284 131.122 97.2403 131.215 97.4169 131.402C97.5864 131.588 97.6712 131.811 97.6712 132.077C97.6712 132.343 97.5794 132.565 97.4098 132.745C97.2332 132.931 97.0213 133.018 96.7599 133.018L91.914 133.003C91.8292 133.003 91.7868 133.039 91.7868 133.111V134.612C91.7868 134.684 91.8221 134.72 91.9069 134.72L97.9255 134.741C98.1869 134.741 98.3988 134.835 98.5754 135.021C98.7449 135.208 98.8368 135.431 98.8297 135.696V135.854C98.8297 136.099 98.7379 136.314 98.5683 136.501C98.3917 136.688 98.1798 136.774 97.9185 136.774L91.8999 136.752C91.8151 136.752 91.7727 136.795 91.7727 136.882V138.361C91.7727 138.627 91.6738 138.842 91.4972 139.022C91.3135 139.194 91.1016 139.28 90.8614 139.28H90.2681C90.0279 139.28 89.8159 139.187 89.6323 139.015C89.4486 138.835 89.3638 138.62 89.3638 138.354V136.874C89.3638 136.788 89.3285 136.745 89.2367 136.745L83.6419 136.723C83.4018 136.723 83.1898 136.63 83.0062 136.443C82.8225 136.257 82.7377 136.041 82.7377 135.797V135.639C82.7377 135.373 82.8296 135.151 83.0132 134.964C83.1969 134.777 83.4088 134.691 83.649 134.691L89.2437 134.713C89.3285 134.713 89.3709 134.677 89.3709 134.605V133.104C89.3709 133.032 89.3356 132.996 89.2437 132.996L84.8146 132.982C84.5744 132.982 84.3625 132.888 84.1788 132.702C83.9951 132.515 83.9104 132.292 83.9104 132.027C83.9104 131.761 84.0022 131.538 84.1859 131.351C84.3695 131.165 84.5815 131.079 84.8216 131.079L89.2508 131.093C89.3356 131.093 89.378 131.057 89.378 130.985V129.592C89.378 129.52 89.3427 129.484 89.2508 129.484L84.9982 129.47C84.7369 129.47 84.5179 129.376 84.3413 129.19C84.1576 129.003 84.0658 128.78 84.0658 128.515V128.407C84.0658 128.163 84.1576 127.947 84.3413 127.761C84.525 127.574 84.7439 127.488 85.0053 127.488L89.2579 127.502L89.265 127.509ZM94.9445 127.531C95.0151 127.531 95.0504 127.488 95.0504 127.401V126.03C95.0504 125.944 95.0222 125.9 94.9515 125.9H91.9422C91.8575 125.893 91.8151 125.936 91.8151 126.023V127.394C91.8151 127.48 91.8504 127.524 91.9422 127.524H94.9515L94.9445 127.531ZM91.9493 122.388C91.8645 122.388 91.8221 122.432 91.8221 122.518V123.81C91.8221 123.897 91.8575 123.94 91.9422 123.947H94.9515C95.0222 123.954 95.0575 123.911 95.0575 123.825V122.532C95.0575 122.446 95.0292 122.403 94.9586 122.403H91.9493V122.388Z" fill="#3C3C3C"/>
<path d="M110.872 122.992C111.112 122.992 111.324 123.085 111.507 123.272C111.691 123.459 111.776 123.674 111.776 123.918V124.048C111.776 124.313 111.684 124.536 111.5 124.723C111.317 124.909 111.105 124.996 110.864 124.996L102.543 124.967C102.303 124.967 102.091 124.873 101.907 124.687C101.724 124.5 101.632 124.277 101.632 124.012V123.882C101.632 123.638 101.724 123.423 101.907 123.236C102.091 123.049 102.303 122.963 102.543 122.963L110.864 122.992H110.872ZM109.875 133.901C110.116 133.901 110.328 133.987 110.511 134.167C110.695 134.346 110.78 134.562 110.78 134.828L110.759 140.889C110.759 141.155 110.667 141.377 110.483 141.557C110.299 141.744 110.087 141.83 109.847 141.83L105.001 141.816C104.931 141.816 104.895 141.851 104.895 141.923V142.002C104.895 142.268 104.803 142.491 104.62 142.677C104.436 142.864 104.217 142.95 103.956 142.95H103.694C103.433 142.95 103.214 142.857 103.037 142.67C102.854 142.483 102.769 142.261 102.769 141.995L102.79 134.799C102.79 134.533 102.882 134.318 103.066 134.138C103.249 133.966 103.468 133.88 103.73 133.88L109.875 133.901ZM103.786 132.192C103.525 132.192 103.306 132.098 103.122 131.912C102.939 131.725 102.854 131.51 102.854 131.265V131.158C102.854 130.892 102.946 130.669 103.129 130.49C103.313 130.303 103.532 130.217 103.793 130.217L109.911 130.238C110.151 130.238 110.363 130.332 110.547 130.518C110.73 130.705 110.815 130.928 110.815 131.194V131.301C110.815 131.545 110.723 131.761 110.54 131.948C110.356 132.134 110.144 132.221 109.904 132.221L103.786 132.199V132.192ZM109.918 126.647C110.158 126.647 110.37 126.741 110.554 126.928C110.737 127.114 110.822 127.337 110.822 127.603V128.077C110.822 128.148 110.85 128.163 110.921 128.127C111.981 127.394 112.694 126.561 113.068 125.628C113.443 124.701 113.634 123.674 113.634 122.547V120.284C113.641 120.019 113.732 119.803 113.916 119.624C114.1 119.451 114.312 119.365 114.552 119.365L121.242 119.387C121.503 119.387 121.722 119.473 121.899 119.652C122.082 119.832 122.167 120.047 122.167 120.313L122.153 125.714C122.153 126.03 122.174 126.231 122.216 126.324C122.259 126.41 122.379 126.453 122.57 126.453H123.608C123.785 126.453 123.905 126.339 123.99 126.102C124.067 125.865 124.117 125.347 124.138 124.557C124.159 124.364 124.251 124.22 124.428 124.127C124.604 124.033 124.781 124.026 124.971 124.112C125.077 124.162 125.19 124.22 125.311 124.27C125.572 124.356 125.777 124.514 125.932 124.744C126.066 124.938 126.137 125.139 126.137 125.355C126.137 126.482 125.904 127.337 125.452 127.933C125.106 128.371 124.576 128.587 123.869 128.587H122.181C121.249 128.579 120.613 128.378 120.274 127.983C119.942 127.588 119.772 126.834 119.772 125.728L119.786 121.721C119.786 121.649 119.751 121.613 119.688 121.613L116.085 121.599C116.014 121.599 115.979 121.634 115.979 121.706V122.575C115.965 125.527 115.089 127.768 113.337 129.29C113.132 129.448 112.899 129.513 112.652 129.484C112.404 129.456 112.171 129.348 111.966 129.154C111.536 128.752 111.175 128.45 110.879 128.256C110.843 128.242 110.829 128.249 110.829 128.285C110.829 128.371 110.801 128.45 110.737 128.508C110.674 128.572 110.603 128.601 110.518 128.601L103.8 128.579C103.539 128.579 103.32 128.486 103.143 128.299C102.96 128.113 102.875 127.89 102.875 127.624V127.574C102.875 127.308 102.967 127.086 103.15 126.906C103.334 126.719 103.553 126.633 103.815 126.633L109.932 126.655L109.918 126.647ZM109.861 119.422C110.102 119.422 110.313 119.509 110.497 119.688C110.681 119.868 110.766 120.083 110.766 120.349V120.457C110.766 120.722 110.674 120.938 110.49 121.117C110.306 121.29 110.094 121.376 109.854 121.376L103.92 121.354C103.659 121.354 103.44 121.261 103.264 121.089C103.08 120.909 102.995 120.694 102.995 120.428V120.32C102.995 120.054 103.087 119.839 103.271 119.659C103.454 119.487 103.673 119.394 103.935 119.401L109.875 119.422H109.861ZM108.618 136.027C108.618 135.941 108.583 135.898 108.519 135.898L105.015 135.883C104.945 135.883 104.909 135.926 104.909 136.013L104.895 139.654C104.895 139.74 104.931 139.783 105.001 139.783L108.505 139.797C108.576 139.797 108.611 139.754 108.611 139.668L108.625 136.027H108.618ZM122.718 130.088C122.803 130.073 122.895 130.059 122.979 130.059C123.156 130.059 123.326 130.095 123.502 130.167L123.919 130.325C124.145 130.411 124.314 130.569 124.428 130.784C124.541 131.007 124.562 131.229 124.491 131.459C123.615 134.217 122.28 136.53 120.479 138.404C120.429 138.476 120.436 138.526 120.507 138.562C121.941 139.568 123.544 140.35 125.325 140.896C125.515 140.968 125.643 141.097 125.713 141.291C125.727 141.363 125.741 141.421 125.734 141.478C125.734 141.622 125.685 141.744 125.579 141.844C125.424 142.053 125.254 142.282 125.084 142.527C124.929 142.756 124.731 142.914 124.484 143.001C124.343 143.051 124.216 143.08 124.095 143.08C123.975 143.08 123.855 143.058 123.735 143.029C121.8 142.34 120.104 141.399 118.635 140.221C118.564 140.171 118.508 140.171 118.451 140.221C116.876 141.392 115.061 142.318 112.998 143.001C112.892 143.036 112.793 143.051 112.687 143.051C112.546 143.051 112.412 143.022 112.27 142.972C112.03 142.864 111.846 142.692 111.726 142.44C111.606 142.232 111.486 142.017 111.366 141.808C111.281 141.701 111.239 141.586 111.239 141.464C111.239 141.377 111.26 141.298 111.295 141.227C111.366 141.018 111.507 140.882 111.712 140.832C113.492 140.293 115.131 139.517 116.622 138.505C116.692 138.469 116.699 138.418 116.65 138.347C115.442 137.025 114.453 135.553 113.683 133.937C113.563 133.707 113.556 133.477 113.662 133.255C113.768 133.025 113.93 132.874 114.156 132.809L114.623 132.68C114.863 132.594 115.11 132.608 115.35 132.723C115.59 132.838 115.774 133.011 115.894 133.24C116.565 134.576 117.413 135.776 118.451 136.831C118.501 136.882 118.557 136.882 118.607 136.831C119.871 135.589 120.853 134.138 121.545 132.493C121.581 132.422 121.559 132.386 121.496 132.386L113.019 132.357C112.758 132.357 112.539 132.264 112.362 132.077C112.178 131.89 112.094 131.675 112.094 131.431V131.007C112.094 130.741 112.185 130.518 112.369 130.332C112.553 130.145 112.772 130.059 113.026 130.059L122.647 130.088C122.647 130.088 122.718 130.088 122.753 130.088H122.718Z" fill="#3C3C3C"/>
<path d="M39.7451 152.874C39.7451 153.089 39.7027 153.283 39.625 153.47C39.5473 153.657 39.4272 153.815 39.2789 153.951C39.1305 154.088 38.9398 154.195 38.7208 154.267C38.5018 154.346 38.2546 154.382 37.972 154.382C37.6047 154.382 37.2656 154.31 36.9618 154.167C36.651 154.023 36.3897 153.843 36.1777 153.628L36.5733 153.175C36.7782 153.369 36.9972 153.527 37.2303 153.649C37.4634 153.772 37.7177 153.829 37.9932 153.829C38.3464 153.829 38.629 153.743 38.8409 153.578C39.0458 153.412 39.1517 153.183 39.1517 152.895C39.1517 152.773 39.1305 152.658 39.0881 152.551C39.0458 152.45 38.9751 152.349 38.8762 152.263C38.7773 152.177 38.6431 152.091 38.4806 152.005C38.3182 151.919 38.1133 151.832 37.866 151.746C37.5764 151.638 37.3292 151.538 37.1314 151.43C36.9336 151.322 36.7782 151.208 36.6581 151.085C36.538 150.963 36.4532 150.827 36.3967 150.676C36.3473 150.525 36.319 150.353 36.319 150.152C36.319 149.936 36.3614 149.742 36.4391 149.57C36.5239 149.398 36.6369 149.254 36.7782 149.132C36.9265 149.01 37.1031 148.917 37.308 148.859C37.5128 148.794 37.746 148.766 37.9932 148.766C38.3535 148.766 38.6572 148.816 38.9115 148.924C39.1658 149.031 39.406 149.168 39.625 149.355L39.2435 149.829C39.0458 149.663 38.855 149.534 38.6572 149.455C38.4594 149.369 38.2263 149.326 37.9579 149.326C37.7742 149.326 37.6188 149.347 37.4846 149.391C37.3504 149.434 37.2444 149.491 37.1596 149.563C37.0749 149.635 37.0184 149.721 36.976 149.814C36.9407 149.908 36.9195 150.015 36.9195 150.123C36.9195 150.238 36.9336 150.339 36.9618 150.432C36.9901 150.525 37.0537 150.611 37.1455 150.698C37.2373 150.784 37.3645 150.87 37.534 150.949C37.6965 151.035 37.9155 151.121 38.191 151.222C38.4877 151.33 38.7349 151.437 38.9327 151.545C39.1305 151.653 39.293 151.775 39.4131 151.904C39.5332 152.033 39.6179 152.177 39.6674 152.335C39.7168 152.493 39.7451 152.673 39.7451 152.874Z" fill="#3C3C3C"/>
<path d="M43.3484 154.303V153.807C43.2283 153.98 43.08 154.116 42.8963 154.224C42.7127 154.332 42.4937 154.389 42.2394 154.389C42.0274 154.389 41.8297 154.353 41.6601 154.289C41.4835 154.224 41.3352 154.123 41.2151 153.987C41.095 153.85 40.9961 153.678 40.9325 153.463C40.8689 153.254 40.8336 153.003 40.8336 152.701V150.209H41.4129V152.601C41.4129 153.046 41.4906 153.369 41.646 153.57C41.8014 153.779 42.0416 153.879 42.3595 153.879C42.642 153.879 42.8751 153.779 43.0659 153.578C43.2566 153.376 43.3555 153.053 43.3555 152.601V150.209H43.9347V154.296H43.3555L43.3484 154.303Z" fill="#3C3C3C"/>
<path d="M47.715 154.303V151.911C47.715 151.466 47.6373 151.143 47.4819 150.942C47.3265 150.734 47.0863 150.633 46.7684 150.633C46.4859 150.633 46.2527 150.734 46.062 150.935C45.8713 151.136 45.7794 151.459 45.7794 151.911V154.303H45.2002V150.217H45.7794V150.712C45.8925 150.54 46.0408 150.403 46.2245 150.296C46.4082 150.188 46.6271 150.13 46.8814 150.13C47.0934 150.13 47.2912 150.166 47.4678 150.231C47.6444 150.296 47.7927 150.396 47.9128 150.533C48.0329 150.669 48.1318 150.841 48.1954 151.057C48.2589 151.265 48.2943 151.516 48.2943 151.818V154.31H47.715V154.303Z" fill="#3C3C3C"/>
<path d="M55.3557 153.118C55.2568 153.398 55.1155 153.635 54.9389 153.822C54.7623 154.008 54.5504 154.152 54.3102 154.245C54.07 154.339 53.8087 154.382 53.5261 154.382C53.2011 154.382 52.9045 154.31 52.636 154.166C52.3676 154.023 52.1415 153.829 51.9508 153.578C51.7601 153.326 51.6188 153.032 51.5128 152.687C51.4139 152.342 51.3574 151.976 51.3574 151.574C51.3574 151.172 51.4139 150.791 51.5199 150.446C51.6259 150.102 51.7742 149.807 51.9649 149.556C52.1557 149.304 52.3888 149.11 52.6572 148.967C52.9256 148.823 53.2223 148.751 53.5473 148.751C54.2749 148.751 54.84 149.046 55.2568 149.62L54.7835 149.987C54.6069 149.75 54.4303 149.577 54.2466 149.462C54.063 149.355 53.8298 149.297 53.5332 149.297C53.3071 149.297 53.0952 149.355 52.8974 149.462C52.6996 149.577 52.5371 149.728 52.3958 149.922C52.2616 150.116 52.1486 150.353 52.0709 150.633C51.9932 150.913 51.9508 151.215 51.9508 151.545C51.9508 151.875 51.9932 152.184 52.0709 152.457C52.1557 152.737 52.2616 152.974 52.4029 153.175C52.5442 153.376 52.7137 153.534 52.9045 153.642C53.1022 153.757 53.3071 153.807 53.5332 153.807C53.9782 153.807 54.3243 153.671 54.5645 153.398C54.7976 153.125 54.9177 152.716 54.9177 152.184V152.141H53.957V151.588H55.504V152.112C55.504 152.486 55.4546 152.809 55.3557 153.096V153.118Z" fill="#3C3C3C"/>
<path d="M56.5994 154.303V148.96L57.1786 148.636V154.31H56.5994V154.303Z" fill="#3C3C3C"/>
<path d="M61.7708 152.235C61.7708 152.579 61.7284 152.888 61.6295 153.154C61.5377 153.42 61.4105 153.649 61.2551 153.829C61.0926 154.016 60.909 154.152 60.697 154.246C60.4851 154.339 60.252 154.389 60.0048 154.389C59.7575 154.389 59.5315 154.346 59.3195 154.253C59.1076 154.159 58.9239 154.03 58.7685 153.851C58.6131 153.671 58.493 153.448 58.4083 153.183C58.3164 152.917 58.274 152.615 58.274 152.263C58.274 151.911 58.3164 151.61 58.4083 151.344C58.5001 151.078 58.6273 150.856 58.7827 150.676C58.9381 150.497 59.1288 150.36 59.3407 150.267C59.5526 150.173 59.7858 150.123 60.033 150.123C60.2803 150.123 60.5063 150.166 60.7182 150.252C60.9301 150.339 61.1138 150.475 61.2692 150.647C61.4246 150.827 61.5447 151.042 61.6366 151.308C61.7284 151.567 61.7708 151.876 61.7708 152.22V152.235ZM61.1915 152.249C61.1915 151.71 61.0856 151.301 60.8736 151.035C60.6617 150.77 60.3791 150.633 60.0259 150.633C59.6727 150.633 59.3902 150.77 59.1783 151.035C58.9663 151.301 58.8604 151.71 58.8604 152.249C58.8604 152.788 58.9663 153.197 59.1783 153.477C59.3902 153.75 59.6727 153.894 60.0259 153.894C60.3791 153.894 60.6617 153.757 60.8736 153.477C61.0856 153.204 61.1915 152.795 61.1915 152.249Z" fill="#3C3C3C"/>
<path d="M64.8704 150.827C64.7856 150.777 64.7008 150.741 64.609 150.712C64.5172 150.683 64.4041 150.669 64.2699 150.669C63.9874 150.669 63.7754 150.777 63.6271 150.992C63.4787 151.208 63.401 151.516 63.401 151.904V154.303H62.8218V150.216H63.401V150.719C63.4929 150.554 63.6271 150.41 63.8037 150.295C63.9803 150.181 64.1781 150.123 64.39 150.123C64.5384 150.123 64.6584 150.13 64.7573 150.152C64.8562 150.173 64.941 150.195 65.0116 150.224L64.8633 150.813L64.8704 150.827Z" fill="#3C3C3C"/>
<path d="M67.0554 155.739H66.4832L67.0342 154.253L65.6073 150.216H66.2148L67.1967 153.183L67.3309 153.599L67.4722 153.19L68.4612 150.216H69.0687L67.0696 155.739H67.0554Z" fill="#3C3C3C"/>
<path d="M75.5047 154.303L75.0455 152.917H72.8345L72.3682 154.303H71.7537L73.6115 148.859H74.2685L76.1263 154.303H75.4976H75.5047ZM74.2755 150.576C74.2473 150.489 74.212 150.389 74.1766 150.288C74.1413 150.188 74.1131 150.087 74.0778 149.987C74.0495 149.893 74.0212 149.8 74 149.714C73.9789 149.628 73.9577 149.556 73.9435 149.498C73.9294 149.556 73.9082 149.628 73.887 149.707C73.8658 149.786 73.8376 149.879 73.8093 149.98C73.7811 150.08 73.7457 150.181 73.7104 150.288C73.6751 150.396 73.6398 150.497 73.6115 150.59L73.0181 152.364H74.8619L74.2755 150.576Z" fill="#3C3C3C"/>
<path d="M79.2324 150.827C79.1476 150.777 79.0629 150.741 78.971 150.712C78.8792 150.683 78.7662 150.669 78.632 150.669C78.3494 150.669 78.1375 150.777 77.9891 150.992C77.8408 151.208 77.7631 151.516 77.7631 151.904V154.303H77.1838V150.216H77.7631V150.719C77.8549 150.554 77.9891 150.41 78.1657 150.295C78.3423 150.181 78.5401 150.123 78.7591 150.123C78.9075 150.123 79.0276 150.13 79.1265 150.152C79.2254 150.173 79.3101 150.195 79.3808 150.224L79.2324 150.813V150.827Z" fill="#3C3C3C"/>
<path d="M82.5394 151.042C82.3911 150.906 82.2427 150.805 82.1015 150.734C81.9602 150.662 81.7836 150.626 81.5787 150.626C81.4233 150.626 81.275 150.662 81.1407 150.734C81.0065 150.805 80.8864 150.906 80.7875 151.05C80.6886 151.186 80.6109 151.358 80.5544 151.552C80.4979 151.753 80.4696 151.976 80.4696 152.235C80.4696 152.737 80.5685 153.139 80.7663 153.441C80.9641 153.743 81.2396 153.894 81.5999 153.894C81.7977 153.894 81.9602 153.858 82.1085 153.779C82.2498 153.7 82.3911 153.592 82.5324 153.463L82.8785 153.836C82.709 154.008 82.5253 154.145 82.3204 154.245C82.1156 154.346 81.8754 154.396 81.5858 154.396C81.3668 154.396 81.1549 154.353 80.95 154.267C80.7452 154.181 80.5615 154.052 80.4131 153.872C80.2577 153.692 80.1306 153.477 80.0387 153.211C79.9469 152.953 79.8975 152.637 79.8975 152.285C79.8975 151.904 79.9469 151.581 80.0529 151.315C80.1518 151.042 80.286 150.827 80.4485 150.647C80.6109 150.475 80.7946 150.346 80.9995 150.26C81.2043 150.173 81.4162 150.137 81.6211 150.137C81.8966 150.137 82.1368 150.181 82.3416 150.274C82.5465 150.36 82.7302 150.475 82.8856 150.619L82.5394 151.057V151.042Z" fill="#3C3C3C"/>
<path d="M86.4021 154.303V151.911C86.4021 151.466 86.3244 151.143 86.169 150.942C86.0136 150.734 85.7734 150.633 85.4555 150.633C85.173 150.633 84.9399 150.734 84.7491 150.935C84.5584 151.136 84.4666 151.459 84.4666 151.911V154.303H83.8873V148.96L84.4666 148.636V150.719C84.5796 150.547 84.728 150.41 84.9116 150.303C85.0953 150.195 85.3143 150.137 85.5686 150.137C85.7805 150.137 85.9783 150.173 86.1549 150.238C86.3315 150.303 86.4798 150.403 86.5999 150.54C86.72 150.676 86.8189 150.848 86.8825 151.064C86.9461 151.272 86.9814 151.524 86.9814 151.825V154.317H86.4021V154.303Z" fill="#3C3C3C"/>
<path d="M88.961 149.075C88.961 149.19 88.9187 149.283 88.8409 149.369C88.7632 149.448 88.6714 149.491 88.5584 149.491C88.4383 149.491 88.3394 149.448 88.2617 149.369C88.1769 149.29 88.1416 149.19 88.1416 149.075C88.1416 148.96 88.184 148.852 88.2617 148.773C88.3465 148.694 88.4454 148.651 88.5584 148.651C88.6644 148.651 88.7562 148.694 88.8409 148.773C88.9187 148.852 88.961 148.953 88.961 149.075ZM88.2617 154.303V150.217H88.8409V154.303H88.2617Z" fill="#3C3C3C"/>
<path d="M95.9748 153.118C95.8759 153.398 95.7346 153.635 95.558 153.822C95.3814 154.008 95.1695 154.152 94.9293 154.245C94.6892 154.339 94.4278 154.382 94.1452 154.382C93.8203 154.382 93.5236 154.31 93.2552 154.166C92.9867 154.023 92.7607 153.829 92.5699 153.578C92.3792 153.326 92.2379 153.032 92.132 152.687C92.0331 152.342 91.9766 151.976 91.9766 151.574C91.9766 151.172 92.0331 150.791 92.139 150.446C92.245 150.102 92.3933 149.807 92.5841 149.556C92.7748 149.304 93.0079 149.11 93.2764 148.967C93.5448 148.823 93.8415 148.751 94.1664 148.751C94.894 148.751 95.4591 149.046 95.8759 149.62L95.4026 149.987C95.226 149.75 95.0494 149.577 94.8658 149.462C94.6821 149.355 94.449 149.297 94.1523 149.297C93.9263 149.297 93.7143 149.355 93.5165 149.462C93.3187 149.577 93.1563 149.728 93.015 149.922C92.8808 150.116 92.7677 150.353 92.69 150.633C92.6123 150.913 92.5699 151.215 92.5699 151.545C92.5699 151.875 92.6123 152.184 92.69 152.457C92.7748 152.737 92.8808 152.974 93.022 153.175C93.1633 153.376 93.3329 153.534 93.5236 153.642C93.7214 153.757 93.9263 153.807 94.1523 153.807C94.5973 153.807 94.9435 153.671 95.1837 153.398C95.4168 153.125 95.5369 152.716 95.5369 152.184V152.141H94.5761V151.588H96.1232V152.112C96.1232 152.486 96.0737 152.809 95.9748 153.096V153.118Z" fill="#3C3C3C"/>
<path d="M99.238 150.827C99.1533 150.777 99.0685 150.741 98.9767 150.712C98.8848 150.683 98.7718 150.669 98.6376 150.669C98.355 150.669 98.1431 150.777 97.9948 150.992C97.8464 151.208 97.7687 151.516 97.7687 151.904V154.303H97.1895V150.216H97.7687V150.719C97.8605 150.554 97.9948 150.41 98.1714 150.295C98.348 150.181 98.5458 150.123 98.7577 150.123C98.906 150.123 99.0261 150.13 99.125 150.152C99.2239 150.173 99.3087 150.195 99.3793 150.224L99.231 150.813L99.238 150.827Z" fill="#3C3C3C"/>
<path d="M103.385 152.235C103.385 152.579 103.343 152.888 103.244 153.154C103.152 153.42 103.025 153.649 102.869 153.829C102.714 154.016 102.523 154.152 102.311 154.245C102.099 154.339 101.866 154.389 101.619 154.389C101.372 154.389 101.146 154.346 100.934 154.253C100.722 154.159 100.538 154.03 100.383 153.85C100.227 153.671 100.107 153.448 100.023 153.183C99.9307 152.917 99.8883 152.615 99.8883 152.263C99.8883 151.911 99.9307 151.61 100.023 151.344C100.114 151.078 100.242 150.856 100.397 150.676C100.552 150.497 100.743 150.36 100.955 150.267C101.167 150.173 101.4 150.123 101.647 150.123C101.895 150.123 102.121 150.166 102.332 150.252C102.544 150.339 102.728 150.475 102.883 150.647C103.039 150.827 103.159 151.042 103.251 151.308C103.343 151.567 103.385 151.875 103.385 152.22V152.235ZM102.806 152.249C102.806 151.71 102.7 151.301 102.488 151.035C102.276 150.769 101.993 150.633 101.64 150.633C101.287 150.633 101.004 150.769 100.793 151.035C100.581 151.301 100.475 151.71 100.475 152.249C100.475 152.788 100.581 153.197 100.793 153.477C101.004 153.75 101.287 153.894 101.64 153.894C101.993 153.894 102.276 153.757 102.488 153.477C102.7 153.204 102.806 152.795 102.806 152.249Z" fill="#3C3C3C"/>
<path d="M106.925 154.303V153.807C106.805 153.98 106.657 154.116 106.473 154.224C106.289 154.332 106.07 154.389 105.816 154.389C105.604 154.389 105.406 154.353 105.237 154.289C105.06 154.224 104.912 154.123 104.792 153.987C104.672 153.85 104.573 153.678 104.509 153.463C104.446 153.254 104.41 153.003 104.41 152.701V150.209H104.99V152.601C104.99 153.046 105.067 153.369 105.223 153.57C105.378 153.779 105.618 153.879 105.936 153.879C106.219 153.879 106.452 153.779 106.643 153.578C106.833 153.376 106.932 153.053 106.932 152.601V150.209H107.511V154.296H106.932L106.925 154.303Z" fill="#3C3C3C"/>
<path d="M111.991 152.192C111.991 152.558 111.948 152.874 111.871 153.147C111.793 153.42 111.687 153.649 111.546 153.829C111.412 154.016 111.249 154.152 111.065 154.246C110.882 154.339 110.684 154.389 110.479 154.389C110.225 154.389 110.006 154.339 109.829 154.238C109.653 154.138 109.49 154.009 109.349 153.843V155.481L108.77 155.804V150.217H109.349V150.712C109.483 150.554 109.653 150.418 109.843 150.303C110.041 150.188 110.274 150.13 110.55 150.13C110.747 150.13 110.938 150.173 111.115 150.252C111.291 150.331 111.447 150.454 111.574 150.619C111.701 150.784 111.807 150.999 111.878 151.258C111.955 151.516 111.991 151.832 111.991 152.184V152.192ZM111.426 152.199C111.426 151.674 111.334 151.287 111.157 151.021C110.981 150.755 110.733 150.626 110.408 150.626C110.196 150.626 109.999 150.676 109.829 150.784C109.653 150.892 109.497 151.035 109.356 151.215V153.262C109.469 153.434 109.617 153.578 109.801 153.7C109.985 153.822 110.196 153.879 110.437 153.879C110.769 153.879 111.023 153.736 111.185 153.448C111.348 153.161 111.426 152.745 111.426 152.192V152.199Z" fill="#3C3C3C"/>
<path d="M100.166 65.8976L63.1433 52.2017C64.3276 47.0845 68.7956 43.3219 74.0442 43.3219C78.0681 43.3219 81.8094 45.5247 83.828 49.0684C84.8239 50.8061 85.3488 52.79 85.3488 54.815C85.3488 55.6222 85.9813 56.2653 86.7753 56.2653C87.5693 56.2653 88.2019 55.6222 88.2019 54.815C88.2019 52.2838 87.5424 49.7936 86.3043 47.6044C83.7742 43.1714 79.0774 40.4075 74.0442 40.4075C67.5844 40.4075 62.0532 44.9501 60.4517 51.1892L57.1007 49.9441C59.227 42.2957 66.1309 36.8365 74.0442 36.8365C81.5133 36.8365 88.2153 41.6526 90.705 48.8085C91.3779 50.7377 91.7144 52.749 91.7144 54.8013C91.7144 55.6085 92.3469 56.2516 93.1409 56.2516C93.9349 56.2516 94.5674 55.6085 94.5674 54.8013C94.5674 52.4206 94.1772 50.0672 93.3831 47.837C90.4897 39.5182 82.711 33.9358 74.0307 33.9358C64.9063 33.9358 56.9392 40.1749 54.4091 48.959L51.0716 47.7276C54.1265 37.4658 63.3855 30.3784 74.0307 30.3784C84.6759 30.3784 94.5809 37.9174 97.3128 48.699C97.8242 50.6829 98.0665 52.749 98.0665 54.815C98.0665 55.6222 98.7125 56.2653 99.493 56.2653C100.274 56.2653 100.92 55.6222 100.92 54.815C100.92 52.5027 100.637 50.204 100.072 47.9738C97.0168 35.9061 86.3178 27.4778 74.0307 27.4778C61.7437 27.4778 50.8966 36.0429 47.9493 48.2885C47.9359 48.3569 47.9493 48.4254 47.9493 48.4938C47.9493 48.5895 47.9224 48.6853 47.9493 48.7811C47.9493 48.8769 47.9897 48.959 48.0166 49.0411C48.0435 49.1368 48.0705 49.2189 48.1108 49.301C48.1512 49.3831 48.2185 49.4515 48.2723 49.5199C48.3262 49.5883 48.38 49.6568 48.4473 49.7252C48.528 49.7936 48.6088 49.8346 48.6895 49.8757C48.7568 49.903 48.7972 49.9578 48.8645 49.9851L54.8667 52.2017L61.0035 54.4729L99.2104 68.6067C99.3719 68.6614 99.5334 68.6888 99.6949 68.6888C100.274 68.6888 100.825 68.3194 101.041 67.731C101.31 66.9785 100.933 66.1439 100.193 65.8703L100.166 65.8976Z" fill="#56B87E"/>
<path d="M100.03 72.7389L48.9171 53.83C48.1769 53.5564 47.356 53.9395 47.0869 54.692C46.8177 55.4445 47.1945 56.2791 47.9347 56.5528L99.0477 75.4754C99.2092 75.5301 99.3707 75.5575 99.5322 75.5575C100.111 75.5575 100.663 75.188 100.878 74.5997C101.147 73.8472 100.77 73.0126 100.03 72.7389Z" fill="#56B87E"/>
<path d="M100.084 80.524C100.084 80.4283 100.044 80.3462 100.017 80.2641C99.9898 80.1683 99.9629 80.0862 99.9225 80.0041C99.8821 79.922 99.8148 79.8536 99.761 79.7852C99.7072 79.7168 99.6533 79.6484 99.586 79.58C99.5053 79.5115 99.4246 79.4705 99.3438 79.4294C99.29 79.4021 99.2361 79.3473 99.1688 79.32L93.1666 77.1035L87.0971 74.8596L48.9171 60.7121C48.1769 60.4384 47.356 60.8215 47.0869 61.5741C46.8177 62.3266 47.1945 63.1612 47.9347 63.4349L84.9035 77.1171C84.6478 78.1296 84.3114 79.1011 83.8 79.9767C81.7813 83.5204 78.04 85.7233 74.0161 85.7233C67.7851 85.7233 62.7115 80.5651 62.7115 74.2302C62.7115 73.4229 62.0655 72.7799 61.2849 72.7799C60.5044 72.7799 59.8584 73.4366 59.8584 74.2302C59.8584 82.1659 66.2105 88.6239 74.0161 88.6239C79.0493 88.6239 83.7461 85.8601 86.2762 81.4271C86.8684 80.4009 87.2721 79.2789 87.5951 78.1023L90.8923 79.32C88.6852 86.8316 81.8216 92.1813 74.0295 92.1813C64.286 92.1813 56.3593 84.1225 56.3593 74.2165C56.3593 73.4092 55.7134 72.7662 54.9328 72.7662C54.1522 72.7662 53.5063 73.4229 53.5063 74.2165C53.5063 85.7233 62.7115 95.082 74.043 95.082C83.0463 95.082 90.973 88.9386 93.5838 80.3051L96.9214 81.5365C93.7857 91.6751 84.5671 98.653 74.043 98.653C60.787 98.653 50.0072 87.6799 50.0072 74.2165C50.0072 73.4092 49.3612 72.7662 48.5807 72.7662C47.8001 72.7662 47.1541 73.4229 47.1541 74.2165C47.1541 89.2944 59.2259 101.567 74.043 101.567C86.3166 101.567 97.0156 93.1117 100.071 81.0166C100.084 80.9482 100.071 80.8798 100.071 80.7977C100.071 80.7019 100.097 80.6061 100.071 80.5103L100.084 80.524Z" fill="#56B87E"/>
</svg>
