<svg width="78" height="21" viewBox="0 0 78 21" fill="none" xmlns="http://www.w3.org/2000/svg">
<g clip-path="url(#clip0_185_95)">
<path d="M25.8289 8.97612C25.7907 8.97612 25.7717 8.99939 25.7717 9.04592V9.18938C25.7717 9.23591 25.7831 9.27081 25.8136 9.29019C26.3437 9.65079 26.8624 10.0153 27.362 10.3759C27.4726 10.4612 27.5375 10.5736 27.5565 10.7093C27.5756 10.8489 27.5413 10.9691 27.4574 11.0738L27.2896 11.3026C27.2057 11.4073 27.0989 11.4615 26.9654 11.4654C26.8357 11.4693 26.7213 11.4228 26.6298 11.3297C26.4543 11.1591 26.1797 10.8993 25.806 10.5581C25.7984 10.5503 25.7869 10.5465 25.7793 10.5503C25.7678 10.5542 25.764 10.562 25.764 10.5697L25.7564 13.09C25.7564 13.2335 25.7068 13.3537 25.6077 13.4506C25.5085 13.5515 25.3903 13.598 25.2492 13.598H24.9975C24.8563 13.598 24.7419 13.5476 24.6466 13.4468C24.5512 13.346 24.5093 13.2258 24.5093 13.0823L24.5169 10.2518C24.5169 10.2518 24.5131 10.2363 24.5017 10.2324C24.4902 10.2285 24.4826 10.2324 24.475 10.2402C23.922 11.225 23.3079 11.9966 22.6329 12.555C22.5376 12.6286 22.4308 12.648 22.3087 12.6092C22.1867 12.5705 22.099 12.4929 22.0418 12.3805C21.996 12.2758 21.9426 12.1672 21.8892 12.0509C21.8434 11.9656 21.8206 11.8764 21.8206 11.7795C21.8206 11.7407 21.8244 11.6981 21.8358 11.6515C21.874 11.5081 21.9502 11.3956 22.0608 11.3103C22.8007 10.7132 23.43 9.95323 23.9563 9.02653C23.9868 8.98776 23.9754 8.96837 23.9296 8.96837H22.488C22.3469 8.96449 22.2286 8.91409 22.1333 8.81327C22.0341 8.71246 21.9884 8.59614 21.9884 8.46431V8.27819C21.9884 8.13473 22.0379 8.01453 22.1371 7.91759C22.2363 7.81678 22.3545 7.76638 22.4956 7.77025L24.4559 7.77801C24.5017 7.77801 24.5245 7.75862 24.5245 7.71985V6.63805C24.5284 6.49459 24.5741 6.37827 24.6695 6.28133C24.761 6.18827 24.8792 6.14174 25.0203 6.14174H25.2721C25.4132 6.14174 25.5314 6.19215 25.6267 6.28521C25.7259 6.38214 25.7717 6.49846 25.7717 6.64193V7.72372C25.7717 7.7625 25.7869 7.78188 25.8251 7.78188H27.2514C27.3925 7.78576 27.5108 7.83617 27.6061 7.93698C27.7053 8.03779 27.751 8.15799 27.751 8.30146V8.48757C27.751 8.6194 27.7014 8.73573 27.6023 8.83654C27.5031 8.93735 27.3849 8.98776 27.2438 8.98388H25.8174L25.8289 8.97612ZM28.1591 6.60316C28.0294 6.60316 27.915 6.55663 27.8159 6.45969C27.7205 6.36276 27.6709 6.24643 27.6709 6.10297L27.6786 3.40042C27.6786 3.40042 27.6748 3.38491 27.6633 3.38491H27.6366C27.0836 4.00917 26.4505 4.57527 25.7335 5.08709C25.0203 5.59891 24.269 6.01767 23.4834 6.34725C23.3499 6.39378 23.2164 6.39765 23.0753 6.355C22.9342 6.31235 22.8236 6.22705 22.7397 6.10297C22.6634 6.01767 22.5948 5.93236 22.5299 5.84706C22.4536 5.76176 22.4308 5.66095 22.4613 5.5485C22.488 5.43606 22.5566 5.35851 22.6558 5.32361C24.1432 4.7769 25.3903 4.00917 26.4009 3.01656C26.4086 3.0088 26.4124 2.99717 26.4086 2.98166C26.4048 2.96615 26.3971 2.9584 26.3895 2.9584L23.2812 2.94677C23.1401 2.94677 23.0257 2.90024 22.9304 2.8033C22.835 2.70637 22.7931 2.59005 22.7931 2.44658V2.26047C22.7931 2.117 22.8427 1.9968 22.9342 1.89599C23.0295 1.79518 23.1439 1.74865 23.2851 1.74865L27.6099 1.76416C27.6557 1.76416 27.6786 1.74477 27.6786 1.706V0.701752C27.6824 0.56992 27.732 0.453598 27.8311 0.352786C27.9303 0.255851 28.0447 0.205444 28.1744 0.205444H28.5252C28.6549 0.205444 28.7693 0.255851 28.8685 0.356663C28.9676 0.457475 29.0172 0.573797 29.0134 0.705629V1.71763C29.0134 1.7564 29.0325 1.77579 29.0782 1.77579L33.5976 1.7913C33.7387 1.7913 33.8569 1.84171 33.9561 1.94252C34.0553 2.04333 34.101 2.16353 34.101 2.307V2.49311C34.101 2.63657 34.0514 2.7529 33.9523 2.84983C33.8531 2.94677 33.7349 2.9933 33.5938 2.98942L30.291 2.97779C30.272 2.97779 30.2643 2.9933 30.2643 3.02044C31.3436 4.00142 32.6556 4.74588 34.204 5.25382C34.3146 5.29259 34.3871 5.36626 34.4138 5.47483C34.4404 5.5834 34.4176 5.68033 34.3413 5.76564C34.2688 5.85869 34.1849 5.96726 34.101 6.09134C34.0171 6.21542 33.9065 6.29684 33.7654 6.33949C33.6243 6.38214 33.4908 6.37827 33.3611 6.33174C32.5412 5.99828 31.7555 5.57177 31.0042 5.05607C30.2529 4.54038 29.6007 3.97428 29.0439 3.35777C29.0363 3.35002 29.0248 3.34614 29.0172 3.35002C29.0096 3.35389 29.002 3.36165 29.002 3.3694L28.9943 6.1146C28.9943 6.25807 28.9447 6.37439 28.8456 6.47132C28.7464 6.56438 28.632 6.61091 28.5023 6.61091H28.1515L28.1591 6.60316ZM34.8447 8.50308C34.8447 8.63491 34.7951 8.75124 34.696 8.85205C34.5968 8.95286 34.4786 8.99939 34.3375 8.99939H32.6174C32.5793 8.99163 32.5717 9.01102 32.5907 9.04979C33.2315 10.0967 33.9713 10.9536 34.8066 11.6205C34.9095 11.7058 34.9591 11.8183 34.9591 11.9617C34.9591 12.0742 34.921 12.175 34.8447 12.2603C34.7417 12.365 34.6426 12.4735 34.551 12.586C34.4671 12.6907 34.3604 12.7488 34.2269 12.7643C34.0972 12.7799 33.9828 12.7372 33.8913 12.6441C33.1743 11.9191 32.5259 11.0079 31.9386 9.9067C31.9386 9.89894 31.9348 9.89119 31.9233 9.89119C31.9119 9.89119 31.9081 9.89507 31.9081 9.9067L31.8966 13.1094C31.8966 13.2529 31.8471 13.3731 31.7479 13.47C31.6487 13.5708 31.5305 13.6174 31.3894 13.6174H31.1224C30.9928 13.6174 30.8783 13.567 30.7792 13.4662C30.68 13.3653 30.6343 13.2451 30.6343 13.1017L30.6457 9.97262C30.6457 9.97262 30.6419 9.95711 30.6305 9.95711C30.619 9.95711 30.6152 9.96098 30.6152 9.97262C29.9669 11.1358 29.2232 12.0509 28.3803 12.7139C28.2697 12.7992 28.1477 12.8303 28.018 12.807C27.8883 12.7837 27.7739 12.7139 27.6824 12.5976C27.6252 12.5201 27.5642 12.4464 27.4993 12.3688C27.4269 12.2913 27.3887 12.2021 27.3887 12.0974C27.3887 11.9462 27.4497 11.826 27.5718 11.7407C28.4871 11.0971 29.2651 10.2014 29.902 9.04592C29.9287 9.00714 29.9211 8.98776 29.8753 8.98776H28.7693C28.6396 8.98776 28.5252 8.93347 28.4261 8.83266C28.3269 8.73185 28.2811 8.61553 28.2811 8.48369V8.29758C28.2811 8.15411 28.3307 8.03392 28.4299 7.93698C28.529 7.83617 28.6435 7.78964 28.7731 7.78964L30.5771 7.79739C30.6228 7.79739 30.6457 7.77801 30.6457 7.73923V6.65744C30.6495 6.51397 30.6991 6.39765 30.7983 6.30072C30.8974 6.20766 31.0118 6.15725 31.1415 6.16113H31.4085C31.5496 6.16113 31.6678 6.21154 31.7632 6.3046C31.8623 6.40153 31.9081 6.51785 31.9081 6.66132V7.74311C31.9081 7.78188 31.9233 7.80127 31.9615 7.80127L34.326 7.80903C34.4671 7.80903 34.5854 7.85943 34.6807 7.96025C34.7799 8.06106 34.8256 8.18126 34.8256 8.32472V8.51084L34.8447 8.50308Z" fill="#3C3C3C"/>
<path d="M44.2305 11.8105C44.2305 11.857 44.2496 11.8803 44.2877 11.8803L48.8223 11.8958C48.952 11.8958 49.0664 11.9462 49.1656 12.047C49.2647 12.1478 49.3105 12.2641 49.3105 12.396V12.679C49.3105 12.8108 49.2609 12.9272 49.1618 13.028C49.0626 13.1288 48.9482 13.1753 48.8185 13.1753L42.3923 13.1559C42.2511 13.1559 42.1367 13.1055 42.0452 13.0047C41.9498 12.9039 41.9079 12.7876 41.9079 12.6558V12.1711C41.9079 12.1245 41.885 12.1052 41.8392 12.1129C41.2862 12.2331 40.4625 12.4154 39.3603 12.6519C38.2581 12.8884 37.4648 13.0668 36.9805 13.1792C36.9423 13.187 36.9042 13.1947 36.8699 13.1947C36.7745 13.1947 36.6868 13.1676 36.6029 13.1094C36.4923 13.0319 36.4198 12.9272 36.3931 12.7953L36.3245 12.5239C36.2978 12.3921 36.3207 12.2641 36.3969 12.1478C36.4732 12.0276 36.5762 11.9617 36.7059 11.9423C37.5258 11.795 38.1894 11.667 38.6929 11.5623C38.731 11.5546 38.7501 11.5274 38.7501 11.4925L38.7615 7.58023C38.7615 7.54146 38.7424 7.52207 38.7043 7.52207H36.9118C36.7707 7.51432 36.6525 7.46391 36.5571 7.36698C36.458 7.26616 36.4122 7.14596 36.4122 7.0025V6.81639C36.4122 6.68455 36.4618 6.56823 36.5609 6.46742C36.6601 6.36661 36.7783 6.32008 36.9194 6.32008H38.7119C38.7501 6.32783 38.7691 6.30069 38.7691 6.25416V5.05992C38.7691 5.02115 38.7539 5.00176 38.7157 5.00176H37.6936C37.564 5.00176 37.4572 4.95136 37.3733 4.86218C37.2894 4.773 37.2474 4.66443 37.2474 4.54035C37.2474 4.5326 37.2398 4.52484 37.2284 4.52096C37.2131 4.51709 37.2093 4.52096 37.2093 4.52872C37.1826 4.55586 37.1521 4.58688 37.1254 4.61402C37.03 4.69932 36.9156 4.7381 36.7821 4.72647C36.6487 4.71483 36.5381 4.66055 36.4542 4.55586C36.3969 4.4977 36.3436 4.44342 36.2863 4.38526C36.1948 4.2922 36.149 4.17975 36.149 4.05568C36.149 3.92384 36.1986 3.81528 36.2902 3.72997C37.1788 2.89633 37.9263 1.89596 38.5251 0.721112C38.6738 0.418675 38.9141 0.267456 39.2382 0.267456H39.406C39.7417 0.267456 40.0315 0.383778 40.2718 0.612545C41.0422 1.35313 41.6829 2.06269 42.1825 2.73736C42.2664 2.8498 42.3045 2.98164 42.2931 3.12898C42.2817 3.27632 42.2283 3.4004 42.1253 3.50509L41.66 3.97425C41.6333 4.00139 41.6181 4.04017 41.6181 4.0867V4.4977C41.6181 4.64116 41.5685 4.76136 41.4693 4.86218C41.3702 4.96299 41.2557 5.00952 41.1261 5.00952H40.0353C39.9896 5.00952 39.9667 5.02503 39.9667 5.0638V6.25804C39.9629 6.30457 39.9857 6.32783 40.0315 6.32783H41.599C41.7401 6.33171 41.8583 6.38212 41.9537 6.48293C42.0528 6.58374 42.0986 6.70006 42.0986 6.8319V7.01801C42.0986 7.16147 42.049 7.28167 41.9498 7.37861C41.8507 7.47942 41.7325 7.52595 41.5914 7.52595H40.0239C39.9781 7.52207 39.9552 7.54146 39.9552 7.57636L39.9438 11.2483C39.9438 11.287 39.9667 11.2987 40.0124 11.2909C40.4777 11.1978 41.0155 11.0854 41.6219 10.9536C41.7515 10.9264 41.8698 10.9536 41.9804 11.035C42.0871 11.1164 42.1444 11.225 42.1558 11.3568L42.2092 11.7988C42.2092 11.8454 42.2321 11.8686 42.2778 11.8686H42.8385C42.8766 11.8686 42.8957 11.8454 42.8957 11.7988L42.9262 2.34962C42.9262 2.30309 42.9071 2.27983 42.869 2.27983H42.644C42.5143 2.27983 42.3999 2.22942 42.3007 2.12861C42.2016 2.0278 42.1558 1.91147 42.1558 1.77964V1.50822C42.1558 1.36476 42.2054 1.24456 42.3045 1.14763C42.4037 1.04681 42.5181 0.996407 42.6478 1.00028L48.6393 1.01967C48.7804 1.01967 48.8986 1.07008 48.9978 1.17089C49.0931 1.2717 49.1427 1.3919 49.1427 1.53537V1.80678C49.1427 1.93862 49.0931 2.05494 48.994 2.15575C48.8948 2.25656 48.7766 2.30309 48.6355 2.30309L44.322 2.28758C44.2839 2.28758 44.2648 2.31085 44.2648 2.35737L44.2572 4.24955C44.2572 4.29608 44.2763 4.31934 44.3144 4.31934L48.0519 4.33097C48.1931 4.33097 48.3113 4.3775 48.4066 4.47444C48.5058 4.57137 48.5516 4.68769 48.5516 4.83116L48.5401 9.15834C48.5401 9.3018 48.4905 9.41812 48.3914 9.51506C48.2922 9.60811 48.174 9.65464 48.0329 9.65464L44.2953 9.64301C44.2572 9.64301 44.2381 9.66627 44.2381 9.7128L44.2305 11.8066V11.8105ZM36.8355 8.89855C36.8279 8.85202 36.8203 8.80937 36.8203 8.7706C36.8203 8.68529 36.8393 8.60387 36.8775 8.5302C36.9423 8.41775 37.0415 8.34408 37.1711 8.31694C37.3008 8.2898 37.4229 8.30531 37.5411 8.36735C37.6555 8.42938 37.7356 8.52632 37.7699 8.65815C37.9377 9.18935 38.0598 9.71668 38.1437 10.2401C38.1704 10.3836 38.1437 10.5154 38.0674 10.6395C37.9873 10.7636 37.8767 10.8411 37.7356 10.8799H37.7203C37.6822 10.8877 37.6441 10.8954 37.6059 10.8954C37.522 10.8954 37.4419 10.8721 37.3695 10.8217C37.2665 10.7442 37.2017 10.6395 37.175 10.5077C37.1025 10.0618 36.9881 9.52669 36.8317 8.89855H36.8355ZM37.8881 3.79201C37.8881 3.79201 37.8767 3.8114 37.8805 3.82691C37.8843 3.84242 37.892 3.8463 37.8996 3.8463L41.271 3.85793C41.3168 3.85793 41.3282 3.83854 41.2977 3.80365C40.7866 3.02429 40.1917 2.28758 39.5128 1.59353C39.4861 1.56639 39.4556 1.57026 39.4289 1.60904C38.9675 2.39615 38.4526 3.1251 37.8805 3.79589L37.8881 3.79201ZM41.4083 10.2944C41.3587 10.4185 41.2748 10.5115 41.1566 10.5775C41.0803 10.6162 41.0002 10.6317 40.9201 10.6317C40.8744 10.6317 40.8248 10.624 40.779 10.6046C40.657 10.5775 40.5654 10.5038 40.5006 10.3913C40.4625 10.3254 40.4434 10.2556 40.4434 10.1781C40.4434 10.1316 40.4548 10.085 40.4701 10.0346C40.6417 9.50342 40.7752 9.01875 40.882 8.58448C40.9087 8.44102 40.9811 8.33633 41.0917 8.27041C41.1756 8.22388 41.2596 8.20062 41.3435 8.20062C41.3816 8.20062 41.4197 8.20449 41.4541 8.21613L41.5952 8.24715C41.7172 8.28592 41.8087 8.35959 41.8736 8.47591C41.9117 8.55346 41.9308 8.62713 41.9308 8.70468C41.9308 8.75121 41.9232 8.80549 41.9041 8.85978C41.6295 9.65464 41.4655 10.1354 41.4083 10.2944ZM47.2587 5.64541C47.2587 5.60664 47.2358 5.58725 47.19 5.58725L44.3068 5.57949C44.2686 5.57949 44.2496 5.59888 44.2496 5.63766L44.2419 8.35571C44.2419 8.39449 44.261 8.41387 44.2992 8.41387L47.1824 8.42163C47.2282 8.42163 47.251 8.40224 47.251 8.36347L47.2587 5.64541Z" fill="#3C3C3C"/>
<path d="M53.8375 5.28095C53.9672 5.25381 54.093 5.25381 54.2151 5.28095L54.4248 5.33911C54.5354 5.3585 54.627 5.41666 54.6956 5.51747C54.7643 5.61828 54.791 5.72297 54.7719 5.83929C54.5812 7.68106 54.2265 9.22426 53.7078 10.4767C53.6888 10.5154 53.7002 10.5465 53.7345 10.5775C54.3676 11.1281 55.1228 11.5081 55.9961 11.7174C56.8733 11.9268 57.9297 12.0354 59.173 12.047C61.0837 12.0548 62.4376 12.0548 63.2309 12.047C63.3339 12.047 63.414 12.0935 63.4674 12.1905C63.5055 12.237 63.5246 12.2913 63.5246 12.3456C63.5246 12.3921 63.5131 12.4386 63.4941 12.489C63.4369 12.6015 63.3873 12.7256 63.3377 12.8574C63.2919 13.0009 63.208 13.1172 63.0898 13.2064C62.9716 13.2955 62.8457 13.3421 62.7046 13.3421L59.1349 13.3304C57.781 13.3266 56.6254 13.2102 55.6643 12.9776C54.7032 12.7449 53.8718 12.3378 53.1625 11.7446C53.1243 11.7174 53.0976 11.7174 53.0786 11.7446C52.6934 12.4154 52.2548 12.9698 51.759 13.4041C51.6636 13.4778 51.5569 13.5165 51.4348 13.5165H51.3929C51.2518 13.5049 51.1335 13.4506 51.0306 13.3459C50.9352 13.2606 50.8437 13.1753 50.7521 13.09C50.6568 13.0047 50.6148 12.9 50.6148 12.776C50.6148 12.6519 50.6606 12.555 50.756 12.4774C51.3166 12.016 51.7895 11.4383 52.1747 10.7442C52.1938 10.7054 52.19 10.6667 52.1633 10.6318C51.7056 9.99587 51.328 9.22814 51.0229 8.33634C50.9772 8.20451 50.9848 8.07268 51.0458 7.94472C51.1068 7.81677 51.2022 7.72759 51.3318 7.68106L51.4424 7.65392C51.5721 7.60739 51.698 7.61514 51.82 7.67718C51.942 7.73922 52.026 7.83228 52.0717 7.95635C52.2548 8.48756 52.4722 8.96448 52.7239 9.38324C52.7315 9.39487 52.743 9.39875 52.7582 9.39875C52.7735 9.39875 52.7811 9.39487 52.7811 9.38324C53.0824 8.53021 53.2998 7.57637 53.4333 6.52559C53.4409 6.48682 53.4256 6.46743 53.376 6.46743H52.1289C52.0908 6.46356 52.0641 6.48294 52.045 6.52172C51.9802 6.65355 51.881 6.75048 51.7514 6.81252C51.6217 6.87456 51.4844 6.88231 51.3433 6.83191L51.0916 6.77375C50.9695 6.73497 50.8856 6.65743 50.8322 6.53723C50.7827 6.41703 50.7827 6.3007 50.8399 6.18826C51.3738 5.12585 51.9688 3.87345 52.6171 2.4233C52.6362 2.38453 52.6209 2.36514 52.5751 2.36514H51.0229C50.8818 2.36127 50.7636 2.31086 50.6682 2.21005C50.5691 2.10923 50.5233 1.99291 50.5233 1.86108V1.69048C50.5233 1.54701 50.5729 1.42681 50.6721 1.326C50.7712 1.22519 50.8894 1.17866 51.0306 1.17866L53.2426 1.18641H53.2845C53.3493 1.16703 53.4104 1.15927 53.4676 1.15927C53.5324 1.15927 53.5934 1.1709 53.6506 1.19029L53.929 1.26396C54.0511 1.2911 54.1388 1.36477 54.196 1.48497C54.2532 1.60517 54.257 1.72149 54.2075 1.83394C53.8413 2.70635 53.3341 3.83856 52.6857 5.23054C52.6667 5.26932 52.6743 5.2887 52.7124 5.2887H53.7917C53.7917 5.2887 53.8261 5.2887 53.8337 5.2887L53.8375 5.28095ZM58.1357 5.21115C58.1814 5.21115 58.2043 5.18789 58.2043 5.14136V4.40078C58.2043 4.35425 58.1853 4.33099 58.1357 4.33099L54.9321 4.31935C54.791 4.31935 54.6766 4.27282 54.5812 4.17589C54.4897 4.07895 54.4439 3.96263 54.4439 3.81917V3.76101C54.4439 3.62918 54.4935 3.51285 54.585 3.41204C54.6804 3.31123 54.7948 3.2647 54.9359 3.2647L58.1395 3.27633C58.1853 3.27633 58.212 3.25307 58.212 3.20654V2.50861C58.212 2.46208 58.1929 2.43881 58.1433 2.43881L55.9313 2.43106C55.7902 2.43106 55.672 2.38065 55.5728 2.28759C55.4736 2.19066 55.4279 2.07434 55.4279 1.93087V1.87271C55.4279 1.72925 55.4775 1.61293 55.5766 1.51599C55.6758 1.42293 55.794 1.37253 55.9351 1.37641L58.1471 1.38416C58.1929 1.38416 58.2158 1.3609 58.2158 1.31437V0.957646C58.2158 0.814183 58.2653 0.693983 58.3645 0.597048C58.4637 0.496236 58.5781 0.449707 58.7077 0.449707H59.0281C59.1578 0.449707 59.2722 0.500113 59.3713 0.600926C59.4705 0.701738 59.5163 0.821938 59.5163 0.965401V1.32212C59.5163 1.36865 59.5392 1.39192 59.5849 1.39192L62.0753 1.39967C62.205 1.39967 62.3194 1.45008 62.4186 1.54313C62.5139 1.64007 62.5635 1.75639 62.5635 1.89985V3.22205C62.5597 3.26858 62.5826 3.29184 62.6283 3.29572H63.1318C63.2729 3.29572 63.3911 3.34613 63.4903 3.44694C63.5894 3.54775 63.6352 3.66407 63.6352 3.7959V3.85406C63.6352 3.99753 63.5856 4.11385 63.4865 4.21079C63.3873 4.30384 63.2691 4.35037 63.128 4.35037H62.6245C62.5788 4.35037 62.5559 4.37364 62.5559 4.42017V5.78501C62.5521 5.92847 62.5025 6.04867 62.4033 6.14561C62.3042 6.24642 62.1898 6.29295 62.0601 6.29295L59.5697 6.28519C59.5239 6.28519 59.501 6.30458 59.501 6.34336V7.09557C59.501 7.13435 59.5201 7.15373 59.5697 7.15373L62.1859 7.16149C62.3271 7.16149 62.4415 7.21189 62.5368 7.31271C62.6283 7.41352 62.6741 7.53372 62.6741 7.67718C62.6741 7.82064 62.6245 7.94084 62.533 8.03778C62.4377 8.13859 62.3232 8.18512 62.1821 8.18512L59.5659 8.17737C59.5201 8.17737 59.4972 8.19675 59.4972 8.23553V9.0459C59.4972 9.08468 59.5163 9.10406 59.562 9.10406L62.8114 9.1157C62.9525 9.1157 63.0669 9.1661 63.1623 9.26692C63.2538 9.36773 63.3034 9.48793 63.2996 9.63139V9.71669C63.2996 9.84853 63.25 9.96485 63.1585 10.0657C63.0631 10.1665 62.9487 10.213 62.8076 10.213L59.5582 10.2014C59.5125 10.2014 59.4896 10.2246 59.4896 10.2712V11.0699C59.4896 11.2134 59.4362 11.3297 59.3408 11.4266C59.2417 11.5197 59.1273 11.5662 58.9976 11.5662H58.6772C58.5476 11.5662 58.4332 11.5158 58.334 11.4228C58.2348 11.3258 58.1891 11.2095 58.1891 11.066V10.2673C58.1891 10.2208 58.17 10.1975 58.1204 10.1975L55.0999 10.1859C54.9702 10.1859 54.8558 10.1355 54.7566 10.0346C54.6575 9.93383 54.6117 9.81751 54.6117 9.68567V9.60037C54.6117 9.45691 54.6613 9.33671 54.7605 9.2359C54.8596 9.13508 54.974 9.08856 55.1037 9.08856L58.1242 9.10019C58.17 9.10019 58.1929 9.0808 58.1929 9.04203V8.23165C58.1929 8.19288 58.1738 8.17349 58.1242 8.17349L55.733 8.16573C55.6033 8.16573 55.4889 8.11533 55.3897 8.01452C55.2906 7.9137 55.2448 7.7935 55.2448 7.65004C55.2448 7.50658 55.2944 7.38638 55.3935 7.28556C55.4927 7.18475 55.6071 7.13822 55.7368 7.13822L58.128 7.14598C58.1738 7.14598 58.1967 7.12659 58.1967 7.08782V6.3356C58.1967 6.29683 58.1776 6.27744 58.128 6.27744L55.8321 6.26969C55.691 6.26969 55.5728 6.21928 55.4775 6.11847C55.3783 6.01765 55.3287 5.89745 55.3287 5.75399V5.69583C55.3287 5.564 55.3783 5.44768 55.4775 5.34686C55.5766 5.24605 55.6948 5.19952 55.8359 5.19952L58.1319 5.20728L58.1357 5.21115ZM61.202 5.22279C61.2401 5.22279 61.2592 5.19952 61.2592 5.15299V4.41241C61.2592 4.36588 61.2439 4.34262 61.2058 4.34262H59.5811C59.5353 4.33874 59.5125 4.362 59.5125 4.40853V5.14912C59.5125 5.19565 59.5315 5.21891 59.5811 5.21891H61.2058L61.202 5.22279ZM59.5849 2.44657C59.5392 2.44657 59.5163 2.46983 59.5163 2.51636V3.21429C59.5163 3.26082 59.5353 3.28409 59.5811 3.28796H61.2058C61.2439 3.29184 61.263 3.26858 61.263 3.22205V2.52412C61.263 2.47759 61.2477 2.45432 61.2096 2.45432H59.5849V2.44657Z" fill="#3C3C3C"/>
<path d="M69.8021 2.7723C69.9317 2.7723 70.0461 2.8227 70.1453 2.92351C70.2445 3.02433 70.2902 3.14065 70.2902 3.27248V3.34227C70.2902 3.48574 70.2406 3.60594 70.1415 3.70675C70.0423 3.80756 69.9279 3.85409 69.7982 3.85409L65.3056 3.83858C65.1759 3.83858 65.0615 3.78818 64.9623 3.68736C64.8632 3.58655 64.8136 3.46635 64.8136 3.32289V3.25309C64.8136 3.12126 64.8632 3.00494 64.9623 2.90413C65.0615 2.80332 65.1759 2.75679 65.3056 2.75679L69.7982 2.7723H69.8021ZM69.2643 8.66207C69.394 8.66207 69.5084 8.7086 69.6076 8.80553C69.7067 8.90246 69.7525 9.01879 69.7525 9.16225L69.741 12.4348C69.741 12.5782 69.6915 12.6984 69.5923 12.7954C69.4931 12.8962 69.3787 12.9427 69.2491 12.9427L66.6328 12.935C66.5946 12.935 66.5756 12.9543 66.5756 12.9931V13.0358C66.5756 13.1792 66.526 13.2994 66.4268 13.4003C66.3277 13.5011 66.2094 13.5476 66.0683 13.5476H65.9272C65.7861 13.5476 65.6679 13.4972 65.5725 13.3964C65.4734 13.2956 65.4276 13.1754 65.4276 13.0319L65.4391 9.14674C65.4391 9.00328 65.4886 8.88696 65.5878 8.79002C65.687 8.69696 65.8052 8.65043 65.9463 8.65043L69.2643 8.66207ZM65.9768 7.73924C65.8357 7.73924 65.7175 7.68884 65.6183 7.58803C65.5192 7.48721 65.4734 7.37089 65.4734 7.23906V7.1809C65.4734 7.03744 65.523 6.91724 65.6221 6.8203C65.7213 6.71949 65.8395 6.67296 65.9806 6.67296L69.2834 6.68459C69.4131 6.68459 69.5275 6.735 69.6266 6.83581C69.7258 6.93662 69.7715 7.05682 69.7715 7.20029V7.25845C69.7715 7.39028 69.722 7.5066 69.6228 7.60741C69.5237 7.70823 69.4092 7.75476 69.2796 7.75476L65.9768 7.74312V7.73924ZM69.2872 4.74589C69.4169 4.74589 69.5313 4.7963 69.6304 4.89711C69.7296 4.99792 69.7754 5.11812 69.7754 5.26159V5.5175C69.7754 5.55627 69.7906 5.56402 69.8288 5.54464C70.4008 5.14914 70.786 4.69936 70.9882 4.1953C71.1903 3.69512 71.2933 3.14065 71.2933 2.5319V1.31052C71.2971 1.16705 71.3467 1.05073 71.4458 0.953795C71.545 0.860738 71.6594 0.814209 71.7891 0.814209L75.4007 0.825841C75.5418 0.825841 75.6601 0.87237 75.7554 0.969305C75.8546 1.06624 75.9003 1.18256 75.9003 1.32603L75.8927 4.24183C75.8927 4.41244 75.9042 4.521 75.927 4.57141C75.9499 4.61794 76.0148 4.6412 76.1177 4.6412H76.6784C76.7737 4.6412 76.8385 4.57916 76.8843 4.45121C76.9262 4.32326 76.9529 4.04408 76.9644 3.61757C76.9758 3.51288 77.0254 3.43533 77.1208 3.38493C77.2161 3.33452 77.3114 3.33064 77.4144 3.37717C77.4716 3.40431 77.5326 3.43533 77.5975 3.46247C77.7386 3.509 77.8492 3.59431 77.9331 3.71838C78.0056 3.82307 78.0437 3.93164 78.0437 4.04796C78.0437 4.65671 77.9178 5.11812 77.6738 5.43995C77.4869 5.67647 77.2008 5.79279 76.8195 5.79279H75.908C75.4045 5.78891 75.0613 5.68035 74.8782 5.46709C74.699 5.25383 74.6075 4.84671 74.6075 4.24959L74.6151 2.086C74.6151 2.04722 74.596 2.02784 74.5617 2.02784L72.6166 2.02008C72.5785 2.02008 72.5594 2.03947 72.5594 2.07824V2.54741C72.5518 4.14102 72.0789 5.35077 71.1331 6.17278C71.0225 6.25808 70.8966 6.29298 70.7631 6.27747C70.6297 6.26196 70.5038 6.20379 70.3932 6.0991C70.1606 5.88197 69.9661 5.71912 69.8059 5.61443C69.7868 5.60668 69.7792 5.61055 69.7792 5.62994C69.7792 5.67647 69.7639 5.71912 69.7296 5.75014C69.6953 5.78504 69.6571 5.80055 69.6114 5.80055L65.9844 5.78891C65.8433 5.78891 65.7251 5.73851 65.6298 5.63769C65.5306 5.53688 65.4848 5.41668 65.4848 5.27322V5.24608C65.4848 5.10261 65.5344 4.98241 65.6336 4.88548C65.7327 4.78467 65.851 4.73814 65.9921 4.73814L69.2948 4.74977L69.2872 4.74589ZM69.2567 0.845228C69.3864 0.845228 69.5008 0.891757 69.5999 0.988692C69.6991 1.08563 69.7448 1.20195 69.7448 1.34541V1.40357C69.7448 1.54704 69.6953 1.66336 69.5961 1.76029C69.497 1.85335 69.3825 1.89988 69.2529 1.89988L66.0493 1.88825C65.9082 1.88825 65.7899 1.83784 65.6946 1.74479C65.5954 1.64785 65.5497 1.53153 65.5497 1.38806V1.3299C65.5497 1.18644 65.5992 1.07012 65.6984 0.973182C65.7976 0.880125 65.9158 0.829719 66.0569 0.833596L69.2643 0.845228H69.2567ZM68.5855 9.80978C68.5855 9.76325 68.5664 9.73998 68.5321 9.73998L66.6404 9.73223C66.6023 9.73223 66.5832 9.75549 66.5832 9.80202L66.5756 11.7679C66.5756 11.8144 66.5946 11.8377 66.6328 11.8377L68.5244 11.8454C68.5626 11.8454 68.5816 11.8221 68.5816 11.7756L68.5893 9.80978H68.5855ZM76.1978 6.60317C76.2436 6.59541 76.2932 6.58766 76.3389 6.58766C76.4343 6.58766 76.5258 6.60704 76.6211 6.64582L76.8462 6.73112C76.9682 6.77765 77.0597 6.86295 77.1208 6.97928C77.1818 7.09947 77.1932 7.21967 77.1551 7.34375C76.6822 8.83267 75.9614 10.0812 74.9888 11.0932C74.9621 11.132 74.966 11.1591 75.0041 11.1785C75.7783 11.7213 76.644 12.144 77.6051 12.4387C77.7081 12.4774 77.7767 12.5472 77.8149 12.6519C77.8225 12.6907 77.8301 12.7217 77.8263 12.7527C77.8263 12.8303 77.7996 12.8962 77.7424 12.9505C77.6585 13.0629 77.567 13.187 77.4754 13.3188C77.3915 13.4429 77.2847 13.5282 77.1513 13.5747C77.075 13.6019 77.0063 13.6174 76.9415 13.6174C76.8767 13.6174 76.8118 13.6058 76.747 13.5902C75.702 13.218 74.7867 12.7101 73.9934 12.0742C73.9553 12.047 73.9248 12.047 73.8943 12.0742C73.0438 12.7062 72.0636 13.2064 70.95 13.5747C70.8928 13.5941 70.8394 13.6019 70.7822 13.6019C70.7059 13.6019 70.6335 13.5864 70.5572 13.5592C70.4275 13.5011 70.3284 13.408 70.2635 13.2723C70.1987 13.1599 70.1339 13.0435 70.069 12.9311C70.0233 12.8729 70.0004 12.8109 70.0004 12.745C70.0004 12.6984 70.0118 12.6558 70.0309 12.617C70.069 12.5046 70.1453 12.4309 70.2559 12.4038C71.217 12.113 72.1018 11.6942 72.9065 11.1475C72.9446 11.1281 72.9484 11.101 72.9218 11.0622C72.2696 10.3487 71.7357 9.55387 71.32 8.68145C71.2551 8.55738 71.2513 8.4333 71.3085 8.3131C71.3657 8.18902 71.4534 8.1076 71.5755 8.0727L71.8272 8.00291C71.9569 7.95638 72.0903 7.96414 72.22 8.02617C72.3497 8.08821 72.4488 8.18127 72.5137 8.30535C72.876 9.02654 73.3336 9.67407 73.8943 10.244C73.921 10.2712 73.9515 10.2712 73.9782 10.244C74.6608 9.57326 75.191 8.79002 75.5647 7.9021C75.5838 7.86332 75.5723 7.84394 75.538 7.84394L70.9615 7.82843C70.8203 7.82843 70.7021 7.77802 70.6068 7.67721C70.5076 7.57639 70.4618 7.46007 70.4618 7.32824V7.09947C70.4618 6.95601 70.5114 6.83581 70.6106 6.735C70.7097 6.63419 70.828 6.58766 70.9653 6.58766L76.1597 6.60317C76.1597 6.60317 76.1978 6.60317 76.2169 6.60317H76.1978Z" fill="#3C3C3C"/>
<path d="M31.4008 19.2125C31.4008 19.3288 31.3779 19.4335 31.336 19.5343C31.294 19.6351 31.2292 19.7204 31.1491 19.7941C31.069 19.8678 30.9661 19.9259 30.8478 19.9647C30.7296 20.0074 30.5961 20.0268 30.4436 20.0268C30.2452 20.0268 30.0622 19.988 29.8982 19.9104C29.7304 19.8329 29.5893 19.7359 29.4749 19.6196L29.6884 19.3754C29.799 19.48 29.9173 19.5653 30.0431 19.6313C30.169 19.6972 30.3063 19.7282 30.455 19.7282C30.6457 19.7282 30.7982 19.6817 30.9127 19.5925C31.0233 19.5033 31.0805 19.3792 31.0805 19.2241C31.0805 19.1582 31.069 19.0962 31.0461 19.038C31.0233 18.9837 30.9851 18.9295 30.9317 18.8829C30.8783 18.8364 30.8059 18.7899 30.7182 18.7433C30.6304 18.6968 30.5198 18.6503 30.3864 18.6037C30.23 18.5456 30.0965 18.4913 29.9897 18.4331C29.8829 18.375 29.799 18.3129 29.7342 18.247C29.6694 18.1811 29.6236 18.1074 29.5931 18.026C29.5664 17.9446 29.5511 17.8515 29.5511 17.743C29.5511 17.6266 29.574 17.522 29.616 17.4289C29.6617 17.3358 29.7228 17.2583 29.799 17.1924C29.8791 17.1265 29.9745 17.0761 30.0851 17.045C30.1957 17.0101 30.3215 16.9946 30.455 16.9946C30.6495 16.9946 30.8135 17.0218 30.9508 17.0799C31.0881 17.1381 31.2178 17.2118 31.336 17.3126L31.13 17.5685C31.0233 17.4793 30.9203 17.4095 30.8135 17.3669C30.7067 17.3203 30.5809 17.2971 30.4359 17.2971C30.3368 17.2971 30.2529 17.3087 30.1804 17.332C30.1079 17.3552 30.0507 17.3862 30.005 17.425C29.9592 17.4638 29.9287 17.5103 29.9058 17.5607C29.8867 17.6111 29.8753 17.6693 29.8753 17.7275C29.8753 17.7895 29.8829 17.8438 29.8982 17.8942C29.9134 17.9446 29.9478 17.9911 29.9973 18.0376C30.0469 18.0842 30.1156 18.1307 30.2071 18.1734C30.2948 18.2199 30.413 18.2664 30.5618 18.3207C30.722 18.3789 30.8555 18.437 30.9622 18.4952C31.069 18.5533 31.1567 18.6193 31.2216 18.6891C31.2864 18.7588 31.3322 18.8364 31.3589 18.9217C31.3856 19.007 31.4008 19.1039 31.4008 19.2125Z" fill="#3C3C3C"/>
<path d="M33.3459 19.984V19.7165C33.281 19.8096 33.2009 19.8832 33.1018 19.9414C33.0026 19.9996 32.8844 20.0306 32.7471 20.0306C32.6327 20.0306 32.5259 20.0112 32.4344 19.9763C32.339 19.9414 32.2589 19.8871 32.1941 19.8134C32.1293 19.7398 32.0759 19.6467 32.0416 19.5304C32.0072 19.4179 31.9882 19.2822 31.9882 19.1194V17.7739H32.3009V19.0651C32.3009 19.3055 32.3428 19.48 32.4267 19.5885C32.5107 19.701 32.6403 19.7553 32.8119 19.7553C32.9645 19.7553 33.0903 19.701 33.1933 19.5924C33.2963 19.4839 33.3497 19.3094 33.3497 19.0651V17.7739H33.6624V19.9802H33.3497L33.3459 19.984Z" fill="#3C3C3C"/>
<path d="M35.7028 19.9841V18.6929C35.7028 18.4525 35.6609 18.278 35.577 18.1695C35.493 18.057 35.3634 18.0027 35.1918 18.0027C35.0392 18.0027 34.9134 18.057 34.8104 18.1656C34.7074 18.2742 34.6578 18.4486 34.6578 18.6929V19.9841H34.3451V17.7779H34.6578V18.0454C34.7188 17.9523 34.7989 17.8787 34.8981 17.8205C34.9973 17.7623 35.1155 17.7313 35.2528 17.7313C35.3672 17.7313 35.474 17.7507 35.5693 17.7856C35.6647 17.8205 35.7448 17.8748 35.8096 17.9485C35.8744 18.0221 35.9278 18.1152 35.9621 18.2315C35.9965 18.344 36.0155 18.4797 36.0155 18.6425V19.988H35.7028V19.9841Z" fill="#3C3C3C"/>
<path d="M39.8294 19.3443C39.776 19.4955 39.6997 19.6234 39.6044 19.7243C39.509 19.8251 39.3946 19.9026 39.2649 19.953C39.1353 20.0034 38.9942 20.0267 38.8416 20.0267C38.6662 20.0267 38.506 19.9879 38.3611 19.9104C38.2161 19.8328 38.0941 19.7281 37.9911 19.5924C37.8882 19.4567 37.8119 19.2977 37.7547 19.1116C37.7013 18.9255 37.6708 18.7278 37.6708 18.5106C37.6708 18.2935 37.7013 18.088 37.7585 17.9019C37.8157 17.7158 37.8958 17.5568 37.9988 17.4211C38.1017 17.2854 38.2276 17.1807 38.3725 17.1031C38.5174 17.0256 38.6776 16.9868 38.8531 16.9868C39.2459 16.9868 39.551 17.1458 39.776 17.456L39.5205 17.6537C39.4251 17.5258 39.3298 17.4327 39.2306 17.3707C39.1315 17.3125 39.0056 17.2815 38.8454 17.2815C38.7234 17.2815 38.609 17.3125 38.5022 17.3707C38.3954 17.4327 38.3077 17.5141 38.2314 17.6188C38.1589 17.7235 38.0979 17.8515 38.056 18.0027C38.014 18.1539 37.9911 18.3168 37.9911 18.4951C37.9911 18.6735 38.014 18.8402 38.056 18.9876C38.1017 19.1388 38.1589 19.2667 38.2352 19.3753C38.3115 19.4839 38.403 19.5692 38.506 19.6273C38.6128 19.6894 38.7234 19.7165 38.8454 19.7165C39.0857 19.7165 39.2726 19.6428 39.4022 19.4955C39.5281 19.3482 39.5929 19.1271 39.5929 18.8402V18.8169H39.0743V18.5184H39.9095V18.8014C39.9095 19.0031 39.8828 19.1775 39.8294 19.3326V19.3443Z" fill="#3C3C3C"/>
<path d="M40.5006 19.9841V17.0993L40.8133 16.9248V19.988H40.5006V19.9841Z" fill="#3C3C3C"/>
<path d="M43.2923 18.8674C43.2923 19.0535 43.2694 19.2202 43.216 19.3637C43.1664 19.5071 43.0978 19.6312 43.0138 19.7282C42.9261 19.829 42.827 19.9026 42.7126 19.953C42.5981 20.0035 42.4723 20.0306 42.3388 20.0306C42.2053 20.0306 42.0833 20.0073 41.9689 19.9569C41.8544 19.9065 41.7553 19.8367 41.6714 19.7398C41.5875 19.6429 41.5226 19.5227 41.4769 19.3792C41.4273 19.2357 41.4044 19.0729 41.4044 18.8829C41.4044 18.6929 41.4273 18.53 41.4769 18.3866C41.5265 18.2431 41.5951 18.1229 41.679 18.026C41.7629 17.929 41.8659 17.8554 41.9803 17.805C42.0947 17.7546 42.2206 17.7274 42.3541 17.7274C42.4875 17.7274 42.6096 17.7507 42.724 17.7972C42.8384 17.8437 42.9376 17.9174 43.0215 18.0105C43.1054 18.1074 43.1702 18.2237 43.2198 18.3672C43.2694 18.5068 43.2923 18.6735 43.2923 18.8596V18.8674ZM42.9795 18.8751C42.9795 18.5843 42.9223 18.3633 42.8079 18.2198C42.6935 18.0764 42.5409 18.0027 42.3502 18.0027C42.1596 18.0027 42.007 18.0764 41.8926 18.2198C41.7782 18.3633 41.721 18.5843 41.721 18.8751C41.721 19.1659 41.7782 19.3869 41.8926 19.5382C42.007 19.6855 42.1596 19.7631 42.3502 19.7631C42.5409 19.7631 42.6935 19.6894 42.8079 19.5382C42.9223 19.3908 42.9795 19.1698 42.9795 18.8751Z" fill="#3C3C3C"/>
<path d="M44.9666 18.1074C44.9208 18.0803 44.8751 18.0609 44.8255 18.0454C44.7759 18.0299 44.7149 18.0221 44.6424 18.0221C44.4899 18.0221 44.3755 18.0803 44.2954 18.1966C44.2153 18.3129 44.1733 18.4796 44.1733 18.689V19.9841H43.8606V17.7778H44.1733V18.0492C44.2229 17.9601 44.2954 17.8825 44.3907 17.8205C44.4861 17.7584 44.5928 17.7274 44.7073 17.7274C44.7874 17.7274 44.8522 17.7313 44.9056 17.7429C44.959 17.7546 45.0047 17.7662 45.0429 17.7817L44.9628 18.0996L44.9666 18.1074Z" fill="#3C3C3C"/>
<path d="M46.145 20.7596H45.8361L46.1335 19.9569L45.3632 17.7778H45.6911L46.2213 19.3792L46.2937 19.6041L46.37 19.3831L46.9039 17.7778H47.2319L46.1526 20.7596H46.145Z" fill="#3C3C3C"/>
<path d="M50.7063 19.9841L50.4584 19.2358H49.2647L49.013 19.9841H48.6812L49.6842 17.045H50.0389L51.0419 19.9841H50.7025H50.7063ZM50.0427 17.9717C50.0274 17.9252 50.0084 17.8709 49.9893 17.8166C49.9702 17.7624 49.955 17.7081 49.9359 17.6538C49.9206 17.6034 49.9054 17.553 49.8939 17.5065C49.8825 17.4599 49.8711 17.4212 49.8634 17.3901C49.8558 17.4212 49.8444 17.4599 49.8329 17.5026C49.8215 17.5452 49.8062 17.5956 49.791 17.6499C49.7757 17.7042 49.7566 17.7585 49.7376 17.8166C49.7185 17.8748 49.6994 17.9291 49.6842 17.9795L49.3638 18.9372H50.3592L50.0427 17.9717Z" fill="#3C3C3C"/>
<path d="M52.72 18.1074C52.6742 18.0803 52.6285 18.0609 52.5789 18.0454C52.5293 18.0299 52.4683 18.0221 52.3958 18.0221C52.2433 18.0221 52.1289 18.0803 52.0488 18.1966C51.9687 18.3129 51.9267 18.4796 51.9267 18.689V19.9841H51.614V17.7778H51.9267V18.0492C51.9763 17.9601 52.0488 17.8825 52.1441 17.8205C52.2395 17.7584 52.3463 17.7274 52.4645 17.7274C52.5446 17.7274 52.6094 17.7313 52.6628 17.7429C52.7162 17.7546 52.762 17.7662 52.8001 17.7817L52.72 18.0996V18.1074Z" fill="#3C3C3C"/>
<path d="M54.5049 18.2238C54.4248 18.1501 54.3447 18.0958 54.2684 18.0571C54.1921 18.0183 54.0968 17.9989 53.9862 17.9989C53.9023 17.9989 53.8222 18.0183 53.7497 18.0571C53.6773 18.0958 53.6124 18.1501 53.559 18.2277C53.5056 18.3013 53.4637 18.3944 53.4332 18.4991C53.4027 18.6076 53.3874 18.7278 53.3874 18.8674C53.3874 19.1388 53.4408 19.356 53.5476 19.5188C53.6544 19.6817 53.8031 19.7631 53.9976 19.7631C54.1044 19.7631 54.1921 19.7437 54.2722 19.7011C54.3485 19.6584 54.4248 19.6003 54.501 19.5305L54.6879 19.7321C54.5964 19.8251 54.4972 19.8988 54.3866 19.9531C54.276 20.0074 54.1464 20.0345 53.99 20.0345C53.8718 20.0345 53.7574 20.0113 53.6468 19.9647C53.5362 19.9182 53.437 19.8484 53.3569 19.7515C53.273 19.6545 53.2043 19.5382 53.1548 19.3948C53.1052 19.2552 53.0785 19.0846 53.0785 18.8946C53.0785 18.6891 53.1052 18.5146 53.1624 18.3711C53.2158 18.2238 53.2883 18.1075 53.376 18.0105C53.4637 17.9175 53.5628 17.8477 53.6734 17.8011C53.784 17.7546 53.8985 17.7352 54.0091 17.7352C54.1578 17.7352 54.2875 17.7585 54.3981 17.8089C54.5087 17.8554 54.6078 17.9175 54.6917 17.995L54.5049 18.2315V18.2238Z" fill="#3C3C3C"/>
<path d="M56.591 19.9841V18.6929C56.591 18.4525 56.549 18.278 56.4651 18.1694C56.3812 18.057 56.2516 18.0027 56.0799 18.0027C55.9274 18.0027 55.8015 18.057 55.6986 18.1656C55.5956 18.2741 55.546 18.4486 55.546 18.6929V19.9841H55.2333V17.0993L55.546 16.9248V18.0492C55.607 17.9562 55.6871 17.8825 55.7863 17.8244C55.8854 17.7662 56.0037 17.7352 56.141 17.7352C56.2554 17.7352 56.3622 17.7546 56.4575 17.7895C56.5529 17.8244 56.6329 17.8786 56.6978 17.9523C56.7626 18.026 56.816 18.119 56.8503 18.2354C56.8847 18.3478 56.9037 18.4835 56.9037 18.6464V19.9918H56.591V19.9841Z" fill="#3C3C3C"/>
<path d="M57.9716 17.1614C57.9716 17.2234 57.9487 17.2738 57.9067 17.3204C57.8648 17.363 57.8152 17.3863 57.7542 17.3863C57.6894 17.3863 57.636 17.363 57.594 17.3204C57.5482 17.2777 57.5292 17.2234 57.5292 17.1614C57.5292 17.0993 57.5521 17.0412 57.594 16.9985C57.6398 16.9559 57.6932 16.9326 57.7542 16.9326C57.8114 16.9326 57.861 16.9559 57.9067 16.9985C57.9487 17.0412 57.9716 17.0955 57.9716 17.1614ZM57.594 19.9841V17.7779H57.9067V19.9841H57.594Z" fill="#3C3C3C"/>
<path d="M61.7587 19.3443C61.7053 19.4955 61.629 19.6234 61.5337 19.7243C61.4384 19.8251 61.3239 19.9026 61.1943 19.953C61.0646 20.0034 60.9235 20.0267 60.7709 20.0267C60.5955 20.0267 60.4353 19.9879 60.2904 19.9104C60.1455 19.8328 60.0234 19.7281 59.9205 19.5924C59.8175 19.4567 59.7412 19.2977 59.684 19.1116C59.6306 18.9255 59.6001 18.7278 59.6001 18.5106C59.6001 18.2935 59.6306 18.088 59.6878 17.9019C59.745 17.7158 59.8251 17.5568 59.9281 17.4211C60.0311 17.2854 60.1569 17.1807 60.3018 17.1031C60.4468 17.0256 60.6069 16.9868 60.7824 16.9868C61.1752 16.9868 61.4803 17.1458 61.7053 17.456L61.4498 17.6537C61.3544 17.5258 61.2591 17.4327 61.1599 17.3707C61.0608 17.3125 60.9349 17.2815 60.7748 17.2815C60.6527 17.2815 60.5383 17.3125 60.4315 17.3707C60.3247 17.4327 60.237 17.5141 60.1607 17.6188C60.0883 17.7235 60.0272 17.8515 59.9853 18.0027C59.9433 18.1539 59.9205 18.3168 59.9205 18.4951C59.9205 18.6735 59.9433 18.8402 59.9853 18.9876C60.0311 19.1388 60.0883 19.2667 60.1645 19.3753C60.2408 19.4839 60.3323 19.5692 60.4353 19.6273C60.5421 19.6894 60.6527 19.7165 60.7748 19.7165C61.015 19.7165 61.2019 19.6428 61.3316 19.4955C61.4574 19.3482 61.5223 19.1271 61.5223 18.8402V18.8169H61.0036V18.5184H61.8388V18.8014C61.8388 19.0031 61.8121 19.1775 61.7587 19.3326V19.3443Z" fill="#3C3C3C"/>
<path d="M63.5207 18.1074C63.4749 18.0803 63.4292 18.0609 63.3796 18.0454C63.33 18.0299 63.269 18.0221 63.1965 18.0221C63.044 18.0221 62.9295 18.0803 62.8494 18.1966C62.7694 18.3129 62.7274 18.4796 62.7274 18.689V19.9841H62.4147V17.7778H62.7274V18.0492C62.777 17.9601 62.8494 17.8825 62.9448 17.8205C63.0401 17.7584 63.1469 17.7274 63.2613 17.7274C63.3414 17.7274 63.4063 17.7313 63.4597 17.7429C63.5131 17.7546 63.5588 17.7662 63.597 17.7817L63.5169 18.0996L63.5207 18.1074Z" fill="#3C3C3C"/>
<path d="M65.7594 18.8674C65.7594 19.0535 65.7365 19.2202 65.6831 19.3637C65.6336 19.5071 65.5649 19.6312 65.481 19.7282C65.3971 19.829 65.2941 19.9026 65.1797 19.953C65.0653 20.0035 64.9394 20.0306 64.806 20.0306C64.6725 20.0306 64.5504 20.0073 64.436 19.9569C64.3216 19.9065 64.2225 19.8367 64.1385 19.7398C64.0546 19.6429 63.9898 19.5227 63.944 19.3792C63.8945 19.2357 63.8716 19.0729 63.8716 18.8829C63.8716 18.6929 63.8945 18.53 63.944 18.3866C63.9936 18.2431 64.0623 18.1229 64.1462 18.026C64.2301 17.929 64.3331 17.8554 64.4475 17.805C64.5619 17.7546 64.6877 17.7274 64.8212 17.7274C64.9547 17.7274 65.0767 17.7507 65.1912 17.7972C65.3056 17.8437 65.4047 17.9174 65.4886 18.0105C65.5725 18.1074 65.6374 18.2237 65.687 18.3672C65.7365 18.5068 65.7594 18.6735 65.7594 18.8596V18.8674ZM65.4467 18.8751C65.4467 18.5843 65.3895 18.3633 65.2751 18.2198C65.1606 18.0764 65.0081 18.0027 64.8174 18.0027C64.6267 18.0027 64.4742 18.0764 64.3597 18.2198C64.2453 18.3633 64.1881 18.5843 64.1881 18.8751C64.1881 19.1659 64.2453 19.3869 64.3597 19.5382C64.4742 19.6855 64.6267 19.7631 64.8174 19.7631C65.0081 19.7631 65.1606 19.6894 65.2751 19.5382C65.3895 19.3908 65.4467 19.1698 65.4467 18.8751Z" fill="#3C3C3C"/>
<path d="M67.6701 19.984V19.7165C67.6053 19.8096 67.5252 19.8832 67.426 19.9414C67.3269 19.9996 67.2086 20.0306 67.0713 20.0306C66.9569 20.0306 66.8501 20.0112 66.7586 19.9763C66.6632 19.9414 66.5832 19.8871 66.5183 19.8134C66.4535 19.7398 66.4001 19.6467 66.3658 19.5304C66.3314 19.4179 66.3124 19.2822 66.3124 19.1194V17.7739H66.6251V19.0651C66.6251 19.3055 66.6671 19.48 66.751 19.5885C66.8349 19.701 66.9645 19.7553 67.1362 19.7553C67.2887 19.7553 67.4146 19.701 67.5175 19.5924C67.6205 19.4839 67.6739 19.3094 67.6739 19.0651V17.7739H67.9866V19.9802H67.6739L67.6701 19.984Z" fill="#3C3C3C"/>
<path d="M70.4046 18.8441C70.4046 19.0419 70.3817 19.2125 70.3398 19.3598C70.2978 19.5072 70.2406 19.6312 70.1644 19.7282C70.0919 19.829 70.0042 19.9027 69.905 19.9531C69.8059 20.0035 69.6991 20.0306 69.5885 20.0306C69.4512 20.0306 69.3329 20.0035 69.2376 19.9492C69.1423 19.8949 69.0545 19.8251 68.9783 19.7359V20.62L68.6655 20.7945V17.7779H68.9783V18.0454C69.0507 17.9601 69.1423 17.8864 69.2452 17.8244C69.352 17.7623 69.4779 17.7313 69.6266 17.7313C69.7334 17.7313 69.8364 17.7546 69.9317 17.7972C70.0271 17.8399 70.111 17.9058 70.1796 17.995C70.2483 18.0842 70.3055 18.2005 70.3436 18.3401C70.3856 18.4797 70.4046 18.6503 70.4046 18.8403V18.8441ZM70.0995 18.848C70.0995 18.565 70.0499 18.3556 69.9546 18.2121C69.8593 18.0687 69.7258 17.9989 69.5503 17.9989C69.4359 17.9989 69.3291 18.026 69.2376 18.0842C69.1423 18.1423 69.0584 18.2199 68.9821 18.3168V19.4219C69.0431 19.5149 69.1232 19.5925 69.2223 19.6584C69.3215 19.7243 69.4359 19.7553 69.5656 19.7553C69.7448 19.7553 69.8821 19.6778 69.9699 19.5227C70.0576 19.3676 70.0995 19.1427 70.0995 18.8441V18.848Z" fill="#3C3C3C"/>
<path d="M15.0645 10.8877L4.57273 7.00646C4.90834 5.55631 6.17453 4.49003 7.66191 4.49003C8.80224 4.49003 9.86248 5.11429 10.4346 6.11854C10.7168 6.61097 10.8655 7.17319 10.8655 7.74705C10.8655 7.97581 11.0448 8.15805 11.2698 8.15805C11.4948 8.15805 11.674 7.97581 11.674 7.74705C11.674 7.02973 11.4872 6.32404 11.1363 5.70366C10.4193 4.44738 9.08828 3.66414 7.66191 3.66414C5.83129 3.66414 4.26381 4.95144 3.80997 6.71953L2.86033 6.36669C3.46291 4.19922 5.41939 2.65214 7.66191 2.65214C9.77858 2.65214 11.6779 4.01699 12.3834 6.04487C12.5741 6.59158 12.6694 7.16156 12.6694 7.74317C12.6694 7.97193 12.8487 8.15417 13.0737 8.15417C13.2987 8.15417 13.478 7.97193 13.478 7.74317C13.478 7.0685 13.3674 6.40159 13.1424 5.76957C12.3224 3.41211 10.118 1.83013 7.6581 1.83013C5.07234 1.83013 2.81456 3.59823 2.09757 6.08752L1.15174 5.73855C2.01748 2.8305 4.64138 0.822009 7.6581 0.822009C10.6748 0.822009 13.4818 2.95846 14.256 6.01385C14.4009 6.57607 14.4696 7.16156 14.4696 7.74705C14.4696 7.97581 14.6526 8.15805 14.8738 8.15805C15.095 8.15805 15.2781 7.97581 15.2781 7.74705C15.2781 7.09176 15.198 6.44036 15.0378 5.80835C14.1721 2.38848 11.1401 0 7.6581 0C4.17609 0 1.10216 2.42725 0.26694 5.89753C0.263126 5.91691 0.26694 5.9363 0.26694 5.95569C0.26694 5.98283 0.259312 6.00997 0.26694 6.03711C0.26694 6.06425 0.278381 6.08752 0.286009 6.11078C0.293637 6.13792 0.301264 6.16119 0.312706 6.18445C0.324147 6.20772 0.343216 6.2271 0.358471 6.24649C0.373726 6.26588 0.388982 6.28527 0.408051 6.30465C0.430934 6.32404 0.453816 6.33567 0.476699 6.3473C0.495768 6.35506 0.50721 6.37057 0.526279 6.37832L2.22724 7.00646L3.96633 7.65011L14.7937 11.6555C14.8395 11.671 14.8853 11.6787 14.931 11.6787C15.095 11.6787 15.2514 11.574 15.3124 11.4073C15.3887 11.1941 15.2819 10.9575 15.0721 10.88L15.0645 10.8877Z" fill="#56B87E"/>
<path d="M15.0263 12.8265L0.541462 7.4679C0.331702 7.39035 0.0990602 7.49892 0.022784 7.71217C-0.0534922 7.92543 0.0532945 8.16195 0.263054 8.2395L14.7479 13.6019C14.7937 13.6175 14.8394 13.6252 14.8852 13.6252C15.0492 13.6252 15.2056 13.5205 15.2666 13.3538C15.3429 13.1405 15.2361 12.904 15.0263 12.8265Z" fill="#56B87E"/>
<path d="M15.0416 15.0327C15.0416 15.0055 15.0301 14.9823 15.0225 14.959C15.0149 14.9319 15.0072 14.9086 14.9958 14.8853C14.9844 14.8621 14.9653 14.8427 14.95 14.8233C14.9348 14.8039 14.9195 14.7845 14.9004 14.7651C14.8776 14.7458 14.8547 14.7341 14.8318 14.7225C14.8165 14.7147 14.8013 14.6992 14.7822 14.6915L13.0813 14.0633L11.3612 13.4274L0.541462 9.41821C0.331702 9.34067 0.0990602 9.44923 0.022784 9.66249C-0.0534922 9.87575 0.0532945 10.1123 0.263054 10.1898L10.7396 14.0672C10.6671 14.3541 10.5718 14.6294 10.4269 14.8776C9.85478 15.8818 8.79454 16.5061 7.65421 16.5061C5.88842 16.5061 4.45062 15.0443 4.45062 13.2491C4.45062 13.0203 4.26755 12.8381 4.04635 12.8381C3.82515 12.8381 3.64209 13.0242 3.64209 13.2491C3.64209 15.498 5.4422 17.3281 7.65421 17.3281C9.08058 17.3281 10.4116 16.5449 11.1286 15.2886C11.2964 14.9978 11.4108 14.6798 11.5023 14.3464L12.4367 14.6915C11.8113 16.8202 9.86622 18.3362 7.65803 18.3362C4.89683 18.3362 2.6505 16.0524 2.6505 13.2452C2.6505 13.0164 2.46743 12.8342 2.24623 12.8342C2.02503 12.8342 1.84197 13.0203 1.84197 13.2452C1.84197 16.5061 4.45061 19.1582 7.66184 19.1582C10.2133 19.1582 12.4596 17.4173 13.1995 14.9707L14.1453 15.3196C13.2567 18.1928 10.6442 20.1702 7.66184 20.1702C3.90524 20.1702 0.85038 17.0606 0.85038 13.2452C0.85038 13.0164 0.667318 12.8342 0.446117 12.8342C0.224916 12.8342 0.041853 13.0203 0.041853 13.2452C0.041853 17.5181 3.46284 20.9961 7.66184 20.9961C11.14 20.9961 14.172 18.5999 15.0377 15.1723C15.0416 15.1529 15.0377 15.1335 15.0377 15.1102C15.0377 15.0831 15.0454 15.056 15.0377 15.0288L15.0416 15.0327Z" fill="#56B87E"/>
<path d="M0.797086 4.40088C0.64072 4.73821 0.503423 5.09106 0.392822 5.45553L1.15558 5.73858C1.26618 5.37411 1.39967 5.02126 1.56366 4.68393L0.797086 4.40088Z" fill="#56B87E"/>
<path d="M3.29507 5.3237L2.52468 5.04065C2.35306 5.37411 2.20432 5.71919 2.09753 6.08755L2.85648 6.36672C2.95945 5.99449 3.11582 5.65328 3.29126 5.3237H3.29507Z" fill="#56B87E"/>
<path d="M5.01513 5.95956L4.24474 5.67651C4.05786 5.99834 3.9015 6.34343 3.80615 6.71953L4.56891 7.00258C4.65663 6.62648 4.80918 6.27751 5.01132 5.96344L5.01513 5.95956Z" fill="#56B87E"/>
<path d="M12.4328 14.7109C12.3222 15.0793 12.1621 15.4205 11.979 15.7462L12.7494 16.0293C12.9248 15.6997 13.0812 15.3546 13.1918 14.9901L12.4328 14.7109Z" fill="#56B87E"/>
<path d="M14.9004 15.622L14.1377 15.339C14.0233 15.7035 13.8822 16.0563 13.7144 16.3859L14.4809 16.6689C14.6449 16.3316 14.786 15.9826 14.9004 15.6182V15.622Z" fill="#56B87E"/>
<path d="M10.4307 14.8815C10.3849 14.9668 10.3277 15.0405 10.2743 15.118L11.0561 15.405C11.079 15.3662 11.1095 15.3352 11.1286 15.2925C11.2926 15.0056 11.407 14.6876 11.4985 14.3619L10.7358 14.0828C10.6633 14.3619 10.5718 14.6334 10.4268 14.8815H10.4307Z" fill="#56B87E"/>
</g>
<defs>
<clipPath id="clip0_185_95">
<rect width="78" height="21" fill="white"/>
</clipPath>
</defs>
</svg>
