<?xml version="1.0" encoding="UTF-8"?>
<svg xmlns="http://www.w3.org/2000/svg" viewBox="0 0 515.37 239.76">
 
      <g>
        <path fill="#fff" d="M267.69,113.42c-.99,0-3.96,0-4.82-.13-10.39-.63-12.86-1.89-17.81-8.71-4.08-5.81-10.02-15.91-14.34-23.48-3.22-5.55-4.58-6.31-10.88-6.31h-5.19v23.99c0,9.72,.99,11.11,10.88,12.5v1.51h-30.42v-1.51c9.64-1.52,10.76-2.53,10.76-12.5V44.49c0-9.72-.87-10.73-10.76-12.25v-1.52h29.55c8.41,0,15.09,1.39,19.54,4.67,4.45,3.03,7.54,8.71,7.54,15.53,0,10.35-6.8,17.55-15.83,21.59,2.35,4.29,8.04,13.89,11.75,19.57,4.2,6.56,7.42,11.36,10.26,14.52,3.09,3.41,5.19,4.42,10.14,5.3l-.37,1.51Zm-45.51-41.16c6.18,0,9.65-.25,13.11-2.78,4.95-3.54,6.55-8.71,6.55-16.29,0-13.76-7.42-19.95-17.93-19.95-4.58,0-6.8,.5-7.79,1.14-1.11,.76-1.48,1.89-1.48,5.93v31.94h7.54Z"/>
        <path fill="#fff" d="M268.19,112.79v-1.51c9.77-1.77,10.76-2.9,10.76-12.63V45c0-10.48-.87-11.11-10.76-12.75v-1.52h30.42v1.52c-10.02,1.39-10.88,2.27-10.88,12.75v53.66c0,9.6,.87,10.73,10.88,12.63v1.51h-30.42Z"/>
        <path fill="#fff" d="M386.03,77.82c-7.3,1.39-7.79,2.53-7.79,9.85v10.48c0,4.67,.12,8.84,1.11,11.99-7.42,1.64-18.42,4.54-27.45,4.54-26.71,0-43.65-16.54-43.65-42.8,0-28.79,21.89-42.93,45.75-42.93,11.87,0,20.16,2.53,23.12,2.65,.25,4.17,.87,13.38,1.73,18.81l-1.73,.5c-2.47-9.34-5.56-15.02-14.34-17.55-3.09-.88-7.17-1.51-12-1.51-20.28,0-31.9,14.27-31.9,38.51,0,19.82,9.15,41.41,34.62,41.41,4.2,0,9.03-.63,11.62-2.15,2.84-1.64,4.21-3.41,4.21-9.97v-10.73c0-8.96-.62-9.85-11.5-11.11v-1.77h28.19v1.77Z"/>
        <path fill="#fff" d="M393.82,112.79v-1.51c9.77-1.77,10.76-2.9,10.76-12.63V45c0-10.48-.87-11.11-10.76-12.75v-1.52h30.42v1.52c-10.02,1.39-10.88,2.27-10.88,12.75v53.66c0,9.6,.87,10.73,10.88,12.63v1.51h-30.42Z"/>
        <path fill="#fff" d="M515.37,32.24c-8.78,2.02-9.52,3.53-9.77,12.12-.12,3.28-.37,5.55-.37,16.54v53.28h-1.98l-55.52-69.82v36.23c0,12.12,.25,16.03,.37,20.07,.25,7.32,2.23,8.96,11.87,10.61v1.51h-27.95v-1.51c9.15-2.15,11.13-3.28,11.38-10.73,.12-3.28,.37-7.95,.37-19.95V43.23c0-2.27-.49-3.79-1.73-5.3-2.97-3.79-6.68-4.8-11.25-5.68v-1.52h17.31l53.3,66.03V60.9c0-10.98-.12-12.75-.37-17.04-.49-8.08-2.1-10.35-12.37-11.61v-1.52h26.71v1.52Z"/>
      </g>
      <path fill="#fff" d="M114.76,0c59.32,0,111.58,47.67,111.58,116.52,0,74.15-51.2,123.23-114.41,123.23S0,188.91,0,123.23,43.79,0,114.76,0Zm-6.71,7.77C67.09,7.77,30.37,44.49,30.37,112.99s36.02,118.64,89.33,118.64c41.67,0,76.27-36.02,76.27-104.17,0-76.27-37.08-119.7-87.92-119.7Z"/>
      <g>
        <path fill="#fff" d="M232.49,148.31c11.19,.96,7.92,9.07,3.74,6.38-.58-2.21-2.5-4.61-4.13-6l.38-.38Zm13.25-3.22c-1.68,6.05-4.75,17.14-5.28,19.68-.38,1.54-.67,3.17-.62,4.42,.05,2.4,1.78,4.32,1.58,8.5-.1,2.26-1.34,3.7-3.31,3.7-1.01,0-1.87-.77-2.11-2.4,.77-4.94,.53-9.22-.53-9.94-.67-.48-1.39-.67-2.4-.77v-.96h2.11c.62,0,.82-.05,1.25-1.01q.86-1.73,8.5-21.36l.82,.14Zm-10.22-7.87c11.9,1.3,8.45,9.74,4.13,6.96-.67-2.4-2.74-5.04-4.56-6.58l.43-.38Zm36.82,.19s3.02,2.3,4.85,3.98c-.1,.53-.62,.77-1.3,.77h-13.49l4.7,1.15c-.19,.62-.77,1.06-1.78,1.1-1.01,1.25-2.21,2.59-3.41,3.6h7.44l2.06-2.26,4.42,3.41c-.29,.34-.96,.72-1.87,.91v13.63c-.05,.29-2.11,1.15-3.46,1.15h-.67v-1.82h-3.89v12.53c0,3.12-.72,5.33-5.66,5.76-.05-1.39-.29-2.45-.86-3.12s-1.58-1.2-3.65-1.49v-.67s4.08,.24,4.99,.24c.72,0,.91-.24,.91-.82v-12.43h-3.98v1.01c0,.34-1.78,1.3-3.46,1.3h-.62v-19.15l4.32,1.82h2.26c.34-1.63,.62-3.74,.77-5.86h-10.18v10.08c0,8.69-.53,20.83-8.79,29l-.67-.43c4.66-8.5,5.14-19.15,5.14-28.56v-13.39l5.04,1.97h18.24l2.59-3.41Zm-12.05,31.06c-.24,.53-.62,.77-1.78,.62-2.06,3.26-5.66,7.34-9.89,9.94l-.53-.58c3.12-3.46,5.81-8.79,6.96-12.48l5.23,2.5Zm-2.59-19.06v5.62h12.15v-5.62h-12.15Zm12.15,12.24v-5.23h-12.15v5.23h12.15Zm-2.06,5.09c12.62,5.18,9.31,13.78,5.18,10.61-.67-3.41-3.46-7.58-5.71-10.27l.53-.34Z"/>
        <path fill="#fff" d="M329.84,146.44c-.34,.34-1.1,.77-2.11,1.01v32.21c-.1,.38-2.3,1.49-4.03,1.49h-.77v-3.41h-20.93v1.82c0,.58-1.87,1.73-3.89,1.73h-.77v-38.26l5.04,2.16h5.47c.67-2.59,1.2-5.95,1.49-8.4l7.25,1.25c-.14,.62-.67,1.06-1.73,1.1-1.3,1.82-3.22,4.13-5.18,6.05h12.77l2.45-2.74,4.94,3.98Zm-27.84,.14v8.74h20.93v-8.74h-20.93Zm0,10.13v9.07h20.93v-9.07h-20.93Zm20.93,19.63v-9.26h-20.93v9.26h20.93Z"/>
        <path fill="#fff" d="M256.68,225.16h-5.47v9.75h-4.85v-9.75h-14.26v-2.88l15.55-21.79h3.55v21.12h5.47v3.55Zm-10.32-3.55v-16.27l-11.57,16.27h11.57Z"/>
        <path fill="#fff" d="M292.2,217.92c0,12.82-5.52,17.71-11.33,17.71s-11.38-4.9-11.38-17.71,5.47-17.86,11.38-17.86,11.33,5.04,11.33,17.86Zm-11.33,15.79c3.12,0,6.05-3.36,6.05-15.79s-2.93-15.89-6.05-15.89-6.1,3.36-6.1,15.89,2.83,15.79,6.1,15.79Z"/>
        <path fill="#fff" d="M344.86,221.51s3.36,2.54,5.42,4.27c-.14,.53-.67,.77-1.34,.77h-15.84v11.04c0,.34-1.54,1.34-4.08,1.34h-.86v-12.38h-22.03l-.43-1.39h8.3v-14.88l5.42,2.06h8.74v-9.17h-9.79c-3.6,4.9-7.83,8.74-12.29,11.42l-.58-.48c4.42-4.61,9.17-12.38,11.95-20.45l6.67,2.59c-.24,.58-.86,.96-1.97,.86-.86,1.63-1.82,3.17-2.83,4.66h21.22l2.93-3.7s3.26,2.4,5.33,4.32c-.1,.53-.58,.77-1.25,.77h-14.45v9.17h6.38l2.69-3.41s3.17,2.35,5.09,4.03c-.1,.53-.62,.77-1.3,.77h-12.87v11.42h8.78l2.98-3.65Zm-16.71,3.65v-11.42h-9.36v11.42h9.36Z"/>
        <path fill="#fff" d="M380.09,214.36c-.34,.43-.77,.62-1.82,.72-.67,5.09-1.92,9.94-4.46,14.21,5.18,3.31,12.38,4.03,22.51,4.03,2.64,0,8.5,0,11.57-.05v.62c-1.87,.34-2.74,1.92-2.88,3.74h-9.07c-11.04,0-18.48-1.2-23.71-6.05-2.16,2.88-5.09,5.38-9.03,7.34l-.38-.67c3.31-2.45,5.71-5.42,7.39-8.83-2.21-2.83-3.98-6.67-5.38-11.62l.62-.34c1.49,4.27,3.41,7.39,5.71,9.7,1.58-3.89,2.4-8.21,2.83-12.67h-3.94l-1.58,1.49-3.98-2.74c.43-.34,1.1-.67,1.73-.91,1.82-3.22,4.32-8.45,5.67-11.86h-8.26l-.43-1.39h8.64l2.16-2.21,4.27,3.89c-.38,.43-1.2,.67-2.21,.77-1.34,3.07-3.84,8.21-5.62,11.57h3.17l2.3-2.35,4.18,3.6Zm24.67-11.71s2.45,2.3,3.84,3.84c-.14,.53-.62,.77-1.3,.77h-5.28v6.77c-.05,.34-2.16,1.2-3.55,1.2h-.67v-1.63h-5.47v4.94h5.47l2.35-3.17s2.83,2.21,4.51,3.79c-.14,.53-.62,.77-1.3,.77h-11.04v5.04h7.06l2.64-3.41s3.12,2.3,4.99,4.03c-.14,.53-.67,.77-1.34,.77h-13.35v4.75c0,.43-1.82,1.3-3.46,1.3h-.91v-6.05h-10.61l-.38-1.39h10.99v-5.04h-8.26l-.38-1.39h8.64v-4.94h-7.68l-.43-1.39h8.11v-4.94h-11.38l-.38-1.39h11.76v-4.85h-7.97l-.43-1.39h8.4v-5.23l6.14,.62c-.14,.67-.48,1.15-1.78,1.34v3.26h4.99l2.11-2.3,4.56,3.5c-.34,.34-1.06,.77-1.97,.96v4.08h.62l2.11-3.22Zm-12.43,3.22h5.47v-4.85h-5.47v4.85Zm5.47,1.39h-5.47v4.94h5.47v-4.94Z"/>
        <path fill="#fff" d="M430.97,200.01c-2.88,3.26-6.34,5.62-9.84,7.15l-.53-.58c3.26-2.74,6.58-7.34,8.54-12.62l5.95,2.45c-.24,.53-.86,.91-1.97,.77-.34,.48-.67,.96-1.01,1.44h6.29l2.26-2.88s2.45,2.02,3.94,3.5c-.14,.53-.58,.77-1.25,.77h-12.39Zm-9.79,37.35c4.85-2.54,9.79-6.96,12.14-10.37l5.38,3.26c-.29,.43-.77,.62-1.82,.38-3.41,2.93-9.31,5.86-15.27,7.34l-.43-.62Zm11.81-28.18v7.97c2.3-.34,4.75-.67,7.25-1.06l.1,.67c-3.36,1.34-8.21,3.12-14.93,5.33-.24,.62-.72,1.01-1.2,1.1l-2.16-4.7c1.49-.14,3.84-.38,6.77-.77v-8.54h-5.47l-.38-1.39h10.9l1.82-2.3c-.29-.05-.58-.14-.86-.29-.34-1.44-1.78-3.17-3.02-4.03l.43-.38c6.96-.14,6.62,4.08,4.42,4.7,.86,.67,2.4,1.92,3.5,2.93-.14,.53-.62,.77-1.3,.77h-5.86Zm26.74,11.95s3.17,2.5,5.09,4.32c-.14,.53-.62,.77-1.34,.77h-18v11.42c0,.38-2.06,1.25-3.94,1.25h-.86v-12.67h-17.91l-.38-1.39h18.29v-3.94l6.58,.62c-.1,.62-.48,1.1-1.78,1.3v2.02h11.42l2.83-3.7Zm3.94-4.37c.96,.43,1.15,.86,1.15,1.54,0,1.39-1.34,2.21-4.9,2.21h-1.87c-2.64,0-3.02-.86-3.02-3.07v-8.54h-6v1.78c0,.91-.1,1.97-.48,2.98,5.18,2.16,4.61,6.05,1.68,5.47-.77-.82-1.97-1.73-3.31-2.64-1.68,1.92-4.66,3.7-9.89,4.94l-.38-.62c4.32-1.82,6.43-3.89,7.44-6-1.39-.77-2.83-1.39-4.08-1.82l.38-.62c1.63,0,3.17,.14,4.46,.34,.14-.67,.19-1.34,.19-2.02v-1.78h-3.7l-.43-1.39h13.68l1.97-2.02,3.6,3.17c-.24,.29-.72,.53-1.58,.67v7.15c0,.48,.1,.62,.62,.62h1.97c.24-.05,.43-.05,.58-.34,.29-.43,.77-2.02,1.2-3.6l.58,.05,.14,3.55Zm-2.64-21.27s2.69,2.16,4.42,3.74c-.14,.53-.62,.77-1.3,.77h-14.74c-2.11,2.59-4.61,4.61-7.15,6l-.58-.48c2.21-2.69,4.42-7.06,5.71-11.52l5.9,2.35c-.24,.53-.86,.91-1.87,.77-.29,.53-.62,1.01-.96,1.49h8.11l2.45-3.12Zm-12.67,32.55c17.62,1.25,17.04,11.28,11.71,9.7-2.45-3.17-7.97-7.2-12.05-9.22l.34-.48Zm2.64-27.12c8.69,.19,5.38,6.38,2.06,4.13-.24-1.34-1.39-2.98-2.45-3.79l.38-.34Z"/>
      </g>
   
</svg>