<?xml version="1.0" encoding="UTF-8"?>
<svg id="_圖層_1" data-name="圖層 1" xmlns="http://www.w3.org/2000/svg" viewBox="0 0 246.2 109.73">
  <defs>
    <style>
      .cls-1, .cls-2 {
        fill: #fff;
      }

      .cls-3 {
        fill: #7c8c5b;
      }

      .cls-4 {
        fill: none;
        stroke: #fff;
        stroke-miterlimit: 10;
        stroke-width: .75px;
      }

      .cls-2 {
        font-family: NotoSerifTC-SemiBold-90ms-RKSJ-H, 'Noto Serif TC';
        font-size: 85px;
        letter-spacing: .1em;
      }
    </style>
  </defs>
  <circle class="cls-1" cx="11.12" cy="58.75" r="5"/>
  <g>
    <text class="cls-2" transform="translate(147.56 86.35)"><tspan x="0" y="0">鉅</tspan></text>
    <rect class="cls-4" x="137.62" y="2.25" width="106" height="106"/>
  </g>
  <rect class="cls-3" x="30.92" y="2.6" width="106" height="106"/>
  <path class="cls-1" d="M67.6,66.91c19.13,3.57,13.09,16.24,6.46,11.56-.85-3.32-3.74-7.4-6.46-10.03v24.31c0,.76-3.32,2.29-6.04,2.29h-1.44v-19.72c-4.17,5.61-9.35,10.37-15.73,14.37l-.94-1.28c6.72-6.29,11.56-15.05,14.45-23.97h-11.39l-.68-2.46h14.28v-11.9l10.46,1.02c-.17,1.19-.94,1.96-2.98,2.29v8.59h3.91l3.91-5.36s4.59,3.74,7.31,6.46c-.26,.94-1.1,1.36-2.21,1.36h-12.92v2.46Zm-20.83-16.15c11.14-5.27,20.49-13.18,26.35-21.68h-23.21l-.68-2.47h29.92v-10.46l11.39,1.11c-.25,1.19-.94,2.04-3.15,2.38v6.97h18.19l4.68-6.04s5.36,4.17,8.59,7.14c-.17,.93-1.11,1.36-2.3,1.36h-29.16v2.55c30.26,3.66,29.92,19.3,21.25,17.09-4.42-4.84-13.69-11.14-21.25-15.05v18.11c0,.68-3.66,2.04-6.72,2.04h-1.53v-19.98c-7.65,7.99-18.7,14.11-31.71,18.19l-.68-1.28Zm58.65,13.69c4.25,7.99,11.65,14.45,18.96,17.6l-.17,.76c-2.89,.68-5.02,3.06-6.04,6.97-6.46-5.27-11.22-13.26-14.2-23.72v26.86c0,.76-3.4,2.12-6.21,2.12h-1.53v-21.93c-5.02,6.97-11.9,12.58-20.4,17.09l-.85-1.19c8.33-6.38,14.37-15.22,17.94-24.57h-9.52l-.59-2.46h13.43v-11.73l10.63,1.11c-.17,1.1-.85,1.96-2.89,2.21v8.42h5.95l4.34-5.95s5.02,4.08,7.91,7.06c-.08,.94-.94,1.36-2.12,1.36h-14.62Z"/>
</svg>