<?xml version="1.0" encoding="UTF-8"?>
<svg id="_圖層_2" data-name="圖層 2" xmlns="http://www.w3.org/2000/svg" viewBox="0 0 386.48 268.41">
  <defs>
    <style>
      .cls-1 {
        fill: #fff;
      }

      .cls-2 {
        fill: #7c8c5b;
      }

      .cls-3 {
        stroke-width: .5px;
      }

      .cls-3, .cls-4 {
        fill: none;
        stroke: #1a1a1a;
        stroke-miterlimit: 10;
      }

      .cls-5 {
        fill: #1a1a1a;
      }
    </style>
  </defs>
  <g id="_圖層_4" data-name="圖層 4">
    <g>
      <rect class="cls-2" x="219.48" y="100.47" width="46" height="46"/>
      <rect class="cls-2" x="272.48" y="100.47" width="46" height="46"/>
      <rect class="cls-2" x="112.48" y="216.47" width="46" height="46"/>
      <rect class="cls-2" x="165.48" y="216.47" width="46" height="46"/>
      <circle class="cls-3" cx="241.48" cy="249.47" r="4"/>
      <g>
        <g>
          <path class="cls-5" d="M32.02,268.41h-.58c-.67-3.79-1.1-4.18-4.8-4.18H6.24c-3.98,0-4.22,.34-4.85,4.18H.82v-11.81h.58c.53,3.89,.86,4.22,4.85,4.22H26.64c3.65,0,4.08-.34,4.8-4.22h.58v11.81Z"/>
          <path class="cls-5" d="M1.39,221.23c.77,3.41,1.34,3.7,4.61,3.79,1.25,.05,2.11,.14,6.29,.14h20.26v.77l-26.55,21.55h13.78c4.61,0,6.1-.1,7.63-.14,2.78-.1,3.41-.86,4.03-4.61h.58v10.85h-.58c-.82-3.55-1.25-4.32-4.08-4.42-1.25-.05-3.02-.14-7.58-.14H5.57c-.86,0-1.44,.19-2.02,.67-1.44,1.15-1.82,2.59-2.16,4.37H.82v-6.72l25.11-20.69H12.29c-4.18,0-4.85,.05-6.48,.14-3.07,.19-3.94,.82-4.42,4.8H.82v-10.37h.58Z"/>
          <path class="cls-5" d="M1.39,186.04c.77,3.41,1.34,3.7,4.61,3.79,1.25,.05,2.11,.14,6.29,.14h20.26v.77l-26.55,21.55h13.78c4.61,0,6.1-.1,7.63-.14,2.78-.1,3.41-.86,4.03-4.61h.58v10.85h-.58c-.82-3.55-1.25-4.32-4.08-4.42-1.25-.05-3.02-.14-7.58-.14H5.57c-.86,0-1.44,.19-2.02,.67-1.44,1.15-1.82,2.59-2.16,4.37H.82v-6.72l25.11-20.69H12.29c-4.18,0-4.85,.05-6.48,.14-3.07,.19-3.94,.82-4.42,4.8H.82v-10.37h.58Z"/>
          <path class="cls-5" d="M.14,166.89c0-8.06,6.48-15.17,15.84-15.17,10.08,0,16.75,6.96,16.75,15.55s-6.91,15.22-15.84,15.22S.14,176.54,.14,166.89Zm1.06,.91c0,5.57,4.99,10.56,14.3,10.56s16.13-4.9,16.13-12.14c0-5.66-4.9-10.37-14.16-10.37-10.37,0-16.27,5.04-16.27,11.95Z"/>
          <path class="cls-5" d="M1.39,119.47c.53,3.22,1.2,3.7,5.33,5.42,3.7,1.49,16.71,6.62,26.02,10.23v.67c-8.93,3.17-17.91,6.43-26.69,9.6-3.74,1.34-4.13,2.02-4.66,5.14H.82v-11.23h.58c.62,3.22,1.15,3.6,2.98,3.02,3.7-1.2,19.35-7.01,22.51-8.21-4.9-1.92-15.03-5.66-21.22-7.87-2.93-1.06-3.65-1.01-4.27,3.31H.82v-10.08h.58Z"/>
          <path class="cls-5" d="M32.02,105.84h-.58c-.48-2.64-.86-3.36-2.59-2.78-2.06,.62-5.57,1.82-9.55,3.26v9.65c3.07,1.06,5.52,1.97,7.82,2.69,3.26,1.06,3.6,.34,4.32-3.31h.58v10.03h-.58c-.48-2.69-.82-3.5-5.33-5.28L.24,110.11l-.1-.67c8.74-2.98,17.52-6.1,26.45-9.31,4.18-1.49,4.18-2.06,4.85-5.09h.58v10.8Zm-26.35,5.19c4.08,1.54,8.26,2.98,12.24,4.46v-8.74l-12.24,4.27Z"/>
          <path class="cls-5" d="M7.58,72.04c-1.3,.34-2.02,.58-2.83,.91-1.92,.82-2.69,1.54-2.69,4.42v6H26.74c3.6,0,4.13-.34,4.7-4.56h.58v12.39h-.58c-.67-4.22-1.15-4.42-4.7-4.42H2.06v6.1c0,2.69,.86,3.12,2.11,3.79,1.25,.62,2.16,.86,3.41,1.25v.77c-2.59-.34-5.18-.58-7.58-.72v-.48c.72-.58,.82-.86,.82-2.59v-20.31c0-1.39-.14-1.82-.82-2.26v-.58c1.97,0,4.8-.19,7.44-.43l.14,.72Z"/>
          <path class="cls-5" d="M32.02,68.35h-.58c-.67-3.79-1.1-4.18-4.8-4.18H6.24c-3.98,0-4.22,.34-4.85,4.18H.82v-11.81h.58c.53,3.89,.86,4.22,4.85,4.22H26.64c3.65,0,4.08-.34,4.8-4.22h.58v11.81Z"/>
          <path class="cls-5" d="M1.39,24c.53,3.22,1.2,3.7,5.33,5.42,3.7,1.49,16.71,6.62,26.02,10.22v.67c-8.93,3.17-17.91,6.43-26.69,9.6-3.74,1.34-4.13,2.02-4.66,5.14H.82v-11.23h.58c.62,3.22,1.15,3.6,2.98,3.03,3.7-1.2,19.35-7.01,22.51-8.21-4.9-1.92-15.03-5.67-21.22-7.87-2.93-1.06-3.65-1.01-4.27,3.31H.82v-10.08h.58Z"/>
          <path class="cls-5" d="M25.2,0c1.58,.24,5.38,1.1,6.82,1.49V23.28h-.58c-.58-4.22-.91-4.51-4.85-4.51H6.53c-4.13,0-4.42,.14-5.14,3.89H.82V9.07c0-4.13,0-5.57-.1-6.48,1.68,0,5.14-.19,6.53-.34l.1,.67c-1.25,.34-2.98,1.01-3.79,1.49-1.34,.91-1.44,1.49-1.44,4.32v5.23c0,1.3,.14,1.39,1.49,1.39H14.74v-5.95c0-3.26-.62-3.7-3.84-4.27v-.62h9.03v.62c-3.36,.82-3.84,1.15-3.84,4.18v6.05h11.38c3.22,0,3.31-1.3,3.31-3.98V6.62c0-2.3-.43-2.98-2.26-4.18-1.06-.72-2.21-1.3-3.46-1.82l.14-.62Z"/>
        </g>
        <g>
          <path class="cls-5" d="M49.82,254.76c0-6.14,1.34-10.37,4.08-13.2,2.4-2.5,6-4.08,10.37-4.08,5.86,0,10.18,2.4,12.91,5.91,2.78,3.55,3.84,7.49,3.84,12.19v12.1h-.58c-.72-3.89-1.1-4.18-4.8-4.18h-20.4c-3.79,0-4.32,.38-4.85,4.18h-.58v-12.91Zm25.11,5.33c4.37,0,4.85-1.97,4.85-6,0-8.83-6.34-12.62-14.64-12.62-5.66,0-10.37,2.02-12.72,6.53-1.15,2.21-1.54,4.61-1.54,7.68,0,1.44,.19,2.98,.48,3.55,.34,.67,.72,.86,2.59,.86h20.98Z"/>
          <path class="cls-5" d="M74.2,210.79c1.58,.24,5.38,1.1,6.82,1.49v21.79h-.58c-.58-4.22-.91-4.51-4.85-4.51h-20.07c-4.13,0-4.42,.14-5.14,3.89h-.58v-13.59c0-4.13,0-5.57-.1-6.48,1.68,0,5.14-.19,6.53-.34l.1,.67c-1.25,.34-2.98,1.01-3.79,1.49-1.34,.91-1.44,1.49-1.44,4.32v5.23c0,1.3,.14,1.39,1.49,1.39h11.14v-5.95c0-3.26-.62-3.7-3.84-4.27v-.62h9.03v.62c-3.36,.82-3.84,1.15-3.84,4.18v6.05h11.38c3.22,0,3.31-1.3,3.31-3.98v-4.75c0-2.3-.43-2.98-2.26-4.18-1.06-.72-2.21-1.3-3.46-1.82l.14-.62Z"/>
          <path class="cls-5" d="M56.25,191.2c-3.36,.86-6.1,2.3-6.1,6.67,0,3.6,2.69,5.23,5.52,5.23,3.7,0,5.18-2.06,7.39-5.81,2.16-3.65,4.56-7.87,9.74-7.87s8.93,4.22,8.93,9.84c0,2.69-.82,5.38-1.39,6.82-1.3,.29-5.52,1.01-6.43,1.1l-.14-.67c2.93-.82,6.96-2.98,6.96-7.92,0-4.08-3.22-5.81-6.43-5.81-3.7,0-5.71,2.5-7.78,5.86-2.21,3.6-4.51,7.54-9.36,7.54-4.51,0-8.02-3.7-8.02-9.12,0-2.93,.58-4.75,.77-5.81,1.68-.19,3.94-.43,6.19-.77l.14,.72Z"/>
          <path class="cls-5" d="M81.02,185.64h-.58c-.67-3.79-1.1-4.18-4.8-4.18h-20.4c-3.98,0-4.22,.34-4.85,4.18h-.58v-11.81h.58c.53,3.89,.86,4.22,4.85,4.22h20.4c3.65,0,4.08-.34,4.8-4.22h.58v11.81Z"/>
          <path class="cls-5" d="M67.72,139.89c.53,2.83,.96,3.02,3.74,3.02h3.98c1.78,0,3.36-.05,4.56-.43,.62,2.88,1.73,7.15,1.73,10.66,0,10.37-6.29,16.95-16.27,16.95-10.94,0-16.32-8.5-16.32-17.76,0-4.61,.96-7.83,1.01-8.98,1.58-.1,5.09-.34,7.15-.67l.19,.67c-3.55,.96-5.71,2.16-6.67,5.57-.34,1.2-.58,2.78-.58,4.66,0,7.87,5.42,12.39,14.64,12.39,7.54,0,15.75-3.55,15.75-13.44,0-1.63-.24-3.5-.82-4.51-.62-1.1-1.3-1.63-3.79-1.63h-4.08c-3.41,0-3.74,.24-4.22,4.46h-.67v-10.94h.67Z"/>
          <path class="cls-5" d="M50.39,104.9c.77,3.41,1.34,3.7,4.61,3.79,1.25,.05,2.11,.14,6.29,.14h20.26v.77l-26.55,21.55h13.78c4.61,0,6.1-.1,7.63-.14,2.78-.1,3.41-.86,4.03-4.61h.58v10.85h-.58c-.82-3.55-1.25-4.32-4.08-4.42-1.25-.05-3.02-.14-7.58-.14h-14.21c-.86,0-1.44,.19-2.02,.67-1.44,1.15-1.82,2.59-2.16,4.37h-.58v-6.72l25.11-20.69h-13.63c-4.18,0-4.85,.05-6.48,.14-3.07,.19-3.94,.82-4.42,4.8h-.58v-10.37h.58Z"/>
        </g>
        <line class="cls-4" x1="169.48" y1="181.47" x2="386.48" y2="181.47"/>
        <g>
          <path class="cls-5" d="M144.02,76.97s2.56,2.05,4.14,3.51c-.12,.43-.51,.63-1.1,.63h-33.91l-.35-1.14h15.61v-7.06h-11.4l-.32-1.14h11.71v-5.44c-4.22,.28-8.6,.39-12.7,.36l-.12-.67c8.87-.79,19.83-2.84,25.51-4.65l3.63,3.55c-.39,.35-1.22,.35-2.33-.12-2.88,.47-6.35,.91-10.09,1.22v5.76h6.58l2.17-2.88s2.48,1.97,3.98,3.39c-.08,.43-.51,.63-1.06,.63h-11.67v7.06h9.42l2.29-3Zm-22.4-15.69c0,.36-1.7,1.14-3.19,1.14h-.55v-15.46l3.98,1.66h16.88l1.85-2.05,3.98,3.04c-.28,.32-.83,.67-1.66,.83v9.74c-.04,.28-1.93,.99-3.15,.99h-.63v-1.46h-17.51v1.58Zm0-11.51v8.79h17.51v-8.79h-17.51Z"/>
          <path class="cls-5" d="M182.02,69.79c-2.8,1.66-6.94,4.18-12.58,7.1-.12,.47-.47,.91-.87,1.03l-1.74-4.34c1.14-.28,3.15-.79,5.64-1.5v-10.53h-4.42l-.32-1.14h4.73v-9.94h-4.73l-.32-1.14h9.15l2.13-2.84s2.4,1.97,3.86,3.35c-.12,.43-.51,.63-1.06,.63h-5.4v9.94h.87l1.81-2.72s1.97,1.93,3.15,3.23c-.12,.43-.51,.63-1.03,.63h-4.81v9.46c1.85-.55,3.83-1.14,5.76-1.74l.16,.51Zm21.33,7.96c.95,.43,1.1,.87,1.1,1.58,0,1.46-1.3,2.25-5.72,2.25h-2.52c-3,0-3.47-.83-3.47-3.23v-10.13h-2.17c-1.03,8-5.28,12.11-15.42,14.04l-.16-.55c7.61-2.6,10.53-6.23,11.39-12.26-.43,.43-1.62,.99-2.92,.99h-.55v-23.7l3.82,1.62h10.17l1.93-2.09,3.98,3.08c-.28,.35-.87,.71-1.7,.87v18.57c-.08,.28-1.89,1.06-3.19,1.06h-.59v-1.62h-.87v9.23c0,.47,.08,.63,.79,.63h1.77c.75,0,1.38-.04,1.7-.04s.47-.08,.63-.47c.32-.67,.83-2.8,1.38-5.09h.47l.12,5.28Zm-16.8-28.27v4.97h10.8v-4.97h-10.8Zm10.8,11.2v-5.09h-10.8v5.09h10.8Zm0,6.39v-5.24h-10.8v5.24h10.8Z"/>
          <path class="cls-5" d="M236.31,62.03c-.28,.35-.63,.51-1.5,.59-.55,4.18-1.58,8.16-3.67,11.67,4.26,2.72,10.17,3.31,18.49,3.31,2.17,0,6.98,0,9.5-.04v.51c-1.54,.28-2.25,1.58-2.37,3.08h-7.45c-9.07,0-15.18-.99-19.48-4.97-1.77,2.37-4.18,4.42-7.41,6.03l-.32-.55c2.72-2.01,4.69-4.46,6.07-7.25-1.81-2.33-3.27-5.48-4.42-9.54l.51-.28c1.22,3.51,2.8,6.07,4.69,7.96,1.3-3.19,1.97-6.74,2.33-10.41h-3.23l-1.3,1.22-3.27-2.25c.35-.28,.91-.55,1.42-.75,1.5-2.64,3.55-6.94,4.65-9.74h-6.78l-.35-1.14h7.1l1.77-1.81,3.51,3.19c-.31,.36-.99,.55-1.81,.63-1.1,2.52-3.15,6.74-4.61,9.5h2.6l1.89-1.93,3.43,2.96Zm20.27-9.62s2.01,1.89,3.15,3.15c-.12,.43-.51,.63-1.06,.63h-4.34v5.56c-.04,.28-1.77,.99-2.92,.99h-.55v-1.34h-4.5v4.06h4.5l1.93-2.6s2.33,1.81,3.71,3.12c-.12,.43-.51,.63-1.07,.63h-9.07v4.14h5.8l2.17-2.8s2.56,1.89,4.1,3.31c-.12,.43-.55,.63-1.1,.63h-10.96v3.9c0,.36-1.5,1.06-2.84,1.06h-.75v-4.97h-8.71l-.32-1.14h9.03v-4.14h-6.78l-.32-1.14h7.1v-4.06h-6.31l-.35-1.14h6.66v-4.06h-9.34l-.32-1.14h9.66v-3.98h-6.54l-.36-1.14h6.9v-4.3l5.05,.51c-.12,.55-.39,.95-1.46,1.1v2.68h4.1l1.73-1.89,3.75,2.88c-.28,.28-.87,.63-1.62,.79v3.35h.51l1.74-2.64Zm-10.21,2.64h4.5v-3.98h-4.5v3.98Zm4.5,1.14h-4.5v4.06h4.5v-4.06Z"/>
          <path class="cls-5" d="M285.99,50.24c-2.37,2.68-5.2,4.61-8.08,5.88l-.43-.47c2.68-2.25,5.4-6.03,7.02-10.37l4.89,2.01c-.2,.43-.71,.75-1.62,.63-.28,.39-.55,.79-.83,1.18h5.17l1.85-2.37s2.01,1.66,3.23,2.88c-.12,.43-.47,.63-1.03,.63h-10.17Zm-8.04,30.68c3.98-2.09,8.04-5.72,9.98-8.52l4.42,2.68c-.24,.35-.63,.51-1.5,.32-2.8,2.41-7.65,4.81-12.54,6.03l-.35-.51Zm9.7-23.14v6.54c1.89-.28,3.9-.55,5.95-.87l.08,.55c-2.76,1.1-6.74,2.56-12.26,4.38-.2,.51-.59,.83-.99,.91l-1.77-3.86c1.22-.12,3.15-.32,5.56-.63v-7.02h-4.49l-.32-1.14h8.95l1.5-1.89c-.24-.04-.47-.12-.71-.24-.28-1.18-1.46-2.6-2.48-3.31l.35-.32c5.72-.12,5.44,3.35,3.63,3.86,.71,.55,1.97,1.58,2.88,2.41-.12,.43-.51,.63-1.06,.63h-4.81Zm21.96,9.82s2.6,2.05,4.18,3.55c-.12,.43-.51,.63-1.1,.63h-14.79v9.38c0,.32-1.7,1.03-3.23,1.03h-.71v-10.41h-14.71l-.32-1.14h15.02v-3.23l5.4,.51c-.08,.51-.39,.91-1.46,1.07v1.66h9.38l2.33-3.04Zm3.23-3.59c.79,.36,.95,.71,.95,1.26,0,1.14-1.1,1.81-4.02,1.81h-1.54c-2.17,0-2.48-.71-2.48-2.52v-7.02h-4.93v1.46c0,.75-.08,1.62-.39,2.44,4.26,1.77,3.79,4.97,1.38,4.5-.63-.67-1.62-1.42-2.72-2.17-1.38,1.58-3.82,3.04-8.12,4.06l-.31-.51c3.55-1.5,5.28-3.19,6.11-4.93-1.14-.63-2.33-1.14-3.35-1.5l.32-.51c1.34,0,2.6,.12,3.67,.28,.12-.55,.16-1.1,.16-1.66v-1.46h-3.04l-.35-1.14h11.24l1.62-1.66,2.96,2.6c-.2,.24-.59,.43-1.3,.55v5.88c0,.39,.08,.51,.51,.51h1.62c.2-.04,.35-.04,.47-.28,.24-.35,.63-1.66,.99-2.96l.47,.04,.12,2.92Zm-2.17-17.47s2.21,1.77,3.63,3.08c-.12,.43-.51,.63-1.06,.63h-12.1c-1.73,2.13-3.79,3.79-5.87,4.93l-.47-.39c1.81-2.21,3.63-5.8,4.69-9.46l4.85,1.93c-.2,.43-.71,.75-1.54,.63-.24,.43-.51,.83-.79,1.22h6.66l2.01-2.56Zm-10.41,26.73c14.47,1.03,14,9.27,9.62,7.96-2.01-2.6-6.54-5.91-9.9-7.57l.28-.39Zm2.17-22.28c7.14,.16,4.42,5.24,1.7,3.39-.2-1.1-1.14-2.44-2.01-3.12l.32-.28Z"/>
          <path class="cls-5" d="M123.32,126.99v14.27c0,.24-1.14,.95-2.96,.95h-.63v-11.43c-.2,.04-.47,.04-.83,0-1.3,2.76-3.47,6.31-6.43,8.67l-.43-.39c1.93-3.08,3.31-7.69,3.82-10.76l3.86,1.66v-2.96h-6.78l-.31-1.14h7.1v-4.73h-7.41l-.31-1.14h10.61c.75-2.29,1.54-5.24,1.97-7.45h-8.67c7.45,3.75,4.1,9.23,1.46,6.58-.04-2.09-1.06-4.69-1.97-6.43l.35-.16h-2.84l-.32-1.14h9.07c-.35-.08-.79-.24-1.22-.59-.24-1.74-1.34-3.83-2.41-5.09l.39-.24c6.86,1.38,6.07,5.56,3.83,5.91h3.15l1.93-2.52s2.17,1.74,3.51,3.04c-.12,.43-.51,.63-1.06,.63h-4.81l4.34,1.38c-.16,.47-.63,.79-1.46,.71-.99,1.58-2.6,3.63-4.22,5.36h2.92l1.93-2.64s2.29,1.85,3.63,3.15c-.08,.43-.47,.63-1.02,.63h-7.77v4.73h2.68l1.85-2.48s2.13,1.74,3.39,3c-.12,.43-.47,.63-1.03,.63h-6.9Zm.95,1.77c8.12,3.9,4.85,10.05,2.01,7.37,0-2.41-1.22-5.24-2.44-7.14l.43-.24Zm20.78-12.3s2.52,2.09,4.06,3.51c-.08,.43-.51,.63-1.06,.63h-3.86v20.54c0,.24-1.18,1.1-3.04,1.1h-.63v-21.65h-4.69v1.38c0,6.86-.67,14.98-8.48,20.23l-.51-.47c4.77-5.6,5.36-12.74,5.36-19.83v-13.13l3.94,1.34c3-1.34,6.19-3.19,7.92-4.49l4.1,3.27c-.39,.39-1.1,.47-2.17,.12-2.56,.83-6.47,1.73-10.17,2.25v8.2h6.98l2.25-3Z"/>
          <path class="cls-5" d="M184.71,113.9c-.28,.32-.87,.63-1.66,.83v23.78c-.04,.32-1.77,1.1-3,1.1h-.55v-3.04h-6.98v3.04c0,.39-1.34,1.26-2.84,1.26h-.59v-29.57l3.63,1.66h.71c.35-2.09,.83-5.13,1.1-7.29l5.44,1.3c-.2,.63-.71,.91-1.58,.91-.95,1.5-2.33,3.51-3.43,5.09h4.14l1.81-2.05,3.79,3Zm-12.18,.2v9.82h6.98v-9.82h-6.98Zm6.98,21.33v-10.37h-6.98v10.37h6.98Zm24.45-21.53c-.32,.36-.79,.59-1.7,.71-.28,15.3-.91,23.22-2.92,25.51-1.26,1.46-2.96,2.05-5.24,2.05,0-1.22-.2-2.17-.83-2.72-.67-.63-2.25-1.18-4.06-1.5l.04-.63c1.85,.2,4.61,.39,5.56,.39,.79,0,1.1-.12,1.54-.51,1.46-1.42,1.93-9.7,2.21-23.18h-8.28c-1.81,3.27-3.94,6.15-6.31,8.28l-.55-.35c2.33-3.98,4.61-10.25,5.8-16.28l5.24,1.54c-.16,.47-.63,.83-1.5,.83-.59,1.7-1.3,3.31-2.09,4.85h7.25l2.13-2.25,3.71,3.27Zm-16.88,7.06c10.65,3.75,7.18,11.4,3.59,8.4-.32-2.72-2.21-6.03-3.94-8.16l.35-.24Z"/>
          <path class="cls-1" d="M236.94,115.4c-.35,.36-.83,.43-1.74,.51-.91,2.09-2.21,4.26-3.75,6.39,8,2.8,5.28,8.28,2.41,6.07-.32-1.54-1.38-3.31-2.45-4.73v17.35c0,.24-1.18,1.18-2.88,1.18h-.63v-15.69c-1.7,1.77-3.55,3.35-5.48,4.61l-.43-.39c4.06-4.18,7.81-10.45,9.38-15.54h-8.36l-.35-1.14h8.56l2.13-2.05,3.59,3.43Zm-10.25-9.66c8.95,2.21,5.28,8.32,2.17,5.64-.2-1.81-1.46-4.02-2.52-5.4l.35-.24Zm31.86,31.94c.91,.43,1.06,.87,1.06,1.54,0,1.38-1.22,2.13-5.64,2.13h-2.48c-2.92,0-3.35-.83-3.35-3.11v-10.57h-1.89c-.51,5.6-2.13,10.96-11.83,14.59l-.47-.59c7.41-4.18,8.2-9.11,8.4-14h-.32v1.06c0,.39-1.5,1.22-3.04,1.22h-.55v-23.14l3.79,1.66h9.9l1.81-2.05,3.79,3c-.28,.31-.87,.67-1.66,.83v18.26c-.04,.28-1.77,1.06-2.96,1.06h-.59v-1.89h-.83v9.7c0,.47,.12,.63,.87,.63h1.77c.71,0,1.3,0,1.62-.04,.31,0,.43-.08,.63-.43,.28-.63,.79-2.72,1.38-4.93h.47l.12,5.09Zm-16.52-28.07v4.89h10.49v-4.89h-10.49Zm0,10.69h10.49v-4.65h-10.49v4.65Zm0,6.23h10.49v-5.09h-10.49v5.09Z"/>
          <path class="cls-1" d="M315.12,121.99c-.31,.32-.75,.39-1.54,.43-1.26,1.97-3.59,4.61-5.52,6.27l-.43-.32c.71-1.85,1.54-4.57,2.05-6.66h-3.67v15.46c0,2.72-.67,4.65-5.36,5.05-.08-1.18-.32-2.17-.95-2.76-.67-.63-1.7-1.1-3.79-1.38v-.55s4.53,.28,5.48,.28c.67,0,.91-.2,.91-.75v-15.34h-6.54v1.54c-.04,.32-1.73,1.26-3.04,1.26h-.59v-1.73h-3.35v5.48h2.64l1.97-2.64s2.25,1.85,3.55,3.15c-.12,.43-.51,.63-1.03,.63h-7.14v5.24c2.68-.47,5.6-1.03,8.56-1.58l.12,.55c-3.71,1.62-9.07,3.71-16.88,6.43-.2,.51-.55,.83-.99,.99l-2.21-4.53c1.7-.2,4.53-.67,7.96-1.26v-5.83h-6.66l-.32-1.14h6.98v-5.48h-3.27v1.66c0,.36-1.38,1.06-2.76,1.06h-.47v-18.29l3.43,1.46h9.46l1.81-1.93,3.71,2.84-.28-.95h11.32l2.25-2.09,3.71,3.55c-.32,.28-.79,.39-1.62,.43-1.62,1.38-4.3,3.08-6.7,4.38,3.27,2.64,1.62,6.15-1.06,4.73-.95-2.52-3.86-5.36-6.31-6.82l.35-.36c2.64,.32,4.57,.95,5.95,1.74,1.14-1.38,2.37-3.04,3.23-4.42h-10.76v-.04c-.32,.28-.83,.55-1.58,.71v10.13h13.68l2.09-2.05,3.59,3.47Zm-33.04-12.18v5.4h3.27v-5.4h-3.27Zm3.27,11.83v-5.32h-3.27v5.32h3.27Zm3.43-11.83v5.4h3.35v-5.4h-3.35Zm3.35,11.83v-5.32h-3.35v5.32h3.35Z"/>
          <path class="cls-5" d="M146.51,188.29s1.93,1.77,3,3.04c-.08,.43-.47,.63-.99,.63h-36.31l-.32-1.14h4.26l-.59-23.03,3.71,1.26c1.38-1.3,2.8-2.76,3.47-3.59l3.27,3.12c-.28,.28-.67,.32-1.26,.04-1.18,.51-3.47,1.38-5.64,1.93l.16,5.6h1.5l1.46-2.05s1.62,1.46,2.56,2.56c-.12,.43-.47,.63-.99,.63h-4.5l.16,6.35h1.58l1.5-2.17s1.66,1.58,2.64,2.68c-.08,.43-.47,.63-.99,.63h-4.69l.16,6.03h21.41l.16-6.03h-4.22l-.35-1.14h4.57l.16-6.35h-3.83l-.35-1.14h4.22l.12-6.23h-4.77l-.35-1.14h4.77l1.66-2.01,3.63,3.04c-.28,.36-.63,.47-1.42,.59l-.47,20.42h.24l1.7-2.52Zm-34.07,13.45c4.53-2.25,9.19-6.31,11.2-9.27l5.13,2.29c-.24,.47-.83,.67-2.01,.55-3.08,2.64-8.48,5.4-14.04,6.94l-.28-.51Zm18.06-21.49c-.12,.47-.55,.87-1.38,.91-.91,3.27-2.33,6.47-4.1,8.6l-.63-.32c.91-2.68,1.58-6.51,1.81-10.09l4.3,.91Zm-5.72-3.51c.35-.28,.91-.59,1.42-.83,.43-2.92,.91-7.73,.95-10.01l4.46,.67c-.08,.43-.43,.91-1.38,.99-.08,.83-.16,1.81-.28,2.8h2.72l1.58-2.13s1.74,1.58,2.76,2.64c-.08,.43-.47,.63-.99,.63h-6.19c-.16,1.66-.35,3.35-.55,4.77h3.27l1.62-1.66,3.15,2.6c-.28,.32-.75,.47-1.54,.59-.24,7.18-.83,10.09-2.21,11.24-.91,.75-2.09,1.06-3.47,1.06,0-.87-.08-1.62-.51-2.01-.39-.39-1.14-.71-2.09-.91v-.63c.95,.08,2.41,.16,3.04,.16,.55,0,.79-.04,1.06-.28,.67-.63,1.1-3.27,1.3-9.03h-3.43l-1.34,1.58-3.35-2.25Zm9.58,16.52c19.32,3.08,13.13,11.55,9.62,8.04-1.58-2.33-4.73-5.24-9.82-7.45l.2-.59Z"/>
        </g>
        <path class="cls-1" d="M126.42,235.4c8.16,3.11,5.13,8.71,2.33,6.27-.24-1.66-1.26-3.71-2.33-5.24v20.78c0,.43-1.5,1.22-2.8,1.22h-.71v-16.92c-1.46,2.96-3.31,5.6-5.6,7.89l-.55-.47c2.88-4.57,4.61-10.65,5.6-16.6h-4.89l-.32-1.14h5.76v-9.54l4.93,.51c-.08,.59-.39,.95-1.42,1.1v7.93h1.14l1.93-2.64s2.09,1.85,3.35,3.15c-.08,.43-.47,.63-1.03,.63h-5.4v3.08Zm25.59-7.45c-.32,.35-.75,.47-1.7,.55-1.46,2.88-3.35,5.6-5.76,7.93,2.72,1.58,5.99,2.84,9.82,3.67l-.08,.43c-1.54,.47-2.37,1.5-2.64,3.27-.83-.32-1.66-.63-2.41-.99l2.21,1.7c-.28,.35-.67,.55-1.5,.71v11.87c0,.2-1.26,.91-3.04,.91h-.63v-2.37h-8.83v1.81c0,.24-1.1,.91-2.88,.91h-.59v-15.14c-1.54,.67-3.19,1.22-4.89,1.7l-.31-.59c4.65-1.93,8.63-4.61,11.79-7.81-1.5-1.7-2.72-3.63-3.79-5.76-1.7,2.33-3.63,4.26-5.76,5.68l-.51-.39c2.64-3.31,5.21-8.63,6.47-14.19l5.01,1.7c-.16,.47-.63,.83-1.5,.75-.39,.83-.79,1.7-1.22,2.52h7.1l2.13-2.01,3.51,3.15Zm-4.34,14.12c-2.05-1.1-3.79-2.29-5.32-3.71-2.05,1.7-4.46,3.12-7.18,4.34l2.76,1.14h8.2l1.54-1.77Zm-8.99-14.15c-.43,.71-.87,1.38-1.3,2.01,1.26,1.81,2.84,3.47,4.69,4.93,1.81-2.17,3.27-4.5,4.34-6.94h-7.73Zm7.61,26.57v-9.5h-8.83v9.5h8.83Z"/>
        <path class="cls-1" d="M205.67,237.98c-.28,.32-.75,.59-1.54,.67-.24,10.72-.79,15.93-2.52,17.66-1.14,1.03-2.64,1.54-4.65,1.54,0-1.1-.12-2.01-.67-2.56-.63-.59-2.05-1.06-3.59-1.38l.04-.59c1.46,.16,4.02,.35,4.85,.35,.67,0,.99-.12,1.3-.43,.95-.95,1.34-6.23,1.54-15.14h-21.8c-.24,6.74-1.58,14.39-8.36,19.67l-.47-.32c4.57-6.47,5.09-14.59,5.09-22.36v-12.54l4.38,1.62h17.43l1.85-1.97,3.94,2.96c-.28,.32-.87,.67-1.66,.83v7.41c-.04,.28-1.89,.95-3.11,.95h-.63v-2.17h-18.41v4.77h21.37l2.01-2.09,3.63,3.12Zm-27.01-12.66v5.72h18.41v-5.72h-18.41Zm16.24,25.94c-.04,.32-1.77,1.06-2.92,1.06h-.63v-1.89h-6.86v2.41c0,.36-1.54,1.1-2.96,1.1h-.47v-13.37l3.63,1.54h6.35l1.66-1.73,3.47,2.6c-.2,.28-.67,.55-1.26,.67v7.61Zm-3.55-1.97v-6.03h-6.86v6.03h6.86Z"/>
      </g>
    </g>
  </g>
</svg>