<svg width="640" height="73" viewBox="0 0 640 73" fill="none" xmlns="http://www.w3.org/2000/svg">
<path d="M23.32 72.248C36.472 72.248 45.112 64.472 45.112 53.816C45.112 43.064 38.2 38.936 30.328 35.384L19.672 30.584C14.776 28.376 7.48 25.208 7.48 16.472C7.48 8.6 13.912 3.41599 23.608 3.41599C30.712 3.41599 36.376 6.392 40.408 10.712L42.616 8.31199C38.584 3.89599 32.056 0.0559978 23.608 0.0559978C12.28 0.0559978 3.832 6.776 3.832 16.856C3.832 27.128 11.992 31.256 18.04 33.944L28.696 38.744C35.704 41.912 41.56 44.792 41.56 54.104C41.56 62.84 34.456 68.888 23.32 68.888C14.968 68.888 7.576 65.144 2.488 59.192L0.0880003 61.688C5.368 67.832 13.048 72.248 23.32 72.248ZM102.072 72.248C113.4 72.248 125.208 66.488 125.208 44.888V1.304H121.752L121.752 44.12C121.752 63.224 112.344 68.888 102.072 68.888C91.9922 68.888 82.7762 63.224 82.7762 44.12L82.7762 1.304H79.2242L79.2242 44.888C79.2242 66.488 90.7442 72.248 102.072 72.248ZM165.272 71H168.632V25.592C168.632 18.968 168.44 13.016 168.248 6.488H168.632L176.6 20.216L207.224 71H211.064V1.304H207.608V46.136C207.608 52.664 207.8 59.096 208.184 65.816H207.704L199.736 52.088L169.016 1.304H165.272V71ZM316.378 72.248C325.498 72.248 332.506 69.08 336.826 64.472V37.304H315.898V40.472H333.082V63.32C329.626 66.776 323.29 68.888 316.666 68.888C300.442 68.888 290.746 55.928 290.746 35.96C290.746 15.992 300.922 3.41599 317.434 3.41599C325.21 3.41599 330.298 6.776 333.85 10.712L336.058 8.31199C332.506 4.472 326.746 0.0559978 317.434 0.0559978C299.098 0.0559978 287.002 13.976 287.002 35.96C287.002 57.944 298.714 72.248 316.378 72.248ZM374.279 71H410.471V67.832H377.831V1.304H374.279V71ZM464.066 72.248C480.578 72.248 492.386 57.944 492.386 35.96C492.386 13.976 480.578 0.0559978 464.066 0.0559978C447.554 0.0559978 435.746 13.976 435.746 35.96C435.746 57.944 447.554 72.248 464.066 72.248ZM464.066 68.888C449.378 68.888 439.49 55.928 439.49 35.96C439.49 15.992 449.378 3.41599 464.066 3.41599C478.754 3.41599 488.642 15.992 488.642 35.96C488.642 55.928 478.754 68.888 464.066 68.888ZM528.085 71H531.637V38.168H547.381C561.109 38.168 569.845 31.64 569.845 19.256C569.845 6.392 561.109 1.304 547.381 1.304H528.085V71ZM531.637 35.096V4.472H546.133C558.901 4.472 566.005 8.408 566.005 19.256C566.005 30.008 558.901 35.096 546.133 35.096H531.637ZM566.773 71H570.901L550.453 36.728L546.421 37.112L566.773 71ZM615.506 71H619.058V42.392L639.986 1.304H636.434L625.298 23.768C622.994 28.856 620.306 33.752 617.522 38.84H617.138C614.354 33.752 612.05 28.856 609.458 23.768L598.418 1.304H594.578L615.506 42.392V71Z" fill="white"/>
</svg>
