<svg width="97" height="133" viewBox="0 0 97 133" fill="none" xmlns="http://www.w3.org/2000/svg">
<path d="M94.7868 68.4963L28.7815 44.0786C30.8929 34.9556 38.8587 28.2474 48.216 28.2474C55.39 28.2474 62.0601 32.1747 65.6591 38.4926C67.4346 41.5905 68.3703 45.1275 68.3703 48.7378C68.3703 50.177 69.498 51.3234 70.9136 51.3234C72.3292 51.3234 73.4569 50.177 73.4569 48.7378C73.4569 44.225 72.2812 39.7854 70.0738 35.8825C65.5631 27.9791 57.1895 23.0516 48.216 23.0516C36.6993 23.0516 26.8381 31.1502 23.9829 42.2735L18.0086 40.0537C21.7995 26.4179 34.108 16.685 48.216 16.685C61.5322 16.685 73.4809 25.2714 77.9196 38.0291C79.1193 41.4686 79.7191 45.0544 79.7191 48.7134C79.7191 50.1526 80.8468 51.299 82.2624 51.299C83.678 51.299 84.8056 50.1526 84.8056 48.7134C84.8056 44.4689 84.1098 40.2733 82.6942 36.2972C77.5357 21.4661 63.6676 11.5136 48.192 11.5136C31.9246 11.5136 17.7207 22.637 13.2099 38.2974L7.25962 36.102C12.7061 17.8071 29.2134 5.17137 48.192 5.17137C67.1706 5.17137 84.8296 18.6121 89.7003 37.834C90.612 41.371 91.0439 45.0544 91.0439 48.7378C91.0439 50.177 92.1955 51.3234 93.5872 51.3234C94.9788 51.3234 96.1304 50.177 96.1304 48.7378C96.1304 44.6153 95.6266 40.5172 94.6189 36.5411C89.1724 15.0263 70.0978 0 48.192 0C26.2862 0 6.94771 15.2702 1.6932 37.1022C1.66921 37.2241 1.6932 37.3461 1.6932 37.4681C1.6932 37.6388 1.64522 37.8096 1.6932 37.9803C1.6932 38.1511 1.76518 38.2974 1.81317 38.4438C1.86115 38.6145 1.90914 38.7609 1.98112 38.9073C2.0531 39.0536 2.17307 39.1756 2.26904 39.2976C2.36501 39.4195 2.46098 39.5415 2.58095 39.6635C2.72491 39.7854 2.86887 39.8586 3.01283 39.9318C3.13279 39.9806 3.20477 40.0781 3.32474 40.1269L14.0257 44.0786L24.9666 48.1279L93.0833 73.3262C93.3712 73.4237 93.6591 73.4725 93.9471 73.4725C94.9788 73.4725 95.9625 72.8139 96.3464 71.765C96.8262 70.4234 96.1544 68.9354 94.8348 68.4475L94.7868 68.4963Z" fill="#56B87E"/>
<path d="M94.5441 80.6931L3.41793 46.9816C2.09831 46.4937 0.634721 47.1767 0.154857 48.5184C-0.325007 49.86 0.346802 51.348 1.66643 51.8359L92.7926 85.5718C93.0805 85.6693 93.3684 85.7181 93.6564 85.7181C94.6881 85.7181 95.6718 85.0595 96.0557 84.0106C96.5355 82.6689 95.8637 81.181 94.5441 80.6931Z" fill="#56B87E"/>
<path d="M94.6401 94.5727C94.6401 94.4019 94.5681 94.2556 94.5201 94.1092C94.4721 93.9384 94.4241 93.7921 94.3522 93.6457C94.2802 93.4994 94.1602 93.3774 94.0642 93.2554C93.9683 93.1335 93.8723 93.0115 93.7523 92.8895C93.6084 92.7676 93.4644 92.6944 93.3204 92.6212C93.2245 92.5724 93.1285 92.4748 93.0085 92.4261L82.3076 88.4744L71.4866 84.4739L3.41793 59.2512C2.09831 58.7634 0.634721 59.4464 0.154857 60.788C-0.325007 62.1296 0.346802 63.6176 1.66643 64.1055L67.5757 88.4987C67.1199 90.3038 66.52 92.0358 65.6083 93.5969C62.0093 99.9148 55.3392 103.842 48.1652 103.842C37.0564 103.842 28.011 94.6458 28.011 83.3518C28.011 81.9126 26.8593 80.7661 25.4677 80.7661C24.0761 80.7661 22.9244 81.937 22.9244 83.3518C22.9244 97.4999 34.2492 109.013 48.1652 109.013C57.1387 109.013 65.5123 104.086 70.023 96.1826C71.0788 94.3531 71.7985 92.3529 72.3744 90.2551L78.2527 92.4261C74.3178 105.818 62.0813 115.356 48.1892 115.356C30.8182 115.356 16.6862 100.988 16.6862 83.3274C16.6862 81.8882 15.5345 80.7417 14.1429 80.7417C12.7513 80.7417 11.5996 81.9126 11.5996 83.3274C11.5996 103.842 28.011 120.527 48.2132 120.527C64.2647 120.527 78.3967 109.575 83.0514 94.1824L89.0017 96.3778C83.4113 114.453 66.9759 126.894 48.2132 126.894C24.5799 126.894 5.36138 107.33 5.36138 83.3274C5.36138 81.8882 4.20971 80.7417 2.8181 80.7417C1.4265 80.7417 0.274823 81.9126 0.274823 83.3274C0.274823 110.209 21.7967 132.09 48.2132 132.09C70.095 132.09 89.1696 117.014 94.6161 95.4508C94.6401 95.3289 94.6161 95.2069 94.6161 95.0605C94.6161 94.8898 94.6641 94.719 94.6161 94.5483L94.6401 94.5727Z" fill="#56B87E"/>
<path d="M5.02375 27.6865C4.04003 29.8087 3.17627 32.0285 2.48047 34.3215L7.27911 36.1022C7.97491 33.8092 8.81467 31.5894 9.84638 29.4672L5.02375 27.6865Z" fill="#56B87E"/>
<path d="M20.7409 33.4921L15.8943 31.7114C14.8146 33.8092 13.8788 35.9802 13.207 38.2975L17.9817 40.0539C18.6295 37.7121 19.6132 35.5655 20.7169 33.4921H20.7409Z" fill="#56B87E"/>
<path d="M31.5629 37.4925L26.7163 35.7118C25.5406 37.7364 24.5569 39.9074 23.957 42.2736L28.7557 44.0543C29.3075 41.6881 30.2672 39.4927 31.5389 37.5169L31.5629 37.4925Z" fill="#56B87E"/>
</svg>
