<svg width="130" height="161" viewBox="0 0 130 161" fill="none" xmlns="http://www.w3.org/2000/svg">
<path d="M9.39493 133.436C9.30684 133.436 9.2628 133.49 9.2628 133.597V133.929C9.2628 134.036 9.28923 134.117 9.3597 134.161C10.5841 134.994 11.7822 135.836 12.9361 136.669C13.1916 136.866 13.3413 137.126 13.3854 137.439C13.4294 137.762 13.3502 138.039 13.1564 138.281L12.7688 138.81C12.575 139.051 12.3283 139.177 12.02 139.186C11.7205 139.195 11.4562 139.087 11.2448 138.872C10.8396 138.478 10.2054 137.878 9.34208 137.09C9.32446 137.072 9.29804 137.063 9.28042 137.072C9.25399 137.081 9.24518 137.099 9.24518 137.117L9.22756 142.938C9.22756 143.27 9.11305 143.547 8.88401 143.771C8.65498 144.004 8.3819 144.111 8.05597 144.111H7.47458C7.14865 144.111 6.88438 143.995 6.66416 143.762C6.44393 143.529 6.34704 143.252 6.34704 142.92L6.36465 136.382C6.36465 136.382 6.35584 136.347 6.32941 136.338C6.30299 136.329 6.28537 136.338 6.26775 136.356C4.99045 138.63 3.57221 140.413 2.01303 141.702C1.7928 141.872 1.54615 141.917 1.26427 141.828C0.982381 141.738 0.779774 141.559 0.64764 141.299C0.541932 141.057 0.418606 140.807 0.29528 140.538C0.189573 140.341 0.136719 140.135 0.136719 139.911C0.136719 139.822 0.145529 139.723 0.171955 139.616C0.260045 139.284 0.436224 139.024 0.691684 138.827C2.40062 137.448 3.8541 135.693 5.06974 133.552C5.14021 133.463 5.11378 133.418 5.00807 133.418H1.67829C1.35235 133.409 1.07928 133.293 0.859053 133.06C0.63002 132.827 0.524315 132.558 0.524315 132.254V131.824C0.524315 131.493 0.638831 131.215 0.867864 130.991C1.0969 130.758 1.36997 130.642 1.6959 130.651L6.22371 130.669C6.32942 130.669 6.38227 130.624 6.38227 130.534V128.036C6.39108 127.704 6.49679 127.436 6.71701 127.212C6.92843 126.997 7.2015 126.889 7.52743 126.889H8.10883C8.43476 126.889 8.70784 127.006 8.92806 127.221C9.15709 127.445 9.2628 127.713 9.2628 128.045V130.543C9.2628 130.633 9.29803 130.678 9.38612 130.678H12.6807C13.0066 130.687 13.2797 130.803 13.4999 131.036C13.7289 131.269 13.8346 131.546 13.8346 131.878V132.308C13.8346 132.612 13.7201 132.881 13.4911 133.114C13.2621 133.346 12.989 133.463 12.6631 133.454H9.36851L9.39493 133.436ZM14.7772 127.955C14.4777 127.955 14.2134 127.848 13.9844 127.624C13.7642 127.4 13.6497 127.131 13.6497 126.8L13.6673 120.558C13.6673 120.558 13.6585 120.522 13.632 120.522H13.5704C12.2931 121.964 10.8308 123.271 9.17471 124.453C7.52744 125.635 5.79207 126.603 3.97742 127.364C3.66911 127.471 3.3608 127.48 3.03487 127.382C2.70894 127.283 2.45347 127.086 2.25968 126.8C2.0835 126.603 1.92494 126.406 1.77519 126.209C1.59901 126.012 1.54615 125.779 1.61662 125.519C1.67829 125.259 1.83685 125.08 2.06588 125C5.50138 123.737 8.3819 121.964 10.7163 119.671C10.7339 119.653 10.7427 119.626 10.7339 119.59C10.7251 119.554 10.7075 119.537 10.6899 119.537L3.51055 119.51C3.18462 119.51 2.92035 119.402 2.70012 119.178C2.4799 118.954 2.38301 118.686 2.38301 118.354V117.925C2.38301 117.593 2.49752 117.316 2.70894 117.083C2.92916 116.85 3.19343 116.742 3.51936 116.742L13.5087 116.778C13.6144 116.778 13.6673 116.733 13.6673 116.644V114.324C13.6761 114.02 13.7906 113.751 14.0196 113.518C14.2487 113.294 14.5129 113.178 14.8124 113.178H15.6229C15.9224 113.178 16.1866 113.294 16.4157 113.527C16.6447 113.76 16.7592 114.029 16.7504 114.333V116.671C16.7504 116.76 16.7945 116.805 16.9002 116.805L27.3388 116.841C27.6647 116.841 27.9378 116.957 28.1668 117.19C28.3959 117.423 28.5016 117.701 28.5016 118.032V118.462C28.5016 118.793 28.387 119.062 28.158 119.286C27.929 119.51 27.6559 119.617 27.33 119.608L19.7014 119.581C19.6574 119.581 19.6397 119.617 19.6397 119.68C22.1327 121.946 25.163 123.665 28.7394 124.838C28.9949 124.928 29.1622 125.098 29.2239 125.349C29.2856 125.6 29.2327 125.824 29.0565 126.021C28.8892 126.236 28.6954 126.486 28.5016 126.773C28.3078 127.059 28.0523 127.248 27.7264 127.346C27.4004 127.445 27.0921 127.436 26.7926 127.328C24.8987 126.558 23.0841 125.573 21.3487 124.382C19.6133 123.191 18.107 121.883 16.8209 120.459C16.8033 120.441 16.7768 120.432 16.7592 120.441C16.7416 120.45 16.724 120.468 16.724 120.486L16.7064 126.827C16.7064 127.158 16.5918 127.427 16.3628 127.651C16.1338 127.865 15.8695 127.973 15.57 127.973H14.7596L14.7772 127.955ZM30.2193 132.343C30.2193 132.648 30.1048 132.917 29.8758 133.149C29.6467 133.382 29.3736 133.49 29.0477 133.49H25.0749C24.9868 133.472 24.9692 133.517 25.0132 133.606C26.4931 136.024 28.2021 138.004 30.1312 139.544C30.3691 139.741 30.4836 140.001 30.4836 140.332C30.4836 140.592 30.3955 140.825 30.2193 141.022C29.9815 141.263 29.7524 141.514 29.541 141.774C29.3472 142.016 29.1006 142.15 28.7923 142.186C28.4928 142.222 28.2285 142.123 28.0171 141.908C26.361 140.234 24.8635 138.129 23.5069 135.585C23.5069 135.568 23.4981 135.55 23.4716 135.55C23.4452 135.55 23.4364 135.559 23.4364 135.585L23.41 142.983C23.41 143.314 23.2955 143.592 23.0664 143.816C22.8374 144.049 22.5643 144.156 22.2384 144.156H21.6218C21.3223 144.156 21.058 144.04 20.829 143.807C20.5999 143.574 20.4942 143.296 20.4942 142.965L20.5206 135.738C20.5206 135.738 20.5118 135.702 20.4854 135.702C20.459 135.702 20.4502 135.711 20.4502 135.738C18.9527 138.424 17.2349 140.538 15.2881 142.069C15.0327 142.266 14.7508 142.338 14.4513 142.284C14.1518 142.231 13.8875 142.069 13.6761 141.801C13.544 141.622 13.403 141.451 13.2533 141.272C13.0859 141.093 12.9978 140.887 12.9978 140.645C12.9978 140.296 13.1387 140.019 13.4206 139.822C15.5348 138.335 17.3318 136.266 18.8029 133.597C18.8646 133.508 18.8469 133.463 18.7412 133.463H16.1866C15.8871 133.463 15.6229 133.338 15.3938 133.105C15.1648 132.872 15.0591 132.603 15.0591 132.299V131.869C15.0591 131.537 15.1736 131.26 15.4026 131.036C15.6317 130.803 15.8959 130.696 16.1954 130.696L20.3621 130.713C20.4678 130.713 20.5206 130.669 20.5206 130.579V128.08C20.5295 127.749 20.644 127.48 20.873 127.256C21.102 127.042 21.3663 126.925 21.6658 126.934H22.2824C22.6084 126.934 22.8814 127.051 23.1017 127.265C23.3307 127.489 23.4364 127.758 23.4364 128.089V130.588C23.4364 130.678 23.4716 130.722 23.5597 130.722L29.0213 130.74C29.3472 130.74 29.6203 130.857 29.8405 131.09C30.0696 131.322 30.1753 131.6 30.1753 131.931V132.361L30.2193 132.343Z" fill="#2E8B54"/>
<path d="M51.8986 139.983C51.8986 140.09 51.9426 140.144 52.0307 140.144L62.5046 140.18C62.8041 140.18 63.0684 140.296 63.2974 140.529C63.5264 140.762 63.6321 141.03 63.6321 141.335V141.989C63.6321 142.293 63.5176 142.562 63.2886 142.795C63.0595 143.028 62.7953 143.135 62.4958 143.135L47.6527 143.09C47.3268 143.09 47.0625 142.974 46.8511 142.741C46.6308 142.508 46.5339 142.24 46.5339 141.935V140.816C46.5339 140.708 46.4811 140.663 46.3754 140.681C45.0981 140.959 43.1954 141.38 40.6496 141.926C38.1038 142.472 36.2715 142.884 35.1528 143.144C35.0647 143.162 34.9766 143.18 34.8973 143.18C34.6771 143.18 34.4745 143.117 34.2807 142.983C34.0252 142.804 33.8579 142.562 33.7962 142.257L33.6376 141.631C33.576 141.326 33.6288 141.03 33.805 140.762C33.9812 140.484 34.219 140.332 34.5185 140.287C36.4125 139.947 37.9452 139.651 39.108 139.409C39.1961 139.392 39.2401 139.329 39.2401 139.248L39.2666 130.212C39.2666 130.122 39.2225 130.077 39.1344 130.077H34.9942C34.6683 130.06 34.3952 129.943 34.175 129.719C33.9459 129.486 33.8402 129.209 33.8402 128.877V128.448C33.8402 128.143 33.9548 127.874 34.1838 127.641C34.4128 127.409 34.6859 127.301 35.0118 127.301H39.152C39.2401 127.319 39.2842 127.256 39.2842 127.149V124.391C39.2842 124.301 39.2489 124.256 39.1609 124.256H36.8001C36.5005 124.256 36.2539 124.14 36.0601 123.934C35.8663 123.728 35.7694 123.477 35.7694 123.19C35.7694 123.173 35.7518 123.155 35.7254 123.146C35.6901 123.137 35.6813 123.146 35.6813 123.164C35.6196 123.226 35.5492 123.298 35.4875 123.361C35.2673 123.558 35.003 123.647 34.6947 123.62C34.3864 123.593 34.1309 123.468 33.9371 123.226C33.805 123.092 33.6817 122.967 33.5495 122.832C33.3381 122.617 33.2324 122.358 33.2324 122.071C33.2324 121.766 33.3469 121.516 33.5584 121.319C35.6108 119.393 37.3374 117.083 38.7204 114.369C39.064 113.67 39.6189 113.321 40.3677 113.321H40.7553C41.5305 113.321 42.1999 113.59 42.7549 114.118C44.5343 115.829 46.0142 117.468 47.1682 119.026C47.362 119.286 47.4501 119.59 47.4237 119.931C47.3972 120.271 47.2739 120.557 47.0361 120.799L45.9614 121.883C45.8997 121.946 45.8645 122.035 45.8645 122.143V123.092C45.8645 123.423 45.75 123.701 45.5209 123.934C45.2919 124.167 45.0276 124.274 44.7281 124.274H42.2088C42.103 124.274 42.0502 124.31 42.0502 124.399V127.158C42.0414 127.265 42.0942 127.319 42.1999 127.319H45.8204C46.1464 127.328 46.4194 127.444 46.6397 127.677C46.8687 127.91 46.9744 128.179 46.9744 128.483V128.913C46.9744 129.245 46.8599 129.522 46.6308 129.746C46.4018 129.979 46.1287 130.086 45.8028 130.086H42.1823C42.0766 130.077 42.0238 130.122 42.0238 130.203L41.9973 138.684C41.9973 138.774 42.0502 138.8 42.1559 138.783C43.2306 138.568 44.4726 138.308 45.8733 138.003C46.1728 137.941 46.4459 138.003 46.7013 138.191C46.948 138.38 47.0801 138.63 47.1065 138.935L47.2299 139.956C47.2299 140.063 47.2827 140.117 47.3884 140.117H48.6833C48.7714 140.117 48.8155 140.063 48.8155 139.956L48.8859 118.13C48.8859 118.023 48.8419 117.969 48.7538 117.969H48.2341C47.9346 117.969 47.6703 117.853 47.4413 117.62C47.2122 117.387 47.1065 117.118 47.1065 116.814V116.187C47.1065 115.856 47.221 115.578 47.4501 115.354C47.6791 115.121 47.9434 115.005 48.2429 115.014L62.0818 115.059C62.4077 115.059 62.6808 115.175 62.9098 115.408C63.13 115.641 63.2445 115.918 63.2445 116.25V116.877C63.2445 117.181 63.13 117.45 62.901 117.683C62.672 117.915 62.3989 118.023 62.073 118.023L52.11 117.987C52.0219 117.987 51.9779 118.041 51.9779 118.148L51.9603 122.519C51.9603 122.626 52.0043 122.68 52.0924 122.68L60.7252 122.707C61.0511 122.707 61.3242 122.814 61.5444 123.038C61.7734 123.262 61.8792 123.531 61.8792 123.862L61.8527 133.857C61.8527 134.188 61.7382 134.457 61.5092 134.681C61.2801 134.896 61.0071 135.003 60.6811 135.003L52.0484 134.976C51.9603 134.976 51.9162 135.03 51.9162 135.138L51.8986 139.974V139.983ZM34.818 133.257C34.8004 133.149 34.7828 133.051 34.7828 132.961C34.7828 132.764 34.8268 132.576 34.9149 132.406C35.0647 132.146 35.2937 131.976 35.5932 131.913C35.8927 131.851 36.1746 131.887 36.4477 132.03C36.712 132.173 36.8969 132.397 36.9762 132.702C37.3638 133.928 37.6457 135.146 37.8395 136.356C37.9012 136.687 37.8395 136.991 37.6633 137.278C37.4783 137.565 37.2229 137.744 36.897 137.833H36.8617C36.7736 137.851 36.6855 137.869 36.5974 137.869C36.4036 137.869 36.2187 137.815 36.0513 137.699C35.8135 137.52 35.6637 137.278 35.602 136.973C35.4347 135.944 35.1704 134.708 34.8092 133.257H34.818ZM37.2493 121.462C37.2493 121.462 37.2229 121.507 37.2317 121.543C37.2405 121.578 37.2581 121.587 37.2757 121.587L45.0629 121.614C45.1686 121.614 45.195 121.569 45.1245 121.489C43.9441 119.689 42.5699 117.987 41.0019 116.384C40.9403 116.321 40.8698 116.33 40.8081 116.42C39.7422 118.238 38.553 119.922 37.2317 121.471L37.2493 121.462ZM45.38 136.481C45.2655 136.767 45.0717 136.982 44.7986 137.135C44.6224 137.224 44.4374 137.26 44.2524 137.26C44.1467 137.26 44.0322 137.242 43.9265 137.197C43.6446 137.135 43.4332 136.965 43.2834 136.705C43.1954 136.553 43.1513 136.391 43.1513 136.212C43.1513 136.105 43.1777 135.997 43.213 135.881C43.6094 134.654 43.9177 133.534 44.1643 132.531C44.226 132.2 44.3934 131.958 44.6488 131.806C44.8426 131.698 45.0364 131.645 45.2302 131.645C45.3183 131.645 45.4064 131.654 45.4857 131.681L45.8116 131.752C46.0935 131.842 46.3049 132.012 46.4547 132.281C46.5428 132.46 46.5868 132.63 46.5868 132.809C46.5868 132.916 46.5692 133.042 46.5251 133.167C45.8909 135.003 45.5121 136.114 45.38 136.481ZM58.8929 125.743C58.8929 125.653 58.8401 125.609 58.7344 125.609L52.0748 125.591C51.9867 125.591 51.9427 125.635 51.9427 125.725L51.925 132.003C51.925 132.093 51.9691 132.137 52.0572 132.137L58.7167 132.155C58.8224 132.155 58.8753 132.11 58.8753 132.021L58.8929 125.743Z" fill="#2E8B54"/>
<path d="M74.0886 124.901C74.3881 124.838 74.6788 124.838 74.9607 124.901L75.4452 125.035C75.7006 125.08 75.912 125.214 76.0706 125.447C76.2292 125.68 76.2908 125.922 76.2468 126.191C75.8063 130.445 74.9871 134.009 73.7891 136.902C73.745 136.991 73.7715 137.063 73.8507 137.135C75.313 138.406 77.0572 139.284 79.0745 139.768C81.1005 140.251 83.5406 140.502 86.4123 140.529C90.8256 140.547 93.9528 140.547 95.785 140.529C96.0229 140.529 96.2079 140.636 96.3312 140.86C96.4193 140.968 96.4633 141.093 96.4633 141.219C96.4633 141.326 96.4369 141.434 96.3928 141.55C96.2607 141.81 96.1462 142.096 96.0317 142.401C95.926 142.732 95.7322 143.001 95.4591 143.207C95.186 143.413 94.8953 143.52 94.5694 143.52L86.3242 143.493C83.197 143.484 80.5279 143.216 78.3081 142.678C76.0882 142.141 74.1679 141.201 72.5294 139.83C72.4413 139.768 72.3796 139.768 72.3356 139.83C71.4459 141.38 70.4329 142.66 69.2877 143.664C69.0675 143.834 68.8208 143.923 68.5389 143.923H68.442C68.1161 143.896 67.843 143.771 67.6052 143.529C67.385 143.332 67.1736 143.135 66.9621 142.938C66.7419 142.741 66.645 142.499 66.645 142.213C66.645 141.926 66.7507 141.702 66.9709 141.523C68.2659 140.457 69.3582 139.123 70.2479 137.52C70.2919 137.43 70.2831 137.341 70.2214 137.26C69.1644 135.791 68.2923 134.018 67.5876 131.958C67.4819 131.654 67.4995 131.349 67.6404 131.054C67.7814 130.758 68.0016 130.552 68.3011 130.445L68.5566 130.382C68.8561 130.275 69.1467 130.292 69.4286 130.436C69.7105 130.579 69.9043 130.794 70.01 131.081C70.4329 132.308 70.935 133.409 71.5164 134.376C71.534 134.403 71.5604 134.412 71.5956 134.412C71.6309 134.412 71.6485 134.403 71.6485 134.376C72.3444 132.406 72.8465 130.203 73.1548 127.776C73.1724 127.686 73.1372 127.642 73.0227 127.642H70.1422C70.0541 127.633 69.9924 127.677 69.9484 127.767C69.7986 128.071 69.5696 128.295 69.2701 128.439C68.9706 128.582 68.6534 128.6 68.3275 128.483L67.7461 128.349C67.4642 128.259 67.2704 128.08 67.1471 127.803C67.0326 127.525 67.0326 127.256 67.1647 126.997C68.398 124.543 69.7722 121.65 71.2697 118.301C71.3138 118.211 71.2785 118.166 71.1728 118.166H67.5876C67.2616 118.157 66.9886 118.041 66.7683 117.808C66.5393 117.575 66.4336 117.306 66.4336 117.002V116.608C66.4336 116.277 66.5481 115.999 66.7771 115.766C67.0062 115.533 67.2793 115.426 67.6052 115.426L72.7144 115.444H72.8113C72.961 115.399 73.102 115.381 73.2341 115.381C73.3839 115.381 73.5248 115.408 73.6569 115.453L74.3 115.623C74.5819 115.685 74.7845 115.856 74.9166 116.133C75.0488 116.411 75.0576 116.68 74.943 116.939C74.0974 118.954 72.9258 121.569 71.4283 124.785C71.3842 124.874 71.4018 124.919 71.4899 124.919H73.9829C73.9829 124.919 74.0621 124.919 74.0798 124.919L74.0886 124.901ZM84.0163 124.74C84.122 124.74 84.1748 124.686 84.1748 124.579V122.868C84.1748 122.761 84.1308 122.707 84.0163 122.707L76.6167 122.68C76.2908 122.68 76.0265 122.573 75.8063 122.349C75.5949 122.125 75.4892 121.856 75.4892 121.525V121.39C75.4892 121.086 75.6037 120.817 75.8151 120.584C76.0354 120.351 76.2996 120.244 76.6255 120.244L84.0251 120.271C84.1308 120.271 84.1925 120.217 84.1925 120.11V118.498C84.1925 118.39 84.1484 118.336 84.0339 118.336L78.9247 118.318C78.5988 118.318 78.3257 118.202 78.0967 117.987C77.8676 117.763 77.7619 117.495 77.7619 117.163V117.029C77.7619 116.697 77.8764 116.429 78.1055 116.205C78.3345 115.99 78.6076 115.874 78.9335 115.883L84.0427 115.9C84.1484 115.9 84.2013 115.847 84.2013 115.739V114.915C84.2013 114.584 84.3158 114.306 84.5448 114.082C84.7738 113.85 85.0381 113.742 85.3376 113.742H86.0776C86.3771 113.742 86.6413 113.858 86.8704 114.091C87.0994 114.324 87.2051 114.602 87.2051 114.933V115.757C87.2051 115.865 87.258 115.918 87.3637 115.918L93.1159 115.936C93.4154 115.936 93.6797 116.053 93.9087 116.268C94.129 116.492 94.2435 116.76 94.2435 117.092V120.145C94.2347 120.253 94.2875 120.307 94.3932 120.316H95.556C95.8819 120.316 96.155 120.432 96.384 120.665C96.6131 120.898 96.7188 121.166 96.7188 121.471V121.605C96.7188 121.937 96.6043 122.205 96.3752 122.429C96.1462 122.644 95.8731 122.752 95.5472 122.752H94.3844C94.2787 122.752 94.2259 122.805 94.2259 122.913V126.065C94.217 126.397 94.1025 126.674 93.8735 126.898C93.6445 127.131 93.3802 127.239 93.0807 127.239L87.3284 127.221C87.2227 127.221 87.1699 127.265 87.1699 127.355V129.092C87.1699 129.182 87.2139 129.227 87.3284 129.227L93.3714 129.245C93.6973 129.245 93.9616 129.361 94.1818 129.594C94.3932 129.827 94.4989 130.104 94.4989 130.436C94.4989 130.767 94.3844 131.045 94.173 131.269C93.9528 131.501 93.6885 131.609 93.3626 131.609L87.3196 131.591C87.2139 131.591 87.1611 131.636 87.1611 131.725V133.597C87.1611 133.687 87.2051 133.732 87.3108 133.732L94.8161 133.758C95.142 133.758 95.4062 133.875 95.6265 134.108C95.8379 134.34 95.9524 134.618 95.9436 134.949V135.147C95.9436 135.451 95.8291 135.72 95.6177 135.953C95.3974 136.185 95.1332 136.293 94.8072 136.293L87.302 136.266C87.1963 136.266 87.1434 136.32 87.1434 136.427V138.272C87.1434 138.603 87.0201 138.872 86.7999 139.096C86.5709 139.311 86.3066 139.418 86.0071 139.418H85.2671C84.9676 139.418 84.7034 139.302 84.4743 139.087C84.2453 138.863 84.1396 138.595 84.1396 138.263V136.418C84.1396 136.311 84.0955 136.257 83.981 136.257L77.0043 136.23C76.7048 136.23 76.4406 136.114 76.2115 135.881C75.9825 135.648 75.8768 135.379 75.8768 135.075V134.878C75.8768 134.546 75.9913 134.269 76.2203 134.036C76.4494 133.803 76.7136 133.696 77.0131 133.696L83.9898 133.723C84.0955 133.723 84.1484 133.678 84.1484 133.588V131.716C84.1484 131.627 84.1044 131.582 83.9898 131.582L78.4666 131.564C78.1671 131.564 77.9029 131.448 77.6738 131.215C77.4448 130.982 77.3391 130.704 77.3391 130.373C77.3391 130.042 77.4536 129.764 77.6826 129.531C77.9117 129.298 78.1759 129.191 78.4754 129.191L83.9987 129.209C84.1044 129.209 84.1572 129.164 84.1572 129.074V127.337C84.1572 127.247 84.1132 127.203 83.9987 127.203L78.6957 127.185C78.3697 127.185 78.0967 127.068 77.8764 126.836C77.6474 126.603 77.5329 126.325 77.5329 125.994V125.859C77.5329 125.555 77.6474 125.286 77.8764 125.053C78.1055 124.82 78.3785 124.713 78.7045 124.713L84.0075 124.731L84.0163 124.74ZM91.0987 124.767C91.1868 124.767 91.2308 124.713 91.2308 124.605V122.895C91.2308 122.787 91.1956 122.734 91.1075 122.734H87.3549C87.2492 122.725 87.1963 122.779 87.1963 122.886V124.597C87.1963 124.704 87.2403 124.758 87.3549 124.758H91.1075L91.0987 124.767ZM87.3637 118.354C87.258 118.354 87.2051 118.408 87.2051 118.516V120.128C87.2051 120.235 87.2492 120.289 87.3549 120.298H91.1075C91.1956 120.307 91.2396 120.253 91.2396 120.145V118.533C91.2396 118.426 91.2044 118.372 91.1163 118.372H87.3637V118.354Z" fill="#2E8B54"/>
<path d="M110.962 119.107C111.261 119.107 111.525 119.223 111.754 119.456C111.983 119.689 112.089 119.957 112.089 120.262V120.423C112.089 120.755 111.975 121.032 111.746 121.265C111.517 121.498 111.252 121.605 110.953 121.605L100.576 121.57C100.276 121.57 100.012 121.453 99.783 121.22C99.554 120.987 99.4395 120.71 99.4395 120.378V120.217C99.4395 119.913 99.554 119.644 99.783 119.411C100.012 119.178 100.276 119.071 100.576 119.071L110.953 119.107H110.962ZM109.72 132.711C110.019 132.711 110.283 132.818 110.512 133.042C110.741 133.266 110.847 133.535 110.847 133.866L110.821 141.425C110.821 141.756 110.706 142.034 110.477 142.258C110.248 142.49 109.984 142.598 109.684 142.598L103.641 142.58C103.553 142.58 103.509 142.625 103.509 142.714V142.813C103.509 143.144 103.395 143.422 103.166 143.655C102.937 143.887 102.664 143.995 102.338 143.995H102.012C101.686 143.995 101.413 143.879 101.192 143.646C100.963 143.413 100.858 143.135 100.858 142.804L100.884 133.83C100.884 133.499 100.999 133.23 101.228 133.006C101.457 132.791 101.73 132.684 102.056 132.684L109.72 132.711ZM102.126 130.579C101.8 130.579 101.527 130.463 101.298 130.23C101.069 129.997 100.963 129.728 100.963 129.424V129.289C100.963 128.958 101.078 128.68 101.307 128.457C101.536 128.224 101.809 128.116 102.135 128.116L109.764 128.143C110.063 128.143 110.327 128.26 110.556 128.492C110.785 128.725 110.891 129.003 110.891 129.334V129.469C110.891 129.773 110.777 130.042 110.548 130.275C110.319 130.507 110.054 130.615 109.755 130.615L102.126 130.588V130.579ZM109.772 123.665C110.072 123.665 110.336 123.782 110.565 124.014C110.794 124.247 110.9 124.525 110.9 124.856V125.447C110.9 125.537 110.935 125.555 111.023 125.51C112.345 124.597 113.234 123.558 113.701 122.393C114.168 121.238 114.406 119.957 114.406 118.551V115.73C114.415 115.399 114.529 115.13 114.758 114.906C114.987 114.691 115.252 114.584 115.551 114.584L123.893 114.611C124.219 114.611 124.492 114.718 124.712 114.942C124.941 115.166 125.047 115.435 125.047 115.766L125.029 122.501C125.029 122.895 125.056 123.146 125.109 123.262C125.162 123.37 125.311 123.423 125.549 123.423H126.844C127.064 123.423 127.214 123.28 127.32 122.985C127.417 122.689 127.478 122.044 127.505 121.059C127.531 120.817 127.646 120.638 127.866 120.522C128.086 120.405 128.306 120.396 128.544 120.504C128.676 120.566 128.817 120.638 128.967 120.701C129.293 120.808 129.548 121.005 129.742 121.292C129.91 121.534 129.998 121.784 129.998 122.053C129.998 123.459 129.707 124.525 129.143 125.268C128.712 125.815 128.051 126.083 127.17 126.083H125.065C123.902 126.074 123.109 125.824 122.686 125.331C122.272 124.838 122.061 123.898 122.061 122.519L122.078 117.521C122.078 117.432 122.034 117.387 121.955 117.387L117.463 117.369C117.374 117.369 117.33 117.414 117.33 117.504V118.587C117.313 122.268 116.221 125.062 114.036 126.961C113.78 127.158 113.49 127.239 113.181 127.203C112.873 127.167 112.582 127.033 112.327 126.791C111.79 126.289 111.34 125.913 110.97 125.671C110.926 125.653 110.909 125.662 110.909 125.707C110.909 125.815 110.873 125.913 110.794 125.985C110.715 126.065 110.627 126.101 110.521 126.101L102.144 126.074C101.818 126.074 101.545 125.958 101.325 125.725C101.096 125.492 100.99 125.215 100.99 124.883V124.821C100.99 124.489 101.104 124.212 101.333 123.988C101.562 123.755 101.835 123.647 102.161 123.647L109.79 123.674L109.772 123.665ZM109.702 114.656C110.001 114.656 110.266 114.763 110.495 114.987C110.724 115.211 110.829 115.48 110.829 115.811V115.945C110.829 116.277 110.715 116.545 110.486 116.769C110.257 116.984 109.993 117.092 109.693 117.092L102.294 117.065C101.968 117.065 101.695 116.948 101.474 116.733C101.245 116.509 101.14 116.241 101.14 115.909V115.775C101.14 115.444 101.254 115.175 101.483 114.951C101.712 114.736 101.985 114.62 102.311 114.629L109.72 114.656H109.702ZM108.152 135.362C108.152 135.254 108.107 135.2 108.028 135.2L103.659 135.182C103.571 135.182 103.527 135.236 103.527 135.344L103.509 139.884C103.509 139.992 103.553 140.045 103.641 140.045L108.011 140.063C108.099 140.063 108.143 140.01 108.143 139.902L108.16 135.362H108.152ZM125.734 127.955C125.84 127.937 125.954 127.919 126.06 127.919C126.28 127.919 126.492 127.964 126.712 128.054L127.232 128.251C127.514 128.358 127.725 128.555 127.866 128.824C128.007 129.101 128.033 129.379 127.945 129.666C126.853 133.105 125.188 135.988 122.942 138.326C122.88 138.415 122.889 138.478 122.977 138.523C124.765 139.777 126.765 140.753 128.985 141.434C129.223 141.523 129.381 141.684 129.469 141.926C129.487 142.016 129.504 142.087 129.496 142.159C129.496 142.338 129.434 142.49 129.302 142.616C129.108 142.875 128.897 143.162 128.685 143.467C128.491 143.753 128.245 143.95 127.936 144.058C127.76 144.12 127.602 144.156 127.452 144.156C127.302 144.156 127.152 144.129 127.003 144.093C124.589 143.234 122.475 142.06 120.643 140.592C120.555 140.529 120.484 140.529 120.414 140.592C118.449 142.052 116.185 143.207 113.613 144.058C113.481 144.102 113.358 144.12 113.225 144.12C113.049 144.12 112.882 144.085 112.706 144.022C112.406 143.887 112.177 143.673 112.027 143.359C111.878 143.099 111.728 142.831 111.578 142.571C111.472 142.437 111.42 142.293 111.42 142.141C111.42 142.034 111.446 141.935 111.49 141.846C111.578 141.586 111.754 141.416 112.01 141.353C114.23 140.681 116.273 139.714 118.132 138.451C118.22 138.407 118.229 138.344 118.167 138.254C116.661 136.606 115.428 134.77 114.468 132.755C114.318 132.469 114.309 132.182 114.441 131.905C114.573 131.618 114.776 131.43 115.058 131.349L115.639 131.188C115.939 131.081 116.247 131.099 116.546 131.242C116.846 131.385 117.075 131.6 117.225 131.887C118.062 133.552 119.119 135.048 120.414 136.365C120.475 136.427 120.546 136.427 120.607 136.365C122.184 134.815 123.409 133.006 124.272 130.955C124.316 130.866 124.29 130.821 124.21 130.821L113.639 130.785C113.314 130.785 113.04 130.669 112.82 130.436C112.591 130.203 112.486 129.934 112.486 129.63V129.101C112.486 128.77 112.6 128.492 112.829 128.26C113.058 128.027 113.331 127.919 113.648 127.919L125.646 127.955C125.646 127.955 125.734 127.955 125.778 127.955H125.734Z" fill="#2E8B54"/>
<path d="M22.2669 156.369C22.2669 156.638 22.214 156.88 22.1171 157.113C22.0202 157.346 21.8705 157.543 21.6855 157.713C21.5005 157.883 21.2627 158.017 20.9896 158.107C20.7165 158.205 20.4082 158.25 20.0558 158.25C19.5978 158.25 19.1749 158.16 18.7962 157.981C18.4086 157.802 18.0826 157.578 17.8184 157.31L18.3117 156.745C18.5671 156.987 18.8402 157.184 19.1309 157.337C19.4216 157.489 19.7387 157.56 20.0823 157.56C20.5227 157.56 20.8751 157.453 21.1393 157.247C21.3948 157.041 21.5269 156.754 21.5269 156.396C21.5269 156.244 21.5005 156.101 21.4477 155.966C21.3948 155.841 21.3067 155.716 21.1834 155.608C21.0601 155.501 20.8927 155.393 20.6901 155.286C20.4875 155.178 20.232 155.071 19.9237 154.963C19.5625 154.829 19.2542 154.704 19.0076 154.569C18.7609 154.435 18.5671 154.292 18.4174 154.139C18.2676 153.987 18.1619 153.817 18.0914 153.629C18.0298 153.441 17.9945 153.226 17.9945 152.975C17.9945 152.706 18.0474 152.465 18.1443 152.25C18.25 152.035 18.3909 151.856 18.5671 151.703C18.7521 151.551 18.9723 151.435 19.2278 151.363C19.4833 151.282 19.7739 151.247 20.0823 151.247C20.5315 151.247 20.9103 151.309 21.2274 151.444C21.5446 151.578 21.8441 151.748 22.1171 151.981L21.6414 152.572C21.3948 152.366 21.157 152.205 20.9103 152.106C20.6637 151.999 20.373 151.945 20.0382 151.945C19.8092 151.945 19.6154 151.972 19.448 152.026C19.2806 152.079 19.1485 152.151 19.0428 152.241C18.9371 152.33 18.8666 152.438 18.8138 152.554C18.7697 152.671 18.7433 152.805 18.7433 152.939C18.7433 153.083 18.7609 153.208 18.7962 153.324C18.8314 153.441 18.9107 153.548 19.0252 153.656C19.1397 153.763 19.2983 153.871 19.5097 153.969C19.7123 154.077 19.9854 154.184 20.3289 154.309C20.6989 154.444 21.0072 154.578 21.2539 154.712C21.5005 154.847 21.7031 154.999 21.8529 155.16C22.0026 155.321 22.1083 155.501 22.17 155.698C22.2316 155.895 22.2669 156.119 22.2669 156.369Z" fill="#2E8B54"/>
<path d="M26.7649 158.152V157.534C26.6151 157.749 26.4302 157.919 26.2011 158.053C25.9721 158.187 25.699 158.259 25.3819 158.259C25.1176 158.259 24.871 158.214 24.6596 158.134C24.4393 158.053 24.2543 157.928 24.1046 157.758C23.9548 157.587 23.8315 157.372 23.7522 157.104C23.673 156.844 23.6289 156.531 23.6289 156.154V153.047H24.3512V156.029C24.3512 156.584 24.4481 156.987 24.6419 157.238C24.8357 157.498 25.1352 157.623 25.5316 157.623C25.884 157.623 26.1747 157.498 26.4125 157.247C26.6504 156.996 26.7737 156.593 26.7737 156.029V153.047H27.496V158.143H26.7737L26.7649 158.152Z" fill="#2E8B54"/>
<path d="M32.2024 158.152V155.169C32.2024 154.614 32.1055 154.211 31.9117 153.96C31.7179 153.701 31.4184 153.575 31.022 153.575C30.6696 153.575 30.3789 153.701 30.1411 153.951C29.9033 154.202 29.7887 154.605 29.7887 155.169V158.152H29.0664V153.056H29.7887V153.674C29.9297 153.459 30.1147 153.289 30.3437 153.154C30.5727 153.02 30.8458 152.948 31.1629 152.948C31.4272 152.948 31.6739 152.993 31.8941 153.074C32.1143 153.154 32.2993 153.28 32.449 153.45C32.5988 153.62 32.7221 153.835 32.8014 154.104C32.8807 154.363 32.9247 154.677 32.9247 155.053V158.161H32.2024V158.152Z" fill="#2E8B54"/>
<path d="M41.7281 156.674C41.6047 157.023 41.4286 157.319 41.2083 157.551C40.9881 157.784 40.7238 157.963 40.4243 158.08C40.1248 158.196 39.7989 158.25 39.4465 158.25C39.0413 158.25 38.6713 158.16 38.3366 157.981C38.0019 157.802 37.72 157.56 37.4821 157.247C37.2443 156.934 37.0681 156.566 36.936 156.136C36.8127 155.707 36.7422 155.25 36.7422 154.748C36.7422 154.247 36.8127 153.772 36.9448 153.342C37.0769 152.912 37.2619 152.545 37.4998 152.232C37.7376 151.918 38.0283 151.676 38.363 151.497C38.6978 151.318 39.0678 151.229 39.473 151.229C40.3803 151.229 41.085 151.596 41.6047 152.312L41.0145 152.769C40.7943 152.473 40.5741 152.259 40.345 152.115C40.116 151.981 39.8253 151.909 39.4553 151.909C39.1735 151.909 38.9092 151.981 38.6625 152.115C38.4159 152.259 38.2133 152.447 38.0371 152.688C37.8697 152.93 37.7288 153.226 37.6319 153.575C37.535 153.924 37.4821 154.3 37.4821 154.712C37.4821 155.124 37.535 155.51 37.6319 155.85C37.7376 156.199 37.8697 156.495 38.0459 156.745C38.2221 156.996 38.4335 157.193 38.6713 157.328C38.918 157.471 39.1735 157.534 39.4553 157.534C40.0103 157.534 40.4419 157.363 40.7414 157.023C41.0321 156.683 41.1819 156.172 41.1819 155.51V155.456H39.9839V154.766H41.913V155.42C41.913 155.886 41.8514 156.289 41.7281 156.647V156.674Z" fill="#2E8B54"/>
<path d="M43.2793 158.152V151.488L44.0016 151.085V158.161H43.2793V158.152Z" fill="#2E8B54"/>
<path d="M49.7335 155.572C49.7335 156.002 49.6806 156.387 49.5573 156.719C49.4428 157.05 49.2842 157.337 49.0904 157.56C48.8878 157.793 48.6588 157.963 48.3945 158.08C48.1303 158.196 47.8396 158.259 47.5312 158.259C47.2229 158.259 46.941 158.205 46.6768 158.089C46.4125 157.972 46.1835 157.811 45.9897 157.587C45.7959 157.363 45.6461 157.086 45.5404 156.754C45.4259 156.423 45.373 156.047 45.373 155.608C45.373 155.169 45.4259 154.793 45.5404 154.462C45.6549 154.13 45.8135 153.853 46.0073 153.629C46.2011 153.405 46.4389 153.235 46.7032 153.118C46.9675 153.002 47.2582 152.939 47.5665 152.939C47.8748 152.939 48.1567 152.993 48.421 153.1C48.6852 153.208 48.9143 153.378 49.108 153.593C49.3018 153.817 49.4516 154.086 49.5661 154.417C49.6806 154.739 49.7335 155.124 49.7335 155.554V155.572ZM49.0112 155.59C49.0112 154.918 48.879 154.408 48.6147 154.077C48.3505 153.745 47.9981 153.575 47.5577 153.575C47.1172 153.575 46.7649 153.745 46.5006 154.077C46.2363 154.408 46.1042 154.918 46.1042 155.59C46.1042 156.262 46.2363 156.772 46.5006 157.122C46.7649 157.462 47.1172 157.641 47.5577 157.641C47.9981 157.641 48.3505 157.471 48.6147 157.122C48.879 156.781 49.0112 156.271 49.0112 155.59Z" fill="#2E8B54"/>
<path d="M53.5917 153.817C53.486 153.754 53.3803 153.709 53.2658 153.674C53.1513 153.638 53.0103 153.62 52.8429 153.62C52.4906 153.62 52.2263 153.754 52.0413 154.023C51.8563 154.292 51.7594 154.677 51.7594 155.16V158.152H51.0371V153.056H51.7594V153.683C51.874 153.477 52.0413 153.297 52.2616 153.154C52.4818 153.011 52.7284 152.939 52.9927 152.939C53.1777 152.939 53.3274 152.948 53.4508 152.975C53.5741 153.002 53.6798 153.029 53.7679 153.065L53.5829 153.799L53.5917 153.817Z" fill="#2E8B54"/>
<path d="M56.3254 159.943H55.6118L56.2989 158.089L54.5195 153.056H55.2771L56.5015 156.754L56.6689 157.274L56.8451 156.763L58.0784 153.056H58.8359L56.343 159.943H56.3254Z" fill="#2E8B54"/>
<path d="M66.8611 158.152L66.2886 156.423H63.5314L62.95 158.152H62.1836L64.5004 151.363H65.3196L67.6363 158.152H66.8523H66.8611ZM65.3284 153.504C65.2932 153.396 65.2491 153.271 65.2051 153.145C65.161 153.02 65.1258 152.895 65.0817 152.769C65.0465 152.653 65.0113 152.536 64.9848 152.429C64.9584 152.321 64.932 152.232 64.9144 152.16C64.8968 152.232 64.8703 152.321 64.8439 152.42C64.8175 152.519 64.7822 152.635 64.747 152.76C64.7118 152.886 64.6677 153.011 64.6237 153.145C64.5796 153.28 64.5356 153.405 64.5004 153.522L63.7604 155.734H66.0595L65.3284 153.504Z" fill="#2E8B54"/>
<path d="M71.5136 153.817C71.4079 153.754 71.3022 153.709 71.1876 153.674C71.0731 153.638 70.9322 153.62 70.7648 153.62C70.4125 153.62 70.1482 153.754 69.9632 154.023C69.7782 154.292 69.6813 154.677 69.6813 155.16V158.152H68.959V153.056H69.6813V153.683C69.7958 153.477 69.9632 153.297 70.1834 153.154C70.4037 153.011 70.6503 152.939 70.9234 152.939C71.1084 152.939 71.2581 152.948 71.3814 152.975C71.5048 153.002 71.6105 153.029 71.6986 153.065L71.5136 153.799V153.817Z" fill="#2E8B54"/>
<path d="M75.6344 154.086C75.4494 153.915 75.2644 153.79 75.0882 153.701C74.9121 153.611 74.6918 153.566 74.4364 153.566C74.2426 153.566 74.0576 153.611 73.8902 153.701C73.7229 153.79 73.5731 153.915 73.4498 154.095C73.3265 154.265 73.2296 154.48 73.1591 154.722C73.0886 154.972 73.0534 155.25 73.0534 155.572C73.0534 156.199 73.1767 156.701 73.4233 157.077C73.67 157.453 74.0135 157.641 74.4628 157.641C74.7095 157.641 74.9121 157.596 75.0971 157.498C75.2732 157.399 75.4494 157.265 75.6256 157.104L76.0572 157.569C75.8458 157.784 75.6168 157.955 75.3613 158.08C75.1059 158.205 74.8064 158.268 74.4452 158.268C74.1721 158.268 73.9078 158.214 73.6524 158.107C73.3969 157.999 73.1679 157.838 72.9829 157.614C72.7891 157.39 72.6305 157.122 72.516 156.79C72.4015 156.468 72.3398 156.074 72.3398 155.635C72.3398 155.16 72.4015 154.757 72.5336 154.426C72.657 154.086 72.8243 153.817 73.0269 153.593C73.2295 153.378 73.4586 153.217 73.714 153.109C73.9695 153.002 74.2338 152.957 74.4892 152.957C74.8328 152.957 75.1323 153.011 75.3877 153.127C75.6432 153.235 75.8722 153.378 76.066 153.557L75.6344 154.104V154.086Z" fill="#2E8B54"/>
<path d="M80.4485 158.152V155.169C80.4485 154.614 80.3516 154.211 80.1578 153.96C79.964 153.701 79.6645 153.575 79.2681 153.575C78.9157 153.575 78.625 153.701 78.3872 153.951C78.1493 154.202 78.0348 154.605 78.0348 155.169V158.152H77.3125V151.488L78.0348 151.085V153.683C78.1758 153.468 78.3608 153.298 78.5898 153.163C78.8188 153.029 79.0919 152.957 79.409 152.957C79.6733 152.957 79.9199 153.002 80.1402 153.083C80.3604 153.163 80.5454 153.289 80.6951 153.459C80.8449 153.629 80.9682 153.844 81.0475 154.113C81.1268 154.372 81.1708 154.686 81.1708 155.062V158.17H80.4485V158.152Z" fill="#2E8B54"/>
<path d="M83.6371 151.632C83.6371 151.775 83.5842 151.892 83.4873 151.999C83.3904 152.098 83.2759 152.151 83.135 152.151C82.9852 152.151 82.8619 152.098 82.765 151.999C82.6593 151.901 82.6152 151.775 82.6152 151.632C82.6152 151.489 82.6681 151.354 82.765 151.256C82.8707 151.157 82.994 151.104 83.135 151.104C83.2671 151.104 83.3816 151.157 83.4873 151.256C83.5842 151.354 83.6371 151.48 83.6371 151.632ZM82.765 158.152V153.056H83.4873V158.152H82.765Z" fill="#2E8B54"/>
<path d="M92.3843 156.674C92.261 157.023 92.0848 157.319 91.8646 157.551C91.6443 157.784 91.3801 157.963 91.0806 158.08C90.7811 158.196 90.4551 158.25 90.1028 158.25C89.6976 158.25 89.3276 158.16 88.9929 157.981C88.6581 157.802 88.3762 157.56 88.1384 157.247C87.9005 156.934 87.7244 156.566 87.5922 156.136C87.4689 155.707 87.3984 155.25 87.3984 154.748C87.3984 154.247 87.4689 153.772 87.601 153.342C87.7332 152.912 87.9182 152.545 88.156 152.232C88.3939 151.918 88.6845 151.676 89.0193 151.497C89.354 151.318 89.724 151.229 90.1292 151.229C91.0365 151.229 91.7412 151.596 92.261 152.312L91.6708 152.769C91.4505 152.473 91.2303 152.259 91.0013 152.115C90.7723 151.981 90.4816 151.909 90.1116 151.909C89.8297 151.909 89.5654 151.981 89.3188 152.115C89.0721 152.259 88.8695 152.447 88.6934 152.688C88.526 152.93 88.385 153.226 88.2881 153.575C88.1912 153.924 88.1384 154.3 88.1384 154.712C88.1384 155.124 88.1912 155.51 88.2881 155.85C88.3938 156.199 88.526 156.495 88.7022 156.745C88.8783 156.996 89.0898 157.193 89.3276 157.328C89.5743 157.471 89.8297 157.534 90.1116 157.534C90.6666 157.534 91.0982 157.363 91.3977 157.023C91.6884 156.683 91.8381 156.172 91.8381 155.51V155.456H90.6401V154.766H92.5693V155.42C92.5693 155.886 92.5076 156.289 92.3843 156.647V156.674Z" fill="#2E8B54"/>
<path d="M96.453 153.817C96.3473 153.754 96.2416 153.709 96.1271 153.674C96.0126 153.638 95.8716 153.62 95.7043 153.62C95.3519 153.62 95.0876 153.754 94.9027 154.023C94.7177 154.292 94.6208 154.677 94.6208 155.16V158.152H93.8984V153.056H94.6208V153.683C94.7353 153.477 94.9027 153.297 95.1229 153.154C95.3431 153.011 95.5898 152.939 95.854 152.939C96.039 152.939 96.1888 152.948 96.3121 152.975C96.4354 153.002 96.5411 153.029 96.6292 153.065L96.4442 153.799L96.453 153.817Z" fill="#2E8B54"/>
<path d="M101.632 155.572C101.632 156.002 101.579 156.387 101.456 156.719C101.341 157.05 101.183 157.337 100.989 157.56C100.795 157.793 100.557 157.963 100.293 158.08C100.029 158.196 99.738 158.259 99.4297 158.259C99.1214 158.259 98.8395 158.205 98.5752 158.089C98.3109 157.972 98.0819 157.811 97.8881 157.587C97.6943 157.363 97.5446 157.086 97.4389 156.754C97.3243 156.423 97.2715 156.047 97.2715 155.608C97.2715 155.169 97.3243 154.793 97.4389 154.462C97.5534 154.13 97.7119 153.853 97.9057 153.629C98.0995 153.405 98.3374 153.235 98.6016 153.118C98.8659 153.002 99.1566 152.939 99.4649 152.939C99.7732 152.939 100.055 152.993 100.319 153.1C100.584 153.208 100.813 153.378 101.006 153.593C101.2 153.817 101.35 154.086 101.465 154.417C101.579 154.739 101.632 155.124 101.632 155.554V155.572ZM100.91 155.59C100.91 154.918 100.777 154.408 100.513 154.077C100.249 153.745 99.8965 153.575 99.4561 153.575C99.0157 153.575 98.6633 153.745 98.399 154.077C98.1348 154.408 98.0026 154.918 98.0026 155.59C98.0026 156.262 98.1348 156.772 98.399 157.122C98.6633 157.462 99.0157 157.641 99.4561 157.641C99.8965 157.641 100.249 157.471 100.513 157.122C100.777 156.781 100.91 156.271 100.91 155.59Z" fill="#2E8B54"/>
<path d="M106.038 158.152V157.534C105.889 157.749 105.704 157.919 105.475 158.053C105.246 158.187 104.972 158.259 104.655 158.259C104.391 158.259 104.144 158.214 103.933 158.134C103.713 158.053 103.528 157.928 103.378 157.758C103.228 157.587 103.105 157.372 103.026 157.104C102.946 156.844 102.902 156.531 102.902 156.154V153.047H103.625V156.029C103.625 156.584 103.722 156.987 103.915 157.238C104.109 157.498 104.409 157.623 104.805 157.623C105.157 157.623 105.448 157.498 105.686 157.247C105.924 156.996 106.047 156.593 106.047 156.029V153.047H106.769V158.143H106.047L106.038 158.152Z" fill="#2E8B54"/>
<path d="M112.361 155.519C112.361 155.975 112.308 156.369 112.211 156.71C112.114 157.05 111.982 157.337 111.806 157.561C111.638 157.793 111.436 157.964 111.207 158.08C110.978 158.196 110.731 158.259 110.476 158.259C110.158 158.259 109.885 158.196 109.665 158.071C109.445 157.946 109.242 157.784 109.066 157.578V159.62L108.344 160.023V153.056H109.066V153.674C109.233 153.477 109.445 153.306 109.683 153.163C109.929 153.02 110.22 152.948 110.564 152.948C110.81 152.948 111.048 153.002 111.268 153.1C111.489 153.199 111.682 153.351 111.841 153.557C111.999 153.763 112.132 154.032 112.22 154.354C112.317 154.677 112.361 155.071 112.361 155.51V155.519ZM111.656 155.528C111.656 154.874 111.541 154.39 111.321 154.059C111.101 153.727 110.793 153.566 110.387 153.566C110.123 153.566 109.877 153.629 109.665 153.763C109.445 153.898 109.251 154.077 109.075 154.301V156.853C109.216 157.068 109.401 157.247 109.63 157.399C109.859 157.552 110.123 157.623 110.423 157.623C110.837 157.623 111.154 157.444 111.356 157.086C111.559 156.728 111.656 156.208 111.656 155.519V155.528Z" fill="#2E8B54"/>
<path d="M98.7035 47.9098L52.5361 30.8308C54.0129 24.4497 59.5846 19.7577 66.1296 19.7577C71.1474 19.7577 75.8128 22.5046 78.3301 26.9237C79.572 29.0905 80.2265 31.5645 80.2265 34.0897C80.2265 35.0963 81.0152 35.8982 82.0054 35.8982C82.9955 35.8982 83.7843 35.0963 83.7843 34.0897C83.7843 30.9332 82.962 27.8279 81.418 25.098C78.263 19.57 72.406 16.1235 66.1296 16.1235C58.0742 16.1235 51.1767 21.788 49.1797 29.5683L45.0009 28.0156C47.6525 18.478 56.2617 11.6703 66.1296 11.6703C75.4436 11.6703 83.8011 17.6761 86.9058 26.5995C87.7449 29.0052 88.1644 31.5133 88.1644 34.0726C88.1644 35.0792 88.9532 35.8812 89.9433 35.8812C90.9334 35.8812 91.7222 35.0792 91.7222 34.0726C91.7222 31.1038 91.2355 28.1692 90.2454 25.3881C86.6372 15.0145 76.9372 8.05321 66.1128 8.05321C54.7345 8.05321 44.7996 15.8334 41.6445 26.7872L37.4826 25.2516C41.2921 12.4552 52.8382 3.61712 66.1128 3.61712C79.3874 3.61712 91.739 13.0182 95.1457 26.463C95.7835 28.937 96.0855 31.5133 96.0855 34.0897C96.0855 35.0963 96.8911 35.8982 97.8644 35.8982C98.8378 35.8982 99.6433 35.0963 99.6433 34.0897C99.6433 31.2062 99.2909 28.3398 98.5861 25.5587C94.7765 10.5101 81.4348 0 66.1128 0C50.7908 0 37.2644 10.6807 33.5891 25.9511C33.5724 26.0364 33.5891 26.1218 33.5891 26.2071C33.5891 26.3265 33.5556 26.4459 33.5891 26.5654C33.5891 26.6848 33.6395 26.7872 33.673 26.8895C33.7066 27.009 33.7402 27.1113 33.7905 27.2137C33.8409 27.3161 33.9248 27.4014 33.9919 27.4867C34.059 27.572 34.1262 27.6573 34.2101 27.7426C34.3108 27.8279 34.4115 27.8791 34.5121 27.9303C34.5961 27.9644 34.6464 28.0327 34.7303 28.0668L42.2151 30.8308L49.8677 33.6631L97.512 51.288C97.7134 51.3563 97.9148 51.3904 98.1162 51.3904C98.8378 51.3904 99.5259 50.9297 99.7944 50.1961C100.13 49.2577 99.6601 48.2169 98.7371 47.8757L98.7035 47.9098Z" fill="#2E8B54"/>
<path d="M98.5333 56.4409L34.795 32.8613C33.872 32.5201 32.8483 32.9978 32.5126 33.9362C32.177 34.8746 32.6469 35.9154 33.5699 36.2567L97.3082 59.8533C97.5095 59.9215 97.7109 59.9556 97.9123 59.9556C98.6339 59.9556 99.322 59.4949 99.5905 58.7613C99.9262 57.8229 99.4563 56.7821 98.5333 56.4409Z" fill="#2E8B54"/>
<path d="M98.6004 66.1489C98.6004 66.0294 98.55 65.9271 98.5165 65.8247C98.4829 65.7053 98.4493 65.6029 98.399 65.5005C98.3487 65.3981 98.2647 65.3128 98.1976 65.2275C98.1305 65.1422 98.0634 65.0569 97.9794 64.9716C97.8788 64.8863 97.7781 64.8351 97.6774 64.7839C97.6102 64.7498 97.5431 64.6815 97.4592 64.6474L89.9744 61.8834L82.4057 59.0852L34.795 41.4433C33.872 41.102 32.8483 41.5797 32.5126 42.5181C32.177 43.4566 32.6469 44.4973 33.5699 44.8386L79.6702 61.9005C79.3514 63.163 78.9318 64.3744 78.2941 65.4664C75.7768 69.8854 71.1114 72.6324 66.0935 72.6324C58.3234 72.6324 51.9966 66.2001 51.9966 58.3004C51.9966 57.2937 51.191 56.4918 50.2177 56.4918C49.2443 56.4918 48.4388 57.3108 48.4388 58.3004C48.4388 68.1963 56.3599 76.2495 66.0935 76.2495C72.37 76.2495 78.227 72.803 81.382 67.275C82.1204 65.9953 82.6239 64.5962 83.0266 63.1289L87.1382 64.6474C84.386 74.0144 75.8271 80.6856 66.1103 80.6856C53.9601 80.6856 44.0755 70.6361 44.0755 58.2833C44.0755 57.2767 43.2699 56.4748 42.2966 56.4748C41.3232 56.4748 40.5177 57.2937 40.5177 58.2833C40.5177 72.6324 51.9966 84.3027 66.1271 84.3027C77.3543 84.3027 87.2389 76.6419 90.4946 65.8759L94.6566 67.4114C90.7464 80.0543 79.2507 88.7559 66.1271 88.7559C49.5968 88.7559 36.1543 75.0722 36.1543 58.2833C36.1543 57.2767 35.3488 56.4748 34.3754 56.4748C33.4021 56.4748 32.5965 57.2937 32.5965 58.2833C32.5965 77.0855 47.65 92.3901 66.1271 92.3901C81.4323 92.3901 94.7741 81.8458 98.5836 66.7631C98.6004 66.6778 98.5836 66.5925 98.5836 66.4901C98.5836 66.3707 98.6172 66.2512 98.5836 66.1318L98.6004 66.1489Z" fill="#2E8B54"/>
</svg>
