<svg width="98" height="121" viewBox="0 0 98 121" fill="none" xmlns="http://www.w3.org/2000/svg">
<path d="M18.0703 90.2597C18.0215 90.2597 17.9971 90.2895 17.9971 90.349V90.5328C17.9971 90.5923 18.0117 90.637 18.0508 90.6619C18.7296 91.1236 19.3938 91.5903 20.0336 92.0521C20.1752 92.1613 20.2583 92.3053 20.2827 92.4791C20.3071 92.6579 20.2631 92.8118 20.1557 92.9458L19.9408 93.2388C19.8334 93.3728 19.6966 93.4424 19.5257 93.4473C19.3596 93.4523 19.2131 93.3927 19.0959 93.2735C18.8713 93.0551 18.5196 92.7224 18.041 92.2855C18.0313 92.2755 18.0166 92.2706 18.0068 92.2755C17.9922 92.2805 17.9873 92.2904 17.9873 92.3004L17.9775 95.5277C17.9775 95.7115 17.914 95.8654 17.7871 95.9895C17.6601 96.1186 17.5087 96.1782 17.328 96.1782H17.0057C16.825 96.1782 16.6785 96.1136 16.5564 95.9845C16.4343 95.8554 16.3806 95.7015 16.3806 95.5178L16.3903 91.8932C16.3903 91.8932 16.3854 91.8734 16.3708 91.8684C16.3561 91.8634 16.3464 91.8684 16.3366 91.8783C15.6284 93.1395 14.8422 94.1276 13.9777 94.8425C13.8556 94.9369 13.7189 94.9617 13.5626 94.9121C13.4063 94.8624 13.294 94.7631 13.2208 94.6191C13.1622 94.485 13.0938 94.346 13.0254 94.1971C12.9668 94.0878 12.9375 93.9736 12.9375 93.8495C12.9375 93.7999 12.9424 93.7452 12.957 93.6857C13.0059 93.5019 13.1035 93.358 13.2452 93.2487C14.1926 92.4841 14.9984 91.5109 15.6724 90.3242C15.7115 90.2746 15.6968 90.2497 15.6382 90.2497H13.7922C13.6115 90.2448 13.4601 90.1802 13.338 90.0511C13.211 89.922 13.1524 89.7731 13.1524 89.6043V89.3659C13.1524 89.1822 13.2159 89.0283 13.3429 88.9042C13.4698 88.7751 13.6212 88.7105 13.8019 88.7155L16.3122 88.7254C16.3708 88.7254 16.4001 88.7006 16.4001 88.651V87.2657C16.405 87.082 16.4636 86.933 16.5857 86.8089C16.7029 86.6897 16.8543 86.6301 17.035 86.6301H17.3573C17.538 86.6301 17.6894 86.6947 17.8115 86.8138C17.9385 86.938 17.9971 87.0869 17.9971 87.2706V88.6559C17.9971 88.7056 18.0166 88.7304 18.0654 88.7304H19.892C20.0727 88.7354 20.2241 88.7999 20.3462 88.929C20.4731 89.0581 20.5317 89.212 20.5317 89.3957V89.6341C20.5317 89.8029 20.4683 89.9518 20.3413 90.0809C20.2143 90.21 20.0629 90.2746 19.8822 90.2696H18.0557L18.0703 90.2597ZM21.0543 87.221C20.8883 87.221 20.7417 87.1614 20.6148 87.0373C20.4927 86.9131 20.4292 86.7642 20.4292 86.5805L20.439 83.1197C20.439 83.1197 20.4341 83.0999 20.4194 83.0999H20.3852C19.6771 83.8993 18.8664 84.6242 17.9482 85.2796C17.035 85.935 16.0729 86.4712 15.0668 86.8933C14.8959 86.9529 14.725 86.9578 14.5443 86.9032C14.3636 86.8486 14.2219 86.7394 14.1145 86.5805C14.0168 86.4712 13.9289 86.362 13.8459 86.2528C13.7482 86.1435 13.7189 86.0144 13.758 85.8704C13.7922 85.7265 13.8801 85.6271 14.007 85.5825C15.9117 84.8824 17.5087 83.8993 18.8029 82.6282C18.8127 82.6182 18.8175 82.6033 18.8127 82.5835C18.8078 82.5636 18.798 82.5537 18.7882 82.5537L14.808 82.5388C14.6273 82.5388 14.4808 82.4792 14.3587 82.3551C14.2366 82.231 14.1829 82.082 14.1829 81.8983V81.66C14.1829 81.4763 14.2463 81.3223 14.3636 81.1932C14.4857 81.0641 14.6322 81.0046 14.8129 81.0046L20.351 81.0244C20.4096 81.0244 20.439 80.9996 20.439 80.9499V79.664C20.4438 79.4951 20.5073 79.3462 20.6343 79.2171C20.7613 79.093 20.9078 79.0284 21.0738 79.0284H21.5231C21.6892 79.0284 21.8357 79.093 21.9627 79.2221C22.0897 79.3511 22.1532 79.5001 22.1483 79.6689V80.9648C22.1483 81.0145 22.1727 81.0393 22.2313 81.0393L28.0185 81.0592C28.1992 81.0592 28.3506 81.1237 28.4776 81.2528C28.6046 81.3819 28.6632 81.5358 28.6632 81.7195V81.9579C28.6632 82.1416 28.5997 82.2905 28.4727 82.4147C28.3458 82.5388 28.1944 82.5984 28.0137 82.5934L23.7843 82.5785C23.7599 82.5785 23.7501 82.5984 23.7501 82.6331C25.1322 83.8893 26.8123 84.8426 28.7951 85.4931C28.9367 85.5427 29.0295 85.6371 29.0637 85.7761C29.0979 85.9151 29.0686 86.0393 28.9709 86.1485C28.8781 86.2677 28.7706 86.4067 28.6632 86.5656C28.5558 86.7245 28.4141 86.8287 28.2334 86.8833C28.0527 86.938 27.8818 86.933 27.7158 86.8734C26.6657 86.4464 25.6597 85.9002 24.6976 85.2399C23.7355 84.5795 22.9004 83.8546 22.1873 83.0651C22.1776 83.0552 22.1629 83.0502 22.1532 83.0552C22.1434 83.0601 22.1336 83.0701 22.1336 83.08L22.1239 86.5954C22.1239 86.7791 22.0604 86.928 21.9334 87.0522C21.8064 87.1713 21.6599 87.2309 21.4938 87.2309H21.0445L21.0543 87.221ZM29.6155 89.6539C29.6155 89.8227 29.552 89.9717 29.4251 90.1008C29.2981 90.2299 29.1467 90.2895 28.966 90.2895H26.7634C26.7146 90.2795 26.7048 90.3044 26.7292 90.354C27.5497 91.6946 28.4972 92.7919 29.5667 93.6459C29.6986 93.7552 29.762 93.8992 29.762 94.0829C29.762 94.2269 29.7132 94.356 29.6155 94.4652C29.4837 94.5992 29.3567 94.7383 29.2395 94.8823C29.132 95.0163 28.9953 95.0908 28.8244 95.1107C28.6583 95.1305 28.5118 95.0759 28.3946 94.9567C27.4764 94.0283 26.6462 92.8614 25.8941 91.4513C25.8941 91.4414 25.8892 91.4315 25.8746 91.4315C25.8599 91.4315 25.855 91.4364 25.855 91.4513L25.8404 95.5526C25.8404 95.7363 25.7769 95.8902 25.6499 96.0143C25.5229 96.1434 25.3715 96.203 25.1908 96.203H24.849C24.6829 96.203 24.5364 96.1385 24.4094 96.0094C24.2825 95.8803 24.2239 95.7263 24.2239 95.5426L24.2385 91.5357C24.2385 91.5357 24.2336 91.5159 24.219 91.5159C24.2043 91.5159 24.1994 91.5208 24.1994 91.5357C23.3692 93.0253 22.4169 94.1971 21.3376 95.0461C21.1959 95.1554 21.0397 95.1951 20.8736 95.1653C20.7076 95.1355 20.561 95.0461 20.4438 94.8972C20.3706 94.7979 20.2924 94.7035 20.2094 94.6042C20.1166 94.5049 20.0678 94.3907 20.0678 94.2567C20.0678 94.063 20.1459 93.9091 20.3022 93.7999C21.4743 92.9756 22.4706 91.8287 23.2862 90.349C23.3204 90.2994 23.3106 90.2746 23.252 90.2746H21.8357C21.6697 90.2746 21.5231 90.2051 21.3962 90.076C21.2692 89.9469 21.2106 89.7979 21.2106 89.6291V89.3908C21.2106 89.2071 21.2741 89.0531 21.4011 88.929C21.528 88.7999 21.6745 88.7403 21.8406 88.7403L24.1506 88.7503C24.2092 88.7503 24.2385 88.7254 24.2385 88.6758V87.2905C24.2434 87.1068 24.3069 86.9578 24.4339 86.8337C24.5608 86.7145 24.7074 86.65 24.8734 86.6549H25.2153C25.396 86.6549 25.5474 86.7195 25.6695 86.8387C25.7964 86.9628 25.855 87.1117 25.855 87.2955V88.6807C25.855 88.7304 25.8746 88.7552 25.9234 88.7552L28.9513 88.7651C29.132 88.7651 29.2834 88.8297 29.4055 88.9588C29.5325 89.0879 29.5911 89.2418 29.5911 89.4255V89.6638L29.6155 89.6539Z" fill="black" fill-opacity="0.55"/>
<path d="M41.6377 93.8892C41.6377 93.9488 41.6622 93.9786 41.711 93.9786L47.5178 93.9984C47.6838 93.9984 47.8304 94.063 47.9573 94.1921C48.0843 94.3212 48.1429 94.4701 48.1429 94.6389V95.0014C48.1429 95.1702 48.0794 95.3192 47.9524 95.4483C47.8255 95.5774 47.679 95.6369 47.5129 95.6369L39.2838 95.6121C39.1031 95.6121 38.9566 95.5476 38.8394 95.4185C38.7173 95.2894 38.6635 95.1404 38.6635 94.9716V94.351C38.6635 94.2914 38.6342 94.2665 38.5756 94.2765C37.8675 94.4304 36.8126 94.6638 35.4012 94.9666C33.9898 95.2695 32.974 95.4979 32.3537 95.6419C32.3049 95.6518 32.256 95.6618 32.2121 95.6618C32.09 95.6618 31.9777 95.627 31.8702 95.5525C31.7286 95.4532 31.6358 95.3192 31.6016 95.1504L31.5137 94.8028C31.4795 94.634 31.5088 94.4701 31.6065 94.3212C31.7042 94.1672 31.836 94.0828 32.0021 94.058C33.0521 93.8693 33.9019 93.7055 34.5465 93.5714C34.5954 93.5615 34.6198 93.5267 34.6198 93.482L34.6344 88.4722C34.6344 88.4225 34.61 88.3977 34.5612 88.3977H32.2658C32.0851 88.3878 31.9337 88.3232 31.8116 88.1991C31.6846 88.07 31.626 87.9161 31.626 87.7324V87.494C31.626 87.3252 31.6895 87.1763 31.8165 87.0472C31.9435 86.9181 32.0949 86.8585 32.2756 86.8585H34.5709C34.6198 86.8684 34.6442 86.8337 34.6442 86.7741V85.2448C34.6442 85.1951 34.6247 85.1703 34.5758 85.1703H33.267C33.1009 85.1703 32.9642 85.1058 32.8567 84.9916C32.7493 84.8774 32.6956 84.7383 32.6956 84.5795C32.6956 84.5695 32.6858 84.5596 32.6712 84.5546C32.6516 84.5497 32.6467 84.5546 32.6467 84.5646C32.6126 84.5993 32.5735 84.639 32.5393 84.6738C32.4172 84.783 32.2707 84.8327 32.0998 84.8178C31.9288 84.8029 31.7872 84.7334 31.6798 84.5993C31.6065 84.5248 31.5381 84.4553 31.4649 84.3809C31.3477 84.2617 31.2891 84.1177 31.2891 83.9588C31.2891 83.79 31.3526 83.651 31.4698 83.5417C32.6077 82.4742 33.5649 81.1932 34.3316 79.6887C34.5221 79.3015 34.8298 79.1078 35.2449 79.1078H35.4598C35.8896 79.1078 36.2607 79.2568 36.5684 79.5497C37.5549 80.4981 38.3754 81.4067 39.0152 82.2706C39.1226 82.4146 39.1714 82.5835 39.1568 82.7721C39.1421 82.9608 39.0738 83.1197 38.9419 83.2538L38.3461 83.8545C38.3119 83.8893 38.2924 83.9389 38.2924 83.9985V84.5248C38.2924 84.7086 38.2289 84.8625 38.1019 84.9916C37.9749 85.1207 37.8284 85.1802 37.6624 85.1802H36.2656C36.207 85.1802 36.1777 85.2001 36.1777 85.2498V86.779C36.1728 86.8386 36.2021 86.8684 36.2607 86.8684H38.268C38.4487 86.8734 38.6 86.9379 38.7221 87.067C38.8491 87.1961 38.9077 87.3451 38.9077 87.5139V87.7522C38.9077 87.9359 38.8442 88.0898 38.7173 88.214C38.5903 88.3431 38.4389 88.4027 38.2582 88.4027H36.251C36.1924 88.3977 36.1631 88.4225 36.1631 88.4672L36.1484 93.1692C36.1484 93.2189 36.1777 93.2338 36.2363 93.2239C36.8321 93.1047 37.5207 92.9607 38.2973 92.7919C38.4633 92.7571 38.6147 92.7919 38.7563 92.8962C38.8931 93.0004 38.9663 93.1394 38.981 93.3083L39.0494 93.8743C39.0494 93.9339 39.0787 93.9637 39.1373 93.9637H39.8552C39.904 93.9637 39.9284 93.9339 39.9284 93.8743L39.9675 81.7741C39.9675 81.7145 39.9431 81.6848 39.8942 81.6848H39.6061C39.4401 81.6848 39.2935 81.6202 39.1666 81.4911C39.0396 81.362 38.981 81.2131 38.981 81.0442V80.6967C38.981 80.513 39.0445 80.359 39.1714 80.2349C39.2984 80.1058 39.4449 80.0413 39.611 80.0462L47.2834 80.0711C47.4641 80.0711 47.6155 80.1356 47.7424 80.2647C47.8645 80.3938 47.928 80.5477 47.928 80.7314V81.079C47.928 81.2478 47.8645 81.3968 47.7376 81.5259C47.6106 81.655 47.4592 81.7145 47.2785 81.7145L41.755 81.6947C41.7061 81.6947 41.6817 81.7245 41.6817 81.7841L41.6719 84.2071C41.6719 84.2667 41.6964 84.2964 41.7452 84.2964L46.5313 84.3113C46.712 84.3113 46.8634 84.3709 46.9855 84.4951C47.1124 84.6192 47.171 84.7681 47.171 84.9518L47.1564 90.493C47.1564 90.6767 47.0929 90.8257 46.9659 90.9498C46.8389 91.069 46.6876 91.1285 46.5069 91.1285L41.7208 91.1136C41.6719 91.1136 41.6475 91.1434 41.6475 91.203L41.6377 93.8842V93.8892ZM32.1681 90.1603C32.1584 90.1008 32.1486 90.0461 32.1486 89.9965C32.1486 89.8872 32.173 89.783 32.2219 89.6886C32.3049 89.5446 32.4319 89.4503 32.5979 89.4156C32.764 89.3808 32.9202 89.4007 33.0716 89.4801C33.2181 89.5595 33.3207 89.6837 33.3647 89.8525C33.5795 90.5327 33.7358 91.208 33.8433 91.8783C33.8775 92.062 33.8433 92.2308 33.7456 92.3897C33.643 92.5486 33.5014 92.6479 33.3207 92.6975H33.3012C33.2523 92.7075 33.2035 92.7174 33.1547 92.7174C33.0472 92.7174 32.9447 92.6876 32.8519 92.6231C32.72 92.5238 32.637 92.3897 32.6028 92.2209C32.51 91.6499 32.3635 90.9647 32.1633 90.1603H32.1681ZM33.5161 83.6212C33.5161 83.6212 33.5014 83.646 33.5063 83.6659C33.5112 83.6857 33.5209 83.6907 33.5307 83.6907L37.8479 83.7056C37.9066 83.7056 37.9212 83.6808 37.8821 83.6361C37.2277 82.6381 36.4658 81.6947 35.5965 80.8059C35.5623 80.7712 35.5233 80.7761 35.4891 80.8258C34.8982 81.8337 34.2389 82.7672 33.5063 83.6261L33.5161 83.6212ZM38.0238 91.9478C37.9603 92.1067 37.8528 92.2259 37.7014 92.3103C37.6038 92.3599 37.5012 92.3798 37.3986 92.3798C37.34 92.3798 37.2765 92.3698 37.2179 92.345C37.0617 92.3103 36.9445 92.2159 36.8614 92.0719C36.8126 91.9875 36.7882 91.8981 36.7882 91.7988C36.7882 91.7393 36.8028 91.6797 36.8224 91.6151C37.0421 90.9349 37.2131 90.3143 37.3498 89.7582C37.384 89.5744 37.4768 89.4404 37.6184 89.356C37.7259 89.2964 37.8333 89.2666 37.9407 89.2666C37.9896 89.2666 38.0384 89.2716 38.0824 89.2865L38.2631 89.3262C38.4193 89.3758 38.5366 89.4702 38.6196 89.6191C38.6684 89.7184 38.6928 89.8128 38.6928 89.9121C38.6928 89.9717 38.6831 90.0412 38.6587 90.1107C38.307 91.1285 38.097 91.7442 38.0238 91.9478ZM45.5154 85.9945C45.5154 85.9449 45.4861 85.9201 45.4275 85.9201L41.7354 85.9101C41.6866 85.9101 41.6622 85.935 41.6622 85.9846L41.6524 89.4652C41.6524 89.5149 41.6768 89.5397 41.7257 89.5397L45.4178 89.5496C45.4764 89.5496 45.5057 89.5248 45.5057 89.4751L45.5154 85.9945Z" fill="black" fill-opacity="0.55"/>
<path d="M53.9393 85.5278C54.1053 85.4931 54.2665 85.4931 54.4228 85.5278L54.6914 85.6023C54.833 85.6271 54.9502 85.7016 55.0381 85.8307C55.1261 85.9598 55.1602 86.0938 55.1358 86.2428C54.8916 88.6013 54.4374 90.5774 53.7733 92.1812C53.7488 92.2308 53.7635 92.2705 53.8074 92.3103C54.6181 93.0153 55.5851 93.5019 56.7035 93.77C57.8268 94.0382 59.1796 94.1772 60.7717 94.1921C63.2184 94.202 64.9522 94.202 65.968 94.1921C66.0998 94.1921 66.2024 94.2517 66.2708 94.3758C66.3196 94.4354 66.344 94.5049 66.344 94.5744C66.344 94.634 66.3294 94.6936 66.305 94.7581C66.2317 94.9021 66.1682 95.061 66.1047 95.2298C66.0461 95.4135 65.9387 95.5625 65.7873 95.6767C65.6359 95.7909 65.4747 95.8504 65.294 95.8504L60.7228 95.8356C58.9891 95.8306 57.5093 95.6816 56.2786 95.3837C55.0479 95.0858 53.9833 94.5645 53.0749 93.8048C53.026 93.77 52.9918 93.77 52.9674 93.8048C52.4742 94.6638 51.9125 95.3738 51.2777 95.9299C51.1556 96.0242 51.0188 96.0739 50.8625 96.0739H50.8088C50.6281 96.059 50.4767 95.9895 50.3449 95.8554C50.2228 95.7462 50.1056 95.6369 49.9883 95.5277C49.8662 95.4185 49.8125 95.2844 49.8125 95.1255C49.8125 94.9666 49.8711 94.8425 49.9932 94.7432C50.7111 94.1524 51.3167 93.4125 51.81 92.5238C51.8344 92.4741 51.8295 92.4245 51.7953 92.3798C51.2093 91.5655 50.7258 90.5824 50.3351 89.4404C50.2765 89.2716 50.2862 89.1028 50.3644 88.9389C50.4425 88.775 50.5646 88.6608 50.7307 88.6013L50.8723 88.5665C51.0383 88.5069 51.1995 88.5169 51.3558 88.5963C51.5121 88.6757 51.6195 88.7949 51.6781 88.9538C51.9125 89.634 52.1909 90.2447 52.5132 90.781C52.523 90.7959 52.5377 90.8008 52.5572 90.8008C52.5767 90.8008 52.5865 90.7959 52.5865 90.781C52.9723 89.6886 53.2507 88.4672 53.4216 87.1216C53.4314 87.072 53.4118 87.0472 53.3484 87.0472H51.7514C51.7025 87.0422 51.6684 87.067 51.6439 87.1167C51.5609 87.2855 51.4339 87.4096 51.2679 87.4891C51.1018 87.5685 50.926 87.5784 50.7453 87.5139L50.423 87.4394C50.2667 87.3898 50.1593 87.2905 50.0909 87.1365C50.0274 86.9826 50.0274 86.8337 50.1007 86.6897C50.7844 85.3292 51.5463 83.7255 52.3765 81.8685C52.4009 81.8188 52.3814 81.794 52.3228 81.794H50.3351C50.1544 81.789 50.003 81.7245 49.8809 81.5954C49.7539 81.4663 49.6953 81.3173 49.6953 81.1485V80.93C49.6953 80.7463 49.7588 80.5924 49.8858 80.4633C50.0128 80.3342 50.1642 80.2746 50.3449 80.2746L53.1774 80.2846H53.2312C53.3142 80.2597 53.3923 80.2498 53.4656 80.2498C53.5486 80.2498 53.6267 80.2647 53.7 80.2895L54.0565 80.3839C54.2128 80.4186 54.3251 80.513 54.3984 80.6669C54.4716 80.8208 54.4765 80.9698 54.413 81.1138C53.9442 82.2309 53.2946 83.6808 52.4644 85.4633C52.44 85.5129 52.4498 85.5377 52.4986 85.5377H53.8807C53.8807 85.5377 53.9246 85.5377 53.9344 85.5377L53.9393 85.5278ZM59.4433 85.4384C59.5019 85.4384 59.5312 85.4086 59.5312 85.3491V84.4007C59.5312 84.3411 59.5068 84.3113 59.4433 84.3113L55.3409 84.2964C55.1602 84.2964 55.0137 84.2369 54.8916 84.1127C54.7744 83.9886 54.7158 83.8396 54.7158 83.6559V83.5815C54.7158 83.4126 54.7793 83.2637 54.8965 83.1346C55.0186 83.0055 55.1651 82.9459 55.3458 82.9459L59.4482 82.9608C59.5068 82.9608 59.541 82.931 59.541 82.8714V81.9777C59.541 81.9181 59.5165 81.8883 59.4531 81.8883L56.6205 81.8784C56.4398 81.8784 56.2884 81.8139 56.1614 81.6947C56.0344 81.5706 55.9758 81.4216 55.9758 81.2379V81.1634C55.9758 80.9797 56.0393 80.8307 56.1663 80.7066C56.2933 80.5874 56.4447 80.5229 56.6254 80.5279L59.4579 80.5378C59.5166 80.5378 59.5458 80.508 59.5458 80.4484V79.9916C59.5458 79.8079 59.6093 79.654 59.7363 79.5299C59.8633 79.4008 60.0098 79.3412 60.1759 79.3412H60.5861C60.7521 79.3412 60.8987 79.4057 61.0256 79.5348C61.1526 79.6639 61.2112 79.8178 61.2112 80.0016V80.4584C61.2112 80.5179 61.2405 80.5477 61.2991 80.5477L64.4882 80.5577C64.6543 80.5577 64.8008 80.6222 64.9278 80.7414C65.0498 80.8655 65.1133 81.0145 65.1133 81.1982V82.8913C65.1084 82.9509 65.1378 82.9807 65.1964 82.9856H65.841C66.0217 82.9856 66.1731 83.0502 66.3001 83.1793C66.4271 83.3084 66.4857 83.4573 66.4857 83.6261V83.7006C66.4857 83.8843 66.4222 84.0333 66.2952 84.1574C66.1682 84.2766 66.0168 84.3362 65.8361 84.3362H65.1915C65.1329 84.3362 65.1036 84.366 65.1036 84.4255V86.1733C65.0987 86.357 65.0352 86.5109 64.9082 86.6351C64.7812 86.7641 64.6347 86.8237 64.4687 86.8237L61.2796 86.8138C61.221 86.8138 61.1917 86.8386 61.1917 86.8883V87.8515C61.1917 87.9012 61.2161 87.926 61.2796 87.926L64.6298 87.9359C64.8105 87.9359 64.9571 88.0005 65.0791 88.1296C65.1964 88.2587 65.255 88.4126 65.255 88.5963C65.255 88.78 65.1915 88.9339 65.0743 89.0581C64.9522 89.1872 64.8057 89.2467 64.625 89.2467L61.2747 89.2368C61.2161 89.2368 61.1868 89.2616 61.1868 89.3113V90.349C61.1868 90.3987 61.2112 90.4235 61.2698 90.4235L65.4308 90.4384C65.6115 90.4384 65.758 90.5029 65.8801 90.632C65.9973 90.7611 66.0608 90.915 66.0559 91.0988V91.208C66.0559 91.3768 65.9924 91.5258 65.8752 91.6549C65.7531 91.784 65.6066 91.8435 65.4259 91.8435L61.2649 91.8286C61.2063 91.8286 61.177 91.8584 61.177 91.918V92.9408C61.177 93.1246 61.1087 93.2735 60.9866 93.3976C60.8596 93.5168 60.7131 93.5764 60.547 93.5764H60.1368C59.9707 93.5764 59.8242 93.5118 59.6972 93.3927C59.5703 93.2685 59.5117 93.1196 59.5117 92.9359V91.913C59.5117 91.8535 59.4872 91.8237 59.4238 91.8237L55.5558 91.8088C55.3898 91.8088 55.2433 91.7442 55.1163 91.6151C54.9893 91.486 54.9307 91.3371 54.9307 91.1683V91.059C54.9307 90.8753 54.9942 90.7214 55.1212 90.5923C55.2481 90.4632 55.3947 90.4036 55.5607 90.4036L59.4286 90.4185C59.4872 90.4185 59.5165 90.3937 59.5165 90.344V89.3063C59.5165 89.2567 59.4921 89.2318 59.4286 89.2318L56.3665 89.2219C56.2005 89.2219 56.054 89.1574 55.927 89.0283C55.8 88.8992 55.7414 88.7453 55.7414 88.5615C55.7414 88.3778 55.8049 88.2239 55.9319 88.0948C56.0589 87.9657 56.2054 87.9061 56.3714 87.9061L59.4335 87.9161C59.4921 87.9161 59.5214 87.8912 59.5214 87.8416V86.8783C59.5214 86.8287 59.497 86.8039 59.4335 86.8039L56.4935 86.7939C56.3128 86.7939 56.1614 86.7294 56.0393 86.6003C55.9123 86.4712 55.8488 86.3173 55.8488 86.1336V86.0591C55.8488 85.8903 55.9123 85.7413 56.0393 85.6122C56.1663 85.4831 56.3177 85.4235 56.4984 85.4235L59.4384 85.4335L59.4433 85.4384ZM63.3698 85.4533C63.4187 85.4533 63.4431 85.4235 63.4431 85.364V84.4156C63.4431 84.356 63.4236 84.3262 63.3747 84.3262H61.2942C61.2356 84.3213 61.2063 84.3511 61.2063 84.4106V85.359C61.2063 85.4186 61.2307 85.4484 61.2942 85.4484H63.3747L63.3698 85.4533ZM61.2991 81.8983C61.2405 81.8983 61.2112 81.9281 61.2112 81.9876V82.8814C61.2112 82.9409 61.2356 82.9707 61.2942 82.9757H63.3747C63.4236 82.9807 63.448 82.9509 63.448 82.8913V81.9976C63.448 81.938 63.4284 81.9082 63.3796 81.9082H61.2991V81.8983Z" fill="black" fill-opacity="0.55"/>
<path d="M74.3801 82.3154C74.5462 82.3154 74.6927 82.3799 74.8197 82.509C74.9467 82.6381 75.0053 82.7871 75.0053 82.9559V83.0453C75.0053 83.229 74.9418 83.3829 74.8148 83.512C74.6878 83.6411 74.5413 83.7007 74.3753 83.7007L68.6222 83.6808C68.4561 83.6808 68.3096 83.6163 68.1827 83.4872C68.0557 83.3581 67.9922 83.2041 67.9922 83.0204V82.9311C67.9922 82.7622 68.0557 82.6133 68.1827 82.4842C68.3096 82.3551 68.4561 82.2955 68.6222 82.2955L74.3753 82.3154H74.3801ZM73.6915 89.8575C73.8576 89.8575 74.0041 89.9171 74.1311 90.0412C74.258 90.1653 74.3167 90.3143 74.3167 90.498L74.302 94.6886C74.302 94.8723 74.2385 95.0263 74.1115 95.1504C73.9846 95.2795 73.838 95.3391 73.672 95.3391L70.3217 95.3291C70.2729 95.3291 70.2485 95.354 70.2485 95.4036V95.4582C70.2485 95.6419 70.185 95.7959 70.058 95.925C69.931 96.0541 69.7796 96.1136 69.5989 96.1136H69.4182C69.2375 96.1136 69.0862 96.0491 68.9641 95.92C68.8371 95.7909 68.7785 95.637 68.7785 95.4533L68.7931 90.4781C68.7931 90.2944 68.8566 90.1455 68.9836 90.0213C69.1106 89.9022 69.262 89.8426 69.4427 89.8426L73.6915 89.8575ZM69.4817 88.6758C69.301 88.6758 69.1496 88.6112 69.0227 88.4821C68.8957 88.353 68.8371 88.2041 68.8371 88.0353V87.9608C68.8371 87.7771 68.9006 87.6232 69.0275 87.499C69.1545 87.3699 69.3059 87.3104 69.4866 87.3104L73.716 87.3253C73.882 87.3253 74.0285 87.3898 74.1555 87.5189C74.2825 87.648 74.3411 87.8019 74.3411 87.9856V88.0601C74.3411 88.2289 74.2776 88.3779 74.1506 88.507C74.0236 88.6361 73.8771 88.6956 73.7111 88.6956L69.4817 88.6807V88.6758ZM73.7208 84.8427C73.8869 84.8427 74.0334 84.9072 74.1604 85.0363C74.2874 85.1654 74.346 85.3193 74.346 85.503V85.8307C74.346 85.8804 74.3655 85.8903 74.4143 85.8655C75.1469 85.359 75.6402 84.7831 75.899 84.1376C76.1578 83.4971 76.2897 82.7871 76.2897 82.0075V80.4435C76.2946 80.2598 76.3581 80.1108 76.485 79.9867C76.612 79.8675 76.7585 79.808 76.9246 79.808L81.5495 79.8228C81.7302 79.8228 81.8816 79.8824 82.0037 80.0066C82.1307 80.1307 82.1893 80.2796 82.1893 80.4634L82.1795 84.1972C82.1795 84.4156 82.1942 84.5547 82.2235 84.6192C82.2528 84.6788 82.3358 84.7086 82.4676 84.7086H83.1856C83.3076 84.7086 83.3907 84.6292 83.4493 84.4653C83.503 84.3014 83.5372 83.944 83.5518 83.3978C83.5665 83.2637 83.63 83.1644 83.7521 83.0999C83.8742 83.0353 83.9963 83.0304 84.1281 83.0899C84.2014 83.1247 84.2795 83.1644 84.3625 83.1992C84.5432 83.2588 84.6849 83.368 84.7923 83.5269C84.8851 83.6609 84.9339 83.8 84.9339 83.9489C84.9339 84.7285 84.7728 85.3193 84.4602 85.7314C84.2209 86.0343 83.8546 86.1833 83.3663 86.1833H82.199C81.5544 86.1783 81.1148 86.0393 80.8804 85.7662C80.6509 85.4931 80.5337 84.9718 80.5337 84.2071L80.5434 81.4365C80.5434 81.3869 80.519 81.3621 80.4751 81.3621L77.9843 81.3521C77.9355 81.3521 77.9111 81.377 77.9111 81.4266V82.0274C77.9013 84.0681 77.2957 85.6172 76.0846 86.6698C75.9429 86.7791 75.7818 86.8238 75.6108 86.8039C75.4399 86.784 75.2788 86.7096 75.1371 86.5755C74.8392 86.2975 74.5901 86.0889 74.385 85.9549C74.3606 85.9449 74.3508 85.9499 74.3508 85.9747C74.3508 86.0343 74.3313 86.0889 74.2873 86.1286C74.2434 86.1733 74.1946 86.1932 74.136 86.1932L69.4915 86.1783C69.3108 86.1783 69.1594 86.1137 69.0373 85.9846C68.9103 85.8556 68.8517 85.7016 68.8517 85.5179V85.4832C68.8517 85.2995 68.9152 85.1455 69.0422 85.0214C69.1692 84.8923 69.3206 84.8327 69.5013 84.8327L73.7306 84.8476L73.7208 84.8427ZM73.6818 79.8477C73.8478 79.8477 73.9943 79.9073 74.1213 80.0314C74.2483 80.1555 74.3069 80.3045 74.3069 80.4882V80.5627C74.3069 80.7464 74.2434 80.8953 74.1164 81.0195C73.9894 81.1386 73.8429 81.1982 73.6769 81.1982L69.5745 81.1833C69.3938 81.1833 69.2424 81.1188 69.1203 80.9996C68.9934 80.8755 68.9347 80.7265 68.9347 80.5428V80.4683C68.9347 80.2846 68.9982 80.1357 69.1252 80.0115C69.2522 79.8924 69.4036 79.8278 69.5843 79.8328L73.6915 79.8477H73.6818ZM72.8222 91.3272C72.8222 91.2676 72.7978 91.2378 72.7538 91.2378L70.3315 91.2279C70.2827 91.2279 70.2583 91.2577 70.2583 91.3173L70.2485 93.8346C70.2485 93.8942 70.2729 93.924 70.3217 93.924L72.7441 93.9339C72.7929 93.9339 72.8173 93.9041 72.8173 93.8445L72.8271 91.3272H72.8222ZM82.5702 87.221C82.6288 87.2111 82.6923 87.2011 82.7509 87.2011C82.873 87.2011 82.9902 87.2259 83.1123 87.2756L83.4004 87.3848C83.5567 87.4444 83.6739 87.5536 83.7521 87.7026C83.8302 87.8565 83.8449 88.0104 83.796 88.1693C83.1904 90.076 82.2674 91.6748 81.022 92.9707C80.9879 93.0203 80.9927 93.0551 81.0416 93.0799C82.033 93.775 83.1416 94.3162 84.3723 94.6936C84.5042 94.7432 84.5921 94.8326 84.6409 94.9667C84.6507 95.0163 84.6604 95.0561 84.6556 95.0958C84.6556 95.1951 84.6214 95.2795 84.5481 95.349C84.4407 95.493 84.3235 95.6519 84.2063 95.8207C84.0988 95.9796 83.9621 96.0888 83.7911 96.1484C83.6935 96.1831 83.6056 96.203 83.5225 96.203C83.4395 96.203 83.3565 96.1881 83.2735 96.1683C81.9353 95.6916 80.7632 95.0412 79.7474 94.2269C79.6985 94.1921 79.6595 94.1921 79.6204 94.2269C78.5313 95.0362 77.2762 95.6767 75.8502 96.1484C75.7769 96.1732 75.7085 96.1832 75.6353 96.1832C75.5376 96.1832 75.4448 96.1633 75.3471 96.1285C75.1811 96.0541 75.0541 95.9349 74.9711 95.7611C74.888 95.6171 74.805 95.4682 74.722 95.3242C74.6634 95.2497 74.6341 95.1702 74.6341 95.0858C74.6341 95.0263 74.6487 94.9716 74.6732 94.922C74.722 94.778 74.8197 94.6837 74.9613 94.6489C76.192 94.2765 77.325 93.7403 78.3555 93.0402C78.4044 93.0154 78.4092 92.9806 78.3751 92.931C77.5399 92.0174 76.8562 90.9995 76.3239 89.8823C76.2409 89.7234 76.236 89.5646 76.3092 89.4106C76.3825 89.2517 76.4948 89.1475 76.6511 89.1028L76.9734 89.0134C77.1395 88.9538 77.3104 88.9638 77.4764 89.0432C77.6425 89.1226 77.7695 89.2418 77.8525 89.4007C78.3165 90.3242 78.9025 91.1534 79.6204 91.8833C79.6546 91.9181 79.6937 91.9181 79.7279 91.8833C80.602 91.0243 81.2809 90.0213 81.7595 88.8843C81.7839 88.8347 81.7693 88.8098 81.7253 88.8098L75.8648 88.79C75.6841 88.79 75.5327 88.7254 75.4106 88.5963C75.2836 88.4672 75.225 88.3183 75.225 88.1495V87.8565C75.225 87.6728 75.2885 87.5189 75.4155 87.3898C75.5425 87.2607 75.6939 87.2011 75.8697 87.2011L82.5214 87.221C82.5214 87.221 82.5702 87.221 82.5946 87.221H82.5702Z" fill="black" fill-opacity="0.55"/>
<path d="M25.2085 102.974C25.2085 103.123 25.1792 103.257 25.1255 103.386C25.0717 103.515 24.9887 103.625 24.8862 103.719C24.7836 103.813 24.6517 103.888 24.5003 103.937C24.3489 103.992 24.178 104.017 23.9827 104.017C23.7287 104.017 23.4943 103.967 23.2843 103.868C23.0694 103.769 22.8887 103.644 22.7422 103.495L23.0157 103.183C23.1573 103.317 23.3087 103.426 23.4699 103.51C23.631 103.595 23.8068 103.635 23.9973 103.635C24.2415 103.635 24.4369 103.575 24.5834 103.461C24.725 103.347 24.7982 103.188 24.7982 102.989C24.7982 102.905 24.7836 102.825 24.7543 102.751C24.725 102.681 24.6762 102.612 24.6078 102.552C24.5394 102.493 24.4466 102.433 24.3343 102.373C24.222 102.314 24.0803 102.254 23.9094 102.195C23.7092 102.12 23.5382 102.051 23.4015 101.976C23.2647 101.902 23.1573 101.822 23.0743 101.738C22.9913 101.653 22.9327 101.559 22.8936 101.455C22.8594 101.351 22.8399 101.231 22.8399 101.092C22.8399 100.943 22.8692 100.809 22.9229 100.69C22.9815 100.571 23.0596 100.472 23.1573 100.387C23.2599 100.303 23.382 100.238 23.5236 100.199C23.6652 100.154 23.8264 100.134 23.9973 100.134C24.2464 100.134 24.4564 100.169 24.6322 100.243C24.808 100.318 24.9741 100.412 25.1255 100.541L24.8617 100.869C24.725 100.755 24.5931 100.665 24.4564 100.611C24.3196 100.551 24.1585 100.521 23.9729 100.521C23.8459 100.521 23.7385 100.536 23.6457 100.566C23.5529 100.596 23.4796 100.636 23.421 100.685C23.3624 100.735 23.3234 100.794 23.2941 100.859C23.2696 100.924 23.255 100.998 23.255 101.072C23.255 101.152 23.2647 101.221 23.2843 101.286C23.3038 101.351 23.3478 101.41 23.4113 101.47C23.4748 101.529 23.5627 101.589 23.6799 101.643C23.7922 101.703 23.9436 101.763 24.1341 101.832C24.3392 101.907 24.5101 101.981 24.6469 102.056C24.7836 102.13 24.8959 102.214 24.9789 102.304C25.062 102.393 25.1206 102.493 25.1548 102.602C25.189 102.711 25.2085 102.835 25.2085 102.974Z" fill="black" fill-opacity="0.55"/>
<path d="M27.6996 103.962V103.62C27.6165 103.739 27.514 103.833 27.387 103.908C27.26 103.982 27.1086 104.022 26.9328 104.022C26.7863 104.022 26.6495 103.997 26.5323 103.952C26.4102 103.908 26.3077 103.838 26.2247 103.744C26.1416 103.649 26.0733 103.53 26.0293 103.381C25.9854 103.237 25.9609 103.064 25.9609 102.855V101.132H26.3614V102.785C26.3614 103.093 26.4151 103.317 26.5226 103.456C26.63 103.6 26.7961 103.669 27.0158 103.669C27.2112 103.669 27.3723 103.6 27.5042 103.461C27.6361 103.322 27.7044 103.098 27.7044 102.785V101.132H28.1049V103.957H27.7044L27.6996 103.962Z" fill="black" fill-opacity="0.55"/>
<path d="M30.7152 103.962V102.309C30.7152 102.001 30.6615 101.778 30.554 101.639C30.4466 101.495 30.2805 101.425 30.0608 101.425C29.8654 101.425 29.7042 101.495 29.5724 101.634C29.4405 101.773 29.377 101.996 29.377 102.309V103.962H28.9766V101.137H29.377V101.48C29.4552 101.361 29.5577 101.266 29.6847 101.192C29.8117 101.117 29.9631 101.077 30.1389 101.077C30.2854 101.077 30.4222 101.102 30.5442 101.147C30.6663 101.192 30.7689 101.261 30.8519 101.356C30.9349 101.45 31.0033 101.569 31.0473 101.718C31.0912 101.862 31.1156 102.036 31.1156 102.244V103.967H30.7152V103.962Z" fill="black" fill-opacity="0.55"/>
<path d="M35.9986 103.143C35.9302 103.337 35.8325 103.5 35.7104 103.63C35.5883 103.759 35.4418 103.858 35.2758 103.922C35.1097 103.987 34.929 104.017 34.7337 104.017C34.509 104.017 34.3039 103.967 34.1183 103.868C33.9328 103.769 33.7765 103.635 33.6446 103.461C33.5127 103.287 33.4151 103.083 33.3418 102.845C33.2734 102.607 33.2344 102.353 33.2344 102.075C33.2344 101.797 33.2734 101.534 33.3467 101.296C33.42 101.058 33.5225 100.854 33.6544 100.68C33.7862 100.506 33.9474 100.372 34.133 100.273C34.3186 100.174 34.5237 100.124 34.7483 100.124C35.2514 100.124 35.6421 100.328 35.9302 100.725L35.603 100.978C35.4809 100.814 35.3588 100.695 35.2318 100.616C35.1049 100.541 34.9437 100.501 34.7386 100.501C34.5823 100.501 34.4358 100.541 34.299 100.616C34.1623 100.695 34.05 100.799 33.9523 100.933C33.8595 101.067 33.7814 101.231 33.7276 101.425C33.6739 101.619 33.6446 101.827 33.6446 102.056C33.6446 102.284 33.6739 102.497 33.7276 102.686C33.7862 102.88 33.8595 103.044 33.9572 103.183C34.0548 103.322 34.1721 103.431 34.3039 103.505C34.4407 103.585 34.5823 103.62 34.7386 103.62C35.0462 103.62 35.2855 103.525 35.4516 103.337C35.6128 103.148 35.6958 102.865 35.6958 102.497V102.468H35.0316V102.085H36.1011V102.448C36.1011 102.706 36.067 102.929 35.9986 103.128V103.143Z" fill="black" fill-opacity="0.55"/>
<path d="M36.8594 103.962V100.268L37.2598 100.045V103.967H36.8594V103.962Z" fill="black" fill-opacity="0.55"/>
<path d="M40.4331 102.532C40.4331 102.771 40.4038 102.984 40.3354 103.168C40.2719 103.352 40.184 103.51 40.0766 103.635C39.9642 103.764 39.8373 103.858 39.6908 103.923C39.5442 103.987 39.3831 104.022 39.2121 104.022C39.0412 104.022 38.8849 103.992 38.7384 103.927C38.5919 103.863 38.4649 103.774 38.3575 103.649C38.25 103.525 38.167 103.371 38.1084 103.188C38.0449 103.004 38.0156 102.795 38.0156 102.552C38.0156 102.309 38.0449 102.1 38.1084 101.917C38.1719 101.733 38.2598 101.579 38.3673 101.455C38.4747 101.331 38.6066 101.236 38.7531 101.172C38.8996 101.107 39.0608 101.073 39.2317 101.073C39.4026 101.073 39.5589 101.102 39.7054 101.162C39.8519 101.221 39.9789 101.316 40.0863 101.435C40.1938 101.559 40.2768 101.708 40.3403 101.892C40.4038 102.071 40.4331 102.284 40.4331 102.522V102.532ZM40.0326 102.542C40.0326 102.17 39.9594 101.887 39.8128 101.703C39.6663 101.519 39.471 101.425 39.2268 101.425C38.9826 101.425 38.7873 101.519 38.6407 101.703C38.4942 101.887 38.421 102.17 38.421 102.542C38.421 102.915 38.4942 103.198 38.6407 103.391C38.7873 103.58 38.9826 103.679 39.2268 103.679C39.471 103.679 39.6663 103.585 39.8128 103.391C39.9594 103.203 40.0326 102.92 40.0326 102.542Z" fill="black" fill-opacity="0.55"/>
<path d="M42.5725 101.559C42.5139 101.524 42.4553 101.499 42.3918 101.48C42.3284 101.46 42.2502 101.45 42.1574 101.45C41.9621 101.45 41.8156 101.524 41.713 101.673C41.6104 101.822 41.5567 102.036 41.5567 102.304V103.962H41.1562V101.137H41.5567V101.485C41.6202 101.37 41.713 101.271 41.8351 101.192C41.9572 101.112 42.0939 101.072 42.2404 101.072C42.343 101.072 42.426 101.077 42.4944 101.092C42.5628 101.107 42.6214 101.122 42.6702 101.142L42.5677 101.549L42.5725 101.559Z" fill="black" fill-opacity="0.55"/>
<path d="M44.0949 104.955H43.6993L44.0803 103.927L43.0938 101.137H43.5138L44.1926 103.188L44.2854 103.476L44.3831 103.193L45.0668 101.137H45.4868L44.1047 104.955H44.0949Z" fill="black" fill-opacity="0.55"/>
<path d="M49.9292 103.962L49.6118 103.004H48.0832L47.7608 103.962H47.3359L48.6204 100.199H49.0746L50.359 103.962H49.9243H49.9292ZM49.0794 101.385C49.0599 101.326 49.0355 101.256 49.0111 101.187C48.9867 101.117 48.9671 101.048 48.9427 100.978C48.9232 100.914 48.9036 100.849 48.889 100.79C48.8743 100.73 48.8597 100.68 48.8499 100.641C48.8401 100.68 48.8255 100.73 48.8108 100.785C48.7962 100.839 48.7766 100.904 48.7571 100.973C48.7376 101.043 48.7132 101.112 48.6887 101.187C48.6643 101.261 48.6399 101.331 48.6204 101.395L48.2101 102.622H49.4848L49.0794 101.385Z" fill="black" fill-opacity="0.55"/>
<path d="M52.51 101.559C52.4514 101.524 52.3928 101.499 52.3293 101.48C52.2659 101.46 52.1877 101.45 52.0949 101.45C51.8996 101.45 51.7531 101.524 51.6505 101.673C51.5479 101.822 51.4942 102.036 51.4942 102.304V103.962H51.0938V101.137H51.4942V101.485C51.5577 101.37 51.6505 101.271 51.7726 101.192C51.8947 101.112 52.0314 101.072 52.1828 101.072C52.2854 101.072 52.3684 101.077 52.4368 101.092C52.5052 101.107 52.5638 101.122 52.6126 101.142L52.51 101.549V101.559Z" fill="black" fill-opacity="0.55"/>
<path d="M54.7953 101.708C54.6927 101.614 54.5902 101.544 54.4925 101.495C54.3948 101.445 54.2727 101.42 54.1311 101.42C54.0236 101.42 53.9211 101.445 53.8283 101.495C53.7355 101.544 53.6525 101.614 53.5841 101.713C53.5157 101.807 53.462 101.927 53.4229 102.061C53.3839 102.2 53.3643 102.354 53.3643 102.532C53.3643 102.88 53.4327 103.158 53.5695 103.366C53.7062 103.575 53.8967 103.679 54.1457 103.679C54.2825 103.679 54.3948 103.654 54.4974 103.6C54.595 103.545 54.6927 103.471 54.7904 103.381L55.0297 103.639C54.9125 103.759 54.7855 103.853 54.6439 103.923C54.5023 103.992 54.3362 104.027 54.136 104.027C53.9846 104.027 53.8381 103.997 53.6964 103.937C53.5548 103.878 53.4278 103.788 53.3253 103.664C53.2178 103.54 53.1299 103.391 53.0664 103.208C53.0029 103.029 52.9688 102.81 52.9688 102.567C52.9688 102.304 53.0029 102.08 53.0762 101.897C53.1446 101.708 53.2374 101.559 53.3497 101.435C53.462 101.316 53.589 101.226 53.7306 101.167C53.8722 101.107 54.0188 101.082 54.1604 101.082C54.3509 101.082 54.5169 101.112 54.6585 101.177C54.8002 101.236 54.9271 101.316 55.0346 101.415L54.7953 101.718V101.708Z" fill="black" fill-opacity="0.55"/>
<path d="M57.4652 103.962V102.309C57.4652 102.001 57.4115 101.778 57.304 101.639C57.1966 101.495 57.0305 101.425 56.8107 101.425C56.6154 101.425 56.4542 101.495 56.3224 101.634C56.1905 101.773 56.127 101.996 56.127 102.309V103.962H55.7266V100.268L56.127 100.045V101.485C56.2052 101.365 56.3077 101.271 56.4347 101.197C56.5617 101.122 56.7131 101.082 56.8889 101.082C57.0354 101.082 57.1722 101.107 57.2942 101.152C57.4163 101.197 57.5189 101.266 57.6019 101.36C57.6849 101.455 57.7533 101.574 57.7973 101.723C57.8412 101.867 57.8656 102.041 57.8656 102.249V103.972H57.4652V103.962Z" fill="black" fill-opacity="0.55"/>
<path d="M59.2306 100.348C59.2306 100.427 59.2013 100.492 59.1476 100.551C59.0938 100.606 59.0303 100.636 58.9522 100.636C58.8692 100.636 58.8008 100.606 58.7471 100.551C58.6885 100.497 58.6641 100.427 58.6641 100.348C58.6641 100.268 58.6934 100.194 58.7471 100.139C58.8057 100.085 58.8741 100.055 58.9522 100.055C59.0255 100.055 59.089 100.085 59.1476 100.139C59.2013 100.194 59.2306 100.263 59.2306 100.348ZM58.7471 103.962V101.137H59.1476V103.962H58.7471Z" fill="black" fill-opacity="0.55"/>
<path d="M64.0845 103.143C64.0161 103.337 63.9185 103.5 63.7964 103.63C63.6743 103.759 63.5278 103.858 63.3617 103.922C63.1957 103.987 63.015 104.017 62.8196 104.017C62.595 104.017 62.3899 103.967 62.2043 103.868C62.0187 103.769 61.8624 103.635 61.7305 103.461C61.5987 103.287 61.501 103.083 61.4278 102.845C61.3594 102.607 61.3203 102.353 61.3203 102.075C61.3203 101.797 61.3594 101.534 61.4326 101.296C61.5059 101.058 61.6085 100.854 61.7403 100.68C61.8722 100.506 62.0333 100.372 62.2189 100.273C62.4045 100.174 62.6096 100.124 62.8343 100.124C63.3373 100.124 63.728 100.328 64.0161 100.725L63.6889 100.978C63.5668 100.814 63.4447 100.695 63.3178 100.616C63.1908 100.541 63.0296 100.501 62.8245 100.501C62.6682 100.501 62.5217 100.541 62.385 100.616C62.2482 100.695 62.1359 100.799 62.0382 100.933C61.9454 101.067 61.8673 101.231 61.8136 101.425C61.7598 101.619 61.7305 101.827 61.7305 102.056C61.7305 102.284 61.7598 102.497 61.8136 102.686C61.8722 102.88 61.9454 103.044 62.0431 103.183C62.1408 103.322 62.258 103.431 62.3899 103.505C62.5266 103.585 62.6682 103.62 62.8245 103.62C63.1322 103.62 63.3715 103.525 63.5375 103.337C63.6987 103.148 63.7817 102.865 63.7817 102.497V102.468H63.1175V102.085H64.1871V102.448C64.1871 102.706 64.1529 102.929 64.0845 103.128V103.143Z" fill="black" fill-opacity="0.55"/>
<path d="M66.3382 101.559C66.2796 101.524 66.221 101.499 66.1575 101.48C66.094 101.46 66.0158 101.45 65.923 101.45C65.7277 101.45 65.5812 101.524 65.4786 101.673C65.3761 101.822 65.3223 102.036 65.3223 102.304V103.962H64.9219V101.137H65.3223V101.485C65.3858 101.37 65.4786 101.271 65.6007 101.192C65.7228 101.112 65.8596 101.072 66.0061 101.072C66.1086 101.072 66.1917 101.077 66.26 101.092C66.3284 101.107 66.387 101.122 66.4358 101.142L66.3333 101.549L66.3382 101.559Z" fill="black" fill-opacity="0.55"/>
<path d="M69.2065 102.532C69.2065 102.771 69.1772 102.984 69.1088 103.168C69.0454 103.352 68.9575 103.51 68.85 103.635C68.7426 103.764 68.6107 103.858 68.4642 103.922C68.3177 103.987 68.1565 104.022 67.9856 104.022C67.8147 104.022 67.6584 103.992 67.5119 103.927C67.3653 103.863 67.2384 103.774 67.1309 103.649C67.0235 103.525 66.9405 103.371 66.8819 103.188C66.8184 103.004 66.7891 102.795 66.7891 102.552C66.7891 102.309 66.8184 102.1 66.8819 101.917C66.9453 101.733 67.0333 101.579 67.1407 101.455C67.2481 101.331 67.38 101.236 67.5265 101.172C67.673 101.107 67.8342 101.072 68.0051 101.072C68.1761 101.072 68.3323 101.102 68.4788 101.162C68.6254 101.221 68.7523 101.316 68.8598 101.435C68.9672 101.559 69.0502 101.708 69.1137 101.892C69.1772 102.07 69.2065 102.284 69.2065 102.522V102.532ZM68.8061 102.542C68.8061 102.17 68.7328 101.887 68.5863 101.703C68.4398 101.519 68.2444 101.425 68.0002 101.425C67.756 101.425 67.5607 101.519 67.4142 101.703C67.2677 101.887 67.1944 102.17 67.1944 102.542C67.1944 102.915 67.2677 103.198 67.4142 103.391C67.5607 103.58 67.756 103.679 68.0002 103.679C68.2444 103.679 68.4398 103.585 68.5863 103.391C68.7328 103.203 68.8061 102.92 68.8061 102.542Z" fill="black" fill-opacity="0.55"/>
<path d="M71.6527 103.962V103.62C71.5697 103.739 71.4671 103.833 71.3401 103.908C71.2131 103.982 71.0617 104.022 70.8859 104.022C70.7394 104.022 70.6027 103.997 70.4855 103.952C70.3634 103.908 70.2608 103.838 70.1778 103.744C70.0948 103.649 70.0264 103.53 69.9824 103.381C69.9385 103.237 69.9141 103.064 69.9141 102.855V101.132H70.3145V102.785C70.3145 103.093 70.3683 103.317 70.4757 103.456C70.5831 103.6 70.7492 103.669 70.969 103.669C71.1643 103.669 71.3255 103.6 71.4573 103.461C71.5892 103.322 71.6576 103.098 71.6576 102.785V101.132H72.058V103.957H71.6576L71.6527 103.962Z" fill="black" fill-opacity="0.55"/>
<path d="M75.1567 102.502C75.1567 102.756 75.1274 102.974 75.0737 103.163C75.0199 103.352 74.9467 103.51 74.849 103.635C74.7562 103.764 74.6439 103.858 74.5169 103.923C74.3899 103.987 74.2532 104.022 74.1116 104.022C73.9357 104.022 73.7843 103.987 73.6623 103.918C73.5402 103.848 73.4278 103.759 73.3302 103.644V104.777L72.9297 105V101.137H73.3302V101.48C73.423 101.37 73.5402 101.276 73.672 101.197C73.8088 101.117 73.9699 101.077 74.1604 101.077C74.2971 101.077 74.429 101.107 74.5511 101.162C74.6732 101.217 74.7806 101.301 74.8685 101.415C74.9564 101.529 75.0297 101.678 75.0785 101.857C75.1323 102.036 75.1567 102.254 75.1567 102.498V102.502ZM74.766 102.507C74.766 102.145 74.7025 101.877 74.5804 101.693C74.4583 101.509 74.2874 101.42 74.0627 101.42C73.9162 101.42 73.7795 101.455 73.6623 101.529C73.5402 101.604 73.4327 101.703 73.335 101.827V103.242C73.4132 103.361 73.5157 103.461 73.6427 103.545C73.7697 103.63 73.9162 103.669 74.0823 103.669C74.3118 103.669 74.4876 103.57 74.5999 103.371C74.7123 103.173 74.766 102.885 74.766 102.502V102.507Z" fill="black" fill-opacity="0.55"/>
<path d="M65.3582 42.8432L39.7626 33.3745C40.5814 29.8367 43.6703 27.2354 47.2989 27.2354C50.0809 27.2354 52.6674 28.7584 54.063 31.2083C54.7515 32.4096 55.1144 33.7812 55.1144 35.1812C55.1144 35.7393 55.5517 36.1839 56.1006 36.1839C56.6496 36.1839 57.0869 35.7393 57.0869 35.1812C57.0869 33.4312 56.631 31.7097 55.775 30.1962C54.0258 27.1314 50.7787 25.2206 47.2989 25.2206C42.833 25.2206 39.009 28.3611 37.9018 32.6745L35.5851 31.8137C37.0551 26.526 41.8281 22.7517 47.2989 22.7517C52.4627 22.7517 57.0962 26.0814 58.8174 31.0286C59.2826 32.3623 59.5152 33.7529 59.5152 35.1717C59.5152 35.7298 59.9525 36.1744 60.5015 36.1744C61.0504 36.1744 61.4877 35.7298 61.4877 35.1717C61.4877 33.5258 61.2179 31.8988 60.669 30.357C58.6686 24.6058 53.2908 20.7464 47.2896 20.7464C40.9815 20.7464 35.4734 25.0598 33.7242 31.1326L31.4168 30.2813C33.5289 23.1869 39.9301 18.287 47.2896 18.287C54.6492 18.287 61.497 23.499 63.3857 30.9529C63.7393 32.3245 63.9068 33.7529 63.9068 35.1812C63.9068 35.7393 64.3534 36.1839 64.893 36.1839C65.4327 36.1839 65.8793 35.7393 65.8793 35.1812C65.8793 33.5826 65.6839 31.9934 65.2931 30.4516C63.1811 22.1085 55.7843 16.2816 47.2896 16.2816C38.795 16.2816 31.2959 22.2031 29.2583 30.6691C29.249 30.7164 29.2583 30.7637 29.2583 30.811C29.2583 30.8772 29.2397 30.9435 29.2583 31.0097C29.2583 31.0759 29.2862 31.1326 29.3048 31.1894C29.3234 31.2556 29.342 31.3124 29.3699 31.3691C29.3978 31.4259 29.4444 31.4732 29.4816 31.5205C29.5188 31.5678 29.556 31.6151 29.6025 31.6624C29.6583 31.7097 29.7142 31.738 29.77 31.7664C29.8165 31.7853 29.8444 31.8232 29.8909 31.8421L34.0406 33.3745L38.2833 34.9447L64.6976 44.7161C64.8093 44.754 64.9209 44.7729 65.0326 44.7729C65.4327 44.7729 65.8141 44.5175 65.963 44.1107C66.1491 43.5905 65.8886 43.0135 65.3768 42.8243L65.3582 42.8432Z" fill="black" fill-opacity="0.55"/>
<path d="M65.264 47.5729L29.927 34.5002C29.4152 34.311 28.8477 34.5759 28.6616 35.0961C28.4755 35.6164 28.736 36.1934 29.2478 36.3826L64.5848 49.4647C64.6964 49.5026 64.8081 49.5215 64.9197 49.5215C65.3198 49.5215 65.7013 49.2661 65.8502 48.8593C66.0362 48.3391 65.7757 47.7621 65.264 47.5729Z" fill="black" fill-opacity="0.55"/>
<path d="M65.3012 52.9552C65.3012 52.8889 65.2733 52.8322 65.2547 52.7754C65.2361 52.7092 65.2175 52.6525 65.1896 52.5957C65.1616 52.539 65.1151 52.4917 65.0779 52.4444C65.0407 52.3971 65.0035 52.3498 64.957 52.3025C64.9011 52.2552 64.8453 52.2268 64.7895 52.1984C64.7523 52.1795 64.715 52.1417 64.6685 52.1227L60.5189 50.5903L56.3227 49.039L29.927 39.2582C29.4152 39.069 28.8477 39.3338 28.6616 39.8541C28.4755 40.3744 28.736 40.9514 29.2478 41.1406L54.8062 50.5998C54.6294 51.2998 54.3968 51.9714 54.0432 52.5768C52.6476 55.0267 50.0611 56.5497 47.2791 56.5497C42.9713 56.5497 39.4637 52.9835 39.4637 48.6039C39.4637 48.0458 39.0171 47.6012 38.4775 47.6012C37.9378 47.6012 37.4912 48.0553 37.4912 48.6039C37.4912 54.0903 41.8828 58.555 47.2791 58.555C50.7589 58.555 54.006 56.6443 55.7552 53.5795C56.1646 52.87 56.4437 52.0944 56.667 51.2809L58.9465 52.1227C57.4206 57.3159 52.6755 61.0144 47.2884 61.0144C40.5523 61.0144 35.0721 55.4429 35.0721 48.5944C35.0721 48.0363 34.6255 47.5918 34.0859 47.5918C33.5463 47.5918 33.0997 48.0458 33.0997 48.5944C33.0997 56.5497 39.4637 63.0198 47.2978 63.0198C53.5222 63.0198 59.0023 58.7726 60.8073 52.8038L63.1147 53.6551C60.9469 60.6644 54.5736 65.4887 47.2978 65.4887C38.1332 65.4887 30.6806 57.9023 30.6806 48.5944C30.6806 48.0363 30.234 47.5918 29.6944 47.5918C29.1547 47.5918 28.7081 48.0458 28.7081 48.5944C28.7081 59.0185 37.0539 67.5035 47.2978 67.5035C55.7831 67.5035 63.1799 61.6577 65.2919 53.2957C65.3012 53.2484 65.2919 53.2011 65.2919 53.1443C65.2919 53.0781 65.3105 53.0119 65.2919 52.9457L65.3012 52.9552Z" fill="black" fill-opacity="0.55"/>
</svg>
