<svg width="34" height="34" viewBox="0 0 34 34" fill="none" xmlns="http://www.w3.org/2000/svg">
<circle cx="16.9258" cy="17.0742" r="13.2852" fill="#FF4343"/>
<path d="M17 0.96875C13.8293 0.96875 10.7298 1.90897 8.09352 3.6705C5.4572 5.43204 3.40243 7.93578 2.18906 10.8651C0.975696 13.7944 0.658224 17.0178 1.27679 20.1275C1.89536 23.2373 3.42219 26.0938 5.6642 28.3358C7.90621 30.5778 10.7627 32.1046 13.8725 32.7232C16.9822 33.3418 20.2056 33.0243 23.1349 31.8109C26.0642 30.5976 28.568 28.5428 30.3295 25.9065C32.091 23.2702 33.0313 20.1707 33.0313 17C33.0273 12.7495 31.3371 8.67413 28.3315 5.66854C25.3259 2.66294 21.2506 0.97268 17 0.96875ZM17 29.4688C14.5339 29.4688 12.1232 28.7375 10.0727 27.3674C8.02227 25.9973 6.42411 24.0499 5.48038 21.7716C4.53665 19.4932 4.28973 16.9862 4.77084 14.5675C5.25195 12.1488 6.43948 9.92705 8.18327 8.18326C9.92706 6.43948 12.1488 5.25194 14.5675 4.77083C16.9862 4.28972 19.4932 4.53665 21.7716 5.48038C24.05 6.42411 25.9973 8.02226 27.3674 10.0727C28.7375 12.1232 29.4688 14.5339 29.4688 17C29.4648 20.3057 28.1499 23.4749 25.8124 25.8124C23.4749 28.1499 20.3057 29.4648 17 29.4688ZM23.0117 13.5117L19.5234 17L23.0117 20.4883C23.1778 20.6538 23.3095 20.8504 23.3994 21.0669C23.4894 21.2834 23.5356 21.5156 23.5356 21.75C23.5356 21.9844 23.4894 22.2166 23.3994 22.4331C23.3095 22.6496 23.1778 22.8462 23.0117 23.0117C22.6756 23.3435 22.2223 23.5295 21.75 23.5295C21.2777 23.5295 20.8244 23.3435 20.4883 23.0117L17 19.5234L13.5117 23.0117C13.1756 23.3435 12.7223 23.5295 12.25 23.5295C11.7777 23.5295 11.3244 23.3435 10.9883 23.0117C10.8222 22.8462 10.6905 22.6496 10.6006 22.4331C10.5107 22.2166 10.4644 21.9844 10.4644 21.75C10.4644 21.5156 10.5107 21.2834 10.6006 21.0669C10.6905 20.8504 10.8222 20.6538 10.9883 20.4883L14.4766 17L10.9883 13.5117C10.6537 13.1771 10.4657 12.7232 10.4657 12.25C10.4657 11.7768 10.6537 11.3229 10.9883 10.9883C11.3229 10.6537 11.7768 10.4657 12.25 10.4657C12.7232 10.4657 13.1771 10.6537 13.5117 10.9883L17 14.4766L20.4883 10.9883C20.8229 10.6537 21.2768 10.4657 21.75 10.4657C22.2232 10.4657 22.6771 10.6537 23.0117 10.9883C23.3464 11.3229 23.5343 11.7768 23.5343 12.25C23.5343 12.7232 23.3464 13.1771 23.0117 13.5117Z" fill="white"/>
</svg>
