<svg width="30" height="30" viewBox="0 0 30 30" fill="none" xmlns="http://www.w3.org/2000/svg">
<path d="M15.1711 2.81247C8.31676 2.71989 2.72105 8.3156 2.81363 15.1699C2.90504 21.7435 8.25758 27.0961 14.8312 27.1875C21.6867 27.2812 27.2812 21.6855 27.1875 14.8312C27.0972 8.25642 21.7447 2.90388 15.1711 2.81247ZM22.5785 21.9873C22.5551 22.0125 22.5265 22.0323 22.4947 22.0453C22.4628 22.0582 22.4285 22.064 22.3942 22.0622C22.3599 22.0604 22.3263 22.0511 22.296 22.0349C22.2657 22.0187 22.2393 21.9961 22.2187 21.9685C21.6946 21.2828 21.0528 20.6958 20.3232 20.2347C18.8314 19.2773 16.9412 18.75 15.0011 18.75C13.0611 18.75 11.1709 19.2773 9.67906 20.2347C8.94949 20.6956 8.30767 21.2824 7.78355 21.9679C7.76296 21.9955 7.73657 22.0181 7.70624 22.0343C7.67591 22.0505 7.6424 22.0598 7.60806 22.0616C7.57373 22.0634 7.53943 22.0576 7.50758 22.0447C7.47574 22.0317 7.44713 22.0119 7.42379 21.9867C5.70446 20.1307 4.73052 17.7054 4.68863 15.1758C4.59312 9.474 9.27184 4.70154 14.9759 4.68747C20.68 4.67341 25.3136 9.30525 25.3136 15C25.3156 17.5906 24.3386 20.0864 22.5785 21.9873Z" fill="black" fill-opacity="0.8"/>
<path d="M14.9993 8.4375C13.8439 8.4375 12.7991 8.87051 12.0568 9.65742C11.3144 10.4443 10.9435 11.5324 11.0273 12.7002C11.1972 15 12.979 16.875 14.9993 16.875C17.0197 16.875 18.798 15 18.9714 12.7008C19.0581 11.5441 18.6902 10.466 17.9355 9.66445C17.1902 8.87344 16.1472 8.4375 14.9993 8.4375Z" fill="black" fill-opacity="0.8"/>
</svg>
