<svg width="845" height="664" viewBox="0 0 845 664" fill="none" xmlns="http://www.w3.org/2000/svg">
<path d="M282.159 523.919C276.923 548.674 263.966 571.116 245.145 588.028C226.325 604.94 202.606 615.454 177.389 618.063C152.172 620.672 126.751 615.242 104.77 602.551C82.7886 589.86 65.3757 570.56 55.0267 547.417C44.6778 524.274 41.9241 498.476 47.16 473.721C52.3959 448.966 65.3526 426.524 84.1732 409.612C102.994 392.7 126.712 382.186 151.929 379.577C177.146 376.968 202.567 382.398 224.549 395.088" stroke="white"/>
<path d="M562.841 523.919C568.077 548.674 581.034 571.116 599.855 588.028C618.675 604.94 642.394 615.454 667.611 618.063C692.828 620.672 718.249 615.242 740.23 602.551C762.211 589.86 779.624 570.56 789.973 547.417C800.322 524.274 803.076 498.476 797.84 473.721C792.604 448.966 779.647 426.524 760.827 409.612C742.006 392.7 718.288 382.186 693.071 379.577C667.854 376.968 642.433 382.398 620.451 395.088" stroke="white"/>
<path d="M496.407 217.129C516.93 202.246 532.198 181.27 540.023 157.208C547.849 133.146 547.83 107.232 539.969 83.1815C532.108 59.1308 516.809 38.1773 496.264 23.3243C475.719 8.47125 450.982 0.481377 425.601 0.500033C400.219 0.518688 375.494 8.54492 354.971 23.4281C334.448 38.3113 319.18 59.2873 311.355 83.3496C303.53 107.412 303.549 133.325 311.41 157.376C319.271 181.427 334.57 202.38 355.115 217.233" stroke="white"/>
<line x1="426.5" y1="561" x2="426.5" y2="641" stroke="white"/>
<line x1="573.75" y1="293.567" x2="643.032" y2="253.567" stroke="white"/>
<line x1="278.031" y1="294.433" x2="208.749" y2="254.433" stroke="white"/>
</svg>
