<svg xmlns="http://www.w3.org/2000/svg" width="845" height="738" fill="none"><path fill="#fff" d="M149.812 452.991v4.704h-2.432v-4.704h2.432Zm8.832 0v4.704h-2.24v-4.704h2.24Zm-6.656 4.704v-4.704h2.24v4.704h-2.24Zm-4.608.928h11.264v.704h.416c.864 0 2.144-.608 2.176-.8v-5.056c.64-.128 1.152-.416 1.344-.672l-2.912-2.208-1.344 1.472h-10.752l-2.816-1.216v9.152h.384c1.056 0 2.24-.576 2.24-.8v-.576Zm-2.976 11.776c-1.472.48-2.912.96-4.32 1.376v-8.224h3.488c.448 0 .736-.16.832-.512-.864-1.024-2.4-2.464-2.4-2.464l-1.376 2.048h-.544v-8.16h3.648c.48 0 .768-.16.864-.512-1.12-1.088-3.008-2.624-3.008-2.624l-1.664 2.208h-6.368l.256.928h3.392v8.16h-3.392l.256.928h3.136v9.152c-1.664.512-3.008.896-3.84 1.088l1.824 3.456c.32-.128.608-.48.672-.864 3.968-2.368 6.784-4.32 8.672-5.6l-.128-.384Zm3.872-5.792h9.216v3.84h-9.216v-3.84Zm11.168 5.152c-.768 1.152-1.856 2.368-2.88 3.392-1.248-1.088-2.272-2.336-3.008-3.776h3.936v.672h.48c.896 0 2.272-.64 2.304-.896v-4.064c.64-.128 1.152-.384 1.344-.64l-3.04-2.304-1.408 1.536h-8.704l-2.88-1.216v8.128h.384c1.088 0 2.304-.576 2.304-.8v-.416h1.472c-1.92 2.496-4.8 4.896-8.16 6.496l.288.48a29.778 29.778 0 0 0 6.016-2.528v2.4c0 .512-.192.736-1.376 1.28l1.344 2.784c.288-.128.64-.416.864-.8 2.56-1.76 4.864-3.52 6.048-4.384l-.16-.416a189.14 189.14 0 0 1-4.064 1.536v-4.096c.928-.704 1.76-1.472 2.432-2.304 1.536 4.736 4.224 7.84 8.384 9.632.288-1.376 1.088-2.208 2.144-2.464l.032-.352c-2.208-.512-4.288-1.44-6.048-2.72a43.145 43.145 0 0 0 3.84-1.888c.576.096.832.064 1.024-.224l-2.912-2.048Zm-.128-8.992H143.06l.256.928H162.9c.448 0 .768-.16.864-.512-1.12-.992-2.88-2.304-2.88-2.304l-1.568 1.888Zm15.968.128h19.296c.48 0 .768-.16.864-.512-1.152-1.056-2.976-2.496-2.976-2.496l-1.6 2.08h-3.712c1.216-.992 2.4-2.176 3.264-3.008.64.096 1.056-.128 1.184-.48l-3.872-1.472c-.384 1.472-.992 3.456-1.6 4.96h-11.104l.256.928Zm3.264-5.408c.864.928 1.76 2.496 1.856 3.84 2.528 1.984 5.248-2.912-1.568-4.032l-.288.192Zm-2.4-.608h17.696c.448 0 .768-.16.864-.512-1.12-1.056-3.008-2.56-3.008-2.56l-1.632 2.176h-4.352c1.376-.736 1.472-3.36-3.232-3.968l-.288.192c.672.832 1.408 2.304 1.472 3.488.16.128.32.224.448.288h-8.224l.256.896Zm.16 13.28c-1.44.512-2.88 1.056-4.224 1.536v-10.368h3.744c.416 0 .736-.16.8-.512-.864-1.088-2.464-2.592-2.464-2.592l-1.408 2.176h-.672v-6.496c.832-.128 1.088-.448 1.184-.896l-4.096-.384v7.776h-3.552l.256.928h3.296v11.424c-1.536.544-2.784.992-3.584 1.216l2.048 3.456c.32-.16.576-.48.672-.896 3.712-2.56 6.368-4.608 8.128-6.08l-.128-.288Zm3.52-.96h9.856v2.432h-9.856v-2.432Zm9.856-3.36v2.432h-9.856v-2.432h9.856Zm4.704 8.992h-.384c-.448 1.536-.8 2.912-1.056 3.36-.16.256-.256.32-.544.32-.288.032-.864.032-1.504.032h-1.664c-.64 0-.736-.096-.736-.48V470.559h1.184v1.216h.48c.896 0 2.272-.544 2.304-.736v-6.784c.576-.096 1.024-.352 1.216-.576l-2.944-2.24-1.376 1.504h-9.344l-3.104-1.312v10.496h.416c1.216 0 2.496-.64 2.496-.928v-.64h.896c-.256 3.2-1.216 6.304-8.576 8.928l.352.48c9.216-2.24 10.88-5.664 11.456-9.408h1.728v6.08c0 1.792.384 2.368 2.752 2.368h2.208c3.776 0 4.736-.512 4.736-1.568 0-.512-.16-.832-.896-1.152l-.096-3.456ZM673.568 452.959c.704 1.376 1.504 3.392 1.6 4.992 2.016 1.984 4.544-2.176-1.216-5.152l-.384.16Zm-13.504 3.008h9.504c.448 0 .736-.16.832-.512-.928-.96-2.496-2.272-2.496-2.272l-1.312 1.856h-6.784l.256.928Zm1.088.352c.416 1.248.832 3.072.768 4.576 1.76 1.984 4.512-1.696-.352-4.704l-.416.128Zm1.408-5.664c.704.896 1.312 2.368 1.28 3.648 2.272 2.016 5.12-2.496-.96-3.84l-.32.192Zm-6.208 8.192h-2.976v-5.312h2.976v5.312Zm-2.976 7.456h2.976v5.28c-1.024.224-2.048.448-2.976.64v-5.92Zm2.976-.928h-2.976v-5.6h2.976v5.6Zm4.48-11.84c.448 0 .768-.16.832-.512-1.088-1.056-2.976-2.496-2.976-2.496l-1.632 2.08h-8.096l.256.928h1.696v19.2a32.67 32.67 0 0 1-2.112.384l.992 3.456a1.18 1.18 0 0 0 .8-.8c2.336-1.248 4.256-2.368 5.76-3.232v7.52h.416c1.28 0 2.08-.608 2.08-.832v-25.696h1.984Zm5.792 12.224v3.456h-3.616v-3.456h3.616Zm-3.616 8.256v-3.872h3.616v3.872h-3.616Zm3.616.896v1.248h.384c.8 0 1.984-.512 2.016-.736v-9.376c.512-.096.928-.32 1.056-.544l-2.496-1.92-1.216 1.248h-3.2l-2.528-1.056v13.6h.384c.992 0 1.984-.544 1.984-.8v-1.664h3.616Zm12.128-2.912-.384-.064c-.384 1.312-.896 2.848-1.28 3.648-.256.608-.384.64-.736.128-.768-.928-1.312-2.112-1.76-3.488 1.376-2.272 2.368-4.704 3.04-7.008.864.032 1.152-.192 1.28-.576l-3.52-.96a32.159 32.159 0 0 1-1.568 5.408c-.352-1.888-.512-4.064-.608-6.336h4.96c.448 0 .768-.16.864-.512-1.12-1.088-2.976-2.528-2.976-2.528l-1.568 2.112h-1.344c-.096-3.136-.032-6.56.032-10.08.8-.096 1.12-.48 1.152-.864l-3.744-.448c0 4.064 0 7.904.16 11.392h-4.512c1.152-1.344 2.208-2.848 2.848-4.192.672 0 1.024-.288 1.152-.672l-3.52-.832c-.192 1.728-.704 3.968-1.28 5.696h-6.176l.256.928h11.264c.224 3.712.608 7.008 1.376 9.856-1.536 2.656-3.584 5.12-6.24 6.912l.32.416a19.476 19.476 0 0 0 6.592-5.312c.576 1.408 1.248 2.624 2.08 3.616.928 1.216 2.752 2.368 3.808 1.408.384-.384.256-1.12-.512-2.56l.544-5.088Zm27.36-15.584c-.256 1.28-.672 2.848-.96 3.904l.288.192c1.376-.864 3.104-2.336 4.096-3.456.608-.032.96-.096 1.216-.352l-3.072-2.976-1.76 1.76h-8.768c2.08-.448 2.688-4.448-3.904-5.28l-.256.224c1.184 1.056 2.208 2.912 2.304 4.512.384.288.736.48 1.056.544h-11.008a11.548 11.548 0 0 0-.576-1.792h-.512c.256 1.856-.736 3.68-1.76 4.416-.832.448-1.376 1.312-.992 2.272.448 1.056 1.888 1.152 2.752.448.896-.736 1.536-2.272 1.248-4.416h20.608Zm-6.496 8.992c-.64 2.72-1.824 5.216-3.84 7.328-2.016-.448-4.32-.832-7.04-1.248a75.205 75.205 0 0 0 3.36-6.08h7.52Zm5.664-.928h-1.952c.16-.736.288-1.472.384-2.208.672 0 1.088-.224 1.248-.736l-4.672-.96c-.096 1.376-.224 2.656-.48 3.904h-7.232c.992-1.92 1.856-3.712 2.464-4.992.96.064 1.216-.224 1.376-.576L692 457.503c-.48 1.536-1.6 4.256-2.88 6.976h-7.264l.224.928h6.624c-1.152 2.4-2.336 4.768-3.232 6.272 3.072.832 5.92 1.76 8.448 2.752-2.72 2.112-6.56 3.808-11.936 5.12l.192.416c6.432-.928 10.944-2.464 14.112-4.544 3.264 1.376 5.824 2.848 7.68 4.192 2.976 1.6 6.912-2.656-5.248-6.112 2.304-2.24 3.616-4.96 4.384-8.096h6.56c.448 0 .768-.16.864-.512-1.28-1.12-3.392-2.656-3.392-2.656l-1.856 2.24ZM415.12 74.343v7.392h-10.208v-7.392h10.208Zm-10.208 8.288h10.208v2.496h.512c1.056 0 2.528-.672 2.56-.896v-9.344c.672-.128 1.12-.416 1.312-.672l-3.168-2.432-1.536 1.632h-9.728l-3.232-1.312v13.248h.448c1.28 0 2.624-.704 2.624-.96v-1.76Zm-5.184 14.176v-8.448h5.568v8.448h-5.568Zm5.248-9.376h-5.088l-3.104-1.248v14.592h.448c1.248 0 2.496-.64 2.496-.928v-2.112h5.568v2.496h.448c1.024 0 2.464-.672 2.496-.928V88.871c.64-.128 1.12-.384 1.312-.64l-3.136-2.4-1.44 1.6Zm9.536 9.376v-8.448h5.824v8.448h-5.824Zm7.008-10.976-1.504 1.6h-5.344l-3.072-1.248v14.656h.448c1.248 0 2.464-.64 2.464-.928v-2.176h5.824v2.688h.48c.992 0 2.496-.608 2.528-.832V88.903c.64-.16 1.12-.416 1.312-.672l-3.136-2.4Zm14.24-8.416v4.8h.48c1.408 0 2.272-.512 2.304-.672v-4.128H442c.448 0 .768-.16.832-.512-1.024-.96-2.752-2.272-2.752-2.272l-1.504 1.856h-5.696v-1.888c2.56-.128 5.376-.448 7.232-.768.768.32 1.376.352 1.728.064l-2.624-2.592c-1.344.672-3.68 1.6-5.888 2.336l-3.2-.992v3.712c0 2.208-.256 4.8-2.784 6.912l.288.448c4-1.6 4.992-4.224 5.184-6.304h2.944Zm-7.648 23.584c4.384-.384 9.152-1.568 12.032-2.848.864.256 1.44.192 1.728-.128l-3.36-2.464c-2.144 1.696-6.592 3.904-10.56 4.96l.16.48Zm15.488-4.224c3.872 1.024 6.688 2.528 8.256 3.744 3.04 2.144 8.448-3.712-8.128-4.192l-.128.448Zm-7.648-2.88v-2.656h12.512v2.656h-12.512Zm12.512-6.208v2.624h-12.512v-2.624h12.512Zm0-3.488v2.592h-12.512v-2.592h12.512Zm3.584-7.712h-6.144v-1.952a89.922 89.922 0 0 0 7.296-.672c.768.352 1.376.384 1.728.096l-2.624-2.656c-1.44.64-3.872 1.504-6.176 2.176l-2.976-.896v3.424c0 2.016-.32 4.352-3.04 6.304l.288.416c3.872-1.312 5.056-3.488 5.376-5.312h2.912v4.736h.512l-1.056 1.12h-12l-3.232-1.312v14.784h.48c1.248 0 2.56-.704 2.56-.96v-.96h12.512v1.312h.512c.992 0 2.496-.576 2.528-.8v-10.72c.544-.096.992-.352 1.184-.576l-2.592-1.952c.896-.16 1.408-.512 1.44-.608v-4.064h4.192c.448 0 .768-.16.832-.512-1.088-1.024-2.912-2.4-2.912-2.4l-1.6 1.984ZM360.1 145.651v18.14h.9v-18.14h-.9Zm-3.16 6.74v.9h6.74v-.9h-6.74Zm1.84 2.32c-.38 1.96-1.32 4.42-2.16 5.68.16.2.42.6.54.88.94-1.42 1.88-4.18 2.34-6.32l-.72-.24Zm3.4 0-.58.4c.38.74 1.52 3.42 1.84 4.4l.74-.78c-.28-.66-1.64-3.42-2-4.02Zm-5.04-7.56c.44 1.34.98 3.12 1.18 4.26l.82-.22c-.24-1.14-.74-2.88-1.26-4.22l-.74.18Zm5.96-.22c-.34 1.3-.98 3.22-1.5 4.34l.7.28c.54-1.08 1.2-2.88 1.72-4.28l-.92-.34Zm1.14.42v.82h10.72v-.82h-10.72Zm.5 2.34v.78h9.84v-.78h-9.84Zm-.68 2.42v.84h11.06v-.84h-11.06Zm4.96-6.48v6.92h.92v-6.92h-.92Zm3.88 8.74v8.24c0 .22-.06.3-.32.3-.26.02-1.06.02-2.08-.02.16.26.28.62.34.86 1.22 0 2 0 2.44-.14.42-.16.54-.44.54-1.02v-8.22h-.92Zm-7.06 2.62v.8h7.62v-.8h-7.62Zm0 2.62v.78h7.62v-.78h-7.62Zm-.46-5.24v3.74c0 1.64-.14 3.72-1.34 5.32.22.1.56.44.68.64 1.34-1.7 1.58-4.14 1.58-5.96v-3.74h-.92Zm.52 0v.82h7.4v-.82h-7.4Zm24.22.9v.82h8v-.82h-8Zm0 3.36v.84h8v-.84h-8Zm.04 3.38v.86h8.86v-.86h-8.86Zm-1.98-14.22v3.28h.88v-2.4h8.48v2.4h.92v-3.28h-10.28Zm5.74 4.68v10.06h.92v-10.06h-.92Zm-3.4-.52h-.06l-.88.9v10.94h.94v-10.96h7.84v-.88h-7.84Zm2.62-6.34c-1.14 3.68-3.14 6.82-5.86 8.8.24.18.56.54.7.74 2.72-2.14 4.82-5.38 6.08-9.34l-.92-.2Zm.02 4.18c.48.88 1.04 2.06 1.28 2.84l.86-.42c-.24-.74-.8-1.9-1.32-2.78l-.82.36Zm-12-2.72v.92h6.48v-.92h-6.48Zm1.74 5.76v.9h3.38v6.4h-3.38v.88h4.26v-8.18h-4.26Zm.88-5.52c-.54 3.76-1.46 7.34-3.1 9.62.22.2.56.58.68.78 1.7-2.5 2.72-6.22 3.36-10.26l-.94-.14Zm-1.16 5.52v9.94h.88v-9.94h-.88Zm23.5-4.84v.98h15.84v-.98h-15.84Zm-1 13.24v.96h17.78v-.96h-17.78Zm8.32-12.8v13.22h1.04v-13.22h-1.04Zm27.46 6.44v8.06h.94v-8.06h-.94Zm-5.28 7.5v.88h11.44v-.88h-11.44Zm1.16-4.08v.88h9.4v-.88h-9.4Zm1.16-10.7h7v4.3h-7v-4.3Zm-.92-.86v6.06h8.84v-6.06h-8.84Zm8.4 7.06c-1.98.62-5.88 1.02-9 1.22.12.24.22.58.26.8 3.2-.18 7.16-.6 9.48-1.28l-.74-.74Zm-12.86-6.62v16.58h.96v-16.58h-.96Zm-3.5 4.1v.92h7.2v-.92h-7.2Zm3.54.34c-.76 2.62-2.46 5.86-3.94 7.46.18.2.46.58.56.84 1.52-1.78 3.24-5.24 4.06-8.04l-.68-.26Zm2.86-5.64c-1.42.66-4.16 1.24-6.44 1.6.12.24.26.54.3.76 2.32-.32 5.14-.9 6.88-1.62l-.74-.74Zm-2.02 7.76-.5.4c.62.6 2.3 2.58 2.78 3.3l.62-.78c-.44-.5-2.38-2.48-2.9-2.92Zm24.32-6.28h8.56v4.44h-8.56v-4.44Zm-.94-.94v6.34h10.48v-6.34h-10.48Zm-3.02 8.72v8.56h.94v-7.62h4.92v7.44h.96v-8.38h-6.82Zm9.3 0v8.56h.92v-7.62h5.38v7.5h.98v-8.44h-7.28Zm-8.86 6.5v.94h5.8v-.94h-5.8Zm9.36 0v.94h6.16v-.94h-6.16Zm20.98-16.02c-1.32.38-3.82.7-5.9.9.1.18.24.48.28.68 2.14-.14 4.7-.46 6.34-.94l-.72-.64Zm8.5.04c-1.4.38-4.06.68-6.3.82.12.22.24.52.3.7 2.28-.12 5.02-.4 6.74-.9l-.74-.62Zm-14.04 2.84v.82h6.62v-.82h-6.62Zm8.16 0v.82h7.72v-.82h-7.72Zm-4.86.22v3.26h.9v-3.26h-.9Zm8.38 0v3.32h.9v-3.32h-.9Zm-9.94 6.9h10.38v1.72h-10.38v-1.72Zm0 2.46h10.38v1.76h-10.38v-1.76Zm0-4.92h10.38v1.7h-10.38v-1.7Zm-.96-.76v8.22h12.32v-8.22h-12.32Zm8.26 9.2c2.26.66 4.58 1.46 6.04 2.08l.48-.72c-1.48-.62-3.84-1.42-6.1-2.02l-.42.66Zm-4.94-.66c-1.48.8-3.96 1.54-5.92 2 .18.2.46.66.54.86 1.98-.58 4.58-1.52 6.18-2.44l-.8-.42Zm-4.46-14.42v1.78c0 1.12-.22 2.48-1.58 3.54.2.12.54.46.66.66 1.48-1.2 1.82-2.88 1.82-4.2v-1.78h-.9Zm8.1-.04v1.5c0 1.08-.2 2.5-1.34 3.64.2.08.56.34.72.52 1.24-1.22 1.52-2.92 1.52-4.16v-1.5h-.9ZM99.84 523.791c-.92 3.18-2.4 6.34-4.06 8.4.16.22.46.7.56.9.7-.9 1.38-1.94 2-3.12v11.82h.94v-13.78a35.09 35.09 0 0 0 1.46-3.98l-.9-.24Zm10.64 13.62c-.76.74-1.88 1.44-3.32 2.02-1.16-.48-2.16-1.02-3-1.66.14-.12.3-.24.46-.36h5.86Zm.86-.8-.18.06h-5.66c.38-.34.7-.68 1-1.02h2.82c.94 0 1.2-.3 1.3-1.42-.24-.06-.56-.16-.74-.28-.06.9-.16 1.02-.68 1.02h-2.88c-.76 0-.9-.08-.9-.44v-1.38h-.84v1.38c0 .7.2.98.82 1.08-.46.54-1.12 1.1-1.88 1.64-.24-.24-.48-.5-.7-.78l-.8.36c.24.32.5.62.8.9-.68.44-1.44.84-2.28 1.2.2.14.5.4.64.6.82-.38 1.58-.82 2.24-1.26.76.6 1.62 1.14 2.58 1.58-1.6.52-3.52.92-5.68 1.18.18.22.42.54.52.76 2.46-.32 4.54-.8 6.28-1.44 1.9.72 4.02 1.2 6.22 1.46.14-.26.38-.62.58-.84-1.98-.2-3.9-.56-5.62-1.12 1.68-.78 2.9-1.74 3.7-2.86l-.66-.38Zm-7.86-3.4c-.46.76-1.22 1.64-2.1 2.1l.62.54c.94-.54 1.66-1.5 2.18-2.26l-.7-.38Zm5.36.7c-.5-.46-1.42-1.06-2.2-1.4l-.56.44c.8.38 1.72 1.02 2.18 1.46l.58-.5Zm4.68 1.56c-.48-.66-1.52-1.64-2.44-2.32l-.62.42c.92.7 1.94 1.68 2.42 2.36l.64-.46Zm-9.74-4.76h7.38v1.02h-7.38v-1.02Zm7.38-3.36v1.02h-7.38v-1.02h7.38Zm0 2.7h-7.38v-1.02h7.38v1.02Zm.92 1.68v-5.08h-4.68c.12-.38.28-.8.42-1.24h5.96v-.8h-12.5v.8h5.5c-.08.4-.2.84-.32 1.24h-3.56v5.08h-2.08v2.58h.88v-1.86h11.46v1.86h.9v-2.58h-1.98Zm13.3-4.3v2.62h.88v-2.62h2.44v-.82h-6.1V525.271c2-.18 4.24-.46 5.72-.9l-.7-.66c-1.34.4-3.84.72-5.9.9v1.78c0 1.12-.24 2.48-1.58 3.54.18.12.52.46.66.64 1.1-.88 1.56-2.06 1.72-3.14h2.86Zm-1.6 8.72h10.4v1.78h-10.4v-1.78Zm0-2.46h10.4v1.72h-10.4v-1.72Zm0-2.46h10.4v1.74h-10.4v-1.74Zm-.92 7.44h12.28v-8.18h-12.28v8.18Zm3.3.34c-1.48.8-3.96 1.54-5.9 2 .16.2.44.66.54.86 1.98-.58 4.54-1.54 6.16-2.46l-.8-.4Zm4.94.66c2.26.64 4.54 1.46 6 2.08l.5-.72c-1.5-.64-3.84-1.4-6.1-2l-.4.64Zm-.46-13.06c.02-.18.02-.36.02-.52v-.84c2.14-.14 4.56-.4 6.14-.86l-.72-.64c-1.42.4-4.06.68-6.28.84v1.48c0 1.08-.22 2.5-1.34 3.64.2.08.56.34.72.52.82-.82 1.2-1.84 1.36-2.8h3.16v2.7h.9v-2.7h3.3v-.82h-7.26Zm18.36-.22c-.22-.72-.72-1.8-1.16-2.62l-.8.28c.42.82.9 1.94 1.12 2.66l.84-.32Zm1.96 4.68h-3.82c.06-1.02.08-2.08.1-3.12h4.56v-.9h-7.82v.9h2.32c-.08 5.12-.36 10.42-2.48 13.24.24.12.6.4.76.6 1.7-2.28 2.28-5.88 2.52-9.82h2.94c-.16 6.08-.34 8.24-.68 8.7-.16.22-.34.26-.64.24-.3 0-1.16 0-2.1-.08.14.26.24.62.26.9.84.06 1.7.06 2.18.04.5-.04.8-.16 1.08-.52.52-.66.64-2.84.82-9.66v-.52Zm11.08-3.56v-.9h-7.68c.34-.88.6-1.82.84-2.78l-.94-.2c-.58 2.56-1.6 5.02-2.98 6.66.24.14.62.46.78.62.74-.92 1.4-2.1 1.94-3.4h8.04Zm-6.34 13.28c-1.14 0-1.36-.18-1.36-.92v-6.02l2.36-1.12v5.82h.88v-6.22l2.64-1.26c-.02 2-.1 4.4-.24 5.88l.76.18c.22-1.74.34-4.68.36-6.88l.04-.18-.66-.22-.3.28-2.6 1.24v-2.94h-.88v3.34l-2.36 1.14v-2.84h-.88v3.28l-1.84.86.38.76 1.46-.68v5.58c0 1.44.48 1.78 2.24 1.78h4.42c1.56 0 1.86-.62 2-2.9-.26-.08-.62-.22-.86-.4-.08 2.04-.24 2.44-1.16 2.44h-4.4Zm21.78-1.6v-12.2h7.48v-.98h-15.8v.98h7.3v12.2h-8.3v.96h17.72v-.96h-8.4Zm30.8-11.54h-2.44v-2.46h2.44v2.46Zm-3.22 0h-2.36v-2.46h2.36v2.46Zm-3.14 0h-2.28v-2.46h2.28v2.46Zm7.22-3.26h-10.36v4.06h10.36v-4.06Zm.68 5.26h-11.94v.86h11.94v-.86Zm-12.66 7.24c-.68.24-1.4.46-2.06.68v-5.74h1.9v-.88h-1.9v-4.92h2.18v-.88h-5.34v.88h2.28v4.92h-2.06v.88h2.06v6.04c-.94.32-1.8.56-2.5.78l.24.92c1.52-.5 3.44-1.16 5.32-1.82l-.12-.86Zm3.08-4.26h7.32v2.36h-7.32v-2.36Zm8.58 3.58c-.7.54-1.86 1.3-2.82 1.86-.58-.7-1.02-1.48-1.36-2.3h3.84v-3.94h-9.14v3.94h3.3c-1.42 1.2-3.6 2.26-5.46 2.76.2.18.44.5.58.7.78-.24 1.62-.6 2.46-1.02v1.5c0 .76-.38 1.04-.6 1.16.14.2.34.56.4.8v.02c.32-.2.82-.38 4.72-1.46-.02-.16-.04-.52-.02-.76l-3.66.94v-2.66c1.04-.58 1.98-1.28 2.7-1.98h.02c1 2.74 3.04 4.92 5.86 5.84.12-.26.4-.58.62-.78a8.414 8.414 0 0 1-3.78-2.24c.98-.48 2.14-1.16 3.04-1.78l-.7-.6Zm24.02-10.92h-4.34c-.18-.5-.48-1.2-.78-1.72l-.86.18c.24.48.48 1.04.64 1.54h-4.52v.86h9.86v-.86Zm-6.58 3.28c-.14-.56-.48-1.44-.78-2.12l-.82.18c.28.72.6 1.62.74 2.2l.86-.26Zm7.12.34H230c.32-.64.66-1.42.98-2.14l-.92-.26c-.22.68-.64 1.68-.98 2.4h-6.72v.88h11.02v-.88Zm-11.68 6.92-2.26.84v-7.16h2.06v-.92h-2.06v-4.74h-.94v4.74h-2.36v.92h2.36v7.52c-1 .36-1.92.7-2.64.94l.32.98c1.62-.64 3.7-1.46 5.72-2.26l-.2-.86Zm2.62-1.68h7.02v1.64h-7.02v-1.64Zm0-2.32h7.02v1.58h-7.02v-1.58Zm6.18 8.9c-.3 0-.52-.02-.68-.08-.18-.08-.22-.3-.22-.66v-3.44h2.66v-5.5h-8.84v5.5h2.32c-.26 2.64-1.22 3.84-4.58 4.54.2.16.46.52.56.76 3.56-.82 4.64-2.26 4.96-5.3h2v3.28c0 .98.12 1.24.46 1.42.3.18.84.24 1.26.24h1.4c.38 0 .92-.04 1.22-.12.32-.1.54-.28.68-.58.1-.32.18-1.18.2-2-.28-.06-.62-.22-.82-.42-.02.86-.04 1.52-.1 1.82-.08.24-.24.4-.4.46-.16.06-.54.08-.86.08h-1.22ZM628.7 529.631c-.66-1.08-2.06-2.8-3.28-4.06l-.7.44c.56.58 1.14 1.26 1.7 1.96l-6.72.56c1.1-1.22 2.24-2.82 3.26-4.48l-.98-.28c-.9 1.78-2.34 3.62-2.78 4.1-.4.48-.74.8-1.06.86.14.22.3.7.34.9.44-.18 1.16-.26 8.52-.9.4.52.74 1.04.98 1.44l.72-.54Zm-16.48 4.08c.14-1.02.3-2.26.44-3.42h4.54v-5.54h-5.92v.92h5v3.72h-4.42c-.16 1.64-.46 3.84-.72 5.22h5.26c-.28 3.94-.56 5.48-.96 5.9-.16.18-.36.2-.7.2-.32 0-1.24-.02-2.2-.1.18.24.26.62.28.88.9.08 1.78.1 2.24.06.54-.02.86-.12 1.16-.44.56-.6.84-2.26 1.14-6.92.02-.14.04-.48.04-.48h-5.18Zm7.18 2v-3.34h3.28v3.34h-3.28Zm7.64-3.34v3.34h-3.42v-3.34h3.42Zm2.1 9.1c-.48-1.18-1.64-2.94-2.76-4.26l-.8.4c.52.6 1.04 1.34 1.5 2.04-1.16.1-2.34.18-3.46.26v-3.34h4.32v-5.06h-4.32v-2.14h-.94v2.14h-4.16v5.06h4.16v3.38c-1.96.14-3.72.26-5.06.34l.16.96c2.54-.16 6.24-.46 9.8-.78.3.54.56 1.02.72 1.44l.84-.44Zm11.46-17.74c-1.36 3.18-3.58 6.26-5.9 8.22.2.2.48.68.6.88 1.1-1.02 2.2-2.26 3.2-3.64v12.6h.92v-13.94c.78-1.22 1.48-2.52 2.06-3.82l-.88-.3Zm5.64 16.34c-1.06 0-1.34-.28-1.34-1.3v-8.22h7.24v-.94h-7.24v-5.66h-.92v14.78c0 1.8.52 2.24 2.26 2.24h4.08c1.96 0 2.24-1.2 2.44-4.86-.3-.06-.66-.26-.94-.46-.14 3.48-.32 4.42-1.48 4.42h-4.1Zm29.26-15.44c-.42.62-1.2 1.56-1.8 2.12l.64.36c.6-.54 1.36-1.34 2-2.08l-.84-.4Zm.96 4.76c-.96-.74-2.8-1.84-4.3-2.62.36-.84.56-1.86.66-3.1h-.92c-.22 3.02-1.06 4.52-4.4 5.34.2.18.44.54.54.72 1.86-.48 3-1.18 3.72-2.22 1.5.8 3.2 1.86 4.12 2.56l.58-.68Zm-6.06-3.38c-.34-.48-1-1.3-1.58-1.92l-.6.44c.54.62 1.22 1.48 1.56 2.02l.62-.54Zm-3.62-1.32c-.36.58-1.06 1.48-1.6 2.04l.64.32c.52-.48 1.2-1.26 1.78-1.98l-.82-.38Zm-4.86 1.5c-.32-.48-1.02-1.32-1.6-1.92l-.58.44c.56.62 1.22 1.48 1.56 2l.62-.52Zm5.16 2.84c-.76-.56-2.14-1.46-3.26-2.14.36-.86.54-1.92.62-3.22h-.88c-.2 3.26-1.02 4.72-4.56 5.5.18.16.42.5.52.72 2-.48 3.2-1.2 3.92-2.28 1.1.68 2.34 1.54 3.02 2.06l.62-.64Zm6.96 11.32h-11.68v-2.3h11.68v2.3Zm-10.42-7.3h8.9v2.06h-8.9v-2.06Zm9.84 2.82v-3.58H662.7v3.58h3.66c-.18.46-.38.98-.56 1.38h-4.36v4.54h.92v-.64h11.68v.62h.94v-4.52h-8.3c.18-.42.42-.92.64-1.38h6.14Zm-13.62-2.3h.92v-2.62h14.52v2.62h.96v-3.46h-16.4v3.46Zm40.84-3.28h-5.58v-3.08h4.8v-.88h-4.8v-2.66h-.96v2.66h-2.84c.32-.68.64-1.42.9-2.14l-.9-.22c-.66 1.92-1.7 3.8-2.94 5.08.24.1.64.34.82.48a15.3 15.3 0 0 0 1.64-2.32h3.32v3.08h-5.92v.86h12.46v-.86Zm-9.8 3.58h7.36v3.86h-7.36v-3.86Zm8.32 4.7v-5.56h-9.26v5.56h9.26Zm-12.08-11.8c-.54-.78-1.6-2.08-2.52-3.06l-.72.42c.86.98 1.94 2.36 2.48 3.18l.76-.54Zm.28 6.48-.2.02h-2.74c1.14-1.34 2.82-3.58 3.68-4.78l-.7-.34-.24.1h-4.16v.84h3.52c-.88 1.28-2.3 3.18-2.82 3.72-.32.38-.64.5-.92.58.12.22.36.74.42 1 .16-.16.64-.28 1.18-.28h2.44c-.66 3.4-2.18 5.74-4.14 7.02.2.14.54.5.68.72 1.04-.74 1.96-1.74 2.72-3.04 1.56 2.26 4.2 2.68 8.44 2.68 2.12 0 4.58-.04 6.32-.16.06-.26.18-.72.36-.96-1.92.16-4.62.24-6.68.24-3.98 0-6.66-.34-8.04-2.56.62-1.28 1.08-2.82 1.38-4.6l-.5-.2Zm21.62-6.28h13.92v2.86h.98v-3.78h-7c-.34-.68-.9-1.68-1.4-2.46l-.92.26c.42.68.88 1.54 1.18 2.2h-7.72v3.78h.96v-2.86Zm10.22 5.7c-.6 1.82-1.4 3.28-2.54 4.42-1.68-.7-3.44-1.32-5.1-1.86.54-.72 1.1-1.6 1.66-2.56h5.98Zm5.32 0v-.92h-3.98c.14-.6.28-1.26.4-1.94l-1.08-.14c-.12.74-.26 1.44-.42 2.08h-5.7c.68-1.2 1.3-2.42 1.76-3.54l-1.02-.2c-.46 1.14-1.12 2.46-1.86 3.74h-5.14v.92h4.62c-.68 1.14-1.42 2.22-2.04 3.04 1.86.56 3.86 1.32 5.8 2.12-1.94 1.56-4.58 2.48-8.2 3.06.22.22.56.68.66.92 3.74-.72 6.52-1.78 8.54-3.54 2.6 1.14 4.98 2.4 6.54 3.48l.76-.84c-1.6-1.08-3.96-2.3-6.52-3.4 1.16-1.28 2.02-2.84 2.64-4.84h4.24Zm15.88 3.72h5.96v-.9h-5.96v-3.52h5.28v-.9h-11.36v.9h5.1v3.52h-5.9v.9h5.9v3.88h-7.92v.9h16.98v-.9h-8.08v-3.88Zm-5.6-12.24v.92h4.04c-2.02 2.42-5.3 5.06-7.92 6.42.24.22.5.52.64.78 2.82-1.6 6.34-4.58 8.38-7.18 2.12 2.82 5.46 5.54 8.42 6.96.18-.24.48-.6.7-.8-3.06-1.38-6.66-4.2-8.6-7.1h-5.66Z"/><path stroke="#fff" d="M164.5 505.311v-14M425.5 127.311v-14M679.5 505.311v-14"/><path fill="#fff" d="M379.812 675.28c1.152 1.312 2.24 3.456 2.304 5.216 2.816 2.528 6.016-3.328-1.984-5.44l-.32.224Zm-6.72.192-1.664 1.632h-3.2l-3.264-1.312v28.928h.512c1.44 0 2.336-.768 2.336-.992v-25.696h3.776c-.576 2.56-1.6 6.368-2.272 8.416 2.144 2.272 2.912 4.704 2.912 7.008 0 1.088-.256 1.696-.768 2.016-.224.128-.416.192-.768.192h-2.336v.448c.768.128 1.376.352 1.632.672.256.352.416 1.44.416 2.272 3.456-.128 4.672-1.728 4.672-4.864-.032-2.56-1.408-5.504-4.96-7.84 1.568-1.984 3.552-5.536 4.608-7.52.768-.032 1.184-.128 1.44-.416l-3.072-2.944Zm15.648 5.728h-14.976l.256.928h5.184c-.064 9.12-1.312 16.544-8.256 22.24l.256.352c7.456-3.808 9.952-9.568 10.88-16.864h5.92c-.352 7.328-.928 12-1.952 12.928-.32.256-.608.352-1.152.352-.736 0-2.944-.16-4.288-.288l-.032.48c1.312.256 2.56.672 3.072 1.152.48.416.608 1.184.608 2.112 1.696 0 3.008-.416 4-1.344 1.632-1.472 2.4-6.208 2.752-14.88.672-.128 1.088-.288 1.312-.576l-2.976-2.56-1.664 1.696h-5.472c.16-1.536.256-3.136.32-4.8h10.304c.448 0 .736-.16.832-.512-1.152-1.184-3.168-2.784-3.168-2.784l-1.76 2.368Zm16.64 1.376-1.696 1.696h-7.712l.288.928h7.616c-1.12 6.048-3.808 12.224-8.608 16.16l.32.384c6.784-3.712 9.952-9.92 11.456-16.128.704-.032 1.024-.16 1.248-.448l-2.912-2.592Zm15.52-1.92c-1.216 2.112-3.552 5.376-5.728 7.872-1.408-2.56-2.496-5.6-3.168-9.28v-2.88c.832-.128 1.056-.416 1.152-.864l-4.256-.448v25.44c0 .48-.192.672-.768.672-.8 0-4.672-.288-4.672-.288v.48c1.792.256 2.592.64 3.168 1.12.544.512.768 1.248.896 2.24 3.968-.352 4.48-1.696 4.48-4v-19.2c1.792 10.528 5.536 15.936 10.784 20.064.48-1.44 1.44-2.464 2.752-2.688l.128-.32c-3.712-1.952-7.392-4.768-10.112-9.376 2.976-1.792 5.984-4.128 7.904-5.856.704.128 1.024 0 1.216-.32l-3.776-2.368Zm30.784 20.512h-7.616v-20.32H454.5c.48 0 .832-.16.928-.512-1.44-1.248-3.712-3.008-3.712-3.008l-2.016 2.592h-19.904l.256.928h10.72v20.32h-13.12l.288.928h28.608c.48 0 .8-.16.896-.512-1.376-1.248-3.712-2.976-3.712-2.976l-2.048 2.56Zm32.352-22.784v6.72h-8.224v-6.72h8.224Zm-8.224 7.648h8.224v1.344h.48c.992 0 2.464-.672 2.496-.896v-7.616c.608-.128 1.088-.384 1.248-.64l-3.072-2.304-1.472 1.536h-7.744l-3.008-1.216v11.616h.416c1.152 0 2.432-.64 2.432-.928v-.896Zm-8.352-.448h4.128c.448 0 .768-.16.864-.512-1.024-1.056-2.72-2.528-2.72-2.528l-1.536 2.112h-.736v-5.792a29.269 29.269 0 0 0 2.976-.832c.896.288 1.536.224 1.888-.096l-3.552-2.912c-1.984 1.504-5.984 3.584-9.28 4.736l.128.448c1.6-.16 3.296-.416 4.896-.704v5.152h-4.928l.256.928h4.288c-.896 4.32-2.56 8.832-4.928 12.128l.416.384c1.92-1.696 3.584-3.648 4.896-5.824v12.448h.512c1.44 0 2.432-.704 2.432-.896v-15.456c.896 1.312 1.76 3.008 1.952 4.448 2.368 2.08 4.928-2.752-1.952-5.312v-1.92Zm17.6 17.184h-3.648v-5.728h6.592c.416 0 .768-.16.832-.512-1.152-1.12-3.104-2.592-3.104-2.592l-1.728 2.176h-2.592v-4.768a95.956 95.956 0 0 0 4.512-.8c.928.32 1.568.288 1.952.032l-3.36-3.136c-2.752 1.408-8.224 3.328-12.576 4.32l.128.48a87.91 87.91 0 0 0 6.304-.512v4.384h-6.752l.256.928h6.496v5.728h-8.512l.224.928h19.04c.448 0 .768-.16.864-.512-1.216-1.12-3.168-2.72-3.168-2.72l-1.76 2.304ZM360.88 717.34h-4.98v.76l2.06.28-2.82 10.54-3.34-10.56 2.24-.26v-.76h-5.88v.76l2.2.24-3.38 10.52-2.84-10.52 2.06-.24v-.76h-5.9v.76l1.8.2 3.96 13.84h.9l3.62-11.6 3.78 11.6h.92l3.72-13.8 1.88-.24v-.76Zm5.61 8.94 2.24-6.8 2.28 6.8h-4.52Zm8.16 4.76-4.72-13.8h-1.28l-4.66 13.72-1.78.28v.76h4.88v-.76l-2.14-.28 1.26-3.82h5.08l1.28 3.84-2.16.26v.76h5.96v-.76l-1.72-.2Zm15.003-12.74.62 2.94h1.06l-.14-3.9h-12.02l-.18 3.9h1.1l.6-2.94h3.44c.04 1.92.04 3.88.04 5.84v1.08c0 1.96 0 3.88-.04 5.78l-2.26.24v.76h6.6v-.76l-2.26-.24c-.04-1.92-.04-3.86-.04-5.78v-1.08c0-1.96 0-3.92.04-5.84h3.44Zm16.723 9.8-.58 2.94h-5.62c-.04-1.94-.04-3.9-.04-6.06h3.32l.3 2.12h.9v-5.16h-.9l-.32 2.16h-3.3c0-1.98 0-3.9.04-5.8h5.2l.58 2.9h1.08l-.12-3.86h-10.86v.76l2.04.22c.04 1.92.04 3.86.04 5.82v1.08c0 1.96 0 3.88-.04 5.8l-2.04.22v.76h11.28l.12-3.9h-1.08Zm10.263-3.78c0-2.26 0-4.18.04-6.12h1.9c2.3 0 3.34 1.08 3.34 2.96 0 1.82-1.16 3.16-3.5 3.16h-1.78Zm7.22 6.76-1.02-3.44c-.5-1.68-1.24-2.46-2.62-2.76 2.5-.44 3.76-1.98 3.76-3.7 0-2.42-1.96-3.84-5.28-3.84h-6.14v.76l2.04.22c.04 1.92.04 3.86.04 5.82v1.08c0 1.96 0 3.88-.04 5.8l-2.04.22v.76h6.16v-.76l-2.04-.24c-.04-1.88-.04-3.8-.04-5.84h1.16c1.82 0 2.54.4 2.98 2.18l.9 3.48c.24 1.02.86 1.4 2.22 1.4.68 0 1.24-.08 1.66-.22v-.76l-1.7-.16Zm11.797-12.88c2.62 0 3.8 1.26 3.8 3.48 0 2.12-1.1 3.58-3.84 3.58h-1.4v-1.12c0-2 0-4 .04-5.94h1.4Zm-.28 7.94c4.42 0 6.14-2.02 6.14-4.46 0-2.6-1.82-4.34-5.5-4.34h-5.88v.76l2.04.22c.04 1.92.04 3.86.04 5.82v1.08c0 1.96 0 3.88-.04 5.8l-2.04.22v.76h6.2v-.76l-2.08-.24c-.04-1.66-.04-3.24-.04-4.86h1.16Zm14.836-1.82c0-2.26 0-4.18.04-6.12h1.9c2.3 0 3.34 1.08 3.34 2.96 0 1.82-1.16 3.16-3.5 3.16h-1.78Zm7.22 6.76-1.02-3.44c-.5-1.68-1.24-2.46-2.62-2.76 2.5-.44 3.76-1.98 3.76-3.7 0-2.42-1.96-3.84-5.28-3.84h-6.14v.76l2.04.22c.04 1.92.04 3.86.04 5.82v1.08c0 1.96 0 3.88-.04 5.8l-2.04.22v.76h6.16v-.76l-2.04-.24c-.04-1.88-.04-3.8-.04-5.84h1.16c1.82 0 2.54.4 2.98 2.18l.9 3.48c.24 1.02.86 1.4 2.22 1.4.68 0 1.24-.08 1.66-.22v-.76l-1.7-.16Zm8.226-6.42c0-3.44 1.38-6.7 4.44-6.7 3.04 0 4.38 3.26 4.38 6.7 0 3.46-1.34 6.72-4.38 6.72-3.06 0-4.44-3.26-4.44-6.72Zm4.44-7.66c-3.44 0-6.7 2.86-6.7 7.66 0 4.98 3.24 7.66 6.7 7.66 3.44 0 6.66-2.84 6.66-7.66 0-4.94-3.26-7.66-6.66-7.66Zm14.563 7.66c0-3.44 1.38-6.7 4.44-6.7 3.04 0 4.38 3.26 4.38 6.7 0 3.46-1.34 6.72-4.38 6.72-3.06 0-4.44-3.26-4.44-6.72Zm4.44-7.66c-3.44 0-6.7 2.86-6.7 7.66 0 4.98 3.24 7.66 6.7 7.66 3.44 0 6.66-2.84 6.66-7.66 0-4.94-3.26-7.66-6.66-7.66Zm20.821 1.3.58 2.9h1.08l-.12-3.86h-10.88v.76l2.04.22c.04 1.92.04 3.86.04 5.82v1.08c0 1.96 0 3.88-.04 5.8l-2.04.22v.76h6.2v-.76l-2.08-.24c-.04-1.92-.04-3.88-.04-6.02h3.46l.28 2.28h.92v-5.32h-.92l-.28 2.16h-3.46c0-1.98 0-3.9.04-5.8h5.22ZM75.896 213.543c1.152 1.536 2.336 3.84 2.496 5.856 2.816 2.304 5.632-3.488-2.144-6.048l-.352.192Zm-3.2-2.656v-4.928h5.12v4.928h-5.12Zm5.12-16.544v4.832h-5.12v-4.832h5.12Zm0 10.688h-5.12v-4.928h5.12v4.928Zm-.16-11.616H73.08l-3.264-1.28v21.856h.48c.736 0 1.312-.16 1.728-.32-.768 2.24-2.304 5.088-4.096 6.912l.32.384c2.784-1.376 5.184-3.712 6.592-5.664.736.096 1.024-.096 1.184-.416l-3.36-1.664c.032 0 .032-.032.032-.064v-1.376h5.12v1.568h.48c1.408 0 2.464-.64 2.464-.832v-17.92c.736-.096 1.088-.32 1.344-.608l-2.976-2.304-1.472 1.728Zm15.776 14.432v9.44h-7.84v-9.44h7.84Zm3.904-7.904c.48 0 .8-.16.864-.512-1.12-1.184-3.072-2.848-3.072-2.848l-1.728 2.432h-2.72v-6.144c.832-.128 1.12-.448 1.184-.896l-4.192-.384v15.328h-1.696l-3.2-1.248v15.136h.448c1.472 0 2.368-.544 2.368-.736v-1.856h7.84v2.368h.512c1.472 0 2.464-.544 2.464-.704v-11.84c.64-.096.992-.288 1.184-.576l-2.848-2.176-1.44 1.632H90.68v-6.976h6.656Zm6.592 1.056c.064 4.352-1.504 8.448-3.136 10.048-.704.8-.928 1.856-.256 2.56.864.832 2.432.48 3.328-.928 1.376-1.984 2.528-5.984.576-11.712l-.512.032Zm19.296.576-.32.256c2.688 3.328 3.712 8.192 4.064 11.2 2.656 3.264 6.56-4.736-3.744-11.456Zm-15.008-4.512v19.232c0 2.624 1.088 3.264 4.608 3.264h4.32c6.624 0 8.16-.608 8.16-2.112 0-.608-.288-.96-1.312-1.344l-.096-5.408h-.384c-.608 2.528-1.152 4.512-1.536 5.184-.192.384-.448.512-.96.576-.608.032-1.952.064-3.648.064h-4.16c-1.6 0-1.952-.256-1.952-1.088v-17.088c.768-.096 1.088-.448 1.12-.864l-4.16-.416Zm4.736-5.44-.352.224c1.92 2.336 4.16 5.792 4.768 8.672 3.328 2.496 5.728-4.672-4.416-8.896Zm22.464.192c.992 1.056 2.112 2.88 2.4 4.384 2.848 1.952 5.344-3.552-2.112-4.576l-.288.192Zm6.336 5.568h-9.696l.256.928h12.864c.416 0 .736-.16.8-.512-1.024-.992-2.752-2.336-2.752-2.336l-1.472 1.92Zm-8.32 4.064.256.928h10.016c.448 0 .736-.16.832-.512-.992-.96-2.592-2.208-2.592-2.208l-1.44 1.792h-7.072Zm16.32-7.04h4.288v6.944c0 1.728.288 2.336 2.368 2.336h1.6c2.976 0 3.936-.576 3.936-1.664 0-.544-.256-.8-.992-1.088l-.128-.032h-.288c-.224.032-.48.096-.672.128h-.576c-.192.032-.576.032-.96.032h-1.024c-.448 0-.544-.128-.544-.48v-5.856c.576-.096.992-.256 1.184-.48l-2.752-2.304-1.472 1.536h-3.488L147 192.231v3.84c0 2.88-.384 6.272-3.328 9.024l.256.32c-.96-.832-1.984-1.664-1.984-1.664l-1.44 1.824h-7.072l.256.928h10.016c.448 0 .736-.16.832-.512a4.654 4.654 0 0 0-.576-.512c5.216-2.528 5.792-6.72 5.792-9.408v-1.664Zm-13.184 22.528v-6.272h4.352v6.272h-4.352Zm7.04-5.824c.608-.128 1.088-.384 1.28-.608l-2.912-2.24-1.376 1.472h-3.904l-2.816-1.216v12.096h.384c1.12 0 2.304-.608 2.304-.896v-1.856h4.352v1.632h.448c.896 0 2.208-.608 2.24-.832v-7.552Zm11.872-4.192a21.657 21.657 0 0 1-3.52 6.336 15.452 15.452 0 0 1-4.48-6.336h8Zm1.696-2.592-1.792 1.664h-10.496l.288.928h1.696c.8 3.232 2.048 5.792 3.712 7.84-2.4 2.4-5.44 4.32-9.184 5.728l.256.48c4.256-1.056 7.648-2.656 10.304-4.704 2.08 1.952 4.608 3.328 7.68 4.416.416-1.44 1.312-2.368 2.592-2.56l.032-.352c-3.168-.672-5.984-1.664-8.384-3.168 2.112-2.048 3.68-4.48 4.832-7.2.736-.032 1.056-.128 1.312-.448l-2.848-2.624Zm11.584-12.8c1.024 1.12 2.112 3.008 2.272 4.64 2.88 2.048 5.536-3.744-1.984-4.8l-.288.16Zm6.912 5.728h-11.584l.224.928h15.168c.448 0 .8-.16.864-.512-1.152-1.088-3.04-2.528-3.04-2.528l-1.632 2.112Zm-9.952 4.096.256.928h11.84c.416 0 .736-.16.832-.512-1.088-1.056-2.88-2.432-2.88-2.432l-1.6 2.016h-8.448Zm8.448 4.128h-8.448l.256.928h11.84c.416 0 .736-.16.832-.512-1.088-1.056-2.88-2.432-2.88-2.432l-1.6 2.016Zm-5.056 11.328v-6.112h5.632v6.112h-5.632Zm5.312-7.04h-5.184l-2.88-1.216v11.968h.384c1.152 0 2.368-.64 2.368-.896v-1.92h5.632v1.76h.448c.96 0 2.304-.608 2.336-.832v-7.456c.64-.128 1.12-.384 1.312-.64l-3.008-2.272-1.408 1.504Zm14.976-6.816h-2.368v-10.208c.832-.128 1.088-.48 1.152-.928l-4.16-.416v11.552h-5.728l.256.928h5.472v17.024h.608c1.088 0 2.4-.768 2.4-1.12v-15.904h6.336c.448 0 .736-.16.832-.512-1.12-1.088-3.072-2.656-3.072-2.656l-1.728 2.24ZM87.415 247.431c-.04-1.98-.04-3.98-.04-6.2v-.76c0-2.02 0-4.02.04-5.96h1.9c3.32 0 5.2 2.26 5.2 6.48 0 4.06-1.88 6.44-5.38 6.44h-1.72Zm-4.12-13.78v.76l2.04.22c.04 1.92.04 3.88.04 5.84v.76c0 2.22 0 4.18-.04 6.1l-2.04.22v.76h5.98c4.36 0 7.52-2.62 7.52-7.32 0-4.72-2.86-7.34-7.12-7.34h-6.38Zm28.541 10.76-.58 2.94h-5.62c-.04-1.94-.04-3.9-.04-6.06h3.32l.3 2.12h.9v-5.16h-.9l-.32 2.16h-3.3c0-1.98 0-3.9.04-5.8h5.2l.58 2.9h1.08l-.12-3.86h-10.86v.76l2.04.22c.04 1.92.04 3.86.04 5.82v1.08c0 1.96 0 3.88-.04 5.8l-2.04.22v.76h11.28l.12-3.9h-1.08Zm10.683-4.72c-1.58-.62-2.48-1.46-2.48-2.86 0-1.68 1.3-2.56 3.06-2.56.68 0 1.22.12 1.78.44l.56 2.62h1.14l.14-2.86c-.96-.7-2.12-1.16-3.6-1.16-2.76 0-4.88 1.48-4.88 4.02 0 2.2 1.5 3.46 3.78 4.38l.82.34c1.96.78 2.76 1.46 2.76 2.88 0 1.78-1.38 2.74-3.5 2.74-.94 0-1.6-.16-2.3-.54l-.56-2.74h-1.12l-.14 3.08c1 .64 2.6 1.16 4.26 1.16 3.04 0 5.16-1.56 5.16-4.16 0-2.06-1.08-3.28-4-4.44l-.88-.34Zm16.074-5.28v-.76h-6.16v.76l2.04.22c.04 1.92.04 3.86.04 5.82v1.08c0 1.96 0 3.88-.04 5.8l-2.04.22v.76h6.16v-.76l-2.04-.24c-.04-1.92-.04-3.86-.04-5.78v-1.08c0-1.96 0-3.92.04-5.82l2.04-.22Zm18.377 6.92h-5.7v.76l2.32.18c.02 1.36.04 2.74.04 4.1v.86c-.82.3-1.58.44-2.46.44-3.36 0-5.48-2.5-5.48-6.7 0-4.26 2.28-6.7 5.42-6.7.92 0 1.72.2 2.48.64l.54 2.72h1.18l-.04-3.24c-1.2-.74-2.54-1.08-4.38-1.08-4.4 0-7.46 3.22-7.46 7.66 0 4.48 3 7.66 7.4 7.66 1.78 0 3.24-.48 4.76-1.28v-.98c0-1.44.02-2.82.06-4.16l1.32-.12v-.76Zm18.861-7.68h-5.18v.76l2.34.28.04 10.16-8.1-11.2h-3.38v.76l1.56.2.22.28-.04 12.4-1.84.26v.76h5.18v-.76l-2.34-.3-.04-11.08 8.94 12.28h.78l.02-13.78 1.84-.26v-.76ZM672.592 211.463c.288-.096.576-.32.832-.672 2.752-.768 5.28-1.664 7.104-2.304.16.544.224 1.12.256 1.632 2.08 1.952 4.544-2.528-1.408-5.76l-.384.16c.448.832.96 1.984 1.312 3.136-2.368.16-4.672.352-6.368.416 3.072-2.336 6.496-5.792 8.256-8.224.608.128 1.056-.064 1.216-.32l-3.424-2.304c-.384.928-1.024 2.08-1.76 3.328-1.76.032-3.424.032-4.704.032 2.112-1.92 4.544-4.832 5.856-6.912.64.064.992-.16 1.152-.448l-3.744-1.888c-.704 2.432-2.816 7.008-4.512 8.768-.256.192-.896.32-.896.32l1.408 3.392c.256-.096.512-.32.736-.64 1.376-.448 2.72-.896 3.84-1.312-1.568 2.336-3.424 4.64-4.96 5.856-.288.192-1.024.352-1.024.352l1.216 3.392Zm.992.672c.192 1.76-.704 3.872-1.536 4.704-.736.576-1.088 1.44-.704 2.24.544.896 1.984.736 2.624-.032.896-1.184 1.248-3.648.16-6.912h-.544Zm2.816-.448c.352 1.664.576 4.032.224 5.952 1.824 2.368 4.864-1.92.224-6.048l-.448.096Zm3.168-.48c.832 1.376 1.664 3.552 1.632 5.312 2.08 1.984 4.608-2.56-1.248-5.504l-.384.192Zm8.448 6.304v-7.744h7.808v7.744h-7.808Zm7.68-8.672h-7.328l-3.2-1.28v13.472h.512c1.44 0 2.336-.544 2.336-.768v-1.824h7.808v2.368h.512c1.44 0 2.464-.544 2.464-.672v-10.176c.672-.096.992-.288 1.216-.576l-2.848-2.208-1.472 1.664Zm4.64-10.336c.448 0 .768-.16.832-.512-1.152-1.088-3.104-2.592-3.104-2.592l-1.696 2.176h-3.264v-4.896c.832-.128 1.12-.448 1.152-.896l-4.096-.384v6.176h-7.008l.256.928h6.752v5.696h-6.304l.256.928h15.744c.448 0 .768-.16.864-.512-1.184-1.056-3.072-2.528-3.072-2.528l-1.664 2.112h-2.88v-5.696h7.232Zm9.856 1.536h3.968c.448 0 .768-.16.832-.512-.992-1.056-2.688-2.528-2.688-2.528l-1.504 2.112h-.608v-6.432c.832-.128 1.088-.416 1.152-.896l-4-.416v7.744h-4.32l.256.928h3.52c-.672 4.768-1.888 9.568-4.064 13.248l.448.416a23.937 23.937 0 0 0 4.16-6.048v13.344h.608c1.024 0 2.24-.576 2.24-.896v-16.768c.832 1.312 1.728 3.04 1.952 4.448 2.272 1.92 4.704-2.592-1.952-5.184v-2.56Zm13.504 13.728v-3.488h3.648v3.488h-3.648Zm-6.176-3.488h3.52v3.488h-3.52v-3.488Zm3.52-4.096v3.168h-3.52v-3.168h3.52Zm6.304 0v3.168h-3.648v-3.168h3.648Zm-7.04-6.944h3.68v2.784h-3.68v-2.784Zm0-3.52h3.68v2.592h-3.68v-2.592Zm9.824 17.728v-6.816c.608-.128 1.088-.384 1.28-.608l-3.072-2.304-1.28 1.536h-3.36v-2.336h8.384c.416 0 .736-.16.832-.512-1.024-.96-2.688-2.272-2.688-2.272l-1.504 1.888h-2.048v-2.784h4.288c.448 0 .736-.16.8-.512-.928-.896-2.528-2.144-2.528-2.144l-1.376 1.728h-1.184v-2.592h4.928c.416 0 .736-.16.832-.512-1.024-.96-2.72-2.272-2.72-2.272l-1.504 1.856h-1.536v-2.08c.672-.128.96-.416 1.024-.832l-3.712-.352v3.264h-3.68v-2.112c.704-.096.96-.384 1.024-.8l-3.68-.352v3.264h-4.064l.256.928h3.808v2.592h-2.944l.256.928h2.688v2.784h-4.736l.256.896h7.872v2.336h-3.36l-2.88-1.248v9.76h-2.784l.256.928h2.528v6.304h.448c1.152 0 2.272-.64 2.272-.928v-5.376h9.824v2.72c0 .448-.128.64-.608.64-.576 0-3.232-.192-3.232-.192v.48c1.312.16 1.952.48 2.336.864.416.384.544 1.024.608 1.792 3.264-.288 3.68-1.376 3.68-3.296v-3.008h2.496c.448 0 .736-.16.8-.512-.8-.96-2.208-2.368-2.208-2.368l-1.088 1.632Zm29.056 4.032h-7.616v-20.32H762c.48 0 .832-.16.928-.512-1.44-1.248-3.712-3.008-3.712-3.008l-2.016 2.592h-19.904l.256.928h10.72v20.32h-13.12l.288.928h28.608c.48 0 .8-.16.896-.512-1.376-1.248-3.712-2.976-3.712-2.976l-2.048 2.56Zm10.496-25.536c1.312 1.12 2.816 2.976 3.328 4.608 3.008 1.824 5.152-3.968-3.04-4.864l-.288.256Zm-2.528 7.2c1.184.992 2.656 2.72 3.104 4.224 2.88 1.728 4.928-3.84-2.848-4.448l-.256.224Zm9.696-3.36c-6.112 13.952-6.112 13.952-6.784 15.168-.32.672-.448.704-.896.704h-1.44v.64c.672.064 1.184.192 1.632.512.768.48.928 3.296.384 6.592.192 1.12.768 1.632 1.472 1.632 1.344 0 2.208-.96 2.272-2.464.096-2.784-1.056-4.064-1.088-5.632-.032-.864.224-1.984.512-3.072.48-1.76 3.072-9.664 4.48-13.952l-.544-.128Zm15.232 9.92h-4.896v-6.752h7.648c.448 0 .768-.16.864-.512-1.248-1.152-3.264-2.784-3.264-2.784l-1.856 2.368h-3.392v-5.408c.832-.128 1.12-.448 1.184-.896l-4.224-.384v6.688h-6.656l.256.928h6.4v6.752h-8.832l.224.928h8.224c-1.216 2.88-4.384 7.744-6.752 9.536-.288.224-1.024.384-1.024.384l1.504 3.808c.288-.128.576-.352.832-.704a255.836 255.836 0 0 0 13.888-3.168c.64 1.28 1.12 2.56 1.376 3.744 3.36 2.656 5.792-4.672-4.608-9.728l-.384.224a44.913 44.913 0 0 1 3.232 4.992c-5.152.416-9.984.736-13.12.896 3.008-2.144 6.464-5.344 8.288-7.712.672.064 1.056-.192 1.216-.48l-3.712-1.792h12c.448 0 .8-.16.864-.512-1.28-1.184-3.392-2.816-3.392-2.816l-1.888 2.4ZM662.757 239.691c-1.58-.62-2.48-1.46-2.48-2.86 0-1.68 1.3-2.56 3.06-2.56.68 0 1.22.12 1.78.44l.56 2.62h1.14l.14-2.86c-.96-.7-2.12-1.16-3.6-1.16-2.76 0-4.88 1.48-4.88 4.02 0 2.2 1.5 3.46 3.78 4.38l.82.34c1.96.78 2.76 1.46 2.76 2.88 0 1.78-1.38 2.74-3.5 2.74-.94 0-1.6-.16-2.3-.54l-.56-2.74h-1.12l-.14 3.08c1 .64 2.6 1.16 4.26 1.16 3.04 0 5.16-1.56 5.16-4.16 0-2.06-1.08-3.28-4-4.44l-.88-.34Zm19.955-5.08.62 2.94h1.06l-.14-3.9h-12.02l-.18 3.9h1.1l.6-2.94h3.44c.04 1.92.04 3.88.04 5.84v1.08c0 1.96 0 3.88-.04 5.78l-2.26.24v.76h6.6v-.76l-2.26-.24c-.04-1.92-.04-3.86-.04-5.78v-1.08c0-1.96 0-3.92.04-5.84h3.44Zm10.482 6.02c0-2.26 0-4.18.04-6.12h1.9c2.3 0 3.34 1.08 3.34 2.96 0 1.82-1.16 3.16-3.5 3.16h-1.78Zm7.22 6.76-1.02-3.44c-.5-1.68-1.24-2.46-2.62-2.76 2.5-.44 3.76-1.98 3.76-3.7 0-2.42-1.96-3.84-5.28-3.84h-6.14v.76l2.04.22c.04 1.92.04 3.86.04 5.82v1.08c0 1.96 0 3.88-.04 5.8l-2.04.22v.76h6.16v-.76l-2.04-.24c-.04-1.88-.04-3.8-.04-5.84h1.16c1.82 0 2.54.4 2.98 2.18l.9 3.48c.24 1.02.86 1.4 2.22 1.4.68 0 1.24-.08 1.66-.22v-.76l-1.7-.16Zm19.775-13.74h-5.24v.76l2.3.3.02 7.14c0 3.92-1.28 5.36-3.84 5.36-2.26 0-3.7-1.22-3.7-4.98v-1.8c0-1.96 0-3.88.04-5.78l2.22-.24v-.76h-6.12v.76l1.84.2c.02 1.92.02 3.88.02 5.82v2.3c0 4.18 2.16 5.9 5.34 5.9 3.02 0 5.14-1.76 5.14-6.26l.02-7.7 1.96-.26v-.76Zm15.172 10.7-.54 2.78c-.84.4-1.7.54-2.52.54-3.14 0-5.34-2.32-5.34-6.7 0-4.36 2.4-6.7 5.42-6.7.74 0 1.48.16 2.24.54l.54 2.8h1.2l-.04-3.22c-1.44-.84-2.92-1.08-4.18-1.08-4.28 0-7.44 3.18-7.44 7.66 0 4.56 3.02 7.66 7.44 7.66 1.56 0 3.02-.32 4.38-1.06l.04-3.22h-1.2Zm16.527-9.74.62 2.94h1.06l-.14-3.9h-12.02l-.18 3.9h1.1l.6-2.94h3.44c.04 1.92.04 3.88.04 5.84v1.08c0 1.96 0 3.88-.04 5.78l-2.26.24v.76h6.6v-.76l-2.26-.24c-.04-1.92-.04-3.86-.04-5.78v-1.08c0-1.96 0-3.92.04-5.84h3.44Zm20.428-.96h-5.24v.76l2.3.3.02 7.14c0 3.92-1.28 5.36-3.84 5.36-2.26 0-3.7-1.22-3.7-4.98v-1.8c0-1.96 0-3.88.04-5.78l2.22-.24v-.76h-6.12v.76l1.84.2c.02 1.92.02 3.88.02 5.82v2.3c0 4.18 2.16 5.9 5.34 5.9 3.02 0 5.14-1.76 5.14-6.26l.02-7.7 1.96-.26v-.76Zm8.687 6.98c0-2.26 0-4.18.04-6.12h1.9c2.3 0 3.34 1.08 3.34 2.96 0 1.82-1.16 3.16-3.5 3.16h-1.78Zm7.22 6.76-1.02-3.44c-.5-1.68-1.24-2.46-2.62-2.76 2.5-.44 3.76-1.98 3.76-3.7 0-2.42-1.96-3.84-5.28-3.84h-6.14v.76l2.04.22c.04 1.92.04 3.86.04 5.82v1.08c0 1.96 0 3.88-.04 5.8l-2.04.22v.76h6.16v-.76l-2.04-.24c-.04-1.88-.04-3.8-.04-5.84h1.16c1.82 0 2.54.4 2.98 2.18l.9 3.48c.24 1.02.86 1.4 2.22 1.4.68 0 1.24-.08 1.66-.22v-.76l-1.7-.16Zm16.597-2.98-.58 2.94h-5.62c-.04-1.94-.04-3.9-.04-6.06h3.32l.3 2.12h.9v-5.16h-.9l-.32 2.16h-3.3c0-1.98 0-3.9.04-5.8h5.2l.58 2.9h1.08l-.12-3.86H794.5v.76l2.04.22c.04 1.92.04 3.86.04 5.82v1.08c0 1.96 0 3.88-.04 5.8l-2.04.22v.76h11.28l.12-3.9h-1.08Z"/><circle cx="426.5" cy="386.811" r="174.5" fill="#fff" fill-opacity=".35"/><path stroke="#fff" d="M584.901 386.615c-.906 88.129-72.839 158.836-160.664 157.933-87.825-.903-158.289-73.075-157.383-161.203.906-88.129 72.84-158.836 160.665-157.933 87.824.903 158.289 73.075 157.382 161.203Z"/><path fill="url(#pattern0)" d="M375 323.031h102v125H375z"/><path stroke="#fff" d="M282.159 523.919a119.39 119.39 0 0 1-37.014 64.109 119.798 119.798 0 0 1-67.756 30.035 120.466 120.466 0 0 1-72.619-15.512 120.468 120.468 0 0 1-49.743-55.134 119.8 119.8 0 0 1-7.867-73.696 119.39 119.39 0 0 1 37.013-64.109 119.8 119.8 0 0 1 67.756-30.035 120.477 120.477 0 0 1 72.62 15.511M562.841 523.919a119.39 119.39 0 0 0 37.014 64.109 119.798 119.798 0 0 0 67.756 30.035 120.466 120.466 0 0 0 72.619-15.512 120.469 120.469 0 0 0 49.743-55.134 119.8 119.8 0 0 0 7.867-73.696 119.395 119.395 0 0 0-37.013-64.109 119.8 119.8 0 0 0-67.756-30.035 120.477 120.477 0 0 0-72.62 15.511M496.407 217.129a119.797 119.797 0 0 0 43.616-59.921 119.384 119.384 0 0 0-.054-74.026 119.802 119.802 0 0 0-43.705-59.858A120.47 120.47 0 0 0 425.601.5a120.469 120.469 0 0 0-70.63 22.928 119.797 119.797 0 0 0-43.616 59.922 119.391 119.391 0 0 0 .055 74.026 119.8 119.8 0 0 0 43.705 59.857M426.5 561v80M573.75 293.567l69.282-40M278.031 294.433l-69.282-40"/></svg>